<svg width="926" height="897" viewBox="0 0 926 897" fill="none" xmlns="http://www.w3.org/2000/svg">
<path d="M811.253 545.425C790.657 542.35 779.49 558.278 766.973 570.15C760.115 576.644 752.333 582.444 744.465 584.699C733.712 587.809 725.283 593.499 717.141 599.917C687.048 623.599 657.309 647.737 627.502 671.776C595.103 697.913 562.771 724.129 530.48 750.363C528.383 752.064 525.296 754.168 525.08 756.326C523.279 774.502 506.719 779.798 496.15 790.266C494.228 792.164 491.876 793.734 489.514 795.118C481.168 800.019 477.881 806.922 480.004 816.572C481.969 825.591 478.109 832.194 470.996 837.773C461.862 844.945 453.393 852.99 444.304 860.222C415.29 883.248 384.265 882.006 352.957 866.105C339.317 859.172 326.969 849.735 313.833 841.784C307.393 837.895 302.938 832.497 299.499 826.055C291.592 811.243 280.189 800.167 265.941 791.099C233.043 770.142 200.814 748.16 168.126 726.883C156.432 719.269 141.748 719.883 129.376 714.266C105.709 703.511 82.4518 691.908 68.591 667.98C66.749 664.776 66.0554 661.82 65.7505 658.41C62.2382 618.7 55.3897 579.519 47.8242 540.437C44.8357 524.972 43.484 509.234 40.9039 493.685C33.5015 449.126 27.1216 404.388 20.2922 359.736C19.9781 357.709 19.6425 355.663 18.9623 353.739C11.7816 333.563 15.3481 322.992 31.9765 310.035C54.5303 292.449 79.3961 280.314 107.595 275.369C147.369 268.407 182.039 250.446 215.416 228.344C267.254 193.992 320.009 160.974 374.151 130.36C401.062 115.143 420.281 92.2863 440.729 70.4165C472.176 36.8379 507.795 12.6557 556.672 19.3271C576.548 22.0486 594.207 31.9878 612.427 39.6888C678.43 67.6175 744.744 94.8279 810.236 124.022C831.038 133.299 852.345 141.6 873.076 151.107C883.04 155.676 890.77 163.253 889.828 174.676C887.938 197.768 889.026 220.971 884.306 244.028C881.255 258.865 884.042 274.816 882.751 290.137C880.283 319.452 881.108 348.985 876.612 378.201C874.238 393.724 876.194 409.575 874.493 425.351C871.961 448.787 871.962 472.523 871.007 496.123C870.629 505.328 866.309 512.595 859.681 518.375C850.232 526.596 840.432 534.444 830.586 542.211C824.96 546.638 817.923 543.936 811.216 545.51L811.253 545.425ZM761.088 177.55C759.947 173.173 758.194 167.363 751.054 164.275C718.757 150.366 686.606 136.078 654.401 121.958C651.929 120.871 649.043 119.002 646.676 121.068C644.132 123.287 646.354 126.265 647.183 128.657C652.01 142.6 663.521 149.109 676.143 154.363C701.089 164.72 725.942 175.288 749.761 188.12C752.629 189.66 755.575 191.114 758.373 189.004C761.351 186.782 761.697 183.193 761.066 177.53L761.088 177.55ZM331.285 433.146C331.285 433.146 331.141 433.154 331.079 433.157C331.12 438.975 330.913 444.807 331.303 450.586C331.507 453.65 330.235 458.465 335.2 458.676C339.419 458.844 340.53 454.492 340.874 451.254C342.403 436.911 341.271 422.585 339.503 408.335C339.185 405.854 338.137 402.443 334.659 402.627C330.543 402.846 330.152 406.767 330.179 409.594C330.204 417.456 330.868 425.305 331.285 433.146ZM617.455 332.172C618.091 337.937 618.462 343.759 619.446 349.465C619.922 352.205 621.911 354.68 625.224 354.111C628.231 353.601 628.262 350.689 628.387 348.371C628.871 338.83 629.189 329.278 629.591 319.742C629.864 313.226 629.952 306.72 628.232 300.372C627.593 298.053 626.941 295.487 623.883 295.422C620.536 295.373 620.399 298.228 620.025 300.519C618.332 310.99 616.618 321.463 617.455 332.172ZM238.904 421.128C237.65 412.278 236.809 403.427 233.495 395.059C232.516 392.551 231.904 389.199 228.491 389.442C224.03 389.782 224.721 393.853 224.807 396.635C225.261 410.625 226.148 424.612 229.599 438.278C230.198 440.62 229.252 444.571 233.458 444.1C236.33 443.782 238.484 441.191 238.689 438.456C239.148 432.714 238.86 426.909 238.883 421.108L238.904 421.128ZM696.971 205.722C696.75 201.565 696.642 199.527 696.534 197.489C696.38 194.587 695.46 191.644 692.404 191.228C689.035 190.767 687.833 194.154 687.281 196.598C684.485 209.233 683.58 222.119 683.193 235.039C683.072 238.596 685.475 241.089 688.707 241.33C692.562 241.621 693.663 238.26 694.01 235.084C695.147 224.621 696.138 214.125 696.992 205.721L696.971 205.722ZM703.652 239.422C703.657 238.349 703.608 239.363 703.662 240.392C703.89 244.673 702.839 250.528 709.172 250.481C715.072 250.415 714.879 244.461 715.113 240.32C715.52 232.827 716.284 225.439 717.48 218.028C718.052 214.427 717.497 210.576 716.991 206.888C716.622 204.204 715.645 200.974 712.651 200.555C708.949 200.029 708.505 204.098 708.082 206.246C706.068 216.508 703.184 226.713 703.633 239.444L703.652 239.422ZM675.828 193.904C675.773 192.875 675.76 191.844 675.665 190.837C675.324 187.14 675.819 182.47 670.817 181.951C665.817 181.453 666.21 186.53 665.785 189.401C664.234 199.845 663.163 210.366 662.256 220.899C662.065 223.117 662.982 225.628 664.02 227.678C665.102 229.788 666.951 231.568 669.792 231.045C672.857 230.47 673.058 228.024 673.258 225.577C674.101 215.027 674.966 204.496 675.829 193.924L675.828 193.904ZM294.784 455.889C294.599 455.899 294.414 455.909 294.208 455.92C294.606 463.412 294.983 470.904 295.403 478.415C295.512 480.474 295.724 482.918 298.333 483.069C301.024 483.215 302.712 481.577 302.973 478.715C304.472 463.032 304.425 447.369 301.782 431.803C301.395 429.574 301.144 426.409 298.054 426.511C294.778 426.623 293.534 429.62 293.599 432.403C293.767 440.237 294.347 448.049 294.764 455.89L294.784 455.889ZM474.056 332.646C474.365 332.629 474.674 332.613 474.962 332.598C474.172 325.106 473.485 317.609 472.53 310.126C472.283 308.199 471.713 305.629 469.307 305.406C466.176 305.118 465.288 308.22 465.109 310.294C463.823 325.718 464.886 341.079 467.265 356.329C467.608 358.519 468.612 361.5 471.719 360.922C474.437 360.406 475.212 357.517 475.15 355.188C474.978 347.663 474.435 340.159 474.036 332.647L474.056 332.646ZM758.661 236.006C758.661 236.006 758.455 236.017 758.371 236C758.209 232.934 758.149 229.862 757.843 226.823C757.576 224.134 757.313 220.742 753.786 220.785C750.713 220.824 749.195 223.712 748.951 226.511C747.889 238.373 746.991 250.227 746.198 262.116C745.933 266.072 748.1 268.785 752.007 269.279C756.91 269.885 757.387 266.042 757.574 262.564C758.033 253.727 758.306 244.879 758.662 236.026L758.661 236.006ZM731.75 209.241C725.621 224.035 724.849 239.432 725.22 254.954C725.297 258.355 727.999 260.647 731.383 260.632C734.932 260.609 735.507 257.07 735.687 254.625C736.569 242.091 739.084 229.594 737.114 216.985C736.649 214.058 736.292 210.837 731.77 209.24L731.75 209.241ZM366.604 407.597C366.44 407.606 366.254 407.616 366.09 407.625C366.452 414.437 366.669 421.257 367.256 428.037C367.465 430.42 366.656 434.219 370.933 433.91C373.831 433.694 374.45 430.957 374.693 428.55C376.25 413.566 375.435 398.604 374.147 383.668C373.919 380.935 373.196 377.423 370.1 377.422C366.55 377.425 365.335 380.978 365.4 384.132C365.609 391.964 366.168 399.777 366.584 407.598L366.604 407.597ZM274.974 303.219C276.602 313.659 278.088 323.775 279.821 333.859C280.663 338.829 283.475 338.928 287.111 336.278C291.126 333.361 290.917 329.43 290.095 325.222C288.573 317.543 287.07 309.842 285.67 302.135C284.858 297.74 284.086 291.363 279.462 291.732C273.235 292.228 276.006 299.325 274.974 303.219ZM393.728 305.065C393.996 305.051 394.284 305.035 394.552 305.021C394.948 312.492 395.16 319.973 395.864 327.407C396.059 329.523 396.479 332.761 399.591 332.679C402.951 332.603 404.17 329.505 404.026 326.809C403.334 312.212 403.112 297.549 400.159 283.134C399.656 280.664 398.77 278.358 395.543 279.004C392.337 279.649 392.539 282.28 392.645 284.669C392.944 291.464 393.366 298.252 393.728 305.065ZM654.924 187.377C654.395 184.413 654.366 181.917 653.487 179.755C652.395 177.068 652.284 172.637 648.717 172.702C645.088 172.771 644.649 177.335 644.395 179.929C643.314 191.441 642.649 203.014 642.396 214.585C642.318 217.768 645.312 220.127 648.683 220.257C652.841 220.429 652.152 216.791 652.411 214.28C653.37 205.127 654.142 195.964 654.923 187.357L654.924 187.377ZM207.118 400.505C206.284 404.615 205.305 407.164 205.336 409.701C205.486 422.242 204.861 434.948 209.827 446.841C210.892 449.406 212.231 453.256 216.172 452.448C220.664 451.529 218.86 447.496 218.716 444.78C217.986 429.875 216.338 415.165 207.098 400.506L207.118 400.505ZM386.23 240.036C386.23 240.036 386.065 240.045 385.962 240.05C386.699 245.77 387.212 251.542 388.277 257.223C388.68 259.369 389.797 262.509 392.726 261.713C394.72 261.174 397.67 258.809 397.708 257.197C398.007 245.334 398.608 233.331 393.228 222.183C392.346 220.351 391.13 218.435 388.603 219.044C386.238 219.603 385.401 221.711 385.426 223.732C385.508 229.177 385.941 234.603 386.23 240.036ZM320.705 314.763C324.409 312.214 328.758 310.558 328.146 306.422C326.542 295.651 327.087 284.538 323.419 274.145C322.471 271.45 321.953 266.359 317.228 267.56C313.277 268.554 313.398 272.778 313.352 276.186C313.161 289.303 317.748 301.443 320.705 314.763ZM250.714 351.627C248.837 341.159 247.471 331.758 245.349 322.501C244.653 319.504 242.903 315.324 238.694 316.126C234.955 316.84 235.166 320.812 235.51 323.787C236.762 334.928 238.22 346.057 239.697 357.166C239.968 359.153 240.374 361.361 243.029 361.612C245.249 361.824 246.843 360.749 248.261 359.084C250.417 356.534 250.904 353.66 250.693 351.628L250.714 351.627ZM308.578 313.384C307.163 304.605 306.054 295.769 304.148 287.098C303.494 284.099 302.324 279.166 298.426 279.621C294.016 280.123 293.437 285.17 293.913 288.694C295.415 299.863 297.328 311.01 299.565 322.057C300.705 327.59 304.203 326.207 306.91 323.174C309.365 320.422 309.196 316.86 308.578 313.384ZM322.455 441.376L321.92 441.404C321.575 434.921 321.334 428.432 320.848 421.998C320.608 419.039 320.67 415.155 316.287 415.409C311.741 415.691 312.679 419.749 312.704 422.554C312.806 436.522 313.093 450.48 313.382 464.458C313.441 467.138 313.118 470.767 316.482 471.145C320.303 471.582 321.57 467.862 321.781 464.837C322.295 457.029 322.272 449.208 322.475 441.375L322.455 441.376ZM655.857 359.626C655.208 367.214 657.593 368.223 663.234 364.456C669.194 360.466 673.696 343.426 669.68 337.757C667.471 334.634 663.92 331.892 660.293 332.394C656.319 332.956 656.466 337.674 656.223 340.866C655.741 347.331 655.941 353.822 655.857 359.626ZM457.243 344.065C457.243 344.065 457.222 344.066 457.202 344.067C456.823 336.925 456.627 329.753 455.982 322.646C455.738 319.996 457.019 315.367 452.434 315.693C448.938 315.941 448.282 319.897 448.448 323.025C449.199 338.341 450.073 353.63 450.948 368.939C451.073 371.285 451.063 374.217 454.288 374.314C457.989 374.427 458.588 371.34 458.502 368.559C458.234 360.4 457.697 352.234 457.265 344.084L457.243 344.065ZM634.094 179.898C633.135 176.213 632.564 171.682 630.721 167.693C628.853 163.602 625.748 163.437 622.906 167.427C617.834 174.528 618.505 194.554 624.363 200.703C625.872 202.295 627.693 204.716 630.456 203.496C632.634 202.534 632.378 200.05 632.56 198.039C633.077 192.232 633.553 186.428 634.093 179.877L634.094 179.898ZM362.142 266.041C362.142 266.041 362.1 266.044 362.08 266.045C361.54 260.934 361.347 255.743 360.337 250.72C359.61 247.126 358.13 242.189 353.802 242.708C349.352 243.233 349.077 248.16 349.672 251.988C351.205 261.813 352.983 271.584 354.864 281.35C355.318 283.679 354.283 287.903 358.522 287.265C361.634 286.79 363.788 283.828 363.626 280.389C363.392 275.593 362.664 270.823 362.143 266.062L362.142 266.041ZM385.482 361.993C384.381 368.078 382.891 372.264 382.987 376.408C383.259 389.685 384.046 402.956 384.771 416.23C384.889 418.453 384.344 421.784 387.415 422.095C390.84 422.45 391.987 419.19 392.032 416.525C392.134 406.014 393.717 395.404 391.595 384.991C390.173 378.028 392.006 370.191 385.503 361.992L385.482 361.993ZM401.061 380.959C401.061 380.959 400.958 380.964 400.917 380.966C401.336 388.849 401.692 396.735 402.215 404.633C402.358 406.937 402.224 409.854 405.578 410.048C408.496 410.202 410.018 408.161 410.041 405.476C410.176 388.978 409.241 372.537 407.237 356.173C406.944 353.774 405.52 351.042 402.734 351.438C399.825 351.861 399.785 354.98 399.868 357.328C400.143 365.218 400.643 373.097 401.062 380.979L401.061 380.959ZM626.75 269.739C627.536 258.903 628.438 249.072 628.886 239.224C629.062 235.169 628.451 231.032 627.884 226.976C627.653 225.337 626.517 223.767 624.506 223.605C622.393 223.449 621.488 225.066 620.955 226.683C616.965 239.01 616.996 251.64 618.803 264.279C619.292 267.658 622.902 268.416 626.728 269.719L626.75 269.739ZM441.571 357.157C441.365 357.168 441.16 357.179 440.954 357.189C440.537 349.348 440.265 341.499 439.622 333.669C439.398 330.998 438.336 327.711 434.983 327.93C431.815 328.119 432.217 331.421 432.295 333.666C432.946 349.029 433.679 364.387 434.535 379.738C434.675 382.373 434.836 385.79 438.666 385.628C443.094 385.434 442.747 381.635 442.672 378.666C442.477 371.494 441.973 364.338 441.593 357.176L441.571 357.157ZM200.552 388.016C205.088 384.431 210.708 382.605 209.591 378.269C206.796 367.623 207.077 356.586 204.186 346.069C203.547 343.75 202.285 340.205 199.007 340.648C195.543 341.1 195.812 344.615 195.787 347.258C195.709 360.554 198.276 373.524 200.572 387.994L200.552 388.016ZM590.841 304.401C590.415 296.374 590.174 289.906 589.687 283.451C589.494 280.985 588.493 278.458 585.487 278.597C582.153 278.774 582.29 281.739 582.328 284.007C582.453 292.194 582.846 300.367 582.992 308.553C583.11 314.677 582.776 320.825 583.101 326.937C583.251 329.757 582.986 334.105 587.108 333.99C590.797 333.897 589.797 329.822 589.934 327.359C590.43 319.2 590.595 311.039 590.841 304.401ZM349.746 417.78C350.284 425.966 348.888 434.275 350.929 442.382C351.347 444.031 351.569 445.898 353.786 446.048C356.127 446.213 358.108 445.034 358.214 442.758C359.07 426.614 357.867 410.579 355.39 394.633C355.081 392.709 353.314 390.532 351.051 391.045C348.787 391.557 348.552 394.129 348.642 396.209C348.941 403.396 349.365 410.597 349.746 417.78ZM229.009 358.394C227.455 349.725 226.202 341.68 224.501 333.742C223.977 331.252 222.823 327.784 219.639 328.077C216.394 328.373 216.212 331.953 215.856 334.572C214.378 345.611 217.805 356.12 219.468 366.826C219.876 369.467 220.155 372.775 224.009 372.281C227.411 371.832 229.391 369.457 229.388 365.907C229.389 363.203 229.121 360.493 229.01 358.414L229.009 358.394ZM468.413 256.311L468.578 256.302C468.287 250.828 468.119 245.326 467.643 239.861C467.457 237.518 467.033 234.589 464.203 234.162C460.354 233.582 459.801 237.161 459.478 239.634C458.034 250.526 457.934 261.47 459.935 272.323C460.372 274.736 459.56 278.865 463.633 278.236C466.5 277.795 469.19 275.217 469.169 271.709C469.144 266.571 468.685 261.436 468.413 256.311ZM417.273 341.11C416.325 360.19 417.127 379.177 420.012 400.076C429.075 388.078 427.121 353.218 417.273 341.11ZM430.726 309.168C435.897 305.488 438.535 301.922 436.832 297.059C434.254 289.724 434.783 282.183 434.26 274.678C433.906 269.557 433.325 264.449 432.663 259.365C432.449 257.664 431.532 255.958 429.393 256.092C427.233 256.228 426.631 258.097 426.679 259.786C427.251 275.999 427.905 292.208 430.704 309.149L430.726 309.168ZM318.787 237.839C317.148 232.229 315.673 226.611 313.792 221.118C312.668 217.834 310.52 214.315 306.557 215.475C302.737 216.607 302.396 220.67 303.035 224.166C304.397 231.544 306.067 238.886 307.592 246.235C308.088 248.582 308.312 251.233 311.649 251.117C314.327 251.016 316.206 249.472 316.897 246.938C317.71 243.984 318.168 240.947 318.786 237.818L318.787 237.839ZM450.639 268.297C450.639 268.297 450.495 268.305 450.413 268.309C450.068 261.805 449.847 255.316 449.296 248.823C449.135 246.974 448.664 244.316 445.99 244.478C443.296 244.663 443.48 247.357 443.23 249.248C441.607 261.842 440.235 274.484 444.137 286.929C444.834 289.183 443.432 293.488 447.774 292.845C451.193 292.333 452.471 288.798 452.345 285.647C452.099 279.84 451.256 274.085 450.66 268.296L450.639 268.297ZM167.146 390.904C165.927 383.89 166.934 376.819 163.043 370.772C162.166 369.415 161.056 367.554 159.762 367.293C157.343 366.823 156.443 369.306 155.712 371.099C152.864 378.082 153.995 385.39 155.797 392.126C157.214 397.438 156.942 407.462 163.276 406.651C172.933 405.437 165.73 396.119 167.145 390.884L167.146 390.904ZM226.515 279.952C227.178 284.271 227.578 289.08 228.732 293.704C229.412 296.413 229.921 300.555 234.063 300.046C238.451 299.503 240.213 296.149 239.858 291.792C239.478 287.354 239.385 282.88 238.616 278.504C237.599 272.573 236.832 263.573 229.887 264.541C222.962 265.507 226.595 274.065 226.514 279.931L226.515 279.952ZM264.799 249.581C265.912 256.167 266.853 262.619 268.141 268.99C268.786 272.196 269.126 276.657 273.821 276.057C278.187 275.495 280.03 271.723 279.439 267.585C278.519 261.153 277.21 254.763 275.678 248.466C274.732 244.636 274.245 238.966 268.973 239.576C263.373 240.224 265.432 245.956 264.8 249.601L264.799 249.581ZM342.252 207.099C342.975 212.55 343.275 217.034 344.249 221.378C344.896 224.234 345.877 227.938 350.17 226.781C353.364 225.91 355.47 223.589 355.005 219.878C354.422 215.121 354.307 210.236 352.952 205.705C351.319 200.219 352.126 190.145 344.632 191.679C338.528 192.931 342.265 202.289 342.253 207.119L342.252 207.099ZM298.674 255.522C296.719 247.473 297.362 238.976 293.319 231.637C292.108 229.431 290.699 226.224 287.323 227.167C284.617 227.909 284.733 230.855 284.443 233.182C283.42 241.512 287.802 249.02 288.031 257.201C288.097 260.005 288.317 264.142 292.763 263.534C297.004 262.937 298.896 259.7 298.694 255.52L298.674 255.522ZM431.37 219.476C431.334 212.584 430.235 205.873 428.074 199.383C427.434 197.436 425.892 195.598 423.592 195.824C421.004 196.064 420.844 198.488 420.682 200.498C420.096 207.34 420.357 214.199 422.295 220.763C423.732 225.661 419.74 235.222 427.872 234.44C435.059 233.749 431.057 224.859 431.392 219.496L431.37 219.476ZM777.874 247.637C777.843 244.316 778.026 241.561 777.739 238.873C777.442 235.999 778.046 231.818 773.813 231.795C769.664 231.789 769.982 235.817 769.748 238.802C768.992 248.274 768.278 257.765 767.647 267.251C767.412 270.607 766.757 274.976 771.379 275.35C776.478 275.76 776.796 271.244 777.005 267.415C777.347 260.627 777.604 253.823 777.895 247.636L777.874 247.637ZM206.577 291.206C207.575 296.004 208.581 301.358 209.834 306.678C210.367 308.941 210.971 312.149 213.803 311.854C216.965 311.542 219.484 308.828 219.496 305.566C219.516 300.117 219.181 294.582 218.155 289.25C217.183 284.162 216.839 276.131 209.966 277.301C203.502 278.388 207.241 285.826 206.598 291.205L206.577 291.206ZM590.73 228.474C590.396 222.176 590.507 218.042 589.841 214.053C589.416 211.496 588.231 208.236 584.905 208.557C582.071 208.831 581.887 211.978 581.638 214.282C580.574 224.555 582.598 234.685 583.14 244.893C583.251 246.972 584.147 249.092 586.764 249.015C589.464 248.933 589.61 246.634 589.998 244.612C591.161 238.523 591.124 232.395 590.73 228.474ZM441.058 183.875C436.943 194.227 437.763 204.606 439.222 214.973C439.553 217.328 440.942 219.773 443.655 219.959C446.183 220.134 448.093 218.402 449.188 216.094C452.238 209.782 447.352 189.691 441.058 183.875ZM372.683 204.925C371.738 198.784 370.875 193.03 369.97 187.258C369.348 183.328 367.724 178.791 363.514 179.572C358.895 180.416 358.368 185.273 359.243 189.705C360.314 195.097 360.936 200.596 362.433 205.841C363.322 208.993 361.891 214.683 367.606 214.256C373.403 213.824 372 208.388 372.683 204.925ZM267.02 337.263C265.486 329.378 263.648 319.63 261.666 309.911C261.221 307.747 261.75 304.107 258.739 304.143C254.943 304.179 255.416 308.035 255.692 310.517C256.909 321.763 258.392 332.974 259.833 344.187C260.183 346.893 260.375 350.495 263.837 350.394C268.267 350.261 267.141 346.152 267.319 343.294C267.412 341.927 267.195 340.556 267.02 337.263ZM199.743 311.755C199.43 305.476 197.366 299.642 195.446 293.8C194.681 291.446 193.771 289.08 190.653 289.452C187.783 289.81 186.816 291.822 186.671 294.534C186.221 303.536 187.717 312.27 190.399 320.816C190.946 322.562 191.871 324.04 193.941 323.765C196.379 323.43 198.934 322.571 199.453 319.902C199.974 317.274 199.68 314.462 199.721 311.735L199.743 311.755ZM426.411 159.906C426.181 158.68 425.735 154.555 424.578 150.653C423.745 147.788 422.457 144.533 418.202 145.626C414.802 146.508 414.387 149.193 414.582 152.092C414.976 157.562 415.185 163.061 415.968 168.468C416.492 172.114 415.199 178.086 421.298 177.494C425.856 177.045 427.286 172.491 426.835 167.891C426.662 166.187 426.654 164.475 426.411 159.906ZM147.331 330.265C150.279 335.248 144.424 346.642 154.269 345.872C164.3 345.091 158.8 334.795 158.18 328.946C157.634 323.733 156.474 314.321 151.286 314.947C144.416 315.787 147.91 324.456 147.331 330.265ZM410.771 268.041C409.051 285.779 409.411 303.448 413.697 320.805C418.708 302.851 412.549 285.593 410.771 268.041ZM369.34 251.954C369.34 251.954 369.525 251.945 369.628 251.939C370.223 257.707 370.799 263.497 371.455 269.241C371.69 271.334 372.337 273.425 374.942 273.494C377.214 273.538 379.406 272.059 379.424 270.056C379.558 258.202 379.359 246.304 375.412 234.935C374.827 233.253 372.976 231.432 370.525 232.305C368.56 233.008 368.542 234.99 368.587 236.618C368.735 241.729 369.088 246.829 369.36 251.953L369.34 251.954ZM277.627 439.835C273.636 454.082 275.606 468.239 277.82 482.342C277.972 483.263 280.542 484.241 282.054 484.346C282.863 484.406 284.526 482.687 284.559 481.757C284.972 467.391 285.548 452.974 277.607 439.857L277.627 439.835ZM127.277 340.123C127.479 343.91 127.426 345.646 127.681 347.325C128.313 351.461 127.448 357.719 133.689 357.078C139.929 356.437 139.621 350.633 138.859 345.617C138.643 344.266 138.67 342.841 138.292 341.54C136.754 336.296 137.641 327.354 130.543 328.164C123.404 328.977 127.742 337.209 127.276 340.102L127.277 340.123ZM256.102 276.255C255.233 268.829 255.016 261.245 252.164 254.173C251.523 252.597 250.74 250.678 248.579 251.577C247.509 252.026 246.146 253.564 246.198 254.552C246.575 264.748 247.097 274.978 249.525 284.942C249.92 286.552 251.882 287.356 253.749 287.133C255.923 286.873 256.41 285.175 256.441 283.419C256.458 281.024 256.229 278.642 256.102 276.255ZM146.787 399.684C144.228 393.091 148.192 380.291 138.062 381.138C130.234 381.802 135.719 393.378 135.209 400.092C135.161 400.735 135.367 401.508 135.705 402.048C137.96 405.643 141.122 409.603 145.26 408.64C150.317 407.463 145.427 402.832 146.765 399.665L146.787 399.684ZM378.551 184.449C378.98 186.697 379.605 191.08 380.718 195.335C381.415 197.96 380.933 202.485 385.465 201.543C388.915 200.823 391.081 197.695 391.106 193.896C391.128 187.703 389.841 181.724 387.473 176.008C386.288 173.12 384.286 169.635 381.191 170.419C378.299 171.15 377.993 175.108 378.2 178.235C378.273 179.593 378.345 180.951 378.532 184.471L378.551 184.449ZM166.814 315.093C167.633 320.023 168.213 325.111 169.423 330.021C170.078 332.628 169.465 337.408 173.784 336.745C178.411 336.024 177.015 331.517 176.723 328.333C176.286 323.609 175.644 318.896 174.756 314.238C173.926 309.865 175.352 302.132 169.686 302.701C164.02 303.291 167.921 310.679 166.794 315.094L166.814 315.093ZM456.007 187.477C456.643 193.635 456.702 197.079 457.456 200.382C457.971 202.708 456.969 206.765 461.002 206.53C464.439 206.348 466.244 203.424 466.062 199.987C465.684 192.866 465.182 185.751 464.414 178.671C464.161 176.249 462.468 173.904 459.847 173.899C456.874 173.891 456.24 176.711 456.077 179.094C455.842 182.821 455.999 186.549 455.988 187.519L456.007 187.477ZM444.829 151.105C443.943 146.859 443.213 142.832 442.218 138.86C441.64 136.538 440.717 133.925 437.661 134.293C434.812 134.651 434.207 137.263 433.756 139.64C432.597 145.811 433.436 151.896 434.727 157.937C435.194 160.12 434.485 163.481 437.617 163.769C440.542 164.047 442.642 161.624 443.513 158.977C444.349 156.456 444.428 153.665 444.829 151.105ZM336.653 257.509C335.691 257.663 334.75 257.816 333.788 257.97C330.471 270.53 334.69 282.731 336.169 295.036C336.423 297.107 337.485 299.218 340.044 298.834C342.583 298.452 343.037 296.116 342.723 294.09C340.796 281.891 338.704 269.701 336.653 257.509ZM330.075 239.365C334.39 227.722 330.099 216.495 328.509 205.207C328.38 204.327 326.541 203.124 325.423 203.06C323.289 202.905 322.652 204.899 322.678 206.57C322.768 217.978 323.39 229.297 330.076 239.386L330.075 239.365ZM809.528 399.452C801.67 412.789 804.62 426.75 807.052 440.676C814.703 427.329 810.883 413.311 809.528 399.452ZM451.544 138.819C452.694 141.813 449.549 149.823 456.832 149.395C463.684 148.989 463.18 141.834 462.449 136.238C462.177 134.209 462.087 132.129 461.488 130.18C460.61 127.254 459.556 123.719 455.703 124.233C452.075 124.715 451.394 128.218 451.21 131.365C451.091 133.394 451.386 135.443 451.565 138.818L451.544 138.819ZM265.371 465.563C264.758 454.409 262.903 450.565 258.363 451.363C251.84 452.515 253.552 457.935 253.83 462.006C254.212 467.641 254.051 475.101 261.926 474.93C267.905 474.798 264.433 468.502 265.351 465.584L265.371 465.563ZM118.481 355.595C116.099 352.316 118.955 341.968 110.823 343.143C103.346 344.201 106.275 353.106 107.161 358.92C107.733 362.688 107.384 368.547 113.166 367.827C118.518 367.172 119.218 362.078 118.461 355.596L118.481 355.595ZM180.641 354.708C177.334 354.616 176.69 356.095 176.504 357.26C174.582 370.035 178.352 382.342 179.821 394.834C180.005 396.351 181.138 397.488 182.606 397.142C184.95 396.584 185.747 394.498 185.488 392.345C183.929 379.693 182.246 367.048 180.641 354.708ZM590.144 165.349C588.707 160.059 591.524 150.931 584.385 150.959C578.587 150.999 579.758 159.832 580.202 165.092C580.644 170.291 577.752 179.195 586.666 178.371C592.992 177.787 589.106 169.903 590.164 165.347L590.144 165.349ZM129.267 597.164C133.445 584.125 124.9 572.463 125.568 559.776C125.635 558.327 123.637 558 122.27 558.3C120.332 558.733 119.207 560.485 119.727 562.109C123.433 573.594 122.496 586.275 129.267 597.164ZM405.836 208.923C400.871 223.469 405.252 237.189 409.265 250.949C410.266 236.758 409.889 222.681 405.836 208.923ZM400.37 153.797C393.385 166.469 399.135 176.4 399.229 186.344C399.249 188.262 399.37 190.939 401.98 191.11C404.921 191.304 406.612 188.552 406.208 186.386C404.314 176.373 405.544 165.72 400.39 153.796L400.37 153.797ZM497.404 253.451C502.65 243.017 501.696 221.17 495.718 212.757C494.727 226.741 492.918 239.324 497.404 253.451ZM151.762 579.643C151.41 574.564 151.352 571.141 148.571 568.523C146.659 566.726 145.334 563.535 141.993 565.137C138.65 566.718 139.854 569.956 140.438 572.402C141.55 577.007 143.009 581.553 144.708 585.962C146.431 590.411 149.058 588.579 150.443 585.905C151.622 583.614 151.591 580.705 151.804 579.662L151.762 579.643ZM679.81 338.457C681.127 341.876 677.988 348.461 683.71 348.157C690.111 347.817 689.792 341.044 689.505 336.023C689.282 331.824 689.326 324.887 684.743 325.255C676.852 325.901 681.168 333.721 679.831 338.456L679.81 338.457ZM159.2 479.911C158.802 474.359 158.279 468.009 152.469 467.43C147.739 466.98 148.346 472.954 149.037 476.261C150.014 481.059 148.561 488.67 156.014 488.707C161.072 488.728 158.655 482.871 159.2 479.911ZM229.125 523.028C227.15 518.097 228.501 510.1 220.749 509.872C215.684 509.728 218.312 515.285 218.642 518.012C219.252 522.892 216.896 530.22 224.898 530.869C229.458 531.246 228.958 526.484 229.124 523.008L229.125 523.028ZM197.516 494.862C196.026 502.557 196.16 508.969 198.629 515.03C199.389 516.909 201.984 518.36 204.054 519.241C205.237 519.756 206.365 518.066 206.263 516.544C205.778 508.954 207.132 500.647 197.516 494.862ZM493.723 154.597C489.856 163.781 491.569 171.554 492.161 179.2C492.236 180.228 493.569 181.623 494.599 181.981C496.071 182.48 497.3 181.136 497.35 179.75C497.65 171.808 498.993 163.667 493.724 154.618L493.723 154.597ZM96.2711 369.55C95.1113 365.587 95.4853 359.417 90.9703 359.512C85.5476 359.614 87.5415 365.679 87.384 369.32C87.2296 372.631 87.393 376.874 92.0163 376.876C96.9289 376.883 96.2098 372.67 96.2711 369.55ZM724.359 354.956C721.343 361.514 723.833 366.81 726.843 372.182C728.369 374.887 729.694 377.294 732.715 374.718C735.005 372.76 735.38 368.942 732.614 367.768C726.639 365.237 725.514 360.385 724.339 354.957L724.359 354.956ZM496.553 115.005C496.095 111.418 496.131 106.276 492.045 107.071C486.938 108.065 488.726 113.749 488.765 117.586C488.792 120.433 488.471 125.259 492.405 124.72C497.795 124 496.183 118.533 496.552 114.985L496.553 115.005ZM501.605 330.213C502.452 330.23 503.319 330.245 504.167 330.262L501.928 288.112C500.028 289.637 499.575 291.209 499.655 292.732C500.257 305.228 500.941 317.72 501.605 330.213ZM788.214 256.562C792.593 255.462 794.286 252.359 796.556 250.03C798.416 248.136 798.91 245.777 797.553 243.538C797.033 242.678 795.292 242.151 794.138 242.192C791.645 242.283 790.997 244.443 790.504 246.43C789.724 249.629 789.049 252.844 788.213 256.541L788.214 256.562ZM813.993 337.792C811.198 344.235 805.975 350.828 814.39 357.708C817.851 350.59 816.769 344.208 813.993 337.792ZM185.709 413.984C184.693 422.067 183.812 428.409 187.48 434.509C187.705 434.868 189.907 434.751 190.092 434.349C192.716 428.555 189.456 423.135 188.765 417.516C188.685 416.778 187.64 416.152 185.728 413.962L185.709 413.984ZM728.158 395.001C724.573 395.522 724.073 398.149 724.184 401.012C724.331 404.183 725.892 406.37 729.304 405.714C732.818 405.032 732.803 402.02 732.47 399.251C732.173 396.769 731.454 394.496 728.158 395.001ZM112.202 494.646C109.789 499.335 110.556 504.062 112.698 508.654C113.328 510.024 115.369 509.978 116.041 508.642C118.521 503.639 117.778 498.973 113.848 494.93C113.673 494.753 113.243 494.818 112.202 494.646Z" fill="white"/>
</svg>
