<svg width="56" height="56" viewBox="0 0 56 56" fill="none" xmlns="http://www.w3.org/2000/svg">
<path d="M16.1007 48.3001V39.6475C13.9157 37.6541 12.2198 35.4139 11.0131 32.9269C9.80635 30.4398 9.20222 27.8868 9.20068 25.2679C9.20068 20.1664 10.9893 15.8294 14.5666 12.2567C18.1439 8.68406 22.4886 6.89849 27.6007 6.90003C31.7438 6.90003 35.4882 8.16119 38.8339 10.6835C42.1797 13.2059 44.3493 16.4642 45.3429 20.4585L47.7257 29.8955C47.8791 30.4781 47.7702 31.0087 47.3991 31.4871C47.0281 31.9624 46.5328 32.2001 45.9133 32.2001H41.4007V39.9856C41.4007 41.0068 41.0366 41.8808 40.3082 42.6076C39.5799 43.3344 38.7059 43.6986 37.6862 43.7001H32.2007V48.3001H29.9007V41.4001H37.6862C38.0987 41.4001 38.4376 41.2674 38.7028 41.0022C38.9681 40.7369 39.1007 40.398 39.1007 39.9856V29.9001H45.3107L43.1257 20.9875C42.2441 17.4701 40.3504 14.6257 37.4447 12.4545C34.5437 10.2849 31.2623 9.20003 27.6007 9.20003C23.154 9.20003 19.359 10.7564 16.2157 13.869C13.0724 16.9848 11.5007 20.7721 11.5007 25.2311C11.5007 27.5219 11.9707 29.6992 12.9106 31.7631C13.849 33.8269 15.1807 35.6608 16.9057 37.2647L18.4007 38.6401V48.3001H16.1007ZM27.1568 36.3585C27.6321 36.3585 28.0316 36.1975 28.3551 35.8755C28.6771 35.5535 28.8381 35.1548 28.8381 34.6795C28.8381 34.2041 28.6771 33.8047 28.3551 33.4812C28.0331 33.1576 27.6344 32.9966 27.1591 32.9982C26.6838 32.9997 26.2851 33.1599 25.9631 33.4789C25.6411 33.7978 25.4793 34.1965 25.4778 34.6749C25.4763 35.1533 25.6373 35.5527 25.9608 35.8732C26.2843 36.1936 26.683 36.3569 27.1568 36.3585ZM26.1862 30.0588H28.2332C28.2332 29.3657 28.3796 28.7071 28.6725 28.0831C28.9669 27.4605 29.4974 26.7422 30.2641 25.928C30.9235 25.192 31.5498 24.4452 32.1432 23.6878C32.7366 22.9303 33.0333 22.0225 33.0333 20.9645C33.0333 19.5278 32.4982 18.3134 31.4279 17.3213C30.3592 16.3293 28.9937 15.8332 27.3316 15.8332C26.0635 15.8332 24.902 16.1713 23.8471 16.8475C22.7922 17.5237 22.001 18.423 21.4735 19.5454L23.3089 20.3826C23.6953 19.5976 24.2534 18.9689 24.9833 18.4966C25.7132 18.0213 26.4952 17.7836 27.3293 17.7836C28.3505 17.7836 29.213 18.0796 29.9168 18.6714C30.6206 19.2633 30.9725 20.0277 30.9725 20.9645C30.9725 21.8293 30.7103 22.5707 30.1859 23.1887C29.663 23.8051 29.0903 24.4391 28.4678 25.0908C27.7011 25.8666 27.1292 26.6571 26.752 27.4621C26.3748 28.2671 26.1862 29.1311 26.1862 30.0588Z" fill="white"/>
</svg>
