<svg width="58" height="58" viewBox="0 0 58 58" fill="none" xmlns="http://www.w3.org/2000/svg">
<circle cx="29" cy="29" r="28.5" stroke="#959595"/>
<path d="M29 16.5C22.1 16.5 16.5 22.1 16.5 29C16.5 35.9 22.1 41.5 29 41.5C35.9 41.5 41.5 35.9 41.5 29C41.5 22.1 35.9 16.5 29 16.5ZM34.8 25C34.6125 26.975 33.8 31.775 33.3875 33.9875C33.2125 34.925 32.8625 35.2375 32.5375 35.275C31.8125 35.3375 31.2625 34.8 30.5625 34.3375C29.4625 33.6125 28.8375 33.1625 27.775 32.4625C26.5375 31.65 27.3375 31.2 28.05 30.475C28.2375 30.2875 31.4375 27.375 31.5 27.1125C31.5087 27.0727 31.5075 27.0315 31.4966 26.9923C31.4857 26.953 31.4654 26.9171 31.4375 26.8875C31.3625 26.825 31.2625 26.85 31.175 26.8625C31.0625 26.8875 29.3125 28.05 25.9 30.35C25.4 30.6875 24.95 30.8625 24.55 30.85C24.1 30.8375 23.25 30.6 22.6125 30.3875C21.825 30.1375 21.2125 30 21.2625 29.5625C21.2875 29.3375 21.6 29.1125 22.1875 28.875C25.8375 27.2875 28.2625 26.2375 29.475 25.7375C32.95 24.2875 33.6625 24.0375 34.1375 24.0375C34.2375 24.0375 34.475 24.0625 34.625 24.1875C34.75 24.2875 34.7875 24.425 34.8 24.525C34.7875 24.6 34.8125 24.825 34.8 25Z" fill="#959595"/>
</svg>
