<svg width="1608" height="213" viewBox="0 0 1608 213" fill="none" xmlns="http://www.w3.org/2000/svg">
<path fill-rule="evenodd" clip-rule="evenodd" d="M11.2655 0C14.3695 5.78876 16.45 10.5535 16.45 13.2C16.45 14.6619 15.3946 15.9731 14.2634 17.3783C12.9572 19.001 11.55 20.7492 11.55 23C11.9572 29.2439 12.6276 35.4878 13.2958 41.7112C14.3507 51.5351 15.4 61.3081 15.4 70.95C15.4 74.3984 14.1416 74.7009 11.1656 75.4162C8.70477 76.0078 5.06944 76.8816 0 80.05C0.286668 80.695 0.558662 81.3694 0.834009 82.052C1.90338 84.7033 3.02334 87.48 5.25 89.15C6.50406 90.404 8.38218 90.7844 10.3626 91.1855C11.6986 91.456 13.0811 91.736 14.35 92.3C20.2832 95.4228 20.0869 122.228 19.9756 137.416C19.9622 139.251 19.95 140.916 19.95 142.35C19.8902 142.35 19.81 142.309 19.7181 142.262C19.2719 142.035 18.55 141.667 18.55 145.15C18.55 151.1 19.6 164.4 31.5 164.4C39.8349 164.4 46.3976 130.728 50.5421 109.463C51.2706 105.725 51.9244 102.371 52.5 99.65C53.9 93 56.35 88.8 61.95 88.8C62.7808 88.8 63.8308 89.0191 65.1 89.284C65.4347 89.3539 65.7847 89.4269 66.15 89.5C78.4 92.65 91 93.7 103.25 93.7C114.319 93.7 125.169 92.8249 136.146 91.9395C139.053 91.705 141.969 91.4698 144.9 91.25C149.8 91.25 151.2 92.3 151.2 96.15C151.2 116.035 157.915 132.132 165.066 149.271C168.11 156.568 171.233 164.053 173.95 172.1C175.121 175.696 176.112 179.891 177.128 184.194C180.366 197.9 183.861 212.7 194.25 212.7C200.2 212.7 203 208.15 203 201.5C203 199.05 202.65 196.6 201.95 194.5C195.3 175.95 188.65 157.4 181.65 138.85C180.701 136.294 179.629 133.615 178.528 130.863C174.352 120.425 169.75 108.921 169.75 98.95C169.75 88.3025 173.289 87.4297 177.597 86.3671C182.069 85.2642 187.369 83.9569 190.4 71.3C190.75 70.25 184.8 66.05 182 66.05C181.014 66.05 180.139 66.1611 179.375 66.2582C178.783 66.3333 178.258 66.4 177.8 66.4C173.95 66.4 172.9 65 172.9 62.55C172.9 60.3163 173.842 57.8471 174.771 55.4156C175.442 53.6561 176.106 51.9163 176.4 50.3C182.932 33.5333 189.329 16.7667 195.675 0H177.396C175.322 5.69181 173.236 11.3709 171.15 17.05C170.183 19.6928 168.943 23.226 167.537 27.2319C161.31 44.9774 151.827 72 148.4 72C140.165 72.1647 131.929 72.9495 123.694 73.7343C114.429 74.6171 105.165 75.5 95.9 75.5C79.8 75.5 60.2 74.8 54.25 58.35C46.7701 38.6807 37.9746 19.2307 29.0784 0H11.2655ZM273.578 0C272.507 4.78421 271.597 9.20455 270.903 12.85C267.053 11.45 262.503 10.4 258.303 10.4C253.053 10.4 247.453 12.15 247.453 18.45C246.753 23.35 254.103 27.9 267.403 30.35C265.688 37.7816 263.413 45.2133 261.126 52.6815C256.413 68.0753 251.653 83.6246 251.653 99.65C251.653 101.75 251.828 103.938 252.003 106.125C252.178 108.312 252.353 110.5 252.353 112.6C251.639 112.396 250.895 112.132 250.13 111.861C248.27 111.203 246.287 110.5 244.303 110.5C243.253 110.5 242.553 110.5 241.503 110.85L236.953 120.3V120.65C236.953 127.613 242.274 129.256 247.594 130.898C249.495 131.484 251.395 132.071 253.053 132.9C253.053 134.65 251.653 149.35 250.253 161.25C249.41 167.426 249.469 174.053 249.525 180.408C249.539 181.975 249.553 183.526 249.553 185.05C249.553 190.3 254.103 196.25 259.353 196.25C270.205 196.25 269.259 180.52 268.668 170.686C268.554 168.785 268.453 167.104 268.453 165.8C268.453 159.15 268.803 151.8 269.503 144.8C272.704 145.867 276.037 146.469 279.359 147.069C283.665 147.847 287.951 148.622 291.903 150.4C325.153 164.4 361.553 172.8 397.953 172.8C403.903 172.8 410.553 170 410.553 163.35C410.553 153.55 399.703 152.85 392.353 152.85C349.303 152.85 308.003 138.5 270.203 119.25C269.853 114 269.503 108.4 269.503 103.15C269.503 84.699 274.762 66.6687 279.898 49.0592C281.387 43.9541 282.865 38.8844 284.203 33.85C293.282 36.7553 302.926 38.2475 312.598 39.744C321.569 41.132 330.563 42.5237 339.153 45.05C347.084 47.4501 354.952 50.0058 362.814 52.5593C381.321 58.5704 399.792 64.5696 418.953 68.5C420.703 70.25 422.803 71.3 425.253 71.3C430.503 71.3 436.103 65.7 436.103 60.45C436.103 55.9 432.253 51.7 428.053 50.65C411.242 47.172 394.965 41.9871 378.691 36.8034C365.487 32.5975 352.285 28.3923 338.803 25.1C330.578 23.175 322.178 21.95 313.778 20.725C305.378 19.5 296.978 18.275 288.753 16.35V13.55C288.753 12.2189 290.301 6.82949 292.413 0H273.578ZM509.615 0C509.652 1.10113 509.692 2.20507 509.732 3.3113C509.909 8.2109 510.087 13.1554 510.087 18.1C510.087 46.5439 505.982 75.6193 501.907 104.478C499.915 118.587 497.931 132.644 496.437 146.55C496.388 147.04 496.339 147.53 496.291 148.019C495.308 157.995 494.36 167.609 487.687 175.95C486.987 176.65 486.637 178.05 486.637 179.45C486.637 184.7 490.487 186.8 495.037 186.8C505.702 186.8 511.086 173.598 515.986 161.583C517.518 157.826 519.003 154.185 520.587 151.1C523.212 145.85 526.187 140.775 529.162 135.7C532.137 130.625 535.112 125.55 537.737 120.3C544.387 106.3 552.787 94.4 563.637 83.55C580.437 66.75 596.187 49.25 610.887 31.05C618.587 21.25 629.087 11.8 643.087 11.8C646.587 11.8 647.987 13.55 647.987 20.55C647.987 33.6315 648.595 46.3654 649.206 59.1414C649.82 72.0023 650.437 84.906 650.437 98.25C650.437 114.35 649.387 130.1 643.087 144.1C642.737 144.45 642.737 144.8 642.737 145.15C642.737 149.7 645.537 156.35 651.487 156.35C663.737 156.35 665.137 135 665.137 117.15C665.137 109.588 665.035 103.763 664.941 98.4041C664.861 93.8416 664.787 89.6179 664.787 84.95C664.787 81.4927 664.958 77.95 665.13 74.3641C665.307 70.6896 665.487 66.9698 665.487 63.25C665.487 55.025 664.612 46.625 663.737 38.225C662.862 29.825 661.987 21.425 661.987 13.2C661.987 4.50211 668.604 2.05352 674.007 0.0539638C674.056 0.0359408 674.104 0.0179543 674.153 0H619.424C606.136 5.01138 595.812 19.0304 585.214 33.4219C577.821 43.4601 570.295 53.6796 561.537 61.15C542.987 77.25 528.287 95.1 519.887 117.85C519.609 118.962 518.889 119.632 518.078 120.387C517.869 120.583 517.653 120.784 517.437 121C517.437 120.3 517.349 119.6 517.262 118.9C517.174 118.2 517.087 117.5 517.087 116.8C521.8 78.0866 526.513 39.0495 530.914 0H509.615ZM722.892 0C719.769 2.13185 716.674 4.65097 716.674 7.59998C716.674 11.7757 719.783 12.4442 723.033 13.1431C726.594 13.9087 730.324 14.7109 730.324 20.2C730.324 38.9715 728.751 58.0577 727.187 77.0366C726.418 86.367 725.651 95.6715 725.074 104.9C724.733 109.849 723.31 114.381 721.941 118.741C720.503 123.324 719.124 127.716 719.124 132.2C719.124 140.25 721.924 147.6 729.624 154.25C733.824 158.1 735.924 162.3 735.924 166.5C735.924 169.52 734.031 172.54 732.166 175.514C730.356 178.4 728.574 181.242 728.574 184C728.574 186.8 732.424 189.6 735.924 189.6C738.024 189.6 755.174 169.3 755.174 165.45C755.174 164.4 754.124 161.95 753.424 160.55C751.934 158.119 750.268 155.634 748.58 153.117C742.735 144.402 736.624 135.29 736.624 126.6C736.624 112.243 738.171 97.9973 739.713 83.7996C740.915 72.7301 742.114 61.6901 742.574 50.65C742.874 48.35 743.231 46.0499 743.589 43.7499C744.481 37.9999 745.374 32.25 745.374 26.5C745.374 13.696 751.511 5.02257 759.947 0H722.892ZM789.24 0C789.438 0.303729 789.632 0.620391 789.824 0.949985C796.824 12.85 806.624 21.95 819.574 27.55C824.474 29.65 827.274 32.45 827.274 35.25C827.274 47.5 802.424 58.35 786.674 58.35C782.824 58.35 778.712 57.125 774.599 55.9C770.487 54.675 766.374 53.45 762.524 53.45C757.624 53.45 753.424 56.25 752.024 61.85C752.024 70.25 770.924 74.8 781.074 74.8C804.874 74.8 846.874 58 846.874 29.65C846.874 26.5 844.074 21.6 841.624 20.55C829.645 15.3089 818.911 9.17803 810.438 0H789.24ZM876.852 0C876.56 0.68545 876.321 1.35307 876.14 1.99999C867.832 10.3087 866.929 19.5835 866.008 29.0599C865.571 33.5551 865.129 38.0957 863.89 42.6C863.332 44.6094 862.631 46.5477 861.936 48.4715C860.451 52.5792 858.99 56.6211 858.99 61.15C858.99 94.05 871.94 110.15 899.94 125.55C901.307 126.266 902.612 126.909 903.867 127.527C909.36 130.232 913.866 132.451 918.14 138.15C921.534 142.676 923.649 146.287 925.511 149.469C929.411 156.129 932.208 160.907 943.34 168.25C947.89 171.4 951.04 173.15 956.64 172.1C958.04 172.8 959.79 173.15 961.19 173.15C965.74 173.15 982.89 160.55 986.39 157.05C989.19 154.25 992.34 149.35 994.44 145.85C1004.24 141.65 1016.49 124.85 1021.39 115.4C1023.95 113.631 1025.95 110.428 1027.96 107.215C1029.53 104.706 1031.1 102.192 1032.94 100.35C1035.02 98.4461 1038.29 95.9002 1042.05 92.9821C1053.48 84.099 1069.34 71.7672 1069.34 63.6C1069.34 61.1445 1068.26 58.689 1067.29 56.4695C1067.15 56.1581 1067.02 55.8514 1066.89 55.55C1063.39 48.2 1056.74 29.65 1056.74 21.95C1056.74 16.5113 1053.82 5.80874 1050.91 0H992.096C996.448 7.16666 1011.9 10.75 1017.89 10.75C1021.04 10.75 1031.89 10.4 1033.99 8.29999C1035.5 13.1921 1036.7 18.4887 1037.87 23.6462C1038.87 28.0825 1039.86 32.4157 1040.99 36.3C1042.38 41.163 1044.54 46.026 1046.65 50.7877C1047.73 53.2228 1048.79 55.6314 1049.74 58L1050.09 61.15C1040.29 70.25 1030.14 79 1019.99 87.75C1013.28 93.4551 1006.24 105.918 1001.67 114.03C1001.47 114.378 1001.28 114.719 1001.09 115.05C998.772 119.265 992.646 124.495 986.764 129.518C982.877 132.837 979.097 136.065 976.59 138.85C971.34 145.15 966.09 150.75 958.74 154.6C957.248 153.854 955.806 153.257 954.42 152.683C950.604 151.104 947.215 149.701 944.39 145.85C942.866 144.021 941.873 141.66 940.948 139.463C940.811 139.138 940.676 138.816 940.54 138.5C932.49 119.95 916.39 110.85 898.54 103.5C897.49 102.45 896.178 101.75 894.865 101.05C893.553 100.35 892.24 99.65 891.19 98.6C881.74 90.2 876.49 76.55 876.49 64.65C876.14 53.8 881.74 29.3 886.29 18.1L886.86 17.3226C890.823 11.9169 895.307 5.79817 900.329 0H876.852ZM1145.21 0C1144.72 3.68881 1144.47 7.19696 1144.47 10.4C1144.47 21.6 1144.73 32.8875 1144.99 44.175C1145.25 55.4625 1145.52 66.75 1145.52 77.95C1145.52 79.7 1145.17 81.45 1144.47 83.2C1142.26 87.7695 1140.08 92.3556 1137.91 96.9403C1130.09 113.425 1122.28 129.891 1112.97 145.5C1111.57 143.75 1110.08 142.087 1108.59 140.425C1107.1 138.762 1105.62 137.1 1104.22 135.35C1103.38 134.235 1102.67 132.923 1101.95 131.597C1099.95 127.927 1097.9 124.15 1093.02 124.15C1082.87 124.15 1067.47 126.95 1067.47 135.7C1067.47 140.6 1070.62 144.1 1077.97 144.1C1080.37 144.1 1082.77 143.828 1084.58 143.623C1085.67 143.499 1086.54 143.4 1087.07 143.4C1090.51 146.976 1094.05 151.903 1097.41 156.567C1102.6 163.772 1107.33 170.35 1110.52 170.35C1112.62 170.35 1114.37 169.3 1116.47 166.85C1127.36 153.522 1133.81 138.18 1140.32 122.714C1145.95 109.345 1151.62 95.8831 1160.22 83.55C1161.62 81.45 1161.62 77.6 1161.62 74.45V3.4C1161.62 2.39801 1161.68 1.25458 1161.79 0H1145.21ZM1206.68 0C1206.98 1.7225 1207.12 3.55174 1207.12 5.49999C1207.12 8.01714 1206.83 10.5343 1206.52 13.3057C1206.49 13.6172 1206.45 13.9318 1206.42 14.25C1202.2 44.6875 1199.8 75.6439 1197.42 106.226C1197.04 111.161 1196.66 116.087 1196.27 121C1195.91 125.304 1195.43 129.567 1194.95 133.803C1194.03 141.969 1193.12 150.034 1193.12 158.1C1193.12 160.9 1193.47 164.05 1193.82 166.85C1194.87 171.75 1205.02 194.15 1208.17 194.15C1215.52 194.15 1223.92 188.2 1223.92 179.8C1223.92 177 1223.22 174.2 1221.82 173.15C1212.02 164.4 1209.57 153.2 1209.57 142C1209.57 117.891 1212.64 92.8221 1215.65 68.2153C1216.71 59.5998 1217.76 51.0411 1218.67 42.6C1219.26 36.3494 1220.62 29.909 1221.98 23.4403C1223.63 15.572 1225.3 7.66175 1225.61 0H1206.68ZM1278.23 0C1272.84 15.1131 1269.2 30.6832 1269.2 46.45C1269.2 55.2 1270.6 64.3 1274.45 73.4C1274.73 74.0633 1275.02 74.7203 1275.31 75.376C1277.17 79.564 1279 83.7029 1279 89.15C1279 92.3 1278.3 95.45 1276.9 99.3C1269.8 118.152 1265.44 138.031 1261.06 157.979C1259.18 166.549 1257.3 175.131 1255.2 183.65C1256.95 183.65 1257.65 184.35 1257.65 186.45C1257.65 187.15 1257.56 187.938 1257.47 188.725C1257.39 189.513 1257.3 190.3 1257.3 191C1257.3 196.25 1260.8 200.45 1266.4 200.45C1287.05 200.45 1303.85 125.9 1303.85 110.15C1303.85 107.567 1303.51 104.815 1303.17 102.019C1302.81 99.1307 1302.45 96.1952 1302.45 93.35C1302.45 89.5 1311.55 88.45 1320.65 88.45C1326.71 88.45 1331.23 88.5525 1335.38 88.6466C1338.9 88.7263 1342.16 88.8 1345.85 88.8C1356 88.8 1382.95 128 1392.75 145.15C1394.76 148.791 1396.54 153.324 1398.36 157.988C1403.21 170.359 1408.42 183.65 1419.35 183.65C1422.15 183.65 1426.35 179.1 1426.35 172.8C1423.89 167.541 1421.68 162.158 1419.46 156.782C1412.55 139.975 1405.67 123.228 1391.35 110.5C1386.45 106.3 1380.5 99.3 1380.5 93.35C1380.5 90.1758 1381.3 87.2008 1382.04 84.425C1382.69 81.9977 1383.3 79.7226 1383.3 77.6C1383.3 75.15 1380.15 72.7 1375.25 72.7C1374.76 72.7 1374.2 72.7754 1373.6 72.8562C1372.9 72.9495 1372.15 73.05 1371.4 73.05C1363.52 73.05 1362.12 70.0716 1359.94 65.4539C1358.54 62.48 1356.82 58.8261 1352.85 54.85C1336.93 39.1459 1328.48 20.0438 1322 0H1303.69C1304.23 2.11169 1304.74 4.30136 1305.24 6.461C1306.35 11.2226 1307.42 15.8381 1308.75 19.15C1315.44 35.72 1324.74 48.5185 1335.34 63.0923C1336.38 64.526 1337.43 65.9767 1338.5 67.45C1338.5 72.7 1331.15 73.05 1323.8 73.05C1323.32 73.05 1322.69 73.0682 1322.01 73.0881C1319.72 73.1551 1316.8 73.2402 1316.8 72.7C1314.08 72.7 1311.68 72.8078 1309.55 72.9037C1307.84 72.9807 1306.3 73.05 1304.9 73.05C1290.55 73.05 1287.75 70.25 1287.75 43.65C1287.75 29.2942 1290.37 14.1307 1294.24 0H1278.23ZM1472.14 0C1471.38 1.09894 1470.41 2.20256 1469.43 3.31474C1467.21 5.84998 1464.94 8.42972 1464.94 11.1C1464.94 20.2892 1465.48 29.4784 1466.01 38.5776C1466.53 47.5 1467.04 56.3358 1467.04 65C1467.04 75.5 1463.54 80.4 1453.04 85.65C1448.49 88.1 1447.09 90.2 1447.09 92.65C1447.09 94.4 1448.84 96.85 1451.64 99.65C1456.89 105.6 1457.94 115.75 1457.94 125.2C1457.94 126.76 1457.99 128.312 1458.03 129.841C1458.25 138.263 1458.46 146.011 1451.64 150.75C1451.29 151.1 1450.94 152.15 1450.94 153.2C1450.94 168.132 1480.86 171.755 1503.59 174.508C1508.57 175.111 1513.2 175.672 1517.09 176.3C1545.79 170.7 1583.24 156.7 1583.24 120.65C1583.24 84.6 1538.79 70.25 1510.79 70.25C1507.16 70.25 1503.44 70.6774 1499.68 71.1097C1495.83 71.5523 1491.94 72 1488.04 72C1484.19 72 1483.14 70.25 1483.14 65.7C1483.14 64.5699 1483.14 63.4605 1483.14 62.3709C1483.13 32.8539 1483.13 17.879 1491.85 0H1472.14ZM1556.41 0C1560.11 2.41243 1564.55 5.52024 1569.17 8.75349C1581.24 17.1988 1594.53 26.5 1598.99 26.5C1602.14 26.5 1607.04 20.9 1607.04 15.65C1607.04 12.15 1604.59 9.7 1600.74 7.24999C1597.08 5.03691 1593.34 2.57187 1589.55 0H1556.41ZM36.6262 72.3995C36.5495 72.5013 36.4739 72.6015 36.4 72.7C33.3829 66.6658 32.9666 64.0127 32.2366 59.3599C32.1198 58.6152 31.9949 57.8192 31.85 56.95C32.025 56.95 32.1125 56.8625 32.2 56.775C32.2875 56.6875 32.375 56.6 32.55 56.6C32.375 55.025 32.2875 53.45 32.2 51.875C32.1125 50.3 32.025 48.725 31.85 47.15C35.35 54.5 37.8 59.75 38.85 68.15C38.85 69.4515 37.6401 71.0555 36.6262 72.3995ZM1564.69 116.8C1564.69 143.05 1532.84 152.85 1517.79 156.35C1511.78 155.579 1506.24 155.011 1500.94 154.468C1494.2 153.779 1487.85 153.129 1481.39 152.15C1476.84 151.45 1475.79 141.65 1475.79 132.9C1475.79 131.198 1475.79 129.577 1475.79 128.031C1475.74 99.0438 1475.74 96.5664 1494.34 91.25C1501.69 89.15 1508.69 88.1 1516.04 88.1C1534.24 88.1 1564.69 97.2 1564.69 116.8Z" fill="black"/>
</svg>
