<svg width="487" height="688" viewBox="0 0 487 688" fill="none" xmlns="http://www.w3.org/2000/svg">
<g clip-path="url(#clip0_57_982)">
<rect width="486.176" height="688" fill="#2051FF"/>
<path d="M47.4815 345.047L53.6257 329.519H57.1686L48.9497 348.877C48.7157 349.42 48.455 349.947 48.1677 350.457C47.8805 350.957 47.5294 351.404 47.1145 351.798C46.6995 352.191 46.1835 352.505 45.5664 352.739C44.96 352.973 44.2046 353.091 43.3002 353.091C43.0449 353.091 42.7417 353.075 42.3906 353.043C42.0395 353.021 41.8107 352.995 41.7043 352.963L41.8001 350.505C41.9171 350.526 42.1459 350.548 42.4863 350.569C42.8268 350.58 43.0768 350.585 43.2364 350.585C43.8429 350.585 44.3216 350.463 44.6727 350.218C45.0238 349.973 45.3058 349.665 45.5186 349.292C45.742 348.909 45.9441 348.521 46.125 348.127L47.4815 345.047ZM42.2629 329.519L48.7263 343.994L49.4923 346.851L46.907 347.042L38.8158 329.519H42.2629ZM67.4941 342.143L59.1954 329.519H62.8022L68.9783 339.589H73.3511L72.8564 342.143H67.4941ZM69.1539 341.903L62.4032 352.755H58.573L67.2069 339.254L69.1539 341.903ZM74.6757 329.519V352.755H71.6275V329.519H74.6757ZM86.9961 329.519L78.6654 342.143H73.4628L72.984 339.589H77.1972L83.3734 329.519H86.9961ZM83.7723 352.755L77.0376 341.903L79.0006 339.254L87.6025 352.755H83.7723ZM105.285 350.25V352.755H92.9807V350.25H105.285ZM93.6031 329.519V352.755H90.523V329.519H93.6031ZM103.657 339.509V342.015H92.9807V339.509H103.657ZM105.126 329.519V332.041H92.9807V329.519H105.126ZM126.144 329.391V352.755H123.191V333.078L117.238 335.248V332.583L125.681 329.391H126.144ZM149.412 339.286V342.829C149.412 344.733 149.242 346.34 148.901 347.648C148.561 348.957 148.071 350.01 147.433 350.808C146.795 351.606 146.023 352.186 145.119 352.548C144.225 352.899 143.214 353.075 142.087 353.075C141.193 353.075 140.368 352.963 139.613 352.739C138.858 352.516 138.177 352.16 137.57 351.67C136.974 351.17 136.464 350.521 136.038 349.723C135.613 348.925 135.288 347.957 135.065 346.819C134.841 345.68 134.73 344.35 134.73 342.829V339.286C134.73 337.382 134.9 335.786 135.24 334.498C135.591 333.211 136.086 332.179 136.724 331.402C137.363 330.615 138.129 330.051 139.022 329.711C139.927 329.37 140.938 329.2 142.055 329.2C142.959 329.2 143.789 329.312 144.544 329.535C145.31 329.748 145.991 330.094 146.587 330.572C147.183 331.04 147.688 331.668 148.103 332.455C148.529 333.232 148.853 334.184 149.077 335.312C149.3 336.44 149.412 337.765 149.412 339.286ZM146.443 343.308V338.791C146.443 337.749 146.38 336.834 146.252 336.046C146.135 335.248 145.959 334.567 145.725 334.004C145.491 333.44 145.193 332.982 144.832 332.631C144.48 332.28 144.071 332.025 143.603 331.865C143.145 331.695 142.629 331.61 142.055 331.61C141.353 331.61 140.73 331.743 140.187 332.009C139.645 332.264 139.187 332.674 138.815 333.237C138.453 333.801 138.177 334.541 137.985 335.456C137.794 336.371 137.698 337.483 137.698 338.791V343.308C137.698 344.35 137.756 345.271 137.873 346.069C138.001 346.866 138.187 347.558 138.432 348.143C138.677 348.718 138.975 349.191 139.326 349.564C139.677 349.936 140.081 350.213 140.539 350.393C141.007 350.564 141.523 350.649 142.087 350.649C142.81 350.649 143.443 350.51 143.986 350.234C144.528 349.957 144.981 349.526 145.342 348.941C145.715 348.345 145.991 347.585 146.172 346.659C146.353 345.723 146.443 344.606 146.443 343.308ZM177.021 329.519V332.041H166.392V329.519H177.021ZM179.67 329.519V352.755H176.59V329.519H179.67ZM165.339 329.519H168.403L167.876 340.898C167.802 342.536 167.674 343.999 167.493 345.287C167.323 346.563 167.078 347.675 166.759 348.622C166.44 349.558 166.025 350.335 165.514 350.952C165.004 351.558 164.376 352.011 163.631 352.309C162.897 352.606 162.014 352.755 160.982 352.755H160.152V350.25L160.791 350.202C161.386 350.159 161.897 350.026 162.323 349.803C162.759 349.569 163.126 349.218 163.424 348.75C163.732 348.282 163.982 347.675 164.174 346.93C164.365 346.186 164.514 345.276 164.621 344.201C164.738 343.116 164.828 341.85 164.892 340.403L165.339 329.519ZM199.986 350.25V352.755H187.682V350.25H199.986ZM188.304 329.519V352.755H185.224V329.519H188.304ZM198.358 339.509V342.015H187.682V339.509H198.358ZM199.826 329.519V332.041H187.682V329.519H199.826ZM212.705 329.519V352.755H209.673V329.519H212.705ZM220.174 329.519V332.041H202.22V329.519H220.174ZM48.5667 379.887H42.6778L42.6459 377.414H47.9922C48.8753 377.414 49.6466 377.265 50.3063 376.967C50.9659 376.669 51.4766 376.243 51.8383 375.69C52.2107 375.126 52.3969 374.456 52.3969 373.679C52.3969 372.828 52.232 372.137 51.9022 371.605C51.583 371.062 51.0883 370.668 50.418 370.424C49.7583 370.168 48.9178 370.041 47.8964 370.041H43.3641V390.755H40.284V367.519H47.8964C49.0881 367.519 50.152 367.641 51.0883 367.886C52.0245 368.12 52.8171 368.493 53.4661 369.003C54.1258 369.503 54.6258 370.142 54.9663 370.918C55.3068 371.695 55.477 372.626 55.477 373.711C55.477 374.669 55.2323 375.536 54.7429 376.312C54.2535 377.078 53.5725 377.706 52.7001 378.196C51.8383 378.685 50.8276 378.999 49.6679 379.137L48.5667 379.887ZM48.4231 390.755H41.465L43.2045 388.25H48.4231C49.4019 388.25 50.2318 388.08 50.9127 387.739C51.6043 387.399 52.1309 386.92 52.4926 386.303C52.8544 385.675 53.0353 384.936 53.0353 384.084C53.0353 383.223 52.881 382.478 52.5724 381.85C52.2639 381.223 51.7798 380.738 51.1202 380.398C50.4605 380.058 49.6094 379.887 48.5667 379.887H44.178L44.2099 377.414H50.2105L50.8648 378.307C51.982 378.403 52.9289 378.722 53.7055 379.265C54.4822 379.797 55.0727 380.478 55.477 381.308C55.8919 382.137 56.0994 383.052 56.0994 384.053C56.0994 385.5 55.7802 386.723 55.1418 387.723C54.5141 388.713 53.6257 389.468 52.4767 389.989C51.3276 390.5 49.9764 390.755 48.4231 390.755ZM74.6757 383.366H77.7398C77.5802 384.835 77.16 386.149 76.4791 387.308C75.7981 388.468 74.8353 389.388 73.5905 390.069C72.3457 390.739 70.7923 391.075 68.9304 391.075C67.5686 391.075 66.3291 390.819 65.212 390.309C64.1055 389.798 63.1533 389.074 62.3553 388.138C61.5574 387.191 60.9403 386.058 60.5041 384.739C60.0785 383.409 59.8657 381.93 59.8657 380.302V377.988C59.8657 376.36 60.0785 374.887 60.5041 373.567C60.9403 372.238 61.5627 371.099 62.3713 370.152C63.1905 369.205 64.1747 368.477 65.3237 367.966C66.4728 367.455 67.7654 367.2 69.2017 367.2C70.9572 367.2 72.4414 367.53 73.6543 368.189C74.8672 368.849 75.8088 369.764 76.4791 370.934C77.16 372.094 77.5802 373.44 77.7398 374.972H74.6757C74.5267 373.887 74.2501 372.956 73.8458 372.179C73.4415 371.392 72.867 370.785 72.1222 370.36C71.3775 369.934 70.404 369.721 69.2017 369.721C68.1697 369.721 67.2601 369.918 66.4728 370.312C65.6961 370.706 65.0418 371.264 64.5098 371.988C63.9885 372.711 63.5948 373.578 63.3288 374.589C63.0628 375.6 62.9298 376.722 62.9298 377.956V380.302C62.9298 381.441 63.0469 382.51 63.2809 383.51C63.5257 384.51 63.8927 385.388 64.3821 386.143C64.8715 386.899 65.4939 387.494 66.2493 387.931C67.0047 388.356 67.8984 388.569 68.9304 388.569C70.2391 388.569 71.2817 388.362 72.0584 387.947C72.8351 387.532 73.4202 386.936 73.8139 386.159C74.2182 385.382 74.5055 384.452 74.6757 383.366ZM99.6835 367.519V390.755H96.6194V370.041H85.1608V390.755H82.0807V367.519H99.6835ZM123.159 378.403V379.871C123.159 381.616 122.941 383.18 122.505 384.563C122.069 385.946 121.441 387.122 120.622 388.09C119.802 389.058 118.818 389.798 117.669 390.309C116.531 390.819 115.254 391.075 113.839 391.075C112.467 391.075 111.206 390.819 110.057 390.309C108.918 389.798 107.929 389.058 107.088 388.09C106.259 387.122 105.615 385.946 105.157 384.563C104.7 383.18 104.471 381.616 104.471 379.871V378.403C104.471 376.658 104.695 375.1 105.141 373.727C105.599 372.344 106.243 371.168 107.073 370.2C107.902 369.221 108.887 368.477 110.025 367.966C111.174 367.455 112.435 367.2 113.807 367.2C115.222 367.2 116.499 367.455 117.637 367.966C118.786 368.477 119.771 369.221 120.59 370.2C121.42 371.168 122.053 372.344 122.489 373.727C122.936 375.1 123.159 376.658 123.159 378.403ZM120.111 379.871V378.371C120.111 376.988 119.967 375.765 119.68 374.701C119.404 373.637 118.994 372.743 118.451 372.019C117.909 371.296 117.244 370.748 116.456 370.376C115.68 370.003 114.797 369.817 113.807 369.817C112.85 369.817 111.983 370.003 111.206 370.376C110.44 370.748 109.78 371.296 109.227 372.019C108.684 372.743 108.264 373.637 107.966 374.701C107.668 375.765 107.519 376.988 107.519 378.371V379.871C107.519 381.265 107.668 382.499 107.966 383.574C108.264 384.638 108.69 385.537 109.243 386.271C109.807 386.994 110.472 387.542 111.238 387.915C112.014 388.287 112.882 388.473 113.839 388.473C114.839 388.473 115.728 388.287 116.504 387.915C117.281 387.542 117.935 386.994 118.467 386.271C119.01 385.537 119.419 384.638 119.696 383.574C119.973 382.499 120.111 381.265 120.111 379.871ZM128.745 367.519H131.729L139.342 386.462L146.938 367.519H149.938L140.491 390.755H138.161L128.745 367.519ZM127.771 367.519H130.405L130.836 381.691V390.755H127.771V367.519ZM148.263 367.519H150.896V390.755H147.832V381.691L148.263 367.519ZM159.514 385.425L170.957 367.519H174.037V390.755H170.957V372.833L159.514 390.755H156.45V367.519H159.514V385.425ZM194.815 377.509V380.015H182.24V377.509H194.815ZM182.718 367.519V390.755H179.638V367.519H182.718ZM197.496 367.519V390.755H194.432V367.519H197.496ZM211.859 369.578L204.167 390.755H201.023L209.881 367.519H211.907L211.859 369.578ZM218.307 390.755L210.599 369.578L210.551 367.519H212.578L221.467 390.755H218.307ZM217.908 382.153V384.675H204.853V382.153H217.908ZM239.341 388.25V390.755H227.037V388.25H239.341ZM227.659 367.519V390.755H224.579V367.519H227.659ZM237.713 377.509V380.015H227.037V377.509H237.713ZM239.181 367.519V370.041H227.037V367.519H239.181ZM243.267 367.519H246.363V388.25H254.342V367.519H257.407V388.25H265.338V367.519H268.418V390.755H243.267V367.519ZM276.174 376.983H282.51C284.212 376.983 285.649 377.27 286.819 377.845C287.989 378.408 288.878 379.201 289.484 380.222C290.091 381.244 290.394 382.441 290.394 383.813C290.394 384.835 290.224 385.771 289.883 386.622C289.543 387.462 289.037 388.197 288.367 388.824C287.697 389.441 286.872 389.92 285.893 390.261C284.915 390.59 283.787 390.755 282.51 390.755H273.828V367.519H276.908V388.25H282.51C283.648 388.25 284.569 388.042 285.271 387.627C285.984 387.202 286.505 386.649 286.835 385.968C287.165 385.287 287.33 384.558 287.33 383.781C287.33 383.005 287.165 382.292 286.835 381.643C286.505 380.994 285.984 380.478 285.271 380.095C284.569 379.701 283.648 379.504 282.51 379.504H276.174V376.983ZM296.682 387.244V389.622C296.682 390.59 296.437 391.612 295.948 392.686C295.458 393.772 294.772 394.676 293.889 395.399L292.213 394.234C292.554 393.766 292.841 393.288 293.075 392.798C293.309 392.319 293.485 391.819 293.602 391.298C293.729 390.787 293.793 390.245 293.793 389.67V387.244H296.682ZM43.5077 405.519V428.755H40.4276V405.519H43.5077ZM57.823 405.519L47.7369 418.302H42.2789L41.8001 415.749H45.9016L54.0088 405.519H57.823ZM54.7269 428.755L45.9973 417.903L47.7209 415.206L58.4932 428.755H54.7269ZM69.888 407.578L62.1957 428.755H59.0518L67.9091 405.519H69.9359L69.888 407.578ZM76.3354 428.755L68.6272 407.578L68.5793 405.519H70.6061L79.4953 428.755H76.3354ZM75.9365 420.153V422.675H62.882V420.153H75.9365ZM85.8311 405.519V428.755H82.751V405.519H85.8311ZM100.146 405.519L90.0602 418.302H84.6022L84.1234 415.749H88.2249L96.3321 405.519H100.146ZM97.0502 428.755L88.3207 417.903L90.0442 415.206L100.817 428.755H97.0502ZM118.914 421.047L125.058 405.519H128.601L120.382 424.877C120.148 425.42 119.888 425.947 119.6 426.457C119.313 426.957 118.962 427.404 118.547 427.798C118.132 428.191 117.616 428.505 116.999 428.739C116.393 428.973 115.637 429.091 114.733 429.091C114.478 429.091 114.174 429.075 113.823 429.043C113.472 429.021 113.243 428.995 113.137 428.963L113.233 426.505C113.35 426.526 113.578 426.548 113.919 426.569C114.259 426.58 114.509 426.585 114.669 426.585C115.275 426.585 115.754 426.463 116.105 426.218C116.456 425.973 116.738 425.665 116.951 425.292C117.175 424.909 117.377 424.521 117.558 424.127L118.914 421.047ZM113.696 405.519L120.159 419.994L120.925 422.851L118.34 423.042L110.248 405.519H113.696ZM150.018 405.519V428.755H146.954V408.041H135.496V428.755H132.415V405.519H150.018ZM164.206 407.578L156.514 428.755H153.37L162.227 405.519H164.254L164.206 407.578ZM170.653 428.755L162.945 407.578L162.897 405.519H164.924L173.813 428.755H170.653ZM170.254 420.153V422.675H157.2V420.153H170.254ZM192.15 405.519V408.041H181.521V405.519H192.15ZM194.799 405.519V428.755H191.719V405.519H194.799ZM180.468 405.519H183.532L183.006 416.898C182.931 418.536 182.803 419.999 182.623 421.287C182.452 422.563 182.208 423.675 181.888 424.622C181.569 425.558 181.154 426.335 180.644 426.952C180.133 427.558 179.505 428.011 178.76 428.309C178.026 428.606 177.143 428.755 176.111 428.755H175.281V426.25L175.92 426.202C176.516 426.159 177.026 426.026 177.452 425.803C177.888 425.569 178.255 425.218 178.553 424.75C178.862 424.282 179.112 423.675 179.303 422.93C179.495 422.186 179.644 421.276 179.75 420.201C179.867 419.116 179.957 417.85 180.021 416.403L180.468 405.519ZM54.312 459.366H57.3761C57.2165 460.835 56.7963 462.149 56.1153 463.308C55.4344 464.468 54.4716 465.388 53.2268 466.069C51.982 466.739 50.4286 467.075 48.5667 467.075C47.2049 467.075 45.9654 466.819 44.8483 466.309C43.7418 465.798 42.7896 465.074 41.9916 464.138C41.1937 463.191 40.5766 462.058 40.1404 460.739C39.7148 459.409 39.502 457.93 39.502 456.302V453.988C39.502 452.36 39.7148 450.887 40.1404 449.567C40.5766 448.238 41.199 447.099 42.0076 446.152C42.8268 445.205 43.8109 444.477 44.96 443.966C46.109 443.455 47.4017 443.2 48.838 443.2C50.5935 443.2 52.0777 443.53 53.2906 444.189C54.5035 444.849 55.4451 445.764 56.1153 446.934C56.7963 448.094 57.2165 449.44 57.3761 450.972H54.312C54.163 449.887 53.8864 448.956 53.4821 448.179C53.0778 447.392 52.5033 446.785 51.7585 446.36C51.0138 445.934 50.0403 445.721 48.838 445.721C47.806 445.721 46.8963 445.918 46.109 446.312C45.3324 446.706 44.678 447.264 44.1461 447.988C43.6247 448.711 43.2311 449.578 42.9651 450.589C42.6991 451.6 42.5661 452.722 42.5661 453.956V456.302C42.5661 457.441 42.6832 458.51 42.9172 459.51C43.1619 460.51 43.529 461.388 44.0184 462.143C44.5078 462.899 45.1302 463.494 45.8856 463.931C46.641 464.356 47.5347 464.569 48.5667 464.569C49.8754 464.569 50.918 464.362 51.6947 463.947C52.4714 463.532 53.0565 462.936 53.4502 462.159C53.8545 461.382 54.1417 460.452 54.312 459.366ZM79.4634 454.403V455.871C79.4634 457.616 79.2453 459.18 78.8091 460.563C78.3729 461.946 77.7451 463.122 76.9259 464.09C76.1067 465.058 75.1225 465.798 73.9735 466.309C72.8351 466.819 71.5584 467.075 70.1433 467.075C68.7709 467.075 67.5101 466.819 66.361 466.309C65.2226 465.798 64.2332 465.058 63.3927 464.09C62.5628 463.122 61.9191 461.946 61.4616 460.563C61.0041 459.18 60.7754 457.616 60.7754 455.871V454.403C60.7754 452.658 60.9988 451.1 61.4457 449.727C61.9032 448.344 62.5468 447.168 63.3767 446.2C64.2066 445.221 65.1907 444.477 66.3291 443.966C67.4782 443.455 68.7389 443.2 70.1114 443.2C71.5264 443.2 72.8032 443.455 73.9416 443.966C75.0906 444.477 76.0748 445.221 76.894 446.2C77.7239 447.168 78.3569 448.344 78.7931 449.727C79.24 451.1 79.4634 452.658 79.4634 454.403ZM76.4152 455.871V454.371C76.4152 452.988 76.2716 451.765 75.9843 450.701C75.7077 449.637 75.2981 448.743 74.7555 448.019C74.2129 447.296 73.5479 446.748 72.7606 446.376C71.9839 446.003 71.1009 445.817 70.1114 445.817C69.1539 445.817 68.2868 446.003 67.5101 446.376C66.7441 446.748 66.0844 447.296 65.5312 448.019C64.9886 448.743 64.5683 449.637 64.2704 450.701C63.9725 451.765 63.8236 452.988 63.8236 454.371V455.871C63.8236 457.265 63.9725 458.499 64.2704 459.574C64.5683 460.638 64.9939 461.537 65.5471 462.271C66.111 462.994 66.776 463.542 67.542 463.915C68.3187 464.287 69.1858 464.473 70.1433 464.473C71.1434 464.473 72.0318 464.287 72.8085 463.915C73.5852 463.542 74.2395 462.994 74.7714 462.271C75.3141 461.537 75.7237 460.638 76.0003 459.574C76.2769 458.499 76.4152 457.265 76.4152 455.871ZM106.211 459.366H109.275C109.115 460.835 108.695 462.149 108.014 463.308C107.333 464.468 106.37 465.388 105.126 466.069C103.881 466.739 102.327 467.075 100.465 467.075C99.1036 467.075 97.8642 466.819 96.747 466.309C95.6405 465.798 94.6883 465.074 93.8904 464.138C93.0924 463.191 92.4753 462.058 92.0391 460.739C91.6135 459.409 91.4008 457.93 91.4008 456.302V453.988C91.4008 452.36 91.6135 450.887 92.0391 449.567C92.4753 448.238 93.0977 447.099 93.9063 446.152C94.7255 445.205 95.7097 444.477 96.8587 443.966C98.0078 443.455 99.3005 443.2 100.737 443.2C102.492 443.2 103.976 443.53 105.189 444.189C106.402 444.849 107.344 445.764 108.014 446.934C108.695 448.094 109.115 449.44 109.275 450.972H106.211C106.062 449.887 105.785 448.956 105.381 448.179C104.977 447.392 104.402 446.785 103.657 446.36C102.913 445.934 101.939 445.721 100.737 445.721C99.7048 445.721 98.7951 445.918 98.0078 446.312C97.2311 446.706 96.5768 447.264 96.0448 447.988C95.5235 448.711 95.1298 449.578 94.8639 450.589C94.5979 451.6 94.4649 452.722 94.4649 453.956V456.302C94.4649 457.441 94.5819 458.51 94.816 459.51C95.0607 460.51 95.4277 461.388 95.9172 462.143C96.4066 462.899 97.029 463.494 97.7844 463.931C98.5398 464.356 99.4335 464.569 100.465 464.569C101.774 464.569 102.817 464.362 103.593 463.947C104.37 463.532 104.955 462.936 105.349 462.159C105.753 461.382 106.04 460.452 106.211 459.366ZM133.628 464.17L133.341 472.357H130.58V466.755H128.298V464.17H133.628ZM113.568 466.755V443.519H116.664V464.25H128.107V443.519H131.187V466.755H113.568ZM152.141 464.25V466.755H139.836V464.25H152.141ZM140.459 443.519V466.755H137.379V443.519H140.459ZM150.513 453.509V456.015H139.836V453.509H150.513ZM151.981 443.519V446.041H139.836V443.519H151.981ZM171.132 453.509V456.015H158.556V453.509H171.132ZM159.035 443.519V466.755H155.955V443.519H159.035ZM173.813 443.519V466.755H170.749V443.519H173.813ZM181.777 452.983H188.112C189.815 452.983 191.251 453.27 192.421 453.845C193.592 454.408 194.48 455.201 195.087 456.222C195.693 457.244 195.996 458.441 195.996 459.813C195.996 460.835 195.826 461.771 195.486 462.622C195.145 463.462 194.64 464.197 193.969 464.824C193.299 465.441 192.475 465.92 191.496 466.261C190.517 466.59 189.389 466.755 188.112 466.755H179.431V443.519H182.511V464.25H188.112C189.251 464.25 190.171 464.042 190.873 463.627C191.586 463.202 192.108 462.649 192.437 461.968C192.767 461.287 192.932 460.558 192.932 459.781C192.932 459.005 192.767 458.292 192.437 457.643C192.108 456.994 191.586 456.478 190.873 456.095C190.171 455.701 189.251 455.504 188.112 455.504H181.777V452.983ZM201.885 443.519V466.755H198.805V443.519H201.885ZM213.535 460.212H210.567C210.577 459.191 210.668 458.356 210.838 457.707C211.019 457.047 211.312 456.446 211.716 455.903C212.12 455.361 212.657 454.744 213.328 454.052C213.817 453.552 214.264 453.084 214.668 452.648C215.083 452.201 215.418 451.722 215.674 451.211C215.929 450.69 216.057 450.068 216.057 449.344C216.057 448.61 215.924 447.977 215.658 447.445C215.402 446.913 215.019 446.503 214.509 446.216C214.009 445.929 213.386 445.785 212.641 445.785C212.024 445.785 211.439 445.897 210.886 446.12C210.333 446.344 209.886 446.69 209.545 447.158C209.205 447.615 209.029 448.216 209.019 448.961H206.066C206.088 447.759 206.386 446.727 206.96 445.865C207.545 445.003 208.333 444.344 209.322 443.886C210.311 443.429 211.418 443.2 212.641 443.2C213.993 443.2 215.142 443.445 216.089 443.934C217.046 444.423 217.775 445.126 218.275 446.041C218.775 446.945 219.025 448.019 219.025 449.264C219.025 450.222 218.828 451.105 218.435 451.913C218.052 452.711 217.557 453.462 216.95 454.164C216.344 454.866 215.7 455.536 215.019 456.175C214.434 456.717 214.041 457.329 213.838 458.01C213.636 458.691 213.535 459.425 213.535 460.212ZM210.439 465.271C210.439 464.792 210.588 464.388 210.886 464.058C211.184 463.728 211.615 463.564 212.179 463.564C212.753 463.564 213.189 463.728 213.487 464.058C213.785 464.388 213.934 464.792 213.934 465.271C213.934 465.729 213.785 466.122 213.487 466.452C213.189 466.782 212.753 466.947 212.179 466.947C211.615 466.947 211.184 466.782 210.886 466.452C210.588 466.122 210.439 465.729 210.439 465.271Z" fill="white"/>
<path d="M337.559 29.465V41.147H336.083V31.3082L333.107 32.3934V31.0609L337.328 29.465H337.559ZM346.752 29.465V41.147H345.275V31.3082L342.299 32.3934V31.0609L346.52 29.465H346.752ZM351.276 40.365C351.276 40.115 351.353 39.9048 351.507 39.7346C351.667 39.559 351.896 39.4713 352.194 39.4713C352.492 39.4713 352.718 39.559 352.872 39.7346C353.032 39.9048 353.111 40.115 353.111 40.365C353.111 40.6097 353.032 40.8172 352.872 40.9874C352.718 41.1576 352.492 41.2427 352.194 41.2427C351.896 41.2427 351.667 41.1576 351.507 40.9874C351.353 40.8172 351.276 40.6097 351.276 40.365ZM360.253 29.465V41.147H358.777V31.3082L355.8 32.3934V31.0609L360.022 29.465H360.253ZM372.206 39.9341V41.147H364.602V40.0857L368.408 35.8486C368.876 35.3272 369.238 34.8857 369.493 34.524C369.754 34.1569 369.935 33.8298 370.036 33.5425C370.142 33.2499 370.195 32.952 370.195 32.6488C370.195 32.2658 370.116 31.92 369.956 31.6115C369.802 31.2976 369.573 31.0476 369.27 30.8614C368.967 30.6752 368.6 30.5821 368.169 30.5821C367.653 30.5821 367.222 30.6832 366.876 30.8853C366.536 31.0821 366.28 31.3588 366.11 31.7152C365.94 32.0716 365.855 32.4812 365.855 32.944H364.378C364.378 32.2897 364.522 31.6912 364.809 31.1486C365.097 30.606 365.522 30.1751 366.086 29.856C366.65 29.5315 367.344 29.3692 368.169 29.3692C368.903 29.3692 369.531 29.4995 370.052 29.7602C370.573 30.0156 370.972 30.3773 371.249 30.8454C371.531 31.3082 371.672 31.8508 371.672 32.4732C371.672 32.8137 371.613 33.1595 371.496 33.5106C371.384 33.8564 371.227 34.2021 371.025 34.5479C370.829 34.8937 370.597 35.2342 370.331 35.5693C370.07 35.9044 369.791 36.2343 369.493 36.5588L366.381 39.9341H372.206ZM373.97 40.365C373.97 40.115 374.047 39.9048 374.201 39.7346C374.361 39.559 374.59 39.4713 374.887 39.4713C375.185 39.4713 375.411 39.559 375.566 39.7346C375.725 39.9048 375.805 40.115 375.805 40.365C375.805 40.6097 375.725 40.8172 375.566 40.9874C375.411 41.1576 375.185 41.2427 374.887 41.2427C374.59 41.2427 374.361 41.1576 374.201 40.9874C374.047 40.8172 373.97 40.6097 373.97 40.365ZM385.708 39.9341V41.147H378.103V40.0857L381.909 35.8486C382.378 35.3272 382.739 34.8857 382.995 34.524C383.255 34.1569 383.436 33.8298 383.537 33.5425C383.644 33.2499 383.697 32.952 383.697 32.6488C383.697 32.2658 383.617 31.92 383.457 31.6115C383.303 31.2976 383.074 31.0476 382.771 30.8614C382.468 30.6752 382.101 30.5821 381.67 30.5821C381.154 30.5821 380.723 30.6832 380.377 30.8853C380.037 31.0821 379.782 31.3588 379.611 31.7152C379.441 32.0716 379.356 32.4812 379.356 32.944H377.88C377.88 32.2897 378.023 31.6912 378.311 31.1486C378.598 30.606 379.023 30.1751 379.587 29.856C380.151 29.5315 380.845 29.3692 381.67 29.3692C382.404 29.3692 383.032 29.4995 383.553 29.7602C384.074 30.0156 384.473 30.3773 384.75 30.8454C385.032 31.3082 385.173 31.8508 385.173 32.4732C385.173 32.8137 385.114 33.1595 384.997 33.5106C384.886 33.8564 384.729 34.2021 384.527 34.5479C384.33 34.8937 384.098 35.2342 383.832 35.5693C383.572 35.9044 383.293 36.2343 382.995 36.5588L379.883 39.9341H385.708ZM394.581 34.4123V36.1837C394.581 37.1359 394.496 37.9392 394.326 38.5935C394.155 39.2478 393.911 39.7745 393.591 40.1735C393.272 40.5724 392.887 40.8624 392.434 41.0432C391.988 41.2188 391.482 41.3066 390.918 41.3066C390.471 41.3066 390.059 41.2507 389.681 41.139C389.304 41.0273 388.963 40.8491 388.66 40.6044C388.362 40.3543 388.107 40.0298 387.894 39.6309C387.681 39.2319 387.519 38.7478 387.407 38.1786C387.296 37.6094 387.24 36.9444 387.24 36.1837V34.4123C387.24 33.46 387.325 32.6621 387.495 32.0184C387.671 31.3747 387.918 30.8587 388.237 30.4704C388.556 30.0767 388.939 29.7948 389.386 29.6246C389.838 29.4543 390.344 29.3692 390.902 29.3692C391.354 29.3692 391.769 29.4251 392.147 29.5368C392.53 29.6432 392.871 29.8161 393.168 30.0554C393.466 30.2895 393.719 30.6034 393.927 30.997C394.139 31.3854 394.302 31.8615 394.413 32.4254C394.525 32.9893 394.581 33.6515 394.581 34.4123ZM393.097 36.4231V34.1649C393.097 33.6436 393.065 33.1861 393.001 32.7924C392.942 32.3934 392.855 32.053 392.738 31.771C392.621 31.4891 392.472 31.2604 392.291 31.0848C392.115 30.9093 391.91 30.7816 391.676 30.7018C391.448 30.6167 391.19 30.5741 390.902 30.5741C390.551 30.5741 390.24 30.6406 389.969 30.7736C389.697 30.9013 389.469 31.1061 389.282 31.388C389.102 31.67 388.963 32.0397 388.868 32.4972C388.772 32.9547 388.724 33.5106 388.724 34.1649V36.4231C388.724 36.9444 388.753 37.4046 388.812 37.8036C388.876 38.2025 388.969 38.5483 389.091 38.8409C389.213 39.1282 389.362 39.3649 389.538 39.5511C389.713 39.7373 389.915 39.8756 390.144 39.966C390.378 40.0511 390.636 40.0937 390.918 40.0937C391.28 40.0937 391.597 40.0245 391.868 39.8862C392.139 39.7479 392.365 39.5325 392.546 39.2399C392.732 38.942 392.871 38.5616 392.961 38.0988C393.051 37.6307 393.097 37.0721 393.097 36.4231ZM404.092 39.9341V41.147H396.488V40.0857L400.294 35.8486C400.762 35.3272 401.124 34.8857 401.379 34.524C401.64 34.1569 401.821 33.8298 401.922 33.5425C402.028 33.2499 402.082 32.952 402.082 32.6488C402.082 32.2658 402.002 31.92 401.842 31.6115C401.688 31.2976 401.459 31.0476 401.156 30.8614C400.853 30.6752 400.486 30.5821 400.055 30.5821C399.539 30.5821 399.108 30.6832 398.762 30.8853C398.422 31.0821 398.166 31.3588 397.996 31.7152C397.826 32.0716 397.741 32.4812 397.741 32.944H396.265C396.265 32.2897 396.408 31.6912 396.695 31.1486C396.983 30.606 397.408 30.1751 397.972 29.856C398.536 29.5315 399.23 29.3692 400.055 29.3692C400.789 29.3692 401.417 29.4995 401.938 29.7602C402.459 30.0156 402.858 30.3773 403.135 30.8454C403.417 31.3082 403.558 31.8508 403.558 32.4732C403.558 32.8137 403.499 33.1595 403.382 33.5106C403.271 33.8564 403.114 34.2021 402.911 34.5479C402.715 34.8937 402.483 35.2342 402.217 35.5693C401.957 35.9044 401.677 36.2343 401.379 36.5588L398.267 39.9341H404.092ZM407.827 34.6118H408.88C409.396 34.6118 409.822 34.5266 410.157 34.3564C410.497 34.1809 410.75 33.9441 410.915 33.6462C411.085 33.343 411.17 33.0025 411.17 32.6249C411.17 32.178 411.096 31.803 410.947 31.4997C410.798 31.1965 410.574 30.9678 410.277 30.8135C409.979 30.6592 409.601 30.5821 409.143 30.5821C408.729 30.5821 408.361 30.6646 408.042 30.8295C407.728 30.9891 407.481 31.2178 407.3 31.5157C407.125 31.8136 407.037 32.1647 407.037 32.569H405.561C405.561 31.9785 405.71 31.4412 406.008 30.9571C406.305 30.473 406.723 30.0874 407.26 29.8001C407.803 29.5128 408.431 29.3692 409.143 29.3692C409.846 29.3692 410.46 29.4942 410.987 29.7442C411.513 29.989 411.923 30.356 412.216 30.8454C412.508 31.3295 412.654 31.9333 412.654 32.6568C412.654 32.9494 412.585 33.2632 412.447 33.5984C412.314 33.9282 412.104 34.2367 411.817 34.524C411.535 34.8112 411.168 35.048 410.715 35.2342C410.263 35.415 409.721 35.5055 409.088 35.5055H407.827V34.6118ZM407.827 35.8246V34.9389H409.088C409.827 34.9389 410.439 35.0267 410.923 35.2022C411.407 35.3778 411.787 35.6119 412.064 35.9044C412.346 36.197 412.543 36.5189 412.654 36.87C412.771 37.2157 412.83 37.5615 412.83 37.9073C412.83 38.4499 412.737 38.9313 412.551 39.3516C412.37 39.7718 412.112 40.1283 411.777 40.4208C411.447 40.7134 411.059 40.9342 410.612 41.0831C410.165 41.2321 409.678 41.3066 409.151 41.3066C408.646 41.3066 408.17 41.2347 407.723 41.0911C407.282 40.9475 406.891 40.74 406.55 40.4687C406.21 40.1921 405.944 39.8543 405.752 39.4553C405.561 39.051 405.465 38.5909 405.465 38.0749H406.941C406.941 38.4792 407.029 38.8329 407.204 39.1361C407.385 39.4394 407.641 39.6761 407.97 39.8463C408.306 40.0112 408.699 40.0937 409.151 40.0937C409.604 40.0937 409.992 40.0165 410.316 39.8623C410.646 39.7027 410.899 39.4633 411.075 39.1441C411.255 38.8249 411.346 38.4233 411.346 37.9392C411.346 37.4551 411.245 37.0588 411.043 36.7503C410.84 36.4364 410.553 36.205 410.181 36.056C409.814 35.9018 409.38 35.8246 408.88 35.8246H407.827Z" fill="white"/>
<path d="M41.8724 29.5288H43.3646L47.1708 39.0005L50.969 29.5288H52.4692L47.7453 41.147H46.5803L41.8724 29.5288ZM41.3856 29.5288H42.7023L42.9177 36.6146V41.147H41.3856V29.5288ZM51.6313 29.5288H52.948V41.147H51.4159V36.6146L51.6313 29.5288ZM60.0976 30.5582L56.2515 41.147H54.6795L59.1081 29.5288H60.1215L60.0976 30.5582ZM63.3213 41.147L59.4672 30.5582L59.4433 29.5288H60.4567L64.9013 41.147H63.3213ZM63.1218 36.846V38.1068H56.5946V36.846H63.1218ZM73.3755 37.4525H74.9076C74.8278 38.1866 74.6177 38.8436 74.2772 39.4234C73.9367 40.0032 73.4553 40.4634 72.8329 40.8039C72.2105 41.139 71.4338 41.3066 70.5029 41.3066C69.822 41.3066 69.2022 41.1789 68.6437 40.9235C68.0904 40.6682 67.6143 40.3065 67.2153 39.8383C66.8164 39.3649 66.5078 38.7983 66.2897 38.1387C66.0769 37.4737 65.9705 36.7343 65.9705 35.9204V34.7634C65.9705 33.9495 66.0769 33.2127 66.2897 32.553C66.5078 31.8881 66.819 31.3189 67.2233 30.8454C67.6329 30.372 68.125 30.0076 68.6995 29.7522C69.274 29.4969 69.9204 29.3692 70.6385 29.3692C71.5163 29.3692 72.2584 29.5341 72.8648 29.8639C73.4713 30.1938 73.9421 30.6513 74.2772 31.2364C74.6177 31.8163 74.8278 32.4892 74.9076 33.2552H73.3755C73.301 32.7126 73.1627 32.2472 72.9606 31.8588C72.7584 31.4652 72.4712 31.1619 72.0988 30.9492C71.7264 30.7364 71.2397 30.63 70.6385 30.63C70.1225 30.63 69.6677 30.7284 69.274 30.9252C68.8857 31.122 68.5585 31.4013 68.2926 31.7631C68.0319 32.1248 67.8351 32.5584 67.7021 33.0637C67.5691 33.5691 67.5026 34.1303 67.5026 34.7474V35.9204C67.5026 36.4896 67.5611 37.0242 67.6781 37.5243C67.8005 38.0243 67.984 38.4632 68.2287 38.8409C68.4734 39.2186 68.7846 39.5165 69.1623 39.7346C69.54 39.9474 69.9869 40.0538 70.5029 40.0538C71.1572 40.0538 71.6785 39.95 72.0669 39.7426C72.4552 39.5351 72.7478 39.2372 72.9446 38.8489C73.1468 38.4605 73.2904 37.9951 73.3755 37.4525ZM81.0598 29.5288V41.147H79.5437V29.5288H81.0598ZM84.7942 29.5288V30.7896H75.8172V29.5288H84.7942ZM93.8988 39.8942V41.147H87.7466V39.8942H93.8988ZM88.0578 29.5288V41.147H86.5178V29.5288H88.0578ZM93.0849 34.524V35.7768H87.7466V34.524H93.0849ZM93.819 29.5288V30.7896H87.7466V29.5288H93.819ZM100.091 36.5907H96.9869V35.3379H100.091C100.692 35.3379 101.179 35.2421 101.551 35.0506C101.924 34.8591 102.195 34.5931 102.365 34.2527C102.541 33.9122 102.628 33.5239 102.628 33.0877C102.628 32.6887 102.541 32.3137 102.365 31.9626C102.195 31.6115 101.924 31.3295 101.551 31.1167C101.179 30.8986 100.692 30.7896 100.091 30.7896H97.346V41.147H95.8059V29.5288H100.091C100.969 29.5288 101.711 29.6804 102.317 29.9836C102.924 30.2869 103.384 30.7071 103.698 31.2444C104.012 31.7764 104.168 32.3855 104.168 33.0717C104.168 33.8165 104.012 34.4522 103.698 34.9788C103.384 35.5055 102.924 35.9071 102.317 36.1837C101.711 36.455 100.969 36.5907 100.091 36.5907ZM111.781 29.5288V41.147H110.241V29.5288H111.781ZM118.939 29.5288L113.895 35.9204H111.166L110.927 34.6437H112.978L117.031 29.5288H118.939ZM117.391 41.147L113.026 35.7209L113.888 34.3724L119.274 41.147H117.391ZM128.139 29.5288V30.7896H122.825V29.5288H128.139ZM129.464 29.5288V41.147H127.923V29.5288H129.464ZM122.298 29.5288H123.83L123.567 35.2182C123.529 36.0374 123.466 36.7689 123.375 37.4126C123.29 38.0509 123.168 38.6068 123.008 39.0803C122.849 39.5484 122.641 39.9367 122.386 40.2453C122.13 40.5485 121.816 40.7746 121.444 40.9235C121.077 41.0725 120.636 41.147 120.12 41.147H119.705V39.8942L120.024 39.8703C120.322 39.849 120.577 39.7825 120.79 39.6708C121.008 39.5537 121.191 39.3782 121.34 39.1441C121.495 38.91 121.62 38.6068 121.715 38.2345C121.811 37.8621 121.886 37.4072 121.939 36.87C121.997 36.3273 122.043 35.6943 122.074 34.9708L122.298 29.5288ZM136.685 30.5582L132.839 41.147H131.267L135.696 29.5288H136.709L136.685 30.5582ZM139.909 41.147L136.055 30.5582L136.031 29.5288H137.044L141.489 41.147H139.909ZM139.709 36.846V38.1068H133.182V36.846H139.709ZM149.963 37.4525H151.495C151.415 38.1866 151.205 38.8436 150.865 39.4234C150.524 40.0032 150.043 40.4634 149.42 40.8039C148.798 41.139 148.021 41.3066 147.09 41.3066C146.409 41.3066 145.79 41.1789 145.231 40.9235C144.678 40.6682 144.202 40.3065 143.803 39.8383C143.404 39.3649 143.095 38.7983 142.877 38.1387C142.664 37.4737 142.558 36.7343 142.558 35.9204V34.7634C142.558 33.9495 142.664 33.2127 142.877 32.553C143.095 31.8881 143.406 31.3189 143.811 30.8454C144.22 30.372 144.712 30.0076 145.287 29.7522C145.861 29.4969 146.508 29.3692 147.226 29.3692C148.104 29.3692 148.846 29.5341 149.452 29.8639C150.059 30.1938 150.529 30.6513 150.865 31.2364C151.205 31.8163 151.415 32.4892 151.495 33.2552H149.963C149.888 32.7126 149.75 32.2472 149.548 31.8588C149.346 31.4652 149.059 31.1619 148.686 30.9492C148.314 30.7364 147.827 30.63 147.226 30.63C146.71 30.63 146.255 30.7284 145.861 30.9252C145.473 31.122 145.146 31.4013 144.88 31.7631C144.619 32.1248 144.422 32.5584 144.289 33.0637C144.156 33.5691 144.09 34.1303 144.09 34.7474V35.9204C144.09 36.4896 144.148 37.0242 144.266 37.5243C144.388 38.0243 144.571 38.4632 144.816 38.8409C145.061 39.2186 145.372 39.5165 145.75 39.7346C146.127 39.9474 146.574 40.0538 147.09 40.0538C147.745 40.0538 148.266 39.95 148.654 39.7426C149.043 39.5351 149.335 39.2372 149.532 38.8489C149.734 38.4605 149.878 37.9951 149.963 37.4525ZM160.608 37.4525H162.14C162.06 38.1866 161.85 38.8436 161.509 39.4234C161.169 40.0032 160.687 40.4634 160.065 40.8039C159.443 41.139 158.666 41.3066 157.735 41.3066C157.054 41.3066 156.434 41.1789 155.876 40.9235C155.322 40.6682 154.846 40.3065 154.447 39.8383C154.048 39.3649 153.74 38.7983 153.522 38.1387C153.309 37.4737 153.203 36.7343 153.203 35.9204V34.7634C153.203 33.9495 153.309 33.2127 153.522 32.553C153.74 31.8881 154.051 31.3189 154.455 30.8454C154.865 30.372 155.357 30.0076 155.932 29.7522C156.506 29.4969 157.152 29.3692 157.871 29.3692C158.748 29.3692 159.49 29.5341 160.097 29.8639C160.703 30.1938 161.174 30.6513 161.509 31.2364C161.85 31.8163 162.06 32.4892 162.14 33.2552H160.608C160.533 32.7126 160.395 32.2472 160.193 31.8588C159.99 31.4652 159.703 31.1619 159.331 30.9492C158.958 30.7364 158.472 30.63 157.871 30.63C157.355 30.63 156.9 30.7284 156.506 30.9252C156.118 31.122 155.791 31.4013 155.525 31.7631C155.264 32.1248 155.067 32.5584 154.934 33.0637C154.801 33.5691 154.735 34.1303 154.735 34.7474V35.9204C154.735 36.4896 154.793 37.0242 154.91 37.5243C155.033 38.0243 155.216 38.4632 155.461 38.8409C155.705 39.2186 156.017 39.5165 156.394 39.7346C156.772 39.9474 157.219 40.0538 157.735 40.0538C158.389 40.0538 158.911 39.95 159.299 39.7426C159.687 39.5351 159.98 39.2372 160.177 38.8489C160.379 38.4605 160.522 37.9951 160.608 37.4525Z" fill="white"/>
<path d="M340.296 58.9448V60.2056H334.695V70.563H333.163V58.9448H340.296ZM338.876 69.781C338.876 69.531 338.953 69.3208 339.107 69.1506C339.267 68.9751 339.496 68.8873 339.794 68.8873C340.091 68.8873 340.318 68.9751 340.472 69.1506C340.631 69.3208 340.711 69.531 340.711 69.781C340.711 70.0257 340.631 70.2332 340.472 70.4034C340.318 70.5736 340.091 70.6587 339.794 70.6587C339.496 70.6587 339.267 70.5736 339.107 70.4034C338.953 70.2332 338.876 70.0257 338.876 69.781ZM347.925 58.9448H349.417L353.223 68.4165L357.021 58.9448H358.521L353.798 70.563H352.633L347.925 58.9448ZM347.438 58.9448H348.755L348.97 66.0306V70.563H347.438V58.9448ZM357.684 58.9448H359V70.563H357.468V66.0306L357.684 58.9448ZM370.65 64.3868V65.121C370.65 65.9934 370.541 66.7754 370.323 67.4669C370.105 68.1585 369.791 68.7463 369.382 69.2304C368.972 69.7145 368.48 70.0842 367.905 70.3396C367.336 70.5949 366.698 70.7226 365.99 70.7226C365.304 70.7226 364.674 70.5949 364.099 70.3396C363.53 70.0842 363.035 69.7145 362.615 69.2304C362.2 68.7463 361.878 68.1585 361.649 67.4669C361.421 66.7754 361.306 65.9934 361.306 65.121V64.3868C361.306 63.5144 361.418 62.7351 361.641 62.0488C361.87 61.3573 362.192 60.7695 362.607 60.2854C363.022 59.796 363.514 59.4236 364.083 59.1682C364.658 58.9129 365.288 58.7852 365.974 58.7852C366.682 58.7852 367.32 58.9129 367.889 59.1682C368.464 59.4236 368.956 59.796 369.366 60.2854C369.781 60.7695 370.097 61.3573 370.315 62.0488C370.539 62.7351 370.65 63.5144 370.65 64.3868ZM369.126 65.121V64.3709C369.126 63.6793 369.054 63.0676 368.911 62.5356C368.772 62.0036 368.568 61.5568 368.296 61.195C368.025 60.8333 367.693 60.5593 367.299 60.3731C366.911 60.187 366.469 60.0939 365.974 60.0939C365.496 60.0939 365.062 60.187 364.674 60.3731C364.291 60.5593 363.961 60.8333 363.684 61.195C363.413 61.5568 363.203 62.0036 363.054 62.5356C362.905 63.0676 362.83 63.6793 362.83 64.3709V65.121C362.83 65.8178 362.905 66.4349 363.054 66.9722C363.203 67.5042 363.416 67.9537 363.692 68.3207C363.974 68.6825 364.307 68.9564 364.69 69.1426C365.078 69.3288 365.511 69.4219 365.99 69.4219C366.49 69.4219 366.935 69.3288 367.323 69.1426C367.711 68.9564 368.038 68.6825 368.304 68.3207C368.576 67.9537 368.78 67.5042 368.919 66.9722C369.057 66.4349 369.126 65.8178 369.126 65.121ZM379.97 66.8685H381.502C381.423 67.6026 381.213 68.2596 380.872 68.8394C380.532 69.4193 380.05 69.8794 379.428 70.2199C378.805 70.555 378.029 70.7226 377.098 70.7226C376.417 70.7226 375.797 70.5949 375.239 70.3396C374.685 70.0842 374.209 69.7225 373.81 69.2543C373.411 68.7809 373.103 68.2144 372.885 67.5547C372.672 66.8898 372.565 66.1503 372.565 65.3364V64.1794C372.565 63.3655 372.672 62.6287 372.885 61.9691C373.103 61.3041 373.414 60.7349 373.818 60.2614C374.228 59.788 374.72 59.4236 375.294 59.1682C375.869 58.9129 376.515 58.7852 377.233 58.7852C378.111 58.7852 378.853 58.9501 379.46 59.28C380.066 59.6098 380.537 60.0673 380.872 60.6524C381.213 61.2323 381.423 61.9052 381.502 62.6712H379.97C379.896 62.1286 379.758 61.6632 379.555 61.2748C379.353 60.8812 379.066 60.578 378.694 60.3652C378.321 60.1524 377.835 60.046 377.233 60.046C376.717 60.046 376.263 60.1444 375.869 60.3412C375.481 60.5381 375.153 60.8173 374.887 61.1791C374.627 61.5408 374.43 61.9744 374.297 62.4797C374.164 62.9851 374.097 63.5463 374.097 64.1634V65.3364C374.097 65.9056 374.156 66.4402 374.273 66.9403C374.395 67.4403 374.579 67.8792 374.824 68.2569C375.068 68.6346 375.379 68.9325 375.757 69.1506C376.135 69.3634 376.582 69.4698 377.098 69.4698C377.752 69.4698 378.273 69.3661 378.662 69.1586C379.05 68.9511 379.343 68.6532 379.539 68.2649C379.742 67.8766 379.885 67.4111 379.97 66.8685ZM385.213 58.9448V70.563H383.673V58.9448H385.213ZM392.371 58.9448L387.327 65.3364H384.598L384.359 64.0597H386.41L390.463 58.9448H392.371ZM390.823 70.563L386.458 65.1369L387.319 63.7884L392.706 70.563H390.823ZM398.243 65.1289H395.299L395.283 63.8921H397.956C398.398 63.8921 398.783 63.8176 399.113 63.6687C399.443 63.5197 399.698 63.307 399.879 63.0303C400.065 62.7484 400.159 62.4132 400.159 62.0249C400.159 61.5993 400.076 61.2536 399.911 60.9876C399.752 60.7163 399.504 60.5194 399.169 60.3971C398.839 60.2694 398.419 60.2056 397.908 60.2056H395.642V70.563H394.102V58.9448H397.908C398.504 58.9448 399.036 59.006 399.504 59.1283C399.972 59.2454 400.369 59.4316 400.693 59.6869C401.023 59.9369 401.273 60.2561 401.443 60.6445C401.613 61.0328 401.699 61.4983 401.699 62.0409C401.699 62.5196 401.576 62.9532 401.332 63.3415C401.087 63.7245 400.746 64.0384 400.31 64.2831C399.879 64.5278 399.374 64.6847 398.794 64.7539L398.243 65.1289ZM398.172 70.563H394.693L395.562 69.3102H398.172C398.661 69.3102 399.076 69.2251 399.416 69.0549C399.762 68.8846 400.026 68.6452 400.206 68.3367C400.387 68.0228 400.478 67.6531 400.478 67.2276C400.478 66.7967 400.401 66.4243 400.246 66.1104C400.092 65.7966 399.85 65.5545 399.52 65.3843C399.19 65.2141 398.765 65.1289 398.243 65.1289H396.049L396.065 63.8921H399.065L399.392 64.339C399.951 64.3868 400.425 64.5464 400.813 64.8177C401.201 65.0837 401.496 65.4242 401.699 65.8391C401.906 66.2541 402.01 66.7115 402.01 67.2116C402.01 67.9351 401.85 68.5468 401.531 69.0469C401.217 69.5416 400.773 69.9193 400.198 70.18C399.624 70.4353 398.948 70.563 398.172 70.563ZM408.585 59.9742L404.739 70.563H403.167L407.595 58.9448H408.609L408.585 59.9742ZM411.809 70.563L407.955 59.9742L407.931 58.9448H408.944L413.389 70.563H411.809ZM411.609 66.262V67.5228H405.082V66.262H411.609ZM336.689 85.7089L339.762 77.9448H341.533L337.424 87.624C337.307 87.8953 337.176 88.1586 337.033 88.4139C336.889 88.664 336.713 88.8874 336.506 89.0842C336.298 89.281 336.04 89.438 335.732 89.555C335.429 89.672 335.051 89.7306 334.599 89.7306C334.471 89.7306 334.32 89.7226 334.144 89.7066C333.968 89.696 333.854 89.6827 333.801 89.6667L333.849 88.4379C333.907 88.4485 334.022 88.4592 334.192 88.4698C334.362 88.4751 334.487 88.4778 334.567 88.4778C334.87 88.4778 335.11 88.4166 335.285 88.2942C335.461 88.1719 335.602 88.0176 335.708 87.8314C335.82 87.6399 335.921 87.4458 336.011 87.2489L336.689 85.7089ZM334.08 77.9448L337.312 85.1822L337.695 86.6106L336.402 86.7063L332.357 77.9448H334.08ZM350.406 77.9448V79.2056H345.092V77.9448H350.406ZM351.731 77.9448V89.563H350.191V77.9448H351.731ZM344.565 77.9448H346.097L345.834 83.6342C345.797 84.4534 345.733 85.1849 345.642 85.8286C345.557 86.4669 345.435 87.0228 345.275 87.4963C345.116 87.9644 344.908 88.3528 344.653 88.6613C344.398 88.9645 344.084 89.1906 343.711 89.3396C343.344 89.4885 342.903 89.563 342.387 89.563H341.972V88.3102L342.291 88.2863C342.589 88.265 342.844 88.1985 343.057 88.0868C343.275 87.9697 343.459 87.7942 343.608 87.5601C343.762 87.3261 343.887 87.0228 343.983 86.6505C344.079 86.2781 344.153 85.8233 344.206 85.286C344.265 84.7434 344.31 84.1103 344.342 83.3868L344.565 77.9448ZM354.308 88.781C354.308 88.531 354.385 88.3208 354.54 88.1506C354.699 87.9751 354.928 87.8873 355.226 87.8873C355.524 87.8873 355.75 87.9751 355.904 88.1506C356.064 88.3208 356.144 88.531 356.144 88.781C356.144 89.0257 356.064 89.2332 355.904 89.4034C355.75 89.5736 355.524 89.6587 355.226 89.6587C354.928 89.6587 354.699 89.5736 354.54 89.4034C354.385 89.2332 354.308 89.0257 354.308 88.781ZM367.171 78.9742L363.325 89.563H361.753L366.182 77.9448H367.195L367.171 78.9742ZM370.395 89.563L366.541 78.9742L366.517 77.9448H367.53L371.975 89.563H370.395ZM370.195 85.262V86.5228H363.668V85.262H370.195ZM377.816 85.0067H374.712V83.7539H377.816C378.417 83.7539 378.904 83.6581 379.276 83.4666C379.649 83.2751 379.92 83.0091 380.09 82.6687C380.266 82.3282 380.353 81.9399 380.353 81.5037C380.353 81.1047 380.266 80.7297 380.09 80.3786C379.92 80.0275 379.649 79.7455 379.276 79.5327C378.904 79.3146 378.417 79.2056 377.816 79.2056H375.071V89.563H373.531V77.9448H377.816C378.694 77.9448 379.436 78.0964 380.042 78.3996C380.649 78.7029 381.109 79.1231 381.423 79.6604C381.736 80.1924 381.893 80.8015 381.893 81.4877C381.893 82.2325 381.736 82.8682 381.423 83.3948C381.109 83.9215 380.649 84.3231 380.042 84.5997C379.436 84.871 378.694 85.0067 377.816 85.0067ZM390.926 77.9448V79.2056H385.325V89.563H383.793V77.9448H390.926ZM384.966 82.6767H388.133C388.985 82.6767 389.703 82.8203 390.288 83.1076C390.873 83.3895 391.317 83.7858 391.62 84.2965C391.924 84.8072 392.075 85.4057 392.075 86.0919C392.075 86.6026 391.99 87.0707 391.82 87.4963C391.65 87.9165 391.397 88.2836 391.062 88.5975C390.727 88.906 390.314 89.1454 389.825 89.3156C389.336 89.4805 388.772 89.563 388.133 89.563H383.793V77.9448H385.333V88.3102H388.133C388.703 88.3102 389.163 88.2065 389.514 87.999C389.87 87.7862 390.131 87.5096 390.296 87.1691C390.461 86.8287 390.543 86.4643 390.543 86.0759C390.543 85.6876 390.461 85.3312 390.296 85.0067C390.131 84.6822 389.87 84.4242 389.514 84.2327C389.163 84.0358 388.703 83.9374 388.133 83.9374H384.966V82.6767ZM398.451 78.9742L394.605 89.563H393.033L397.461 77.9448H398.475L398.451 78.9742ZM401.675 89.563L397.821 78.9742L397.797 77.9448H398.81L403.255 89.563H401.675ZM401.475 85.262V86.5228H394.948V85.262H401.475ZM408.066 77.9448V89.563H406.55V77.9448H408.066ZM411.801 77.9448V79.2056H402.824V77.9448H411.801ZM412.902 87.8075V88.9964C412.902 89.4805 412.779 89.9912 412.535 90.5285C412.29 91.0711 411.947 91.5233 411.505 91.885L410.668 91.3025C410.838 91.0685 410.981 90.8291 411.098 90.5844C411.215 90.345 411.303 90.095 411.362 89.8343C411.426 89.5789 411.458 89.3076 411.458 89.0204V87.8075H412.902ZM426.291 88.3501V89.563H418.687V88.5017L422.493 84.2646C422.961 83.7433 423.323 83.3017 423.578 82.94C423.839 82.5729 424.02 82.2458 424.121 81.9585C424.227 81.6659 424.281 81.368 424.281 81.0648C424.281 80.6818 424.201 80.336 424.041 80.0275C423.887 79.7136 423.658 79.4636 423.355 79.2774C423.052 79.0912 422.685 78.9981 422.254 78.9981C421.738 78.9981 421.307 79.0992 420.961 79.3013C420.621 79.4982 420.365 79.7748 420.195 80.1312C420.025 80.4876 419.94 80.8972 419.94 81.36H418.464C418.464 80.7057 418.607 80.1073 418.894 79.5647C419.182 79.0221 419.607 78.5912 420.171 78.272C420.735 77.9475 421.429 77.7852 422.254 77.7852C422.988 77.7852 423.616 77.9156 424.137 78.1762C424.658 78.4316 425.057 78.7933 425.334 79.2614C425.616 79.7242 425.757 80.2669 425.757 80.8893C425.757 81.2297 425.698 81.5755 425.581 81.9266C425.47 82.2724 425.313 82.6182 425.11 82.9639C424.914 83.3097 424.682 83.6502 424.416 83.9853C424.156 84.3204 423.876 84.6503 423.578 84.9748L420.466 88.3501H426.291ZM429.866 77.9448V89.563H428.326V77.9448H429.866ZM437.024 77.9448L431.981 84.3364H429.252L429.012 83.0597H431.063L435.117 77.9448H437.024ZM435.476 89.563L431.111 84.1369L431.973 82.7884L437.359 89.563H435.476ZM440.527 83.0278H441.58C442.096 83.0278 442.522 82.9427 442.857 82.7724C443.197 82.5969 443.45 82.3601 443.615 82.0622C443.785 81.759 443.87 81.4186 443.87 81.0409C443.87 80.594 443.796 80.219 443.647 79.9158C443.498 79.6125 443.275 79.3838 442.977 79.2295C442.679 79.0752 442.301 78.9981 441.844 78.9981C441.429 78.9981 441.062 79.0806 440.742 79.2455C440.428 79.4051 440.181 79.6338 440 79.9317C439.825 80.2296 439.737 80.5807 439.737 80.985H438.261C438.261 80.3945 438.41 79.8572 438.708 79.3731C439.005 78.8891 439.423 78.5034 439.96 78.2161C440.503 77.9289 441.131 77.7852 441.844 77.7852C442.546 77.7852 443.16 77.9102 443.687 78.1603C444.213 78.405 444.623 78.772 444.916 79.2614C445.208 79.7455 445.354 80.3493 445.354 81.0728C445.354 81.3654 445.285 81.6792 445.147 82.0144C445.014 82.3442 444.804 82.6527 444.517 82.94C444.235 83.2273 443.868 83.464 443.415 83.6502C442.963 83.831 442.421 83.9215 441.788 83.9215H440.527V83.0278ZM440.527 84.2407V83.3549H441.788C442.527 83.3549 443.139 83.4427 443.623 83.6183C444.107 83.7938 444.487 84.0279 444.764 84.3204C445.046 84.613 445.243 84.9349 445.354 85.286C445.472 85.6317 445.53 85.9775 445.53 86.3233C445.53 86.8659 445.437 87.3473 445.251 87.7676C445.07 88.1879 444.812 88.5443 444.477 88.8369C444.147 89.1294 443.759 89.3502 443.312 89.4992C442.865 89.6481 442.378 89.7226 441.851 89.7226C441.346 89.7226 440.87 89.6508 440.423 89.5071C439.982 89.3635 439.591 89.156 439.25 88.8847C438.91 88.6081 438.644 88.2703 438.452 87.8713C438.261 87.467 438.165 87.0069 438.165 86.4909H439.641C439.641 86.8952 439.729 87.2489 439.904 87.5522C440.085 87.8554 440.341 88.0921 440.671 88.2623C441.006 88.4272 441.399 88.5097 441.851 88.5097C442.304 88.5097 442.692 88.4326 443.016 88.2783C443.346 88.1187 443.599 87.8793 443.775 87.5601C443.955 87.2409 444.046 86.8393 444.046 86.3552C444.046 85.8711 443.945 85.4748 443.743 85.1663C443.54 84.8524 443.253 84.621 442.881 84.4721C442.514 84.3178 442.08 84.2407 441.58 84.2407H440.527Z" fill="white"/>
<path d="M161.455 594.504V601.875C161.455 612.009 160.135 621.099 157.493 629.146C154.852 637.192 151.075 644.04 146.161 649.691C141.309 655.342 135.474 659.672 128.656 662.682C121.838 665.63 114.284 667.104 105.992 667.104C97.7613 667.104 90.2372 665.63 83.4194 662.682C76.6631 659.672 70.7974 655.342 65.8222 649.691C60.8471 644.04 56.9776 637.192 54.2136 629.146C51.5111 621.099 50.1598 612.009 50.1598 601.875V594.504C50.1598 584.369 51.5111 575.31 54.2136 567.325C56.9161 559.279 60.7243 552.43 65.638 546.78C70.6131 541.067 76.4788 536.737 83.2352 533.789C90.0529 530.779 97.577 529.275 105.807 529.275C114.099 529.275 121.654 530.779 128.472 533.789C135.29 536.737 141.155 541.067 146.069 546.78C150.983 552.43 154.76 559.279 157.401 567.325C160.104 575.31 161.455 584.369 161.455 594.504ZM138.33 601.875V594.32C138.33 586.826 137.593 580.224 136.119 574.511C134.706 568.738 132.587 563.916 129.762 560.047C126.998 556.116 123.589 553.167 119.535 551.202C115.481 549.175 110.905 548.162 105.807 548.162C100.71 548.162 96.1643 549.175 92.1719 551.202C88.1796 553.167 84.7707 556.116 81.9453 560.047C79.1814 563.916 77.0623 568.738 75.5882 574.511C74.1141 580.224 73.377 586.826 73.377 594.32V601.875C73.377 609.368 74.1141 616.001 75.5882 621.775C77.0623 627.549 79.2121 632.432 82.0374 636.424C84.9242 640.355 88.3638 643.334 92.3562 645.361C96.3486 647.326 100.894 648.309 105.992 648.309C111.151 648.309 115.727 647.326 119.719 645.361C123.712 643.334 127.09 640.355 129.854 636.424C132.618 632.432 134.706 627.549 136.119 621.775C137.593 616.001 138.33 609.368 138.33 601.875ZM290.716 531.117V665.261H267.683V549.544H208.074V665.261H185.041V531.117H290.716ZM334.939 582.619H368.752C378.948 582.619 387.639 584.339 394.825 587.778C402.073 591.156 407.601 595.917 411.409 602.059C415.278 608.201 417.213 615.356 417.213 623.525C417.213 629.668 416.108 635.288 413.896 640.386C411.747 645.484 408.584 649.906 404.407 653.653C400.23 657.338 395.132 660.194 389.113 662.221C383.155 664.248 376.368 665.261 368.752 665.261H319.001V531.117H342.126V646.927H368.752C374.587 646.927 379.378 645.852 383.124 643.702C386.871 641.491 389.635 638.604 391.416 635.042C393.259 631.48 394.18 627.579 394.18 623.341C394.18 619.226 393.259 615.479 391.416 612.101C389.635 608.723 386.871 606.02 383.124 603.994C379.378 601.967 374.587 600.953 368.752 600.953H334.939V582.619ZM454.158 531.117V665.261H431.033V531.117H454.158ZM534.589 531.117V665.261H511.648V531.117H534.589ZM576.694 531.117V549.544H469.913V531.117H576.694Z" fill="white"/>
<mask id="mask0_57_982" style="mask-type:alpha" maskUnits="userSpaceOnUse" x="-44" y="159" width="573" height="136">
<path d="M-1.11675 216.782H-16.0746V206.193H-3.19012C1.40091 206.193 5.12804 205.526 7.99126 204.193C10.8545 202.811 12.9279 200.911 14.2114 198.492C15.5442 196.023 16.2107 193.16 16.2107 189.902C16.2107 186.989 15.4702 184.324 13.9892 181.905C12.5576 179.486 10.3361 177.56 7.32482 176.129C4.3135 174.648 0.438278 173.907 -4.30085 173.907C-7.8552 173.907 -11.0887 174.549 -14.0013 175.833C-16.9138 177.116 -19.234 178.918 -20.9618 181.238C-22.6403 183.558 -23.4795 186.298 -23.4795 189.458H-42.0658C-42.0658 184.768 -41.0785 180.572 -39.1038 176.869C-37.0798 173.118 -34.34 169.933 -30.8844 167.317C-27.3794 164.701 -23.3561 162.701 -18.8144 161.319C-14.2234 159.887 -9.38554 159.172 -4.30085 159.172C1.62306 159.172 6.97926 159.838 11.7678 161.171C16.5562 162.454 20.6783 164.38 24.1339 166.947C27.5895 169.514 30.2306 172.723 32.0571 176.573C33.8837 180.374 34.797 184.793 34.797 189.828C34.797 193.53 33.933 197.011 32.2052 200.269C30.5268 203.527 28.1079 206.39 24.9485 208.858C21.789 211.327 17.9879 213.277 13.5449 214.708C9.15136 216.091 4.26414 216.782 -1.11675 216.782ZM-16.0746 210.339H-1.11675C4.85653 210.339 10.1634 210.956 14.8038 212.191C19.4442 213.425 23.3687 215.227 26.5775 217.596C29.7863 219.966 32.2299 222.903 33.9084 226.408C35.5868 229.864 36.426 233.838 36.426 238.33C36.426 243.365 35.414 247.858 33.39 251.807C31.4154 255.707 28.6015 259.014 24.9485 261.729C21.2954 264.444 16.9759 266.493 11.9899 267.875C7.05331 269.258 1.62306 269.949 -4.30085 269.949C-9.08934 269.949 -13.8285 269.356 -18.5182 268.172C-23.1586 266.937 -27.3794 265.062 -31.1806 262.544C-34.9324 259.977 -37.9437 256.719 -40.2146 252.769C-42.4854 248.82 -43.6208 244.081 -43.6208 238.552H-24.9605C-24.9605 241.613 -24.0966 244.427 -22.3688 246.994C-20.5916 249.511 -18.1727 251.535 -15.112 253.066C-12.0019 254.547 -8.39822 255.287 -4.30085 255.287C0.388912 255.287 4.36287 254.547 7.62102 253.066C10.9285 251.585 13.4462 249.561 15.174 246.994C16.9512 244.427 17.8398 241.539 17.8398 238.33C17.8398 235.269 17.3708 232.628 16.4328 230.407C15.5442 228.136 14.2114 226.309 12.4342 224.927C10.657 223.495 8.46024 222.434 5.84384 221.743C3.22745 221.052 0.216131 220.706 -3.19012 220.706H-16.0746V210.339ZM96.0354 175.018L63.8241 268.468H44.3493L84.928 160.653H97.3682L96.0354 175.018ZM122.989 268.468L90.7038 175.018L89.2969 160.653H101.811L142.538 268.468H122.989ZM121.434 228.481V243.217H62.7874V228.481H121.434ZM222.955 160.653V175.462H172.824V268.468H154.312V160.653H222.955ZM167.196 202.046H194.298C202.493 202.046 209.503 203.428 215.328 206.193C221.153 208.908 225.596 212.734 228.657 217.67C231.718 222.607 233.248 228.358 233.248 234.924C233.248 239.86 232.384 244.377 230.656 248.475C228.928 252.572 226.386 256.126 223.029 259.138C219.672 262.1 215.575 264.395 210.737 266.024C205.949 267.653 200.469 268.468 194.298 268.468H154.312V160.653H172.972V253.732H194.298C198.988 253.732 202.839 252.868 205.85 251.14C208.861 249.363 211.083 247.043 212.514 244.18C213.995 241.317 214.736 238.182 214.736 234.776C214.736 231.468 213.995 228.457 212.514 225.742C211.083 223.026 208.861 220.854 205.85 219.225C202.839 217.596 198.988 216.782 194.298 216.782H167.196V202.046ZM282.268 230.925L309.666 160.653H330.178L292.709 248.919C291.524 251.634 290.167 254.275 288.636 256.842C287.156 259.36 285.354 261.606 283.231 263.581C281.108 265.555 278.541 267.135 275.53 268.32C272.519 269.455 268.865 270.023 264.571 270.023C263.435 270.023 262.053 269.973 260.424 269.875C258.844 269.776 257.684 269.677 256.944 269.579L257.092 254.991C257.684 255.09 258.671 255.164 260.054 255.213C261.485 255.262 262.522 255.287 263.164 255.287C266.027 255.287 268.298 254.818 269.976 253.88C271.655 252.893 272.987 251.585 273.975 249.956C275.011 248.277 275.925 246.451 276.715 244.476L282.268 230.925ZM261.683 160.653L288.785 220.336L294.116 239.737L279.677 240.255L241.393 160.653H261.683ZM423.405 253.732V268.468H343.951V253.732H423.405ZM348.542 253.732V294.977H330.77L330.104 253.732H348.542ZM437.771 253.732L436.66 294.903H419.185V253.732H437.771ZM410.373 160.653V175.462H360.612V160.653H410.373ZM424.59 160.653V268.468H406.078V160.653H424.59ZM356.91 160.653H375.496L372.904 204.341C372.509 211.253 371.793 217.473 370.757 223.002C369.72 228.531 368.461 233.492 366.98 237.886C365.549 242.23 363.919 246.08 362.093 249.437C360.266 252.745 358.316 255.608 356.243 258.027C354.17 260.446 352.047 262.519 349.875 264.247C347.752 265.925 345.654 267.332 343.581 268.468H333.658V253.732H338.471C339.804 252.498 341.285 250.721 342.914 248.401C344.543 246.031 346.123 242.946 347.653 239.144C349.233 235.294 350.615 230.53 351.8 224.853C352.985 219.176 353.799 212.339 354.244 204.341L356.91 160.653ZM462.059 202.046H489.161C497.356 202.046 504.366 203.428 510.191 206.193C516.016 208.908 520.459 212.734 523.519 217.67C526.58 222.607 528.111 228.358 528.111 234.924C528.111 239.86 527.247 244.377 525.519 248.475C523.791 252.572 521.249 256.126 517.892 259.138C514.535 262.1 510.438 264.395 505.6 266.024C500.811 267.653 495.332 268.468 489.161 268.468H449.174V160.653H467.835V253.732H489.161C493.851 253.732 497.701 252.868 500.712 251.14C503.724 249.363 505.945 247.043 507.377 244.18C508.858 241.317 509.598 238.182 509.598 234.776C509.598 231.468 508.858 228.457 507.377 225.742C505.945 223.026 503.724 220.854 500.712 219.225C497.701 217.596 493.851 216.782 489.161 216.782H462.059V202.046Z" fill="black"/>
</mask>
<g mask="url(#mask0_57_982)">
<rect x="-79.3569" y="216.126" width="613.608" height="115.489" fill="white"/>
</g>
<mask id="mask1_57_982" style="mask-type:alpha" maskUnits="userSpaceOnUse" x="-29" y="167" width="573" height="137">
<path d="M14.0483 224.947H-0.909581V214.358H11.9749C16.566 214.358 20.2931 213.692 23.1563 212.359C26.0195 210.977 28.0929 209.076 29.3764 206.657C30.7093 204.189 31.3757 201.326 31.3757 198.067C31.3757 195.155 30.6352 192.489 29.1543 190.07C27.7226 187.651 25.5012 185.726 22.4899 184.294C19.4785 182.813 15.6033 182.073 10.8642 182.073C7.30984 182.073 4.07638 182.715 1.16379 183.998C-1.7488 185.282 -4.069 187.084 -5.79681 189.404C-7.47525 191.724 -8.31447 194.464 -8.31447 197.623H-26.9007C-26.9007 192.933 -25.9134 188.737 -23.9388 185.035C-21.9148 181.283 -19.175 178.099 -15.7194 175.483C-12.2144 172.866 -8.19105 170.867 -3.64939 169.485C0.94164 168.053 5.7795 167.337 10.8642 167.337C16.7881 167.337 22.1443 168.004 26.9328 169.336C31.7213 170.62 35.8433 172.545 39.299 175.112C42.7546 177.679 45.3956 180.888 47.2222 184.739C49.0487 188.54 49.962 192.958 49.962 197.993C49.962 201.696 49.0981 205.176 47.3703 208.434C45.6918 211.692 43.2729 214.556 40.1135 217.024C36.9541 219.492 33.1529 221.442 28.71 222.874C24.3164 224.256 19.4292 224.947 14.0483 224.947ZM-0.909581 218.505H14.0483C20.0216 218.505 25.3284 219.122 29.9688 220.356C34.6092 221.59 38.5338 223.392 41.7426 225.762C44.9514 228.131 47.395 231.069 49.0734 234.574C50.7518 238.029 51.5911 242.003 51.5911 246.495C51.5911 251.531 50.5791 256.023 48.5551 259.972C46.5804 263.872 43.7666 267.18 40.1135 269.895C36.4604 272.61 32.1409 274.659 27.1549 276.041C22.2183 277.423 16.7881 278.114 10.8642 278.114C6.0757 278.114 1.33657 277.522 -3.35319 276.337C-7.99359 275.103 -12.2144 273.227 -16.0156 270.709C-19.7674 268.142 -22.7787 264.884 -25.0495 260.935C-27.3203 256.986 -28.4558 252.247 -28.4558 246.718H-9.79545C-9.79545 249.778 -8.93154 252.592 -7.20374 255.159C-5.42656 257.677 -3.00763 259.701 0.053054 261.231C3.16311 262.712 6.76682 263.453 10.8642 263.453C15.554 263.453 19.5279 262.712 22.7861 261.231C26.0936 259.75 28.6112 257.726 30.339 255.159C32.1162 252.592 33.0048 249.704 33.0048 246.495C33.0048 243.435 32.5358 240.794 31.5979 238.572C30.7093 236.301 29.3764 234.475 27.5992 233.093C25.8221 231.661 23.6253 230.6 21.0089 229.908C18.3925 229.217 15.3812 228.872 11.9749 228.872H-0.909581V218.505ZM111.2 183.184L78.9891 276.633H59.5143L100.093 168.818H112.533L111.2 183.184ZM138.154 276.633L105.869 183.184L104.462 168.818H116.976L157.703 276.633H138.154ZM136.599 236.647V251.383H77.9525V236.647H136.599ZM238.12 168.818V183.628H187.989V276.633H169.477V168.818H238.12ZM182.361 210.211H209.463C217.658 210.211 224.668 211.594 230.493 214.358C236.318 217.073 240.761 220.899 243.822 225.836C246.883 230.772 248.413 236.523 248.413 243.089C248.413 248.026 247.549 252.543 245.821 256.64C244.093 260.737 241.551 264.292 238.194 267.303C234.837 270.265 230.74 272.561 225.902 274.19C221.114 275.819 215.634 276.633 209.463 276.633H169.477V168.818H188.137V261.898H209.463C214.153 261.898 218.004 261.034 221.015 259.306C224.026 257.529 226.248 255.208 227.679 252.345C229.16 249.482 229.901 246.347 229.901 242.941C229.901 239.634 229.16 236.622 227.679 233.907C226.248 231.192 224.026 229.02 221.015 227.391C218.004 225.762 214.153 224.947 209.463 224.947H182.361V210.211ZM297.433 239.091L324.831 168.818H345.343L307.874 257.084C306.689 259.8 305.332 262.441 303.802 265.008C302.321 267.525 300.519 269.771 298.396 271.746C296.273 273.721 293.706 275.3 290.695 276.485C287.684 277.621 284.03 278.188 279.736 278.188C278.6 278.188 277.218 278.139 275.589 278.04C274.009 277.941 272.849 277.843 272.109 277.744L272.257 263.156C272.849 263.255 273.836 263.329 275.219 263.379C276.65 263.428 277.687 263.453 278.329 263.453C281.192 263.453 283.463 262.984 285.141 262.046C286.82 261.058 288.153 259.75 289.14 258.121C290.177 256.443 291.09 254.616 291.88 252.641L297.433 239.091ZM276.848 168.818L303.95 228.502L309.281 247.902L294.842 248.421L256.558 168.818H276.848ZM438.57 261.898V276.633H359.116V261.898H438.57ZM363.707 261.898V303.143H345.935L345.269 261.898H363.707ZM452.936 261.898L451.825 303.069H434.35V261.898H452.936ZM425.538 168.818V183.628H375.777V168.818H425.538ZM439.755 168.818V276.633H421.243V168.818H439.755ZM372.075 168.818H390.661L388.069 212.507C387.674 219.418 386.958 225.638 385.922 231.167C384.885 236.696 383.626 241.658 382.145 246.051C380.714 250.395 379.085 254.246 377.258 257.603C375.431 260.91 373.481 263.773 371.408 266.192C369.335 268.611 367.212 270.685 365.04 272.413C362.917 274.091 360.819 275.498 358.746 276.633H348.823V261.898H353.636C354.969 260.663 356.45 258.886 358.079 256.566C359.708 254.196 361.288 251.111 362.818 247.31C364.398 243.459 365.78 238.696 366.965 233.019C368.15 227.341 368.965 220.504 369.409 212.507L372.075 168.818ZM477.224 210.211H504.326C512.521 210.211 519.531 211.594 525.356 214.358C531.181 217.073 535.624 220.899 538.685 225.836C541.745 230.772 543.276 236.523 543.276 243.089C543.276 248.026 542.412 252.543 540.684 256.64C538.956 260.737 536.414 264.292 533.057 267.303C529.7 270.265 525.603 272.561 520.765 274.19C515.976 275.819 510.497 276.633 504.326 276.633H464.339V168.818H483V261.898H504.326C509.016 261.898 512.866 261.034 515.877 259.306C518.889 257.529 521.11 255.208 522.542 252.345C524.023 249.482 524.763 246.347 524.763 242.941C524.763 239.634 524.023 236.622 522.542 233.907C521.11 231.192 518.889 229.02 515.877 227.391C512.866 225.762 509.016 224.947 504.326 224.947H477.224V210.211Z" fill="black"/>
</mask>
<g mask="url(#mask1_57_982)">
<rect x="-36.1943" y="101.803" width="613.608" height="115.489" fill="white"/>
</g>
</g>
<defs>
<clipPath id="clip0_57_982">
<rect width="486.176" height="688" fill="white"/>
</clipPath>
</defs>
</svg>
