<svg width="487" height="688" viewBox="0 0 487 688" fill="none" xmlns="http://www.w3.org/2000/svg">
<g clip-path="url(#clip0_57_636)">
<rect width="486.176" height="688" fill="black"/>
<mask id="mask0_57_636" style="mask-type:alpha" maskUnits="userSpaceOnUse" x="-12" y="-3" width="620" height="114">
<path d="M7.1555 77.9608L55.6787 -0.682798H74.5321V108.682H55.6787V29.9634L7.1555 108.682H-11.6228V-0.682798H7.1555V77.9608ZM134.623 56.2531H119.45V45.5119H132.52C137.177 45.5119 140.957 44.8358 143.862 43.4838C146.766 42.0817 148.869 40.1538 150.171 37.7001C151.523 35.1963 152.199 32.2919 152.199 28.9869C152.199 26.0325 151.448 23.3284 149.946 20.8747C148.494 18.421 146.24 16.4681 143.186 15.0159C140.131 13.5136 136.2 12.7625 131.393 12.7625C127.787 12.7625 124.507 13.4135 121.553 14.7154C118.599 16.0174 116.245 17.8451 114.492 20.1987C112.79 22.5522 111.939 25.3314 111.939 28.5363H93.0851C93.0851 23.7791 94.0866 19.5227 96.0896 15.767C98.1427 11.9613 100.922 8.7314 104.427 6.0774C107.983 3.42339 112.064 1.39534 116.671 -0.0067788C121.328 -1.45897 126.235 -2.18506 131.393 -2.18506C137.402 -2.18506 142.835 -1.50904 147.692 -0.157005C152.55 1.14496 156.731 3.0979 160.236 5.70183C163.742 8.30576 166.421 11.5607 168.273 15.4666C170.126 19.3224 171.053 23.8041 171.053 28.9118C171.053 32.6675 170.176 36.1978 168.424 39.5028C166.721 42.8078 164.267 45.7122 161.063 48.2159C157.858 50.7197 154.002 52.6977 149.495 54.1499C145.038 55.552 140.081 56.2531 134.623 56.2531ZM119.45 49.7182H134.623C140.682 49.7182 146.065 50.3442 150.772 51.596C155.479 52.8479 159.46 54.6757 162.715 57.0793C165.97 59.4829 168.449 62.4624 170.151 66.0178C171.854 69.5231 172.705 73.5542 172.705 78.111C172.705 83.2187 171.679 87.7756 169.626 91.7816C167.622 95.7376 164.768 99.0927 161.063 101.847C157.357 104.601 152.975 106.679 147.918 108.081C142.91 109.483 137.402 110.184 131.393 110.184C126.536 110.184 121.728 109.583 116.971 108.382C112.264 107.13 107.983 105.227 104.127 102.673C100.321 100.069 97.2664 96.7642 94.9629 92.7581C92.6594 88.7521 91.5077 83.9448 91.5077 78.3364H110.436C110.436 81.441 111.313 84.2954 113.065 86.8993C114.868 89.4531 117.322 91.5062 120.426 93.0586C123.581 94.5608 127.237 95.312 131.393 95.312C136.15 95.312 140.181 94.5608 143.486 93.0586C146.841 91.5563 149.395 89.5032 151.148 86.8993C152.95 84.2954 153.852 81.3659 153.852 78.111C153.852 75.0063 153.376 72.3273 152.425 70.0739C151.523 67.7704 150.171 65.9176 148.368 64.5155C146.566 63.0633 144.337 61.9867 141.683 61.2857C139.029 60.5846 135.975 60.2341 132.52 60.2341H119.45V49.7182ZM198.244 -0.682798H215.069L246.692 83.6694L278.239 -0.682798H295.065L253.302 108.682H239.932L198.244 -0.682798ZM190.582 -0.682798H206.581L209.36 72.3273V108.682H190.582V-0.682798ZM286.727 -0.682798H302.801V108.682H283.948V72.3273L286.727 -0.682798ZM396.768 93.7346V108.682H338.705V93.7346H396.768ZM344.039 -0.682798V108.682H325.185V-0.682798H344.039ZM389.182 44.9861V59.7083H338.705V44.9861H389.182ZM396.392 -0.682798V14.3399H338.705V-0.682798H396.392ZM484.425 44.9861V59.9336H426.363V44.9861H484.425ZM431.02 -0.682798V108.682H412.166V-0.682798H431.02ZM498.922 -0.682798V108.682H480.144V-0.682798H498.922ZM540.009 77.9608L588.532 -0.682798H607.386V108.682H588.532V29.9634L540.009 108.682H521.231V-0.682798H540.009V77.9608Z" fill="black"/>
</mask>
<g mask="url(#mask0_57_636)">
<rect x="-51.8169" y="-46.6245" width="699.936" height="96.9142" fill="white"/>
</g>
<mask id="mask1_57_636" style="mask-type:alpha" maskUnits="userSpaceOnUse" x="-12" y="241" width="620" height="113">
<path d="M7.1555 321.457L55.6787 242.813H74.5321V352.178H55.6787V273.46L7.1555 352.178H-11.6228V242.813H7.1555V321.457ZM134.623 299.749H119.45V289.008H132.52C137.177 289.008 140.957 288.332 143.862 286.98C146.766 285.578 148.869 283.65 150.171 281.196C151.523 278.692 152.199 275.788 152.199 272.483C152.199 269.529 151.448 266.825 149.946 264.371C148.494 261.917 146.24 259.964 143.186 258.512C140.131 257.01 136.2 256.259 131.393 256.259C127.787 256.259 124.507 256.91 121.553 258.212C118.599 259.513 116.245 261.341 114.492 263.695C112.79 266.048 111.939 268.828 111.939 272.032H93.0851C93.0851 267.275 94.0866 263.019 96.0896 259.263C98.1427 255.457 100.922 252.227 104.427 249.573C107.983 246.919 112.064 244.891 116.671 243.489C121.328 242.037 126.235 241.311 131.393 241.311C137.402 241.311 142.835 241.987 147.692 243.339C152.55 244.641 156.731 246.594 160.236 249.198C163.742 251.802 166.421 255.057 168.273 258.963C170.126 262.818 171.053 267.3 171.053 272.408C171.053 276.164 170.176 279.694 168.424 282.999C166.721 286.304 164.267 289.208 161.063 291.712C157.858 294.216 154.002 296.194 149.495 297.646C145.038 299.048 140.081 299.749 134.623 299.749ZM119.45 293.214H134.623C140.682 293.214 146.065 293.84 150.772 295.092C155.479 296.344 159.46 298.172 162.715 300.575C165.97 302.979 168.449 305.959 170.151 309.514C171.854 313.019 172.705 317.05 172.705 321.607C172.705 326.715 171.679 331.272 169.626 335.278C167.622 339.234 164.768 342.589 161.063 345.343C157.357 348.097 152.975 350.175 147.918 351.577C142.91 352.979 137.402 353.68 131.393 353.68C126.536 353.68 121.728 353.08 116.971 351.878C112.264 350.626 107.983 348.723 104.127 346.169C100.321 343.565 97.2664 340.26 94.9629 336.254C92.6594 332.248 91.5077 327.441 91.5077 321.832H110.436C110.436 324.937 111.313 327.791 113.065 330.395C114.868 332.949 117.322 335.002 120.426 336.555C123.581 338.057 127.237 338.808 131.393 338.808C136.15 338.808 140.181 338.057 143.486 336.555C146.841 335.052 149.395 332.999 151.148 330.395C152.95 327.791 153.852 324.862 153.852 321.607C153.852 318.502 153.376 315.823 152.425 313.57C151.523 311.267 150.171 309.414 148.368 308.012C146.566 306.559 144.337 305.483 141.683 304.782C139.029 304.081 135.975 303.73 132.52 303.73H119.45V293.214ZM198.244 242.813H215.069L246.692 327.166L278.239 242.813H295.065L253.302 352.178H239.932L198.244 242.813ZM190.582 242.813H206.581L209.36 315.823V352.178H190.582V242.813ZM286.727 242.813H302.801V352.178H283.948V315.823L286.727 242.813ZM396.768 337.231V352.178H338.705V337.231H396.768ZM344.039 242.813V352.178H325.185V242.813H344.039ZM389.182 288.482V303.204H338.705V288.482H389.182ZM396.392 242.813V257.836H338.705V242.813H396.392ZM484.425 288.482V303.43H426.363V288.482H484.425ZM431.02 242.813V352.178H412.166V242.813H431.02ZM498.922 242.813V352.178H480.144V242.813H498.922ZM540.009 321.457L588.532 242.813H607.386V352.178H588.532V273.46L540.009 352.178H521.231V242.813H540.009V321.457Z" fill="black"/>
</mask>
<g mask="url(#mask1_57_636)">
<rect x="-51.8169" y="196.872" width="699.936" height="96.9142" fill="white"/>
</g>
<mask id="mask2_57_636" style="mask-type:alpha" maskUnits="userSpaceOnUse" x="-12" y="-3" width="620" height="114">
<path d="M7.1555 77.9608L55.6787 -0.682798H74.5321V108.682H55.6787V29.9634L7.1555 108.682H-11.6228V-0.682798H7.1555V77.9608ZM134.623 56.2531H119.45V45.5119H132.52C137.177 45.5119 140.957 44.8358 143.862 43.4838C146.766 42.0817 148.869 40.1538 150.171 37.7001C151.523 35.1963 152.199 32.2919 152.199 28.9869C152.199 26.0325 151.448 23.3284 149.946 20.8747C148.494 18.421 146.24 16.4681 143.186 15.0159C140.131 13.5136 136.2 12.7625 131.393 12.7625C127.787 12.7625 124.507 13.4135 121.553 14.7154C118.599 16.0174 116.245 17.8451 114.492 20.1987C112.79 22.5522 111.939 25.3314 111.939 28.5363H93.0851C93.0851 23.7791 94.0866 19.5227 96.0896 15.767C98.1427 11.9613 100.922 8.7314 104.427 6.0774C107.983 3.42339 112.064 1.39534 116.671 -0.0067788C121.328 -1.45897 126.235 -2.18506 131.393 -2.18506C137.402 -2.18506 142.835 -1.50904 147.692 -0.157005C152.55 1.14496 156.731 3.0979 160.236 5.70183C163.742 8.30576 166.421 11.5607 168.273 15.4666C170.126 19.3224 171.053 23.8041 171.053 28.9118C171.053 32.6675 170.176 36.1978 168.424 39.5028C166.721 42.8078 164.267 45.7122 161.063 48.2159C157.858 50.7197 154.002 52.6977 149.495 54.1499C145.038 55.552 140.081 56.2531 134.623 56.2531ZM119.45 49.7182H134.623C140.682 49.7182 146.065 50.3442 150.772 51.596C155.479 52.8479 159.46 54.6757 162.715 57.0793C165.97 59.4829 168.449 62.4624 170.151 66.0178C171.854 69.5231 172.705 73.5542 172.705 78.111C172.705 83.2187 171.679 87.7756 169.626 91.7816C167.622 95.7376 164.768 99.0927 161.063 101.847C157.357 104.601 152.975 106.679 147.918 108.081C142.91 109.483 137.402 110.184 131.393 110.184C126.536 110.184 121.728 109.583 116.971 108.382C112.264 107.13 107.983 105.227 104.127 102.673C100.321 100.069 97.2664 96.7642 94.9629 92.7581C92.6594 88.7521 91.5077 83.9448 91.5077 78.3364H110.436C110.436 81.441 111.313 84.2954 113.065 86.8993C114.868 89.4531 117.322 91.5062 120.426 93.0586C123.581 94.5608 127.237 95.312 131.393 95.312C136.15 95.312 140.181 94.5608 143.486 93.0586C146.841 91.5563 149.395 89.5032 151.148 86.8993C152.95 84.2954 153.852 81.3659 153.852 78.111C153.852 75.0063 153.376 72.3273 152.425 70.0739C151.523 67.7704 150.171 65.9176 148.368 64.5155C146.566 63.0633 144.337 61.9867 141.683 61.2857C139.029 60.5846 135.975 60.2341 132.52 60.2341H119.45V49.7182ZM198.244 -0.682798H215.069L246.692 83.6694L278.239 -0.682798H295.065L253.302 108.682H239.932L198.244 -0.682798ZM190.582 -0.682798H206.581L209.36 72.3273V108.682H190.582V-0.682798ZM286.727 -0.682798H302.801V108.682H283.948V72.3273L286.727 -0.682798ZM396.768 93.7346V108.682H338.705V93.7346H396.768ZM344.039 -0.682798V108.682H325.185V-0.682798H344.039ZM389.182 44.9861V59.7083H338.705V44.9861H389.182ZM396.392 -0.682798V14.3399H338.705V-0.682798H396.392ZM484.425 44.9861V59.9336H426.363V44.9861H484.425ZM431.02 -0.682798V108.682H412.166V-0.682798H431.02ZM498.922 -0.682798V108.682H480.144V-0.682798H498.922ZM540.009 77.9608L588.532 -0.682798H607.386V108.682H588.532V29.9634L540.009 108.682H521.231V-0.682798H540.009V77.9608Z" fill="black"/>
</mask>
<g mask="url(#mask2_57_636)">
<rect x="-51.8169" y="-46.6245" width="699.936" height="96.9142" fill="white"/>
</g>
<mask id="mask3_57_636" style="mask-type:alpha" maskUnits="userSpaceOnUse" x="-12" y="241" width="620" height="113">
<path d="M7.1555 321.457L55.6787 242.813H74.5321V352.178H55.6787V273.46L7.1555 352.178H-11.6228V242.813H7.1555V321.457ZM134.623 299.749H119.45V289.008H132.52C137.177 289.008 140.957 288.332 143.862 286.98C146.766 285.578 148.869 283.65 150.171 281.196C151.523 278.692 152.199 275.788 152.199 272.483C152.199 269.529 151.448 266.825 149.946 264.371C148.494 261.917 146.24 259.964 143.186 258.512C140.131 257.01 136.2 256.259 131.393 256.259C127.787 256.259 124.507 256.91 121.553 258.212C118.599 259.513 116.245 261.341 114.492 263.695C112.79 266.048 111.939 268.828 111.939 272.032H93.0851C93.0851 267.275 94.0866 263.019 96.0896 259.263C98.1427 255.457 100.922 252.227 104.427 249.573C107.983 246.919 112.064 244.891 116.671 243.489C121.328 242.037 126.235 241.311 131.393 241.311C137.402 241.311 142.835 241.987 147.692 243.339C152.55 244.641 156.731 246.594 160.236 249.198C163.742 251.802 166.421 255.057 168.273 258.963C170.126 262.818 171.053 267.3 171.053 272.408C171.053 276.164 170.176 279.694 168.424 282.999C166.721 286.304 164.267 289.208 161.063 291.712C157.858 294.216 154.002 296.194 149.495 297.646C145.038 299.048 140.081 299.749 134.623 299.749ZM119.45 293.214H134.623C140.682 293.214 146.065 293.84 150.772 295.092C155.479 296.344 159.46 298.172 162.715 300.575C165.97 302.979 168.449 305.959 170.151 309.514C171.854 313.019 172.705 317.05 172.705 321.607C172.705 326.715 171.679 331.272 169.626 335.278C167.622 339.234 164.768 342.589 161.063 345.343C157.357 348.097 152.975 350.175 147.918 351.577C142.91 352.979 137.402 353.68 131.393 353.68C126.536 353.68 121.728 353.08 116.971 351.878C112.264 350.626 107.983 348.723 104.127 346.169C100.321 343.565 97.2664 340.26 94.9629 336.254C92.6594 332.248 91.5077 327.441 91.5077 321.832H110.436C110.436 324.937 111.313 327.791 113.065 330.395C114.868 332.949 117.322 335.002 120.426 336.555C123.581 338.057 127.237 338.808 131.393 338.808C136.15 338.808 140.181 338.057 143.486 336.555C146.841 335.052 149.395 332.999 151.148 330.395C152.95 327.791 153.852 324.862 153.852 321.607C153.852 318.502 153.376 315.823 152.425 313.57C151.523 311.267 150.171 309.414 148.368 308.012C146.566 306.559 144.337 305.483 141.683 304.782C139.029 304.081 135.975 303.73 132.52 303.73H119.45V293.214ZM198.244 242.813H215.069L246.692 327.166L278.239 242.813H295.065L253.302 352.178H239.932L198.244 242.813ZM190.582 242.813H206.581L209.36 315.823V352.178H190.582V242.813ZM286.727 242.813H302.801V352.178H283.948V315.823L286.727 242.813ZM396.768 337.231V352.178H338.705V337.231H396.768ZM344.039 242.813V352.178H325.185V242.813H344.039ZM389.182 288.482V303.204H338.705V288.482H389.182ZM396.392 242.813V257.836H338.705V242.813H396.392ZM484.425 288.482V303.43H426.363V288.482H484.425ZM431.02 242.813V352.178H412.166V242.813H431.02ZM498.922 242.813V352.178H480.144V242.813H498.922ZM540.009 321.457L588.532 242.813H607.386V352.178H588.532V273.46L540.009 352.178H521.231V242.813H540.009V321.457Z" fill="black"/>
</mask>
<g mask="url(#mask3_57_636)">
<rect x="-51.8169" y="196.872" width="699.936" height="96.9142" fill="white"/>
</g>
<mask id="mask4_57_636" style="mask-type:alpha" maskUnits="userSpaceOnUse" x="-34" y="-3" width="620" height="114">
<path d="M-14.3811 77.9608L34.1421 -0.682798H52.9955V108.682H34.1421V29.9634L-14.3811 108.682H-33.1594V-0.682798H-14.3811V77.9608ZM113.086 56.2531H97.9132V45.5119H110.983C115.64 45.5119 119.421 44.8358 122.325 43.4838C125.229 42.0817 127.333 40.1538 128.635 37.7001C129.987 35.1963 130.663 32.2919 130.663 28.9869C130.663 26.0325 129.911 23.3284 128.409 20.8747C126.957 18.421 124.704 16.4681 121.649 15.0159C118.594 13.5136 114.663 12.7625 109.856 12.7625C106.251 12.7625 102.971 13.4135 100.016 14.7154C97.0619 16.0174 94.7084 17.8451 92.9557 20.1987C91.2532 22.5522 90.4019 25.3314 90.4019 28.5363H71.5485C71.5485 23.7791 72.55 19.5227 74.553 15.767C76.6061 11.9613 79.3853 8.7314 82.8906 6.0774C86.4459 3.42339 90.5271 1.39534 95.134 -0.0067788C99.7911 -1.45897 104.698 -2.18506 109.856 -2.18506C115.865 -2.18506 121.298 -1.50904 126.156 -0.157005C131.013 1.14496 135.194 3.0979 138.7 5.70183C142.205 8.30576 144.884 11.5607 146.737 15.4666C148.59 19.3224 149.516 23.8041 149.516 28.9118C149.516 32.6675 148.64 36.1978 146.887 39.5028C145.185 42.8078 142.731 45.7122 139.526 48.2159C136.321 50.7197 132.465 52.6977 127.959 54.1499C123.502 55.552 118.544 56.2531 113.086 56.2531ZM97.9132 49.7182H113.086C119.145 49.7182 124.528 50.3442 129.235 51.596C133.943 52.8479 137.924 54.6757 141.178 57.0793C144.433 59.4829 146.912 62.4624 148.615 66.0178C150.317 69.5231 151.169 73.5542 151.169 78.111C151.169 83.2187 150.142 87.7756 148.089 91.7816C146.086 95.7376 143.232 99.0927 139.526 101.847C135.82 104.601 131.439 106.679 126.381 108.081C121.374 109.483 115.865 110.184 109.856 110.184C104.999 110.184 100.192 109.583 95.4345 108.382C90.7274 107.13 86.4459 105.227 82.5901 102.673C78.7844 100.069 75.7298 96.7642 73.4263 92.7581C71.1228 88.7521 69.9711 83.9448 69.9711 78.3364H88.8996C88.8996 81.441 89.776 84.2954 91.5286 86.8993C93.3313 89.4531 95.785 91.5062 98.8897 93.0586C102.044 94.5608 105.7 95.312 109.856 95.312C114.613 95.312 118.644 94.5608 121.949 93.0586C125.305 91.5563 127.858 89.5032 129.611 86.8993C131.414 84.2954 132.315 81.3659 132.315 78.111C132.315 75.0063 131.839 72.3273 130.888 70.0739C129.987 67.7704 128.635 65.9176 126.832 64.5155C125.029 63.0633 122.801 61.9867 120.147 61.2857C117.493 60.5846 114.438 60.2341 110.983 60.2341H97.9132V49.7182ZM176.707 -0.682798H193.532L225.155 83.6694L256.703 -0.682798H273.528L231.765 108.682H218.395L176.707 -0.682798ZM169.045 -0.682798H185.045L187.824 72.3273V108.682H169.045V-0.682798ZM265.19 -0.682798H281.265V108.682H262.411V72.3273L265.19 -0.682798ZM375.231 93.7346V108.682H317.169V93.7346H375.231ZM322.502 -0.682798V108.682H303.648V-0.682798H322.502ZM367.645 44.9861V59.7083H317.169V44.9861H367.645ZM374.856 -0.682798V14.3399H317.169V-0.682798H374.856ZM462.889 44.9861V59.9336H404.826V44.9861H462.889ZM409.483 -0.682798V108.682H390.63V-0.682798H409.483ZM477.385 -0.682798V108.682H458.607V-0.682798H477.385ZM518.472 77.9608L566.996 -0.682798H585.849V108.682H566.996V29.9634L518.472 108.682H499.694V-0.682798H518.472V77.9608Z" fill="black"/>
</mask>
<g mask="url(#mask4_57_636)">
<rect x="-34.8965" y="50.2896" width="672.246" height="72.301" fill="white"/>
</g>
<mask id="mask5_57_636" style="mask-type:alpha" maskUnits="userSpaceOnUse" x="-34" y="241" width="620" height="113">
<path d="M-14.3811 321.456L34.1421 242.813H52.9955V352.178H34.1421V273.459L-14.3811 352.178H-33.1594V242.813H-14.3811V321.456ZM113.086 299.749H97.9132V289.007H110.983C115.64 289.007 119.421 288.331 122.325 286.979C125.229 285.577 127.333 283.649 128.635 281.196C129.987 278.692 130.663 275.788 130.663 272.483C130.663 269.528 129.911 266.824 128.409 264.37C126.957 261.917 124.704 259.964 121.649 258.511C118.594 257.009 114.663 256.258 109.856 256.258C106.251 256.258 102.971 256.909 100.016 258.211C97.0619 259.513 94.7084 261.341 92.9557 263.694C91.2532 266.048 90.4019 268.827 90.4019 272.032H71.5485C71.5485 267.275 72.55 263.018 74.553 259.263C76.6061 255.457 79.3853 252.227 82.8906 249.573C86.4459 246.919 90.5271 244.891 95.134 243.489C99.7911 242.037 104.698 241.311 109.856 241.311C115.865 241.311 121.298 241.987 126.156 243.339C131.013 244.641 135.194 246.594 138.7 249.197C142.205 251.801 144.884 255.056 146.737 258.962C148.59 262.818 149.516 267.3 149.516 272.407C149.516 276.163 148.64 279.693 146.887 282.998C145.185 286.303 142.731 289.208 139.526 291.712C136.321 294.215 132.465 296.193 127.959 297.645C123.502 299.048 118.544 299.749 113.086 299.749ZM97.9132 293.214H113.086C119.145 293.214 124.528 293.84 129.235 295.092C133.943 296.344 137.924 298.171 141.178 300.575C144.433 302.979 146.912 305.958 148.615 309.513C150.317 313.019 151.169 317.05 151.169 321.607C151.169 326.714 150.142 331.271 148.089 335.277C146.086 339.233 143.232 342.588 139.526 345.342C135.82 348.097 131.439 350.175 126.381 351.577C121.374 352.979 115.865 353.68 109.856 353.68C104.999 353.68 100.192 353.079 95.4345 351.877C90.7274 350.625 86.4459 348.723 82.5901 346.169C78.7844 343.565 75.7298 340.26 73.4263 336.254C71.1228 332.248 69.9711 327.44 69.9711 321.832H88.8996C88.8996 324.937 89.776 327.791 91.5286 330.395C93.3313 332.949 95.785 335.002 98.8897 336.554C102.044 338.056 105.7 338.808 109.856 338.808C114.613 338.808 118.644 338.056 121.949 336.554C125.305 335.052 127.858 332.999 129.611 330.395C131.414 327.791 132.315 324.862 132.315 321.607C132.315 318.502 131.839 315.823 130.888 313.57C129.987 311.266 128.635 309.413 126.832 308.011C125.029 306.559 122.801 305.482 120.147 304.781C117.493 304.08 114.438 303.73 110.983 303.73H97.9132V293.214ZM176.707 242.813H193.532L225.155 327.165L256.703 242.813H273.528L231.765 352.178H218.395L176.707 242.813ZM169.045 242.813H185.045L187.824 315.823V352.178H169.045V242.813ZM265.19 242.813H281.265V352.178H262.411V315.823L265.19 242.813ZM375.231 337.23V352.178H317.169V337.23H375.231ZM322.502 242.813V352.178H303.648V242.813H322.502ZM367.645 288.482V303.204H317.169V288.482H367.645ZM374.856 242.813V257.835H317.169V242.813H374.856ZM462.889 288.482V303.429H404.826V288.482H462.889ZM409.483 242.813V352.178H390.63V242.813H409.483ZM477.385 242.813V352.178H458.607V242.813H477.385ZM518.472 321.456L566.996 242.813H585.849V352.178H566.996V273.459L518.472 352.178H499.694V242.813H518.472V321.456Z" fill="black"/>
</mask>
<g mask="url(#mask5_57_636)">
<rect x="-34.8965" y="293.785" width="672.246" height="72.301" fill="white"/>
</g>
<mask id="mask6_57_636" style="mask-type:alpha" maskUnits="userSpaceOnUse" x="-34" y="-3" width="620" height="114">
<path d="M-14.3811 77.9608L34.1421 -0.682798H52.9955V108.682H34.1421V29.9634L-14.3811 108.682H-33.1594V-0.682798H-14.3811V77.9608ZM113.086 56.2531H97.9132V45.5119H110.983C115.64 45.5119 119.421 44.8358 122.325 43.4838C125.229 42.0817 127.333 40.1538 128.635 37.7001C129.987 35.1963 130.663 32.2919 130.663 28.9869C130.663 26.0325 129.911 23.3284 128.409 20.8747C126.957 18.421 124.704 16.4681 121.649 15.0159C118.594 13.5136 114.663 12.7625 109.856 12.7625C106.251 12.7625 102.971 13.4135 100.016 14.7154C97.0619 16.0174 94.7084 17.8451 92.9557 20.1987C91.2532 22.5522 90.4019 25.3314 90.4019 28.5363H71.5485C71.5485 23.7791 72.55 19.5227 74.553 15.767C76.6061 11.9613 79.3853 8.7314 82.8906 6.0774C86.4459 3.42339 90.5271 1.39534 95.134 -0.0067788C99.7911 -1.45897 104.698 -2.18506 109.856 -2.18506C115.865 -2.18506 121.298 -1.50904 126.156 -0.157005C131.013 1.14496 135.194 3.0979 138.7 5.70183C142.205 8.30576 144.884 11.5607 146.737 15.4666C148.59 19.3224 149.516 23.8041 149.516 28.9118C149.516 32.6675 148.64 36.1978 146.887 39.5028C145.185 42.8078 142.731 45.7122 139.526 48.2159C136.321 50.7197 132.465 52.6977 127.959 54.1499C123.502 55.552 118.544 56.2531 113.086 56.2531ZM97.9132 49.7182H113.086C119.145 49.7182 124.528 50.3442 129.235 51.596C133.943 52.8479 137.924 54.6757 141.178 57.0793C144.433 59.4829 146.912 62.4624 148.615 66.0178C150.317 69.5231 151.169 73.5542 151.169 78.111C151.169 83.2187 150.142 87.7756 148.089 91.7816C146.086 95.7376 143.232 99.0927 139.526 101.847C135.82 104.601 131.439 106.679 126.381 108.081C121.374 109.483 115.865 110.184 109.856 110.184C104.999 110.184 100.192 109.583 95.4345 108.382C90.7274 107.13 86.4459 105.227 82.5901 102.673C78.7844 100.069 75.7298 96.7642 73.4263 92.7581C71.1228 88.7521 69.9711 83.9448 69.9711 78.3364H88.8996C88.8996 81.441 89.776 84.2954 91.5286 86.8993C93.3313 89.4531 95.785 91.5062 98.8897 93.0586C102.044 94.5608 105.7 95.312 109.856 95.312C114.613 95.312 118.644 94.5608 121.949 93.0586C125.305 91.5563 127.858 89.5032 129.611 86.8993C131.414 84.2954 132.315 81.3659 132.315 78.111C132.315 75.0063 131.839 72.3273 130.888 70.0739C129.987 67.7704 128.635 65.9176 126.832 64.5155C125.029 63.0633 122.801 61.9867 120.147 61.2857C117.493 60.5846 114.438 60.2341 110.983 60.2341H97.9132V49.7182ZM176.707 -0.682798H193.532L225.155 83.6694L256.703 -0.682798H273.528L231.765 108.682H218.395L176.707 -0.682798ZM169.045 -0.682798H185.045L187.824 72.3273V108.682H169.045V-0.682798ZM265.19 -0.682798H281.265V108.682H262.411V72.3273L265.19 -0.682798ZM375.231 93.7346V108.682H317.169V93.7346H375.231ZM322.502 -0.682798V108.682H303.648V-0.682798H322.502ZM367.645 44.9861V59.7083H317.169V44.9861H367.645ZM374.856 -0.682798V14.3399H317.169V-0.682798H374.856ZM462.889 44.9861V59.9336H404.826V44.9861H462.889ZM409.483 -0.682798V108.682H390.63V-0.682798H409.483ZM477.385 -0.682798V108.682H458.607V-0.682798H477.385ZM518.472 77.9608L566.996 -0.682798H585.849V108.682H566.996V29.9634L518.472 108.682H499.694V-0.682798H518.472V77.9608Z" fill="black"/>
</mask>
<g mask="url(#mask6_57_636)">
<rect x="-34.8965" y="50.2896" width="672.246" height="72.301" fill="white"/>
</g>
<mask id="mask7_57_636" style="mask-type:alpha" maskUnits="userSpaceOnUse" x="-34" y="241" width="620" height="113">
<path d="M-14.3811 321.456L34.1421 242.813H52.9955V352.178H34.1421V273.459L-14.3811 352.178H-33.1594V242.813H-14.3811V321.456ZM113.086 299.749H97.9132V289.007H110.983C115.64 289.007 119.421 288.331 122.325 286.979C125.229 285.577 127.333 283.649 128.635 281.196C129.987 278.692 130.663 275.788 130.663 272.483C130.663 269.528 129.911 266.824 128.409 264.37C126.957 261.917 124.704 259.964 121.649 258.511C118.594 257.009 114.663 256.258 109.856 256.258C106.251 256.258 102.971 256.909 100.016 258.211C97.0619 259.513 94.7084 261.341 92.9557 263.694C91.2532 266.048 90.4019 268.827 90.4019 272.032H71.5485C71.5485 267.275 72.55 263.018 74.553 259.263C76.6061 255.457 79.3853 252.227 82.8906 249.573C86.4459 246.919 90.5271 244.891 95.134 243.489C99.7911 242.037 104.698 241.311 109.856 241.311C115.865 241.311 121.298 241.987 126.156 243.339C131.013 244.641 135.194 246.594 138.7 249.197C142.205 251.801 144.884 255.056 146.737 258.962C148.59 262.818 149.516 267.3 149.516 272.407C149.516 276.163 148.64 279.693 146.887 282.998C145.185 286.303 142.731 289.208 139.526 291.712C136.321 294.215 132.465 296.193 127.959 297.645C123.502 299.048 118.544 299.749 113.086 299.749ZM97.9132 293.214H113.086C119.145 293.214 124.528 293.84 129.235 295.092C133.943 296.344 137.924 298.171 141.178 300.575C144.433 302.979 146.912 305.958 148.615 309.513C150.317 313.019 151.169 317.05 151.169 321.607C151.169 326.714 150.142 331.271 148.089 335.277C146.086 339.233 143.232 342.588 139.526 345.342C135.82 348.097 131.439 350.175 126.381 351.577C121.374 352.979 115.865 353.68 109.856 353.68C104.999 353.68 100.192 353.079 95.4345 351.877C90.7274 350.625 86.4459 348.723 82.5901 346.169C78.7844 343.565 75.7298 340.26 73.4263 336.254C71.1228 332.248 69.9711 327.44 69.9711 321.832H88.8996C88.8996 324.937 89.776 327.791 91.5286 330.395C93.3313 332.949 95.785 335.002 98.8897 336.554C102.044 338.056 105.7 338.808 109.856 338.808C114.613 338.808 118.644 338.056 121.949 336.554C125.305 335.052 127.858 332.999 129.611 330.395C131.414 327.791 132.315 324.862 132.315 321.607C132.315 318.502 131.839 315.823 130.888 313.57C129.987 311.266 128.635 309.413 126.832 308.011C125.029 306.559 122.801 305.482 120.147 304.781C117.493 304.08 114.438 303.73 110.983 303.73H97.9132V293.214ZM176.707 242.813H193.532L225.155 327.165L256.703 242.813H273.528L231.765 352.178H218.395L176.707 242.813ZM169.045 242.813H185.045L187.824 315.823V352.178H169.045V242.813ZM265.19 242.813H281.265V352.178H262.411V315.823L265.19 242.813ZM375.231 337.23V352.178H317.169V337.23H375.231ZM322.502 242.813V352.178H303.648V242.813H322.502ZM367.645 288.482V303.204H317.169V288.482H367.645ZM374.856 242.813V257.835H317.169V242.813H374.856ZM462.889 288.482V303.429H404.826V288.482H462.889ZM409.483 242.813V352.178H390.63V242.813H409.483ZM477.385 242.813V352.178H458.607V242.813H477.385ZM518.472 321.456L566.996 242.813H585.849V352.178H566.996V273.459L518.472 352.178H499.694V242.813H518.472V321.456Z" fill="black"/>
</mask>
<g mask="url(#mask7_57_636)">
<rect x="-34.8965" y="293.785" width="672.246" height="72.301" fill="white"/>
</g>
<mask id="mask8_57_636" style="mask-type:alpha" maskUnits="userSpaceOnUse" x="-12" y="119" width="620" height="113">
<path d="M7.1555 199.488L55.6787 120.844H74.5321V230.209H55.6787V151.49L7.1555 230.209H-11.6228V120.844H7.1555V199.488ZM134.623 177.78H119.45V167.039H132.52C137.177 167.039 140.957 166.363 143.862 165.011C146.766 163.609 148.869 161.681 150.171 159.227C151.523 156.723 152.199 153.819 152.199 150.514C152.199 147.559 151.448 144.855 149.946 142.402C148.494 139.948 146.24 137.995 143.186 136.543C140.131 135.04 136.2 134.289 131.393 134.289C127.787 134.289 124.507 134.94 121.553 136.242C118.599 137.544 116.245 139.372 114.492 141.726C112.79 144.079 111.939 146.858 111.939 150.063H93.0851C93.0851 145.306 94.0866 141.05 96.0896 137.294C98.1427 133.488 100.922 130.258 104.427 127.604C107.983 124.95 112.064 122.922 116.671 121.52C121.328 120.068 126.235 119.342 131.393 119.342C137.402 119.342 142.835 120.018 147.692 121.37C152.55 122.672 156.731 124.625 160.236 127.229C163.742 129.833 166.421 133.088 168.273 136.993C170.126 140.849 171.053 145.331 171.053 150.439C171.053 154.194 170.176 157.725 168.424 161.03C166.721 164.335 164.267 167.239 161.063 169.743C157.858 172.247 154.002 174.225 149.495 175.677C145.038 177.079 140.081 177.78 134.623 177.78ZM119.45 171.245H134.623C140.682 171.245 146.065 171.871 150.772 173.123C155.479 174.375 159.46 176.203 162.715 178.606C165.97 181.01 168.449 183.989 170.151 187.545C171.854 191.05 172.705 195.081 172.705 199.638C172.705 204.746 171.679 209.302 169.626 213.308C167.622 217.264 164.768 220.62 161.063 223.374C157.357 226.128 152.975 228.206 147.918 229.608C142.91 231.01 137.402 231.711 131.393 231.711C126.536 231.711 121.728 231.11 116.971 229.909C112.264 228.657 107.983 226.754 104.127 224.2C100.321 221.596 97.2664 218.291 94.9629 214.285C92.6594 210.279 91.5077 205.472 91.5077 199.863H110.436C110.436 202.968 111.313 205.822 113.065 208.426C114.868 210.98 117.322 213.033 120.426 214.585C123.581 216.088 127.237 216.839 131.393 216.839C136.15 216.839 140.181 216.088 143.486 214.585C146.841 213.083 149.395 211.03 151.148 208.426C152.95 205.822 153.852 202.893 153.852 199.638C153.852 196.533 153.376 193.854 152.425 191.601C151.523 189.297 150.171 187.444 148.368 186.042C146.566 184.59 144.337 183.514 141.683 182.813C139.029 182.111 135.975 181.761 132.52 181.761H119.45V171.245ZM198.244 120.844H215.069L246.692 205.196L278.239 120.844H295.065L253.302 230.209H239.932L198.244 120.844ZM190.582 120.844H206.581L209.36 193.854V230.209H190.582V120.844ZM286.727 120.844H302.801V230.209H283.948V193.854L286.727 120.844ZM396.768 215.261V230.209H338.705V215.261H396.768ZM344.039 120.844V230.209H325.185V120.844H344.039ZM389.182 166.513V181.235H338.705V166.513H389.182ZM396.392 120.844V135.867H338.705V120.844H396.392ZM484.425 166.513V181.46H426.363V166.513H484.425ZM431.02 120.844V230.209H412.166V120.844H431.02ZM498.922 120.844V230.209H480.144V120.844H498.922ZM540.009 199.488L588.532 120.844H607.386V230.209H588.532V151.49L540.009 230.209H521.231V120.844H540.009V199.488Z" fill="#2051FF"/>
</mask>
<g mask="url(#mask8_57_636)">
<rect x="-51.8169" y="74.9023" width="699.936" height="96.9142" fill="white"/>
</g>
<mask id="mask9_57_636" style="mask-type:alpha" maskUnits="userSpaceOnUse" x="-12" y="362" width="620" height="114">
<path d="M7.1555 442.984L55.6787 364.34H74.5321V473.705H55.6787V394.986L7.1555 473.705H-11.6228V364.34H7.1555V442.984ZM134.623 421.276H119.45V410.535H132.52C137.177 410.535 140.957 409.859 143.862 408.507C146.766 407.105 148.869 405.177 150.171 402.723C151.523 400.219 152.199 397.315 152.199 394.01C152.199 391.055 151.448 388.351 149.946 385.898C148.494 383.444 146.24 381.491 143.186 380.039C140.131 378.537 136.2 377.785 131.393 377.785C127.787 377.785 124.507 378.436 121.553 379.738C118.599 381.04 116.245 382.868 114.492 385.222C112.79 387.575 111.939 390.354 111.939 393.559H93.0851C93.0851 388.802 94.0866 384.546 96.0896 380.79C98.1427 376.984 100.922 373.754 104.427 371.1C107.983 368.446 112.064 366.418 116.671 365.016C121.328 363.564 126.235 362.838 131.393 362.838C137.402 362.838 142.835 363.514 147.692 364.866C152.55 366.168 156.731 368.121 160.236 370.725C163.742 373.329 166.421 376.584 168.273 380.49C170.126 384.345 171.053 388.827 171.053 393.935C171.053 397.69 170.176 401.221 168.424 404.526C166.721 407.831 164.267 410.735 161.063 413.239C157.858 415.743 154.002 417.721 149.495 419.173C145.038 420.575 140.081 421.276 134.623 421.276ZM119.45 414.741H134.623C140.682 414.741 146.065 415.367 150.772 416.619C155.479 417.871 159.46 419.699 162.715 422.102C165.97 424.506 168.449 427.485 170.151 431.041C171.854 434.546 172.705 438.577 172.705 443.134C172.705 448.242 171.679 452.799 169.626 456.805C167.622 460.761 164.768 464.116 161.063 466.87C157.357 469.624 152.975 471.702 147.918 473.104C142.91 474.506 137.402 475.207 131.393 475.207C126.536 475.207 121.728 474.606 116.971 473.405C112.264 472.153 107.983 470.25 104.127 467.696C100.321 465.092 97.2664 461.787 94.9629 457.781C92.6594 453.775 91.5077 448.968 91.5077 443.359H110.436C110.436 446.464 111.313 449.318 113.065 451.922C114.868 454.476 117.322 456.529 120.426 458.082C123.581 459.584 127.237 460.335 131.393 460.335C136.15 460.335 140.181 459.584 143.486 458.082C146.841 456.579 149.395 454.526 151.148 451.922C152.95 449.318 153.852 446.389 153.852 443.134C153.852 440.029 153.376 437.35 152.425 435.097C151.523 432.793 150.171 430.941 148.368 429.538C146.566 428.086 144.337 427.01 141.683 426.309C139.029 425.608 135.975 425.257 132.52 425.257H119.45V414.741ZM198.244 364.34H215.069L246.692 448.692L278.239 364.34H295.065L253.302 473.705H239.932L198.244 364.34ZM190.582 364.34H206.581L209.36 437.35V473.705H190.582V364.34ZM286.727 364.34H302.801V473.705H283.948V437.35L286.727 364.34ZM396.768 458.758V473.705H338.705V458.758H396.768ZM344.039 364.34V473.705H325.185V364.34H344.039ZM389.182 410.009V424.731H338.705V410.009H389.182ZM396.392 364.34V379.363H338.705V364.34H396.392ZM484.425 410.009V424.957H426.363V410.009H484.425ZM431.02 364.34V473.705H412.166V364.34H431.02ZM498.922 364.34V473.705H480.144V364.34H498.922ZM540.009 442.984L588.532 364.34H607.386V473.705H588.532V394.986L540.009 473.705H521.231V364.34H540.009V442.984Z" fill="#2051FF"/>
</mask>
<g mask="url(#mask9_57_636)">
<rect x="-51.8169" y="318.399" width="699.936" height="96.9142" fill="white"/>
</g>
<mask id="mask10_57_636" style="mask-type:alpha" maskUnits="userSpaceOnUse" x="-33" y="484" width="620" height="114">
<path d="M-14.0872 564.953L34.436 486.31H53.2894V595.675H34.436V516.956L-14.0872 595.675H-32.8655V486.31H-14.0872V564.953ZM113.38 543.246H98.2072V532.505H111.277C115.934 532.505 119.715 531.829 122.619 530.476C125.523 529.074 127.627 527.146 128.928 524.693C130.281 522.189 130.957 519.285 130.957 515.98C130.957 513.025 130.205 510.321 128.703 507.867C127.251 505.414 124.998 503.461 121.943 502.009C118.888 500.506 114.957 499.755 110.15 499.755C106.545 499.755 103.265 500.406 100.31 501.708C97.3559 503.01 95.0023 504.838 93.2497 507.191C91.5471 509.545 90.6958 512.324 90.6958 515.529H71.8424C71.8424 510.772 72.8439 506.515 74.8469 502.76C76.9 498.954 79.6792 495.724 83.1845 493.07C86.7399 490.416 90.821 488.388 95.428 486.986C100.085 485.534 104.992 484.808 110.15 484.808C116.159 484.808 121.592 485.484 126.45 486.836C131.307 488.138 135.488 490.091 138.994 492.695C142.499 495.298 145.178 498.553 147.031 502.459C148.884 506.315 149.81 510.797 149.81 515.905C149.81 519.66 148.934 523.19 147.181 526.495C145.478 529.8 143.025 532.705 139.82 535.209C136.615 537.712 132.759 539.69 128.252 541.143C123.796 542.545 118.838 543.246 113.38 543.246ZM98.2072 536.711H113.38C119.439 536.711 124.822 537.337 129.529 538.589C134.237 539.841 138.218 541.668 141.472 544.072C144.727 546.476 147.206 549.455 148.909 553.01C150.611 556.516 151.462 560.547 151.462 565.104C151.462 570.211 150.436 574.768 148.383 578.774C146.38 582.73 143.526 586.085 139.82 588.839C136.114 591.594 131.733 593.672 126.675 595.074C121.668 596.476 116.159 597.177 110.15 597.177C105.293 597.177 100.486 596.576 95.7284 595.374C91.0213 594.122 86.7399 592.22 82.8841 589.666C79.0783 587.062 76.0237 583.757 73.7202 579.751C71.4168 575.745 70.265 570.937 70.265 565.329H89.1936C89.1936 568.434 90.0699 571.288 91.8225 573.892C93.6253 576.446 96.079 578.499 99.1836 580.051C102.338 581.554 105.994 582.305 110.15 582.305C114.907 582.305 118.938 581.554 122.243 580.051C125.598 578.549 128.152 576.496 129.905 573.892C131.708 571.288 132.609 568.359 132.609 565.104C132.609 561.999 132.133 559.32 131.182 557.067C130.281 554.763 128.928 552.91 127.126 551.508C125.323 550.056 123.095 548.979 120.441 548.278C117.787 547.577 114.732 547.227 111.277 547.227H98.2072V536.711ZM177.001 486.31H193.826L225.449 570.662L256.997 486.31H273.822L232.059 595.675H218.689L177.001 486.31ZM169.339 486.31H185.339L188.118 559.32V595.675H169.339V486.31ZM265.484 486.31H281.559V595.675H262.705V559.32L265.484 486.31ZM375.525 580.727V595.675H317.463V580.727H375.525ZM322.796 486.31V595.675H303.942V486.31H322.796ZM367.939 531.979V546.701H317.463V531.979H367.939ZM375.15 486.31V501.333H317.463V486.31H375.15ZM463.183 531.979V546.926H405.12V531.979H463.183ZM409.777 486.31V595.675H390.924V486.31H409.777ZM477.679 486.31V595.675H458.901V486.31H477.679ZM518.766 564.953L567.29 486.31H586.143V595.675H567.29V516.956L518.766 595.675H499.988V486.31H518.766V564.953Z" fill="#2051FF"/>
</mask>
<g mask="url(#mask10_57_636)">
<rect x="-73.0596" y="440.368" width="699.936" height="96.9142" fill="white"/>
</g>
<mask id="mask11_57_636" style="mask-type:alpha" maskUnits="userSpaceOnUse" x="-33" y="606" width="620" height="113">
<path d="M-14.0872 686.701L34.436 608.057H53.2894V717.422H34.436V638.704L-14.0872 717.422H-32.8655V608.057H-14.0872V686.701ZM113.38 664.993H98.2072V654.252H111.277C115.934 654.252 119.715 653.576 122.619 652.224C125.523 650.822 127.627 648.894 128.928 646.44C130.281 643.937 130.957 641.032 130.957 637.727C130.957 634.773 130.205 632.069 128.703 629.615C127.251 627.161 124.998 625.208 121.943 623.756C118.888 622.254 114.957 621.503 110.15 621.503C106.545 621.503 103.265 622.154 100.31 623.456C97.3559 624.758 95.0023 626.585 93.2497 628.939C91.5471 631.292 90.6958 634.072 90.6958 637.276H71.8424C71.8424 632.519 72.8439 628.263 74.8469 624.507C76.9 620.702 79.6792 617.472 83.1845 614.818C86.7399 612.164 90.821 610.136 95.428 608.733C100.085 607.281 104.992 606.555 110.15 606.555C116.159 606.555 121.592 607.231 126.45 608.583C131.307 609.885 135.488 611.838 138.994 614.442C142.499 617.046 145.178 620.301 147.031 624.207C148.884 628.063 149.81 632.544 149.81 637.652C149.81 641.408 148.934 644.938 147.181 648.243C145.478 651.548 143.025 654.452 139.82 656.956C136.615 659.46 132.759 661.438 128.252 662.89C123.796 664.292 118.838 664.993 113.38 664.993ZM98.2072 658.458H113.38C119.439 658.458 124.822 659.084 129.529 660.336C134.237 661.588 138.218 663.416 141.472 665.82C144.727 668.223 147.206 671.203 148.909 674.758C150.611 678.263 151.462 682.294 151.462 686.851C151.462 691.959 150.436 696.516 148.383 700.522C146.38 704.478 143.526 707.833 139.82 710.587C136.114 713.341 131.733 715.419 126.675 716.821C121.668 718.224 116.159 718.925 110.15 718.925C105.293 718.925 100.486 718.324 95.7284 717.122C91.0213 715.87 86.7399 713.967 82.8841 711.413C79.0783 708.809 76.0237 705.504 73.7202 701.498C71.4168 697.492 70.265 692.685 70.265 687.077H89.1936C89.1936 690.181 90.0699 693.036 91.8225 695.64C93.6253 698.193 96.079 700.246 99.1836 701.799C102.338 703.301 105.994 704.052 110.15 704.052C114.907 704.052 118.938 703.301 122.243 701.799C125.598 700.297 128.152 698.243 129.905 695.64C131.708 693.036 132.609 690.106 132.609 686.851C132.609 683.747 132.133 681.068 131.182 678.814C130.281 676.511 128.928 674.658 127.126 673.256C125.323 671.804 123.095 670.727 120.441 670.026C117.787 669.325 114.732 668.974 111.277 668.974H98.2072V658.458ZM177.001 608.057H193.826L225.449 692.41L256.997 608.057H273.822L232.059 717.422H218.689L177.001 608.057ZM169.339 608.057H185.339L188.118 681.068V717.422H169.339V608.057ZM265.484 608.057H281.559V717.422H262.705V681.068L265.484 608.057ZM375.525 702.475V717.422H317.463V702.475H375.525ZM322.796 608.057V717.422H303.942V608.057H322.796ZM367.939 653.726V668.449H317.463V653.726H367.939ZM375.15 608.057V623.08H317.463V608.057H375.15ZM463.183 653.726V668.674H405.12V653.726H463.183ZM409.777 608.057V717.422H390.924V608.057H409.777ZM477.679 608.057V717.422H458.901V608.057H477.679ZM518.766 686.701L567.29 608.057H586.143V717.422H567.29V638.704L518.766 717.422H499.988V608.057H518.766V686.701Z" fill="#2051FF"/>
</mask>
<g mask="url(#mask11_57_636)">
<rect x="-73.0596" y="562.116" width="699.936" height="96.9142" fill="white"/>
</g>
<mask id="mask12_57_636" style="mask-type:alpha" maskUnits="userSpaceOnUse" x="-12" y="119" width="620" height="113">
<path d="M7.1555 199.488L55.6787 120.844H74.5321V230.209H55.6787V151.49L7.1555 230.209H-11.6228V120.844H7.1555V199.488ZM134.623 177.78H119.45V167.039H132.52C137.177 167.039 140.957 166.363 143.862 165.011C146.766 163.609 148.869 161.681 150.171 159.227C151.523 156.723 152.199 153.819 152.199 150.514C152.199 147.559 151.448 144.855 149.946 142.402C148.494 139.948 146.24 137.995 143.186 136.543C140.131 135.04 136.2 134.289 131.393 134.289C127.787 134.289 124.507 134.94 121.553 136.242C118.599 137.544 116.245 139.372 114.492 141.726C112.79 144.079 111.939 146.858 111.939 150.063H93.0851C93.0851 145.306 94.0866 141.05 96.0896 137.294C98.1427 133.488 100.922 130.258 104.427 127.604C107.983 124.95 112.064 122.922 116.671 121.52C121.328 120.068 126.235 119.342 131.393 119.342C137.402 119.342 142.835 120.018 147.692 121.37C152.55 122.672 156.731 124.625 160.236 127.229C163.742 129.833 166.421 133.088 168.273 136.993C170.126 140.849 171.053 145.331 171.053 150.439C171.053 154.194 170.176 157.725 168.424 161.03C166.721 164.335 164.267 167.239 161.063 169.743C157.858 172.247 154.002 174.225 149.495 175.677C145.038 177.079 140.081 177.78 134.623 177.78ZM119.45 171.245H134.623C140.682 171.245 146.065 171.871 150.772 173.123C155.479 174.375 159.46 176.203 162.715 178.606C165.97 181.01 168.449 183.989 170.151 187.545C171.854 191.05 172.705 195.081 172.705 199.638C172.705 204.746 171.679 209.302 169.626 213.308C167.622 217.264 164.768 220.62 161.063 223.374C157.357 226.128 152.975 228.206 147.918 229.608C142.91 231.01 137.402 231.711 131.393 231.711C126.536 231.711 121.728 231.11 116.971 229.909C112.264 228.657 107.983 226.754 104.127 224.2C100.321 221.596 97.2664 218.291 94.9629 214.285C92.6594 210.279 91.5077 205.472 91.5077 199.863H110.436C110.436 202.968 111.313 205.822 113.065 208.426C114.868 210.98 117.322 213.033 120.426 214.585C123.581 216.088 127.237 216.839 131.393 216.839C136.15 216.839 140.181 216.088 143.486 214.585C146.841 213.083 149.395 211.03 151.148 208.426C152.95 205.822 153.852 202.893 153.852 199.638C153.852 196.533 153.376 193.854 152.425 191.601C151.523 189.297 150.171 187.444 148.368 186.042C146.566 184.59 144.337 183.514 141.683 182.813C139.029 182.111 135.975 181.761 132.52 181.761H119.45V171.245ZM198.244 120.844H215.069L246.692 205.196L278.239 120.844H295.065L253.302 230.209H239.932L198.244 120.844ZM190.582 120.844H206.581L209.36 193.854V230.209H190.582V120.844ZM286.727 120.844H302.801V230.209H283.948V193.854L286.727 120.844ZM396.768 215.261V230.209H338.705V215.261H396.768ZM344.039 120.844V230.209H325.185V120.844H344.039ZM389.182 166.513V181.235H338.705V166.513H389.182ZM396.392 120.844V135.867H338.705V120.844H396.392ZM484.425 166.513V181.46H426.363V166.513H484.425ZM431.02 120.844V230.209H412.166V120.844H431.02ZM498.922 120.844V230.209H480.144V120.844H498.922ZM540.009 199.488L588.532 120.844H607.386V230.209H588.532V151.49L540.009 230.209H521.231V120.844H540.009V199.488Z" fill="#2051FF"/>
</mask>
<g mask="url(#mask12_57_636)">
<rect x="-51.8169" y="74.9023" width="699.936" height="96.9142" fill="white"/>
</g>
<mask id="mask13_57_636" style="mask-type:alpha" maskUnits="userSpaceOnUse" x="-12" y="362" width="620" height="114">
<path d="M7.1555 442.984L55.6787 364.34H74.5321V473.705H55.6787V394.986L7.1555 473.705H-11.6228V364.34H7.1555V442.984ZM134.623 421.276H119.45V410.535H132.52C137.177 410.535 140.957 409.859 143.862 408.507C146.766 407.105 148.869 405.177 150.171 402.723C151.523 400.219 152.199 397.315 152.199 394.01C152.199 391.055 151.448 388.351 149.946 385.898C148.494 383.444 146.24 381.491 143.186 380.039C140.131 378.537 136.2 377.785 131.393 377.785C127.787 377.785 124.507 378.436 121.553 379.738C118.599 381.04 116.245 382.868 114.492 385.222C112.79 387.575 111.939 390.354 111.939 393.559H93.0851C93.0851 388.802 94.0866 384.546 96.0896 380.79C98.1427 376.984 100.922 373.754 104.427 371.1C107.983 368.446 112.064 366.418 116.671 365.016C121.328 363.564 126.235 362.838 131.393 362.838C137.402 362.838 142.835 363.514 147.692 364.866C152.55 366.168 156.731 368.121 160.236 370.725C163.742 373.329 166.421 376.584 168.273 380.49C170.126 384.345 171.053 388.827 171.053 393.935C171.053 397.69 170.176 401.221 168.424 404.526C166.721 407.831 164.267 410.735 161.063 413.239C157.858 415.743 154.002 417.721 149.495 419.173C145.038 420.575 140.081 421.276 134.623 421.276ZM119.45 414.741H134.623C140.682 414.741 146.065 415.367 150.772 416.619C155.479 417.871 159.46 419.699 162.715 422.102C165.97 424.506 168.449 427.485 170.151 431.041C171.854 434.546 172.705 438.577 172.705 443.134C172.705 448.242 171.679 452.799 169.626 456.805C167.622 460.761 164.768 464.116 161.063 466.87C157.357 469.624 152.975 471.702 147.918 473.104C142.91 474.506 137.402 475.207 131.393 475.207C126.536 475.207 121.728 474.606 116.971 473.405C112.264 472.153 107.983 470.25 104.127 467.696C100.321 465.092 97.2664 461.787 94.9629 457.781C92.6594 453.775 91.5077 448.968 91.5077 443.359H110.436C110.436 446.464 111.313 449.318 113.065 451.922C114.868 454.476 117.322 456.529 120.426 458.082C123.581 459.584 127.237 460.335 131.393 460.335C136.15 460.335 140.181 459.584 143.486 458.082C146.841 456.579 149.395 454.526 151.148 451.922C152.95 449.318 153.852 446.389 153.852 443.134C153.852 440.029 153.376 437.35 152.425 435.097C151.523 432.793 150.171 430.941 148.368 429.538C146.566 428.086 144.337 427.01 141.683 426.309C139.029 425.608 135.975 425.257 132.52 425.257H119.45V414.741ZM198.244 364.34H215.069L246.692 448.692L278.239 364.34H295.065L253.302 473.705H239.932L198.244 364.34ZM190.582 364.34H206.581L209.36 437.35V473.705H190.582V364.34ZM286.727 364.34H302.801V473.705H283.948V437.35L286.727 364.34ZM396.768 458.758V473.705H338.705V458.758H396.768ZM344.039 364.34V473.705H325.185V364.34H344.039ZM389.182 410.009V424.731H338.705V410.009H389.182ZM396.392 364.34V379.363H338.705V364.34H396.392ZM484.425 410.009V424.957H426.363V410.009H484.425ZM431.02 364.34V473.705H412.166V364.34H431.02ZM498.922 364.34V473.705H480.144V364.34H498.922ZM540.009 442.984L588.532 364.34H607.386V473.705H588.532V394.986L540.009 473.705H521.231V364.34H540.009V442.984Z" fill="#2051FF"/>
</mask>
<g mask="url(#mask13_57_636)">
<rect x="-51.8169" y="318.399" width="699.936" height="96.9142" fill="white"/>
</g>
<mask id="mask14_57_636" style="mask-type:alpha" maskUnits="userSpaceOnUse" x="-33" y="484" width="620" height="114">
<path d="M-14.0872 564.953L34.436 486.31H53.2894V595.675H34.436V516.956L-14.0872 595.675H-32.8655V486.31H-14.0872V564.953ZM113.38 543.246H98.2072V532.505H111.277C115.934 532.505 119.715 531.829 122.619 530.476C125.523 529.074 127.627 527.146 128.928 524.693C130.281 522.189 130.957 519.285 130.957 515.98C130.957 513.025 130.205 510.321 128.703 507.867C127.251 505.414 124.998 503.461 121.943 502.009C118.888 500.506 114.957 499.755 110.15 499.755C106.545 499.755 103.265 500.406 100.31 501.708C97.3559 503.01 95.0023 504.838 93.2497 507.191C91.5471 509.545 90.6958 512.324 90.6958 515.529H71.8424C71.8424 510.772 72.8439 506.515 74.8469 502.76C76.9 498.954 79.6792 495.724 83.1845 493.07C86.7399 490.416 90.821 488.388 95.428 486.986C100.085 485.534 104.992 484.808 110.15 484.808C116.159 484.808 121.592 485.484 126.45 486.836C131.307 488.138 135.488 490.091 138.994 492.695C142.499 495.298 145.178 498.553 147.031 502.459C148.884 506.315 149.81 510.797 149.81 515.905C149.81 519.66 148.934 523.19 147.181 526.495C145.478 529.8 143.025 532.705 139.82 535.209C136.615 537.712 132.759 539.69 128.252 541.143C123.796 542.545 118.838 543.246 113.38 543.246ZM98.2072 536.711H113.38C119.439 536.711 124.822 537.337 129.529 538.589C134.237 539.841 138.218 541.668 141.472 544.072C144.727 546.476 147.206 549.455 148.909 553.01C150.611 556.516 151.462 560.547 151.462 565.104C151.462 570.211 150.436 574.768 148.383 578.774C146.38 582.73 143.526 586.085 139.82 588.839C136.114 591.594 131.733 593.672 126.675 595.074C121.668 596.476 116.159 597.177 110.15 597.177C105.293 597.177 100.486 596.576 95.7284 595.374C91.0213 594.122 86.7399 592.22 82.8841 589.666C79.0783 587.062 76.0237 583.757 73.7202 579.751C71.4168 575.745 70.265 570.937 70.265 565.329H89.1936C89.1936 568.434 90.0699 571.288 91.8225 573.892C93.6253 576.446 96.079 578.499 99.1836 580.051C102.338 581.554 105.994 582.305 110.15 582.305C114.907 582.305 118.938 581.554 122.243 580.051C125.598 578.549 128.152 576.496 129.905 573.892C131.708 571.288 132.609 568.359 132.609 565.104C132.609 561.999 132.133 559.32 131.182 557.067C130.281 554.763 128.928 552.91 127.126 551.508C125.323 550.056 123.095 548.979 120.441 548.278C117.787 547.577 114.732 547.227 111.277 547.227H98.2072V536.711ZM177.001 486.31H193.826L225.449 570.662L256.997 486.31H273.822L232.059 595.675H218.689L177.001 486.31ZM169.339 486.31H185.339L188.118 559.32V595.675H169.339V486.31ZM265.484 486.31H281.559V595.675H262.705V559.32L265.484 486.31ZM375.525 580.727V595.675H317.463V580.727H375.525ZM322.796 486.31V595.675H303.942V486.31H322.796ZM367.939 531.979V546.701H317.463V531.979H367.939ZM375.15 486.31V501.333H317.463V486.31H375.15ZM463.183 531.979V546.926H405.12V531.979H463.183ZM409.777 486.31V595.675H390.924V486.31H409.777ZM477.679 486.31V595.675H458.901V486.31H477.679ZM518.766 564.953L567.29 486.31H586.143V595.675H567.29V516.956L518.766 595.675H499.988V486.31H518.766V564.953Z" fill="#2051FF"/>
</mask>
<g mask="url(#mask14_57_636)">
<rect x="-73.0596" y="440.368" width="699.936" height="96.9142" fill="white"/>
</g>
<mask id="mask15_57_636" style="mask-type:alpha" maskUnits="userSpaceOnUse" x="-33" y="606" width="620" height="113">
<path d="M-14.0872 686.701L34.436 608.057H53.2894V717.422H34.436V638.704L-14.0872 717.422H-32.8655V608.057H-14.0872V686.701ZM113.38 664.993H98.2072V654.252H111.277C115.934 654.252 119.715 653.576 122.619 652.224C125.523 650.822 127.627 648.894 128.928 646.44C130.281 643.937 130.957 641.032 130.957 637.727C130.957 634.773 130.205 632.069 128.703 629.615C127.251 627.161 124.998 625.208 121.943 623.756C118.888 622.254 114.957 621.503 110.15 621.503C106.545 621.503 103.265 622.154 100.31 623.456C97.3559 624.758 95.0023 626.585 93.2497 628.939C91.5471 631.292 90.6958 634.072 90.6958 637.276H71.8424C71.8424 632.519 72.8439 628.263 74.8469 624.507C76.9 620.702 79.6792 617.472 83.1845 614.818C86.7399 612.164 90.821 610.136 95.428 608.733C100.085 607.281 104.992 606.555 110.15 606.555C116.159 606.555 121.592 607.231 126.45 608.583C131.307 609.885 135.488 611.838 138.994 614.442C142.499 617.046 145.178 620.301 147.031 624.207C148.884 628.063 149.81 632.544 149.81 637.652C149.81 641.408 148.934 644.938 147.181 648.243C145.478 651.548 143.025 654.452 139.82 656.956C136.615 659.46 132.759 661.438 128.252 662.89C123.796 664.292 118.838 664.993 113.38 664.993ZM98.2072 658.458H113.38C119.439 658.458 124.822 659.084 129.529 660.336C134.237 661.588 138.218 663.416 141.472 665.82C144.727 668.223 147.206 671.203 148.909 674.758C150.611 678.263 151.462 682.294 151.462 686.851C151.462 691.959 150.436 696.516 148.383 700.522C146.38 704.478 143.526 707.833 139.82 710.587C136.114 713.341 131.733 715.419 126.675 716.821C121.668 718.224 116.159 718.925 110.15 718.925C105.293 718.925 100.486 718.324 95.7284 717.122C91.0213 715.87 86.7399 713.967 82.8841 711.413C79.0783 708.809 76.0237 705.504 73.7202 701.498C71.4168 697.492 70.265 692.685 70.265 687.077H89.1936C89.1936 690.181 90.0699 693.036 91.8225 695.64C93.6253 698.193 96.079 700.246 99.1836 701.799C102.338 703.301 105.994 704.052 110.15 704.052C114.907 704.052 118.938 703.301 122.243 701.799C125.598 700.297 128.152 698.243 129.905 695.64C131.708 693.036 132.609 690.106 132.609 686.851C132.609 683.747 132.133 681.068 131.182 678.814C130.281 676.511 128.928 674.658 127.126 673.256C125.323 671.804 123.095 670.727 120.441 670.026C117.787 669.325 114.732 668.974 111.277 668.974H98.2072V658.458ZM177.001 608.057H193.826L225.449 692.41L256.997 608.057H273.822L232.059 717.422H218.689L177.001 608.057ZM169.339 608.057H185.339L188.118 681.068V717.422H169.339V608.057ZM265.484 608.057H281.559V717.422H262.705V681.068L265.484 608.057ZM375.525 702.475V717.422H317.463V702.475H375.525ZM322.796 608.057V717.422H303.942V608.057H322.796ZM367.939 653.726V668.449H317.463V653.726H367.939ZM375.15 608.057V623.08H317.463V608.057H375.15ZM463.183 653.726V668.674H405.12V653.726H463.183ZM409.777 608.057V717.422H390.924V608.057H409.777ZM477.679 608.057V717.422H458.901V608.057H477.679ZM518.766 686.701L567.29 608.057H586.143V717.422H567.29V638.704L518.766 717.422H499.988V608.057H518.766V686.701Z" fill="#2051FF"/>
</mask>
<g mask="url(#mask15_57_636)">
<rect x="-73.0596" y="562.116" width="699.936" height="96.9142" fill="white"/>
</g>
<mask id="mask16_57_636" style="mask-type:alpha" maskUnits="userSpaceOnUse" x="-34" y="119" width="620" height="113">
<path d="M-14.3811 199.487L34.1421 120.844H52.9955V230.208H34.1421V151.49L-14.3811 230.208H-33.1594V120.844H-14.3811V199.487ZM113.086 177.779H97.9132V167.038H110.983C115.64 167.038 119.421 166.362 122.325 165.01C125.229 163.608 127.333 161.68 128.635 159.226C129.987 156.723 130.663 153.818 130.663 150.513C130.663 147.559 129.911 144.855 128.409 142.401C126.957 139.947 124.704 137.994 121.649 136.542C118.594 135.04 114.663 134.289 109.856 134.289C106.251 134.289 102.971 134.94 100.016 136.242C97.0619 137.544 94.7084 139.372 92.9557 141.725C91.2532 144.079 90.4019 146.858 90.4019 150.063H71.5485C71.5485 145.305 72.55 141.049 74.553 137.293C76.6061 133.488 79.3853 130.258 82.8906 127.604C86.4459 124.95 90.5271 122.922 95.134 121.52C99.7911 120.067 104.698 119.341 109.856 119.341C115.865 119.341 121.298 120.017 126.156 121.369C131.013 122.671 135.194 124.624 138.7 127.228C142.205 129.832 144.884 133.087 146.737 136.993C148.59 140.849 149.516 145.33 149.516 150.438C149.516 154.194 148.64 157.724 146.887 161.029C145.185 164.334 142.731 167.239 139.526 169.742C136.321 172.246 132.465 174.224 127.959 175.676C123.502 177.078 118.544 177.779 113.086 177.779ZM97.9132 171.245H113.086C119.145 171.245 124.528 171.871 129.235 173.122C133.943 174.374 137.924 176.202 141.178 178.606C144.433 181.009 146.912 183.989 148.615 187.544C150.317 191.049 151.169 195.081 151.169 199.637C151.169 204.745 150.142 209.302 148.089 213.308C146.086 217.264 143.232 220.619 139.526 223.373C135.82 226.127 131.439 228.205 126.381 229.608C121.374 231.01 115.865 231.711 109.856 231.711C104.999 231.711 100.192 231.11 95.4345 229.908C90.7274 228.656 86.4459 226.753 82.5901 224.199C78.7844 221.596 75.7298 218.291 73.4263 214.284C71.1228 210.278 69.9711 205.471 69.9711 199.863H88.8996C88.8996 202.967 89.776 205.822 91.5286 208.426C93.3313 210.979 95.785 213.033 98.8897 214.585C102.044 216.087 105.7 216.838 109.856 216.838C114.613 216.838 118.644 216.087 121.949 214.585C125.305 213.083 127.858 211.03 129.611 208.426C131.414 205.822 132.315 202.892 132.315 199.637C132.315 196.533 131.839 193.854 130.888 191.6C129.987 189.297 128.635 187.444 126.832 186.042C125.029 184.59 122.801 183.513 120.147 182.812C117.493 182.111 114.438 181.76 110.983 181.76H97.9132V171.245ZM176.707 120.844H193.532L225.155 205.196L256.703 120.844H273.528L231.765 230.208H218.395L176.707 120.844ZM169.045 120.844H185.045L187.824 193.854V230.208H169.045V120.844ZM265.19 120.844H281.265V230.208H262.411V193.854L265.19 120.844ZM375.231 215.261V230.208H317.169V215.261H375.231ZM322.502 120.844V230.208H303.648V120.844H322.502ZM367.645 166.512V181.235H317.169V166.512H367.645ZM374.856 120.844V135.866H317.169V120.844H374.856ZM462.889 166.512V181.46H404.826V166.512H462.889ZM409.483 120.844V230.208H390.63V120.844H409.483ZM477.385 120.844V230.208H458.607V120.844H477.385ZM518.472 199.487L566.996 120.844H585.849V230.208H566.996V151.49L518.472 230.208H499.694V120.844H518.472V199.487Z" fill="black"/>
</mask>
<g mask="url(#mask16_57_636)">
<rect x="-34.8965" y="171.816" width="672.246" height="72.301" fill="white"/>
</g>
<mask id="mask17_57_636" style="mask-type:alpha" maskUnits="userSpaceOnUse" x="-34" y="362" width="620" height="114">
<path d="M-14.3811 442.984L34.1421 364.341H52.9955V473.706H34.1421V394.987L-14.3811 473.706H-33.1594V364.341H-14.3811V442.984ZM113.086 421.277H97.9132V410.535H110.983C115.64 410.535 119.421 409.859 122.325 408.507C125.229 407.105 127.333 405.177 128.635 402.724C129.987 400.22 130.663 397.315 130.663 394.01C130.663 391.056 129.911 388.352 128.409 385.898C126.957 383.444 124.704 381.492 121.649 380.039C118.594 378.537 114.663 377.786 109.856 377.786C106.251 377.786 102.971 378.437 100.016 379.739C97.0619 381.041 94.7084 382.869 92.9557 385.222C91.2532 387.576 90.4019 390.355 90.4019 393.56H71.5485C71.5485 388.803 72.55 384.546 74.553 380.79C76.6061 376.985 79.3853 373.755 82.8906 371.101C86.4459 368.447 90.5271 366.419 95.134 365.017C99.7911 363.564 104.698 362.838 109.856 362.838C115.865 362.838 121.298 363.514 126.156 364.866C131.013 366.168 135.194 368.121 138.7 370.725C142.205 373.329 144.884 376.584 146.737 380.49C148.59 384.346 149.516 388.828 149.516 393.935C149.516 397.691 148.64 401.221 146.887 404.526C145.185 407.831 142.731 410.736 139.526 413.239C136.321 415.743 132.465 417.721 127.959 419.173C123.502 420.575 118.544 421.277 113.086 421.277ZM97.9132 414.742H113.086C119.145 414.742 124.528 415.368 129.235 416.619C133.943 417.871 137.924 419.699 141.178 422.103C144.433 424.506 146.912 427.486 148.615 431.041C150.317 434.547 151.169 438.578 151.169 443.134C151.169 448.242 150.142 452.799 148.089 456.805C146.086 460.761 143.232 464.116 139.526 466.87C135.82 469.624 131.439 471.703 126.381 473.105C121.374 474.507 115.865 475.208 109.856 475.208C104.999 475.208 100.192 474.607 95.4345 473.405C90.7274 472.153 86.4459 470.25 82.5901 467.697C78.7844 465.093 75.7298 461.788 73.4263 457.782C71.1228 453.776 69.9711 448.968 69.9711 443.36H88.8996C88.8996 446.464 89.776 449.319 91.5286 451.923C93.3313 454.477 95.785 456.53 98.8897 458.082C102.044 459.584 105.7 460.335 109.856 460.335C114.613 460.335 118.644 459.584 121.949 458.082C125.305 456.58 127.858 454.527 129.611 451.923C131.414 449.319 132.315 446.389 132.315 443.134C132.315 440.03 131.839 437.351 130.888 435.097C129.987 432.794 128.635 430.941 126.832 429.539C125.029 428.087 122.801 427.01 120.147 426.309C117.493 425.608 114.438 425.258 110.983 425.258H97.9132V414.742ZM176.707 364.341H193.532L225.155 448.693L256.703 364.341H273.528L231.765 473.706H218.395L176.707 364.341ZM169.045 364.341H185.045L187.824 437.351V473.706H169.045V364.341ZM265.19 364.341H281.265V473.706H262.411V437.351L265.19 364.341ZM375.231 458.758V473.706H317.169V458.758H375.231ZM322.502 364.341V473.706H303.648V364.341H322.502ZM367.645 410.01V424.732H317.169V410.01H367.645ZM374.856 364.341V379.363H317.169V364.341H374.856ZM462.889 410.01V424.957H404.826V410.01H462.889ZM409.483 364.341V473.706H390.63V364.341H409.483ZM477.385 364.341V473.706H458.607V364.341H477.385ZM518.472 442.984L566.996 364.341H585.849V473.706H566.996V394.987L518.472 473.706H499.694V364.341H518.472V442.984Z" fill="black"/>
</mask>
<g mask="url(#mask17_57_636)">
<rect x="-34.8965" y="415.313" width="672.246" height="72.301" fill="white"/>
</g>
<mask id="mask18_57_636" style="mask-type:alpha" maskUnits="userSpaceOnUse" x="-55" y="484" width="620" height="114">
<path d="M-35.6257 564.953L12.8974 486.31H31.7509V595.675H12.8974V516.956L-35.6257 595.675H-54.4041V486.31H-35.6257V564.953ZM91.8415 543.246H76.6686V532.505H89.7383C94.3953 532.505 98.176 531.829 101.08 530.476C103.985 529.074 106.088 527.146 107.39 524.693C108.742 522.189 109.418 519.285 109.418 515.98C109.418 513.025 108.667 510.321 107.165 507.867C105.712 505.414 103.459 503.461 100.404 502.009C97.3498 500.506 93.4189 499.755 88.6116 499.755C85.0062 499.755 81.7262 500.406 78.7718 501.708C75.8173 503.01 73.4638 504.838 71.7111 507.191C70.0086 509.545 69.1573 512.324 69.1573 515.529H50.3038C50.3038 510.772 51.3053 506.515 53.3084 502.76C55.3615 498.954 58.1407 495.724 61.6459 493.07C65.2013 490.416 69.2825 488.388 73.8894 486.986C78.5464 485.534 83.4538 484.808 88.6116 484.808C94.6207 484.808 100.054 485.484 104.911 486.836C109.769 488.138 113.95 490.091 117.455 492.695C120.96 495.298 123.639 498.553 125.492 502.459C127.345 506.315 128.271 510.797 128.271 515.905C128.271 519.66 127.395 523.19 125.642 526.495C123.94 529.8 121.486 532.705 118.281 535.209C115.077 537.712 111.221 539.69 106.714 541.143C102.257 542.545 97.2997 543.246 91.8415 543.246ZM76.6686 536.711H91.8415C97.9006 536.711 103.284 537.337 107.991 538.589C112.698 539.841 116.679 541.668 119.934 544.072C123.189 546.476 125.667 549.455 127.37 553.01C129.073 556.516 129.924 560.547 129.924 565.104C129.924 570.211 128.897 574.768 126.844 578.774C124.841 582.73 121.987 586.085 118.281 588.839C114.576 591.594 110.194 593.672 105.137 595.074C100.129 596.476 94.6207 597.177 88.6116 597.177C83.7543 597.177 78.947 596.576 74.1899 595.374C69.4828 594.122 65.2013 592.22 61.3455 589.666C57.5397 587.062 54.4851 583.757 52.1817 579.751C49.8782 575.745 48.7265 570.937 48.7265 565.329H67.655C67.655 568.434 68.5313 571.288 70.284 573.892C72.0867 576.446 74.5404 578.499 77.6451 580.051C80.7998 581.554 84.4553 582.305 88.6116 582.305C93.3688 582.305 97.3999 581.554 100.705 580.051C104.06 578.549 106.614 576.496 108.366 573.892C110.169 571.288 111.07 568.359 111.07 565.104C111.07 561.999 110.595 559.32 109.643 557.067C108.742 554.763 107.39 552.91 105.587 551.508C103.784 550.056 101.556 548.979 98.9021 548.278C96.2481 547.577 93.1935 547.227 89.7383 547.227H76.6686V536.711ZM155.462 486.31H172.288L203.91 570.662L235.458 486.31H252.283L210.52 595.675H197.15L155.462 486.31ZM147.801 486.31H163.8L166.579 559.32V595.675H147.801V486.31ZM243.946 486.31H260.02V595.675H241.167V559.32L243.946 486.31ZM353.987 580.727V595.675H295.924V580.727H353.987ZM301.257 486.31V595.675H282.404V486.31H301.257ZM346.4 531.979V546.701H295.924V531.979H346.4ZM353.611 486.31V501.333H295.924V486.31H353.611ZM441.644 531.979V546.926H383.581V531.979H441.644ZM388.238 486.31V595.675H369.385V486.31H388.238ZM456.141 486.31V595.675H437.363V486.31H456.141ZM497.228 564.953L545.751 486.31H564.604V595.675H545.751V516.956L497.228 595.675H478.45V486.31H497.228V564.953Z" fill="black"/>
</mask>
<g mask="url(#mask18_57_636)">
<rect x="-56.1411" y="537.283" width="672.246" height="72.301" fill="white"/>
</g>
<mask id="mask19_57_636" style="mask-type:alpha" maskUnits="userSpaceOnUse" x="-55" y="606" width="620" height="113">
<path d="M-35.6257 686.701L12.8974 608.057H31.7509V717.422H12.8974V638.704L-35.6257 717.422H-54.4041V608.057H-35.6257V686.701ZM91.8415 664.993H76.6686V654.252H89.7383C94.3953 654.252 98.176 653.576 101.08 652.224C103.985 650.822 106.088 648.894 107.39 646.44C108.742 643.937 109.418 641.032 109.418 637.727C109.418 634.773 108.667 632.069 107.165 629.615C105.712 627.161 103.459 625.208 100.404 623.756C97.3498 622.254 93.4189 621.503 88.6116 621.503C85.0062 621.503 81.7262 622.154 78.7718 623.456C75.8173 624.758 73.4638 626.585 71.7111 628.939C70.0086 631.292 69.1573 634.072 69.1573 637.276H50.3038C50.3038 632.519 51.3053 628.263 53.3084 624.507C55.3615 620.702 58.1407 617.472 61.6459 614.818C65.2013 612.164 69.2825 610.136 73.8894 608.733C78.5464 607.281 83.4538 606.555 88.6116 606.555C94.6207 606.555 100.054 607.231 104.911 608.583C109.769 609.885 113.95 611.838 117.455 614.442C120.96 617.046 123.639 620.301 125.492 624.207C127.345 628.063 128.271 632.544 128.271 637.652C128.271 641.408 127.395 644.938 125.642 648.243C123.94 651.548 121.486 654.452 118.281 656.956C115.077 659.46 111.221 661.438 106.714 662.89C102.257 664.292 97.2997 664.993 91.8415 664.993ZM76.6686 658.458H91.8415C97.9006 658.458 103.284 659.084 107.991 660.336C112.698 661.588 116.679 663.416 119.934 665.82C123.189 668.223 125.667 671.203 127.37 674.758C129.073 678.263 129.924 682.294 129.924 686.851C129.924 691.959 128.897 696.516 126.844 700.522C124.841 704.478 121.987 707.833 118.281 710.587C114.576 713.341 110.194 715.419 105.137 716.821C100.129 718.224 94.6207 718.925 88.6116 718.925C83.7543 718.925 78.947 718.324 74.1899 717.122C69.4828 715.87 65.2013 713.967 61.3455 711.413C57.5397 708.809 54.4851 705.504 52.1817 701.498C49.8782 697.492 48.7265 692.685 48.7265 687.077H67.655C67.655 690.181 68.5313 693.036 70.284 695.64C72.0867 698.193 74.5404 700.246 77.6451 701.799C80.7998 703.301 84.4553 704.052 88.6116 704.052C93.3688 704.052 97.3999 703.301 100.705 701.799C104.06 700.297 106.614 698.243 108.366 695.64C110.169 693.036 111.07 690.106 111.07 686.851C111.07 683.747 110.595 681.068 109.643 678.814C108.742 676.511 107.39 674.658 105.587 673.256C103.784 671.804 101.556 670.727 98.9021 670.026C96.2481 669.325 93.1935 668.974 89.7383 668.974H76.6686V658.458ZM155.462 608.057H172.288L203.91 692.41L235.458 608.057H252.283L210.52 717.422H197.15L155.462 608.057ZM147.801 608.057H163.8L166.579 681.068V717.422H147.801V608.057ZM243.946 608.057H260.02V717.422H241.167V681.068L243.946 608.057ZM353.987 702.475V717.422H295.924V702.475H353.987ZM301.257 608.057V717.422H282.404V608.057H301.257ZM346.4 653.726V668.449H295.924V653.726H346.4ZM353.611 608.057V623.08H295.924V608.057H353.611ZM441.644 653.726V668.674H383.581V653.726H441.644ZM388.238 608.057V717.422H369.385V608.057H388.238ZM456.141 608.057V717.422H437.363V608.057H456.141ZM497.228 686.701L545.751 608.057H564.604V717.422H545.751V638.704L497.228 717.422H478.45V608.057H497.228V686.701Z" fill="black"/>
</mask>
<g mask="url(#mask19_57_636)">
<rect x="-56.1411" y="659.03" width="672.246" height="72.301" fill="white"/>
</g>
<mask id="mask20_57_636" style="mask-type:alpha" maskUnits="userSpaceOnUse" x="-34" y="119" width="620" height="113">
<path d="M-14.3811 199.487L34.1421 120.844H52.9955V230.208H34.1421V151.49L-14.3811 230.208H-33.1594V120.844H-14.3811V199.487ZM113.086 177.779H97.9132V167.038H110.983C115.64 167.038 119.421 166.362 122.325 165.01C125.229 163.608 127.333 161.68 128.635 159.226C129.987 156.723 130.663 153.818 130.663 150.513C130.663 147.559 129.911 144.855 128.409 142.401C126.957 139.947 124.704 137.994 121.649 136.542C118.594 135.04 114.663 134.289 109.856 134.289C106.251 134.289 102.971 134.94 100.016 136.242C97.0619 137.544 94.7084 139.372 92.9557 141.725C91.2532 144.079 90.4019 146.858 90.4019 150.063H71.5485C71.5485 145.305 72.55 141.049 74.553 137.293C76.6061 133.488 79.3853 130.258 82.8906 127.604C86.4459 124.95 90.5271 122.922 95.134 121.52C99.7911 120.067 104.698 119.341 109.856 119.341C115.865 119.341 121.298 120.017 126.156 121.369C131.013 122.671 135.194 124.624 138.7 127.228C142.205 129.832 144.884 133.087 146.737 136.993C148.59 140.849 149.516 145.33 149.516 150.438C149.516 154.194 148.64 157.724 146.887 161.029C145.185 164.334 142.731 167.239 139.526 169.742C136.321 172.246 132.465 174.224 127.959 175.676C123.502 177.078 118.544 177.779 113.086 177.779ZM97.9132 171.245H113.086C119.145 171.245 124.528 171.871 129.235 173.122C133.943 174.374 137.924 176.202 141.178 178.606C144.433 181.009 146.912 183.989 148.615 187.544C150.317 191.049 151.169 195.081 151.169 199.637C151.169 204.745 150.142 209.302 148.089 213.308C146.086 217.264 143.232 220.619 139.526 223.373C135.82 226.127 131.439 228.205 126.381 229.608C121.374 231.01 115.865 231.711 109.856 231.711C104.999 231.711 100.192 231.11 95.4345 229.908C90.7274 228.656 86.4459 226.753 82.5901 224.199C78.7844 221.596 75.7298 218.291 73.4263 214.284C71.1228 210.278 69.9711 205.471 69.9711 199.863H88.8996C88.8996 202.967 89.776 205.822 91.5286 208.426C93.3313 210.979 95.785 213.033 98.8897 214.585C102.044 216.087 105.7 216.838 109.856 216.838C114.613 216.838 118.644 216.087 121.949 214.585C125.305 213.083 127.858 211.03 129.611 208.426C131.414 205.822 132.315 202.892 132.315 199.637C132.315 196.533 131.839 193.854 130.888 191.6C129.987 189.297 128.635 187.444 126.832 186.042C125.029 184.59 122.801 183.513 120.147 182.812C117.493 182.111 114.438 181.76 110.983 181.76H97.9132V171.245ZM176.707 120.844H193.532L225.155 205.196L256.703 120.844H273.528L231.765 230.208H218.395L176.707 120.844ZM169.045 120.844H185.045L187.824 193.854V230.208H169.045V120.844ZM265.19 120.844H281.265V230.208H262.411V193.854L265.19 120.844ZM375.231 215.261V230.208H317.169V215.261H375.231ZM322.502 120.844V230.208H303.648V120.844H322.502ZM367.645 166.512V181.235H317.169V166.512H367.645ZM374.856 120.844V135.866H317.169V120.844H374.856ZM462.889 166.512V181.46H404.826V166.512H462.889ZM409.483 120.844V230.208H390.63V120.844H409.483ZM477.385 120.844V230.208H458.607V120.844H477.385ZM518.472 199.487L566.996 120.844H585.849V230.208H566.996V151.49L518.472 230.208H499.694V120.844H518.472V199.487Z" fill="black"/>
</mask>
<g mask="url(#mask20_57_636)">
<rect x="-34.8965" y="171.816" width="672.246" height="72.301" fill="white"/>
</g>
<mask id="mask21_57_636" style="mask-type:alpha" maskUnits="userSpaceOnUse" x="-34" y="362" width="620" height="114">
<path d="M-14.3811 442.984L34.1421 364.341H52.9955V473.706H34.1421V394.987L-14.3811 473.706H-33.1594V364.341H-14.3811V442.984ZM113.086 421.277H97.9132V410.535H110.983C115.64 410.535 119.421 409.859 122.325 408.507C125.229 407.105 127.333 405.177 128.635 402.724C129.987 400.22 130.663 397.315 130.663 394.01C130.663 391.056 129.911 388.352 128.409 385.898C126.957 383.444 124.704 381.492 121.649 380.039C118.594 378.537 114.663 377.786 109.856 377.786C106.251 377.786 102.971 378.437 100.016 379.739C97.0619 381.041 94.7084 382.869 92.9557 385.222C91.2532 387.576 90.4019 390.355 90.4019 393.56H71.5485C71.5485 388.803 72.55 384.546 74.553 380.79C76.6061 376.985 79.3853 373.755 82.8906 371.101C86.4459 368.447 90.5271 366.419 95.134 365.017C99.7911 363.564 104.698 362.838 109.856 362.838C115.865 362.838 121.298 363.514 126.156 364.866C131.013 366.168 135.194 368.121 138.7 370.725C142.205 373.329 144.884 376.584 146.737 380.49C148.59 384.346 149.516 388.828 149.516 393.935C149.516 397.691 148.64 401.221 146.887 404.526C145.185 407.831 142.731 410.736 139.526 413.239C136.321 415.743 132.465 417.721 127.959 419.173C123.502 420.575 118.544 421.277 113.086 421.277ZM97.9132 414.742H113.086C119.145 414.742 124.528 415.368 129.235 416.619C133.943 417.871 137.924 419.699 141.178 422.103C144.433 424.506 146.912 427.486 148.615 431.041C150.317 434.547 151.169 438.578 151.169 443.134C151.169 448.242 150.142 452.799 148.089 456.805C146.086 460.761 143.232 464.116 139.526 466.87C135.82 469.624 131.439 471.703 126.381 473.105C121.374 474.507 115.865 475.208 109.856 475.208C104.999 475.208 100.192 474.607 95.4345 473.405C90.7274 472.153 86.4459 470.25 82.5901 467.697C78.7844 465.093 75.7298 461.788 73.4263 457.782C71.1228 453.776 69.9711 448.968 69.9711 443.36H88.8996C88.8996 446.464 89.776 449.319 91.5286 451.923C93.3313 454.477 95.785 456.53 98.8897 458.082C102.044 459.584 105.7 460.335 109.856 460.335C114.613 460.335 118.644 459.584 121.949 458.082C125.305 456.58 127.858 454.527 129.611 451.923C131.414 449.319 132.315 446.389 132.315 443.134C132.315 440.03 131.839 437.351 130.888 435.097C129.987 432.794 128.635 430.941 126.832 429.539C125.029 428.087 122.801 427.01 120.147 426.309C117.493 425.608 114.438 425.258 110.983 425.258H97.9132V414.742ZM176.707 364.341H193.532L225.155 448.693L256.703 364.341H273.528L231.765 473.706H218.395L176.707 364.341ZM169.045 364.341H185.045L187.824 437.351V473.706H169.045V364.341ZM265.19 364.341H281.265V473.706H262.411V437.351L265.19 364.341ZM375.231 458.758V473.706H317.169V458.758H375.231ZM322.502 364.341V473.706H303.648V364.341H322.502ZM367.645 410.01V424.732H317.169V410.01H367.645ZM374.856 364.341V379.363H317.169V364.341H374.856ZM462.889 410.01V424.957H404.826V410.01H462.889ZM409.483 364.341V473.706H390.63V364.341H409.483ZM477.385 364.341V473.706H458.607V364.341H477.385ZM518.472 442.984L566.996 364.341H585.849V473.706H566.996V394.987L518.472 473.706H499.694V364.341H518.472V442.984Z" fill="black"/>
</mask>
<g mask="url(#mask21_57_636)">
<rect x="-34.8965" y="415.313" width="672.246" height="72.301" fill="white"/>
</g>
<mask id="mask22_57_636" style="mask-type:alpha" maskUnits="userSpaceOnUse" x="-55" y="484" width="620" height="114">
<path d="M-35.6257 564.953L12.8974 486.31H31.7509V595.675H12.8974V516.956L-35.6257 595.675H-54.4041V486.31H-35.6257V564.953ZM91.8415 543.246H76.6686V532.505H89.7383C94.3953 532.505 98.176 531.829 101.08 530.476C103.985 529.074 106.088 527.146 107.39 524.693C108.742 522.189 109.418 519.285 109.418 515.98C109.418 513.025 108.667 510.321 107.165 507.867C105.712 505.414 103.459 503.461 100.404 502.009C97.3498 500.506 93.4189 499.755 88.6116 499.755C85.0062 499.755 81.7262 500.406 78.7718 501.708C75.8173 503.01 73.4638 504.838 71.7111 507.191C70.0086 509.545 69.1573 512.324 69.1573 515.529H50.3038C50.3038 510.772 51.3053 506.515 53.3084 502.76C55.3615 498.954 58.1407 495.724 61.6459 493.07C65.2013 490.416 69.2825 488.388 73.8894 486.986C78.5464 485.534 83.4538 484.808 88.6116 484.808C94.6207 484.808 100.054 485.484 104.911 486.836C109.769 488.138 113.95 490.091 117.455 492.695C120.96 495.298 123.639 498.553 125.492 502.459C127.345 506.315 128.271 510.797 128.271 515.905C128.271 519.66 127.395 523.19 125.642 526.495C123.94 529.8 121.486 532.705 118.281 535.209C115.077 537.712 111.221 539.69 106.714 541.143C102.257 542.545 97.2997 543.246 91.8415 543.246ZM76.6686 536.711H91.8415C97.9006 536.711 103.284 537.337 107.991 538.589C112.698 539.841 116.679 541.668 119.934 544.072C123.189 546.476 125.667 549.455 127.37 553.01C129.073 556.516 129.924 560.547 129.924 565.104C129.924 570.211 128.897 574.768 126.844 578.774C124.841 582.73 121.987 586.085 118.281 588.839C114.576 591.594 110.194 593.672 105.137 595.074C100.129 596.476 94.6207 597.177 88.6116 597.177C83.7543 597.177 78.947 596.576 74.1899 595.374C69.4828 594.122 65.2013 592.22 61.3455 589.666C57.5397 587.062 54.4851 583.757 52.1817 579.751C49.8782 575.745 48.7265 570.937 48.7265 565.329H67.655C67.655 568.434 68.5313 571.288 70.284 573.892C72.0867 576.446 74.5404 578.499 77.6451 580.051C80.7998 581.554 84.4553 582.305 88.6116 582.305C93.3688 582.305 97.3999 581.554 100.705 580.051C104.06 578.549 106.614 576.496 108.366 573.892C110.169 571.288 111.07 568.359 111.07 565.104C111.07 561.999 110.595 559.32 109.643 557.067C108.742 554.763 107.39 552.91 105.587 551.508C103.784 550.056 101.556 548.979 98.9021 548.278C96.2481 547.577 93.1935 547.227 89.7383 547.227H76.6686V536.711ZM155.462 486.31H172.288L203.91 570.662L235.458 486.31H252.283L210.52 595.675H197.15L155.462 486.31ZM147.801 486.31H163.8L166.579 559.32V595.675H147.801V486.31ZM243.946 486.31H260.02V595.675H241.167V559.32L243.946 486.31ZM353.987 580.727V595.675H295.924V580.727H353.987ZM301.257 486.31V595.675H282.404V486.31H301.257ZM346.4 531.979V546.701H295.924V531.979H346.4ZM353.611 486.31V501.333H295.924V486.31H353.611ZM441.644 531.979V546.926H383.581V531.979H441.644ZM388.238 486.31V595.675H369.385V486.31H388.238ZM456.141 486.31V595.675H437.363V486.31H456.141ZM497.228 564.953L545.751 486.31H564.604V595.675H545.751V516.956L497.228 595.675H478.45V486.31H497.228V564.953Z" fill="black"/>
</mask>
<g mask="url(#mask22_57_636)">
<rect x="-56.1411" y="537.283" width="672.246" height="72.301" fill="white"/>
</g>
<mask id="mask23_57_636" style="mask-type:alpha" maskUnits="userSpaceOnUse" x="-55" y="606" width="620" height="113">
<path d="M-35.6257 686.701L12.8974 608.057H31.7509V717.422H12.8974V638.704L-35.6257 717.422H-54.4041V608.057H-35.6257V686.701ZM91.8415 664.993H76.6686V654.252H89.7383C94.3953 654.252 98.176 653.576 101.08 652.224C103.985 650.822 106.088 648.894 107.39 646.44C108.742 643.937 109.418 641.032 109.418 637.727C109.418 634.773 108.667 632.069 107.165 629.615C105.712 627.161 103.459 625.208 100.404 623.756C97.3498 622.254 93.4189 621.503 88.6116 621.503C85.0062 621.503 81.7262 622.154 78.7718 623.456C75.8173 624.758 73.4638 626.585 71.7111 628.939C70.0086 631.292 69.1573 634.072 69.1573 637.276H50.3038C50.3038 632.519 51.3053 628.263 53.3084 624.507C55.3615 620.702 58.1407 617.472 61.6459 614.818C65.2013 612.164 69.2825 610.136 73.8894 608.733C78.5464 607.281 83.4538 606.555 88.6116 606.555C94.6207 606.555 100.054 607.231 104.911 608.583C109.769 609.885 113.95 611.838 117.455 614.442C120.96 617.046 123.639 620.301 125.492 624.207C127.345 628.063 128.271 632.544 128.271 637.652C128.271 641.408 127.395 644.938 125.642 648.243C123.94 651.548 121.486 654.452 118.281 656.956C115.077 659.46 111.221 661.438 106.714 662.89C102.257 664.292 97.2997 664.993 91.8415 664.993ZM76.6686 658.458H91.8415C97.9006 658.458 103.284 659.084 107.991 660.336C112.698 661.588 116.679 663.416 119.934 665.82C123.189 668.223 125.667 671.203 127.37 674.758C129.073 678.263 129.924 682.294 129.924 686.851C129.924 691.959 128.897 696.516 126.844 700.522C124.841 704.478 121.987 707.833 118.281 710.587C114.576 713.341 110.194 715.419 105.137 716.821C100.129 718.224 94.6207 718.925 88.6116 718.925C83.7543 718.925 78.947 718.324 74.1899 717.122C69.4828 715.87 65.2013 713.967 61.3455 711.413C57.5397 708.809 54.4851 705.504 52.1817 701.498C49.8782 697.492 48.7265 692.685 48.7265 687.077H67.655C67.655 690.181 68.5313 693.036 70.284 695.64C72.0867 698.193 74.5404 700.246 77.6451 701.799C80.7998 703.301 84.4553 704.052 88.6116 704.052C93.3688 704.052 97.3999 703.301 100.705 701.799C104.06 700.297 106.614 698.243 108.366 695.64C110.169 693.036 111.07 690.106 111.07 686.851C111.07 683.747 110.595 681.068 109.643 678.814C108.742 676.511 107.39 674.658 105.587 673.256C103.784 671.804 101.556 670.727 98.9021 670.026C96.2481 669.325 93.1935 668.974 89.7383 668.974H76.6686V658.458ZM155.462 608.057H172.288L203.91 692.41L235.458 608.057H252.283L210.52 717.422H197.15L155.462 608.057ZM147.801 608.057H163.8L166.579 681.068V717.422H147.801V608.057ZM243.946 608.057H260.02V717.422H241.167V681.068L243.946 608.057ZM353.987 702.475V717.422H295.924V702.475H353.987ZM301.257 608.057V717.422H282.404V608.057H301.257ZM346.4 653.726V668.449H295.924V653.726H346.4ZM353.611 608.057V623.08H295.924V608.057H353.611ZM441.644 653.726V668.674H383.581V653.726H441.644ZM388.238 608.057V717.422H369.385V608.057H388.238ZM456.141 608.057V717.422H437.363V608.057H456.141ZM497.228 686.701L545.751 608.057H564.604V717.422H545.751V638.704L497.228 717.422H478.45V608.057H497.228V686.701Z" fill="black"/>
</mask>
<g mask="url(#mask23_57_636)">
<rect x="-56.1411" y="659.03" width="672.246" height="72.301" fill="white"/>
</g>
</g>
<defs>
<clipPath id="clip0_57_636">
<rect width="486.176" height="688" fill="white"/>
</clipPath>
</defs>
</svg>
