<svg width="487" height="688" viewBox="0 0 487 688" fill="none" xmlns="http://www.w3.org/2000/svg">
<rect width="486.176" height="688" transform="translate(0.630859)" fill="white"/>
<path d="M377.782 44.0262V45.1777C377.782 45.7966 377.727 46.3188 377.616 46.7441C377.506 47.1694 377.347 47.5117 377.139 47.771C376.932 48.0304 376.681 48.2188 376.387 48.3364C376.097 48.4505 375.768 48.5075 375.402 48.5075C375.111 48.5075 374.843 48.4712 374.598 48.3986C374.352 48.326 374.131 48.2102 373.934 48.0511C373.74 47.8886 373.574 47.6777 373.436 47.4183C373.298 47.159 373.192 46.8443 373.119 46.4744C373.047 46.1044 373.011 45.6722 373.011 45.1777V44.0262C373.011 43.4073 373.066 42.8886 373.177 42.4702C373.291 42.0518 373.451 41.7164 373.659 41.464C373.866 41.2081 374.115 41.0249 374.406 40.9142C374.7 40.8036 375.028 40.7483 375.391 40.7483C375.685 40.7483 375.955 40.7846 376.2 40.8572C376.449 40.9263 376.671 41.0387 376.864 41.1943C377.058 41.3465 377.222 41.5505 377.357 41.8063C377.495 42.0588 377.601 42.3682 377.673 42.7348C377.746 43.1013 377.782 43.5318 377.782 44.0262ZM376.818 45.3333V43.8655C376.818 43.5266 376.797 43.2292 376.755 42.9733C376.717 42.714 376.66 42.4927 376.584 42.3095C376.508 42.1262 376.411 41.9775 376.294 41.8634C376.18 41.7493 376.046 41.6663 375.894 41.6144C375.746 41.5591 375.578 41.5314 375.391 41.5314C375.163 41.5314 374.961 41.5747 374.784 41.6611C374.608 41.7441 374.459 41.8772 374.338 42.0605C374.221 42.2438 374.131 42.4841 374.069 42.7814C374.006 43.0788 373.975 43.4402 373.975 43.8655V45.3333C373.975 45.6722 373.994 45.9713 374.032 46.2306C374.074 46.4899 374.134 46.7147 374.214 46.9049C374.293 47.0916 374.39 47.2454 374.504 47.3665C374.618 47.4875 374.75 47.5774 374.898 47.6362C375.051 47.6915 375.218 47.7192 375.402 47.7192C375.637 47.7192 375.842 47.6742 376.019 47.5843C376.195 47.4944 376.342 47.3544 376.46 47.1642C376.581 46.9706 376.671 46.7233 376.729 46.4225C376.788 46.1182 376.818 45.7551 376.818 45.3333ZM382.17 40.8105V48.4038H381.211V42.0086L379.276 42.714V41.8478L382.02 40.8105H382.17ZM385.111 47.8955C385.111 47.733 385.161 47.5964 385.261 47.4858C385.365 47.3717 385.514 47.3146 385.708 47.3146C385.901 47.3146 386.048 47.3717 386.148 47.4858C386.252 47.5964 386.304 47.733 386.304 47.8955C386.304 48.0546 386.252 48.1894 386.148 48.3001C386.048 48.4107 385.901 48.466 385.708 48.466C385.514 48.466 385.365 48.4107 385.261 48.3001C385.161 48.1894 385.111 48.0546 385.111 47.8955ZM392.533 44.0262V45.1777C392.533 45.7966 392.478 46.3188 392.367 46.7441C392.257 47.1694 392.098 47.5117 391.89 47.771C391.683 48.0304 391.432 48.2188 391.138 48.3364C390.848 48.4505 390.519 48.5075 390.153 48.5075C389.862 48.5075 389.594 48.4712 389.349 48.3986C389.103 48.326 388.882 48.2102 388.685 48.0511C388.491 47.8886 388.325 47.6777 388.187 47.4183C388.048 47.159 387.943 46.8443 387.87 46.4744C387.798 46.1044 387.761 45.6722 387.761 45.1777V44.0262C387.761 43.4073 387.817 42.8886 387.927 42.4702C388.042 42.0518 388.202 41.7164 388.41 41.464C388.617 41.2081 388.866 41.0249 389.157 40.9142C389.451 40.8036 389.779 40.7483 390.142 40.7483C390.436 40.7483 390.706 40.7846 390.951 40.8572C391.2 40.9263 391.422 41.0387 391.615 41.1943C391.809 41.3465 391.973 41.5505 392.108 41.8063C392.246 42.0588 392.352 42.3682 392.424 42.7348C392.497 43.1013 392.533 43.5318 392.533 44.0262ZM391.568 45.3333V43.8655C391.568 43.5266 391.548 43.2292 391.506 42.9733C391.468 42.714 391.411 42.4927 391.335 42.3095C391.259 42.1262 391.162 41.9775 391.045 41.8634C390.931 41.7493 390.797 41.6663 390.645 41.6144C390.497 41.5591 390.329 41.5314 390.142 41.5314C389.914 41.5314 389.712 41.5747 389.535 41.6611C389.359 41.7441 389.21 41.8772 389.089 42.0605C388.972 42.2438 388.882 42.4841 388.82 42.7814C388.757 43.0788 388.726 43.4402 388.726 43.8655V45.3333C388.726 45.6722 388.745 45.9713 388.783 46.2306C388.825 46.4899 388.885 46.7147 388.965 46.9049C389.044 47.0916 389.141 47.2454 389.255 47.3665C389.369 47.4875 389.501 47.5774 389.649 47.6362C389.802 47.6915 389.969 47.7192 390.153 47.7192C390.388 47.7192 390.593 47.6742 390.77 47.5843C390.946 47.4944 391.093 47.3544 391.211 47.1642C391.332 46.9706 391.422 46.7233 391.48 46.4225C391.539 46.1182 391.568 45.7551 391.568 45.3333ZM398.716 47.6154V48.4038H393.773V47.714L396.247 44.9598C396.551 44.621 396.786 44.334 396.952 44.0989C397.122 43.8603 397.239 43.6476 397.305 43.4609C397.374 43.2707 397.409 43.0771 397.409 42.88C397.409 42.631 397.357 42.4063 397.253 42.2057C397.153 42.0017 397.004 41.8392 396.807 41.7182C396.61 41.5971 396.371 41.5366 396.091 41.5366C395.756 41.5366 395.476 41.6023 395.251 41.7337C395.03 41.8617 394.864 42.0415 394.753 42.2731C394.642 42.5048 394.587 42.7711 394.587 43.0719H393.628C393.628 42.6466 393.721 42.2576 393.908 41.9049C394.094 41.5522 394.371 41.2721 394.738 41.0646C395.104 40.8537 395.555 40.7483 396.091 40.7483C396.568 40.7483 396.976 40.833 397.315 41.0024C397.654 41.1684 397.914 41.4035 398.093 41.7078C398.277 42.0086 398.368 42.3613 398.368 42.7659C398.368 42.9872 398.33 43.2119 398.254 43.4402C398.182 43.6649 398.08 43.8897 397.948 44.1144C397.82 44.3392 397.67 44.5605 397.497 44.7783C397.327 44.9962 397.146 45.2105 396.952 45.4215L394.929 47.6154H398.716ZM399.862 47.8955C399.862 47.733 399.912 47.5964 400.012 47.4858C400.116 47.3717 400.265 47.3146 400.458 47.3146C400.652 47.3146 400.799 47.3717 400.899 47.4858C401.003 47.5964 401.055 47.733 401.055 47.8955C401.055 48.0546 401.003 48.1894 400.899 48.3001C400.799 48.4107 400.652 48.466 400.458 48.466C400.265 48.466 400.116 48.4107 400.012 48.3001C399.912 48.1894 399.862 48.0546 399.862 47.8955ZM407.492 47.6154V48.4038H402.549V47.714L405.023 44.9598C405.327 44.621 405.562 44.334 405.728 44.0989C405.898 43.8603 406.015 43.6476 406.081 43.4609C406.15 43.2707 406.185 43.0771 406.185 42.88C406.185 42.631 406.133 42.4063 406.029 42.2057C405.929 42.0017 405.78 41.8392 405.583 41.7182C405.386 41.5971 405.147 41.5366 404.867 41.5366C404.532 41.5366 404.252 41.6023 404.027 41.7337C403.806 41.8617 403.64 42.0415 403.529 42.2731C403.418 42.5048 403.363 42.7711 403.363 43.0719H402.403C402.403 42.6466 402.497 42.2576 402.684 41.9049C402.87 41.5522 403.147 41.2721 403.513 41.0646C403.88 40.8537 404.331 40.7483 404.867 40.7483C405.344 40.7483 405.752 40.833 406.091 41.0024C406.43 41.1684 406.689 41.4035 406.869 41.7078C407.052 42.0086 407.144 42.3613 407.144 42.7659C407.144 42.9872 407.106 43.2119 407.03 43.4402C406.957 43.6649 406.855 43.8897 406.724 44.1144C406.596 44.3392 406.446 44.5605 406.273 44.7783C406.103 44.9962 405.922 45.2105 405.728 45.4215L403.705 47.6154H407.492ZM413.259 44.0262V45.1777C413.259 45.7966 413.204 46.3188 413.093 46.7441C412.983 47.1694 412.824 47.5117 412.616 47.771C412.409 48.0304 412.158 48.2188 411.864 48.3364C411.574 48.4505 411.245 48.5075 410.879 48.5075C410.588 48.5075 410.32 48.4712 410.075 48.3986C409.829 48.326 409.608 48.2102 409.411 48.0511C409.217 47.8886 409.051 47.6777 408.913 47.4183C408.774 47.159 408.669 46.8443 408.596 46.4744C408.524 46.1044 408.487 45.6722 408.487 45.1777V44.0262C408.487 43.4073 408.543 42.8886 408.653 42.4702C408.768 42.0518 408.928 41.7164 409.136 41.464C409.343 41.2081 409.592 41.0249 409.883 40.9142C410.177 40.8036 410.505 40.7483 410.868 40.7483C411.162 40.7483 411.432 40.7846 411.677 40.8572C411.926 40.9263 412.148 41.0387 412.341 41.1943C412.535 41.3465 412.699 41.5505 412.834 41.8063C412.972 42.0588 413.078 42.3682 413.15 42.7348C413.223 43.1013 413.259 43.5318 413.259 44.0262ZM412.294 45.3333V43.8655C412.294 43.5266 412.274 43.2292 412.232 42.9733C412.194 42.714 412.137 42.4927 412.061 42.3095C411.985 42.1262 411.888 41.9775 411.771 41.8634C411.657 41.7493 411.523 41.6663 411.371 41.6144C411.223 41.5591 411.055 41.5314 410.868 41.5314C410.64 41.5314 410.438 41.5747 410.261 41.6611C410.085 41.7441 409.936 41.8772 409.815 42.0605C409.698 42.2438 409.608 42.4841 409.546 42.7814C409.483 43.0788 409.452 43.4402 409.452 43.8655V45.3333C409.452 45.6722 409.471 45.9713 409.509 46.2306C409.551 46.4899 409.611 46.7147 409.691 46.9049C409.77 47.0916 409.867 47.2454 409.981 47.3665C410.095 47.4875 410.227 47.5774 410.375 47.6362C410.528 47.6915 410.695 47.7192 410.879 47.7192C411.114 47.7192 411.319 47.6742 411.496 47.5843C411.672 47.4944 411.819 47.3544 411.937 47.1642C412.058 46.9706 412.148 46.7233 412.206 46.4225C412.265 46.1182 412.294 45.7551 412.294 45.3333ZM419.442 47.6154V48.4038H414.499V47.714L416.973 44.9598C417.277 44.621 417.512 44.334 417.678 44.0989C417.848 43.8603 417.965 43.6476 418.031 43.4609C418.1 43.2707 418.135 43.0771 418.135 42.88C418.135 42.631 418.083 42.4063 417.979 42.2057C417.879 42.0017 417.73 41.8392 417.533 41.7182C417.336 41.5971 417.097 41.5366 416.817 41.5366C416.482 41.5366 416.202 41.6023 415.977 41.7337C415.756 41.8617 415.59 42.0415 415.479 42.2731C415.368 42.5048 415.313 42.7711 415.313 43.0719H414.354C414.354 42.6466 414.447 42.2576 414.634 41.9049C414.82 41.5522 415.097 41.2721 415.464 41.0646C415.83 40.8537 416.281 40.7483 416.817 40.7483C417.294 40.7483 417.702 40.833 418.041 41.0024C418.38 41.1684 418.64 41.4035 418.819 41.7078C419.003 42.0086 419.094 42.3613 419.094 42.7659C419.094 42.9872 419.056 43.2119 418.98 43.4402C418.908 43.6649 418.806 43.8897 418.674 44.1144C418.546 44.3392 418.396 44.5605 418.223 44.7783C418.053 44.9962 417.872 45.2105 417.678 45.4215L415.655 47.6154H419.442ZM421.869 44.1559H422.554C422.889 44.1559 423.166 44.1006 423.384 43.9899C423.605 43.8758 423.769 43.722 423.876 43.5283C423.987 43.3312 424.042 43.1099 424.042 42.8644C424.042 42.574 423.994 42.3302 423.897 42.1331C423.8 41.936 423.655 41.7873 423.461 41.6871C423.268 41.5868 423.022 41.5366 422.725 41.5366C422.455 41.5366 422.217 41.5902 422.009 41.6974C421.805 41.8012 421.644 41.9498 421.527 42.1435C421.413 42.3371 421.356 42.5653 421.356 42.8281H420.396C420.396 42.4443 420.493 42.0951 420.687 41.7804C420.88 41.4658 421.152 41.2151 421.501 41.0283C421.854 40.8416 422.262 40.7483 422.725 40.7483C423.181 40.7483 423.581 40.8295 423.923 40.992C424.265 41.1511 424.532 41.3897 424.722 41.7078C424.912 42.0225 425.007 42.4149 425.007 42.8852C425.007 43.0754 424.962 43.2794 424.872 43.4972C424.786 43.7116 424.649 43.9121 424.462 44.0989C424.279 44.2856 424.041 44.4395 423.747 44.5605C423.453 44.678 423.1 44.7368 422.689 44.7368H421.869V44.1559ZM421.869 44.9443V44.3686H422.689C423.169 44.3686 423.567 44.4256 423.882 44.5397C424.196 44.6538 424.443 44.806 424.623 44.9962C424.807 45.1863 424.934 45.3955 425.007 45.6237C425.083 45.8485 425.121 46.0733 425.121 46.298C425.121 46.6507 425.061 46.9636 424.94 47.2368C424.822 47.51 424.654 47.7416 424.437 47.9318C424.222 48.122 423.97 48.2655 423.679 48.3623C423.389 48.4591 423.072 48.5075 422.73 48.5075C422.402 48.5075 422.092 48.4609 421.802 48.3675C421.515 48.2741 421.261 48.1393 421.039 47.9629C420.818 47.7831 420.645 47.5636 420.521 47.3042C420.396 47.0414 420.334 46.7423 420.334 46.4069H421.293C421.293 46.6697 421.35 46.8997 421.465 47.0968C421.582 47.2939 421.748 47.4477 421.962 47.5584C422.18 47.6656 422.436 47.7192 422.73 47.7192C423.024 47.7192 423.276 47.669 423.487 47.5688C423.702 47.465 423.866 47.3094 423.98 47.102C424.098 46.8945 424.156 46.6334 424.156 46.3188C424.156 46.0041 424.091 45.7465 423.959 45.5459C423.828 45.3419 423.641 45.1915 423.399 45.0947C423.161 44.9944 422.879 44.9443 422.554 44.9443H421.869Z" fill="black"/>
<path d="M77.878 189.405V198.262C77.878 203.023 77.4524 207.04 76.6013 210.311C75.7501 213.583 74.5266 216.216 72.9307 218.211C71.3348 220.206 69.4064 221.656 67.1455 222.56C64.9113 223.438 62.3844 223.877 59.565 223.877C57.3307 223.877 55.2694 223.597 53.3809 223.039C51.4924 222.48 49.7901 221.589 48.274 220.366C46.7845 219.115 45.5077 217.493 44.4438 215.498C43.3799 213.503 42.5686 211.083 42.0101 208.237C41.4515 205.391 41.1722 202.066 41.1722 198.262V189.405C41.1722 184.644 41.5978 180.654 42.4489 177.436C43.3267 174.217 44.5635 171.637 46.1594 169.696C47.7553 167.727 49.6704 166.318 51.9047 165.466C54.1655 164.615 56.6924 164.19 59.4852 164.19C61.7461 164.19 63.8207 164.469 65.7092 165.028C67.6243 165.56 69.3266 166.424 70.8161 167.621C72.3056 168.791 73.569 170.361 74.6064 172.329C75.6703 174.271 76.4816 176.651 77.0401 179.471C77.5987 182.29 77.878 185.601 77.878 189.405ZM70.457 199.459V188.168C70.457 185.562 70.2974 183.274 69.9783 181.306C69.6857 179.311 69.2468 177.609 68.6616 176.199C68.0765 174.789 67.3317 173.646 66.4274 172.768C65.5496 171.89 64.5256 171.252 63.3553 170.853C62.2115 170.427 60.9215 170.214 59.4852 170.214C57.7297 170.214 56.1737 170.547 54.8172 171.212C53.4607 171.85 52.3169 172.874 51.386 174.284C50.4816 175.694 49.7901 177.542 49.3113 179.83C48.8325 182.117 48.5932 184.897 48.5932 188.168V199.459C48.5932 202.066 48.7394 204.367 49.032 206.362C49.3512 208.356 49.8167 210.085 50.4284 211.548C51.0402 212.985 51.785 214.168 52.6627 215.099C53.5405 216.03 54.5512 216.722 55.6949 217.174C56.8653 217.599 58.1553 217.812 59.565 217.812C61.3737 217.812 62.9563 217.466 64.3128 216.775C65.6693 216.083 66.7998 215.006 67.7041 213.543C68.635 212.054 69.3266 210.152 69.7788 207.838C70.2309 205.497 70.457 202.704 70.457 199.459ZM111.631 164.669V223.079H104.25V173.885L89.3685 179.311V172.648L110.474 164.669H111.631ZM134.253 219.169C134.253 217.919 134.639 216.868 135.41 216.017C136.208 215.139 137.352 214.7 138.842 214.7C140.331 214.7 141.461 215.139 142.233 216.017C143.031 216.868 143.43 217.919 143.43 219.169C143.43 220.392 143.031 221.43 142.233 222.281C141.461 223.132 140.331 223.557 138.842 223.557C137.352 223.557 136.208 223.132 135.41 222.281C134.639 221.43 134.253 220.392 134.253 219.169ZM191.347 189.405V198.262C191.347 203.023 190.921 207.04 190.07 210.311C189.219 213.583 187.995 216.216 186.399 218.211C184.804 220.206 182.875 221.656 180.614 222.56C178.38 223.438 175.853 223.877 173.034 223.877C170.799 223.877 168.738 223.597 166.85 223.039C164.961 222.48 163.259 221.589 161.743 220.366C160.253 219.115 158.976 217.493 157.913 215.498C156.849 213.503 156.037 211.083 155.479 208.237C154.92 205.391 154.641 202.066 154.641 198.262V189.405C154.641 184.644 155.067 180.654 155.918 177.436C156.795 174.217 158.032 171.637 159.628 169.696C161.224 167.727 163.139 166.318 165.373 165.466C167.634 164.615 170.161 164.19 172.954 164.19C175.215 164.19 177.289 164.469 179.178 165.028C181.093 165.56 182.795 166.424 184.285 167.621C185.774 168.791 187.038 170.361 188.075 172.329C189.139 174.271 189.95 176.651 190.509 179.471C191.067 182.29 191.347 185.601 191.347 189.405ZM183.926 199.459V188.168C183.926 185.562 183.766 183.274 183.447 181.306C183.154 179.311 182.716 177.609 182.13 176.199C181.545 174.789 180.8 173.646 179.896 172.768C179.018 171.89 177.994 171.252 176.824 170.853C175.68 170.427 174.39 170.214 172.954 170.214C171.198 170.214 169.642 170.547 168.286 171.212C166.929 171.85 165.786 172.874 164.855 174.284C163.95 175.694 163.259 177.542 162.78 179.83C162.301 182.117 162.062 184.897 162.062 188.168V199.459C162.062 202.066 162.208 204.367 162.501 206.362C162.82 208.356 163.285 210.085 163.897 211.548C164.509 212.985 165.254 214.168 166.131 215.099C167.009 216.03 168.02 216.722 169.164 217.174C170.334 217.599 171.624 217.812 173.034 217.812C174.842 217.812 176.425 217.466 177.782 216.775C179.138 216.083 180.268 215.006 181.173 213.543C182.104 212.054 182.795 210.152 183.248 207.838C183.7 205.497 183.926 202.704 183.926 199.459ZM238.905 217.014V223.079H200.882V217.772L219.913 196.587C222.254 193.98 224.063 191.772 225.339 189.964C226.643 188.128 227.547 186.493 228.053 185.056C228.584 183.593 228.85 182.104 228.85 180.588C228.85 178.673 228.451 176.944 227.654 175.401C226.882 173.832 225.738 172.582 224.222 171.651C222.706 170.72 220.871 170.254 218.716 170.254C216.136 170.254 213.982 170.76 212.253 171.77C210.551 172.754 209.274 174.138 208.423 175.92C207.572 177.702 207.146 179.75 207.146 182.064H199.765C199.765 178.792 200.483 175.8 201.92 173.087C203.356 170.374 205.484 168.219 208.303 166.624C211.123 165.001 214.594 164.19 218.716 164.19C222.387 164.19 225.526 164.841 228.132 166.145C230.739 167.421 232.734 169.23 234.117 171.571C235.527 173.885 236.232 176.598 236.232 179.71C236.232 181.412 235.939 183.141 235.354 184.897C234.795 186.626 234.011 188.354 233 190.083C232.016 191.812 230.859 193.515 229.529 195.19C228.225 196.866 226.829 198.515 225.339 200.138L209.779 217.014H238.905Z" fill="black"/>
<path d="M310.714 594.516V600.58H272.692V595.274L291.723 574.088C294.064 571.481 295.872 569.274 297.149 567.465C298.452 565.63 299.357 563.994 299.862 562.558C300.394 561.095 300.66 559.605 300.66 558.089C300.66 556.174 300.261 554.445 299.463 552.902C298.692 551.333 297.548 550.083 296.032 549.152C294.516 548.221 292.68 547.756 290.526 547.756C287.946 547.756 285.791 548.261 284.063 549.272C282.36 550.256 281.084 551.639 280.232 553.421C279.381 555.203 278.956 557.251 278.956 559.565H271.575C271.575 556.294 272.293 553.301 273.729 550.588C275.165 547.875 277.293 545.721 280.113 544.125C282.932 542.502 286.403 541.691 290.526 541.691C294.197 541.691 297.335 542.343 299.942 543.646C302.548 544.923 304.543 546.732 305.926 549.072C307.336 551.386 308.041 554.099 308.041 557.211C308.041 558.914 307.748 560.643 307.163 562.398C306.605 564.127 305.82 565.856 304.809 567.585C303.825 569.314 302.668 571.016 301.338 572.692C300.035 574.367 298.638 576.016 297.149 577.639L281.589 594.516H310.714ZM355.08 566.907V575.764C355.08 580.525 354.655 584.541 353.804 587.813C352.952 591.084 351.729 593.718 350.133 595.713C348.537 597.707 346.609 599.157 344.348 600.061C342.114 600.939 339.587 601.378 336.767 601.378C334.533 601.378 332.472 601.099 330.583 600.54C328.695 599.982 326.992 599.091 325.476 597.867C323.987 596.617 322.71 594.994 321.646 593C320.582 591.005 319.771 588.584 319.212 585.738C318.654 582.892 318.374 579.567 318.374 575.764V566.907C318.374 562.145 318.8 558.156 319.651 554.937C320.529 551.719 321.766 549.139 323.362 547.197C324.958 545.229 326.873 543.819 329.107 542.968C331.368 542.117 333.895 541.691 336.687 541.691C338.948 541.691 341.023 541.971 342.911 542.529C344.827 543.061 346.529 543.926 348.018 545.122C349.508 546.293 350.771 547.862 351.809 549.83C352.873 551.772 353.684 554.153 354.242 556.972C354.801 559.791 355.08 563.103 355.08 566.907ZM347.659 576.961V565.67C347.659 563.063 347.5 560.776 347.181 558.807C346.888 556.812 346.449 555.11 345.864 553.7C345.279 552.291 344.534 551.147 343.63 550.269C342.752 549.391 341.728 548.753 340.558 548.354C339.414 547.929 338.124 547.716 336.687 547.716C334.932 547.716 333.376 548.048 332.019 548.713C330.663 549.352 329.519 550.376 328.588 551.785C327.684 553.195 326.992 555.044 326.514 557.331C326.035 559.619 325.795 562.398 325.795 565.67V576.961C325.795 579.567 325.942 581.868 326.234 583.863C326.553 585.858 327.019 587.587 327.631 589.05C328.242 590.486 328.987 591.67 329.865 592.601C330.743 593.532 331.753 594.223 332.897 594.675C334.068 595.101 335.358 595.314 336.767 595.314C338.576 595.314 340.159 594.968 341.515 594.276C342.872 593.585 344.002 592.507 344.906 591.045C345.837 589.555 346.529 587.653 346.981 585.339C347.433 582.999 347.659 580.206 347.659 576.961ZM402.638 594.516V600.58H364.616V595.274L383.647 574.088C385.988 571.481 387.796 569.274 389.073 567.465C390.376 565.63 391.281 563.994 391.786 562.558C392.318 561.095 392.584 559.605 392.584 558.089C392.584 556.174 392.185 554.445 391.387 552.902C390.616 551.333 389.472 550.083 387.956 549.152C386.44 548.221 384.604 547.756 382.45 547.756C379.87 547.756 377.715 548.261 375.987 549.272C374.284 550.256 373.008 551.639 372.156 553.421C371.305 555.203 370.88 557.251 370.88 559.565H363.499C363.499 556.294 364.217 553.301 365.653 550.588C367.089 547.875 369.217 545.721 372.037 544.125C374.856 542.502 378.327 541.691 382.45 541.691C386.121 541.691 389.259 542.343 391.866 543.646C394.472 544.923 396.467 546.732 397.85 549.072C399.26 551.386 399.965 554.099 399.965 557.211C399.965 558.914 399.672 560.643 399.087 562.398C398.529 564.127 397.744 565.856 396.733 567.585C395.749 569.314 394.592 571.016 393.262 572.692C391.959 574.367 390.562 576.016 389.073 577.639L373.513 594.516H402.638ZM421.31 567.904H426.577C429.157 567.904 431.285 567.478 432.96 566.627C434.663 565.749 435.926 564.566 436.751 563.076C437.602 561.56 438.027 559.858 438.027 557.969C438.027 555.735 437.655 553.86 436.91 552.344C436.165 550.828 435.048 549.684 433.559 548.913C432.069 548.141 430.181 547.756 427.893 547.756C425.819 547.756 423.983 548.168 422.387 548.992C420.818 549.79 419.581 550.934 418.677 552.424C417.799 553.913 417.36 555.669 417.36 557.69H409.979C409.979 554.738 410.724 552.051 412.214 549.631C413.703 547.21 415.791 545.282 418.478 543.846C421.191 542.409 424.329 541.691 427.893 541.691C431.404 541.691 434.476 542.316 437.11 543.566C439.743 544.79 441.791 546.625 443.254 549.072C444.717 551.493 445.448 554.512 445.448 558.129C445.448 559.592 445.102 561.161 444.411 562.837C443.746 564.486 442.695 566.029 441.259 567.465C439.849 568.901 438.014 570.085 435.753 571.016C433.492 571.92 430.779 572.372 427.614 572.372H421.31V567.904ZM421.31 573.968V569.54H427.614C431.311 569.54 434.37 569.979 436.791 570.856C439.211 571.734 441.113 572.904 442.496 574.367C443.906 575.83 444.89 577.439 445.448 579.195C446.033 580.924 446.326 582.653 446.326 584.382C446.326 587.095 445.861 589.502 444.93 591.603C444.025 593.704 442.735 595.486 441.06 596.949C439.41 598.412 437.469 599.516 435.234 600.261C433 601.006 430.566 601.378 427.933 601.378C425.406 601.378 423.026 601.019 420.792 600.301C418.584 599.583 416.629 598.545 414.927 597.189C413.224 595.806 411.894 594.117 410.937 592.122C409.979 590.1 409.501 587.8 409.501 585.22H416.882C416.882 587.241 417.32 589.01 418.198 590.526C419.103 592.042 420.379 593.226 422.028 594.077C423.704 594.901 425.672 595.314 427.933 595.314C430.194 595.314 432.136 594.928 433.758 594.157C435.407 593.359 436.671 592.162 437.549 590.566C438.453 588.97 438.905 586.962 438.905 584.541C438.905 582.121 438.4 580.139 437.389 578.597C436.378 577.027 434.942 575.87 433.08 575.125C431.245 574.354 429.077 573.968 426.577 573.968H421.31Z" fill="black"/>
<path d="M377.974 58.8283V59.6478H374.333V66.3801H373.337V58.8283H377.974ZM377.051 65.8718C377.051 65.7093 377.101 65.5727 377.201 65.4621C377.305 65.348 377.454 65.2909 377.647 65.2909C377.841 65.2909 377.988 65.348 378.088 65.4621C378.192 65.5727 378.244 65.7093 378.244 65.8718C378.244 66.0309 378.192 66.1657 378.088 66.2764C377.988 66.387 377.841 66.4424 377.647 66.4424C377.454 66.4424 377.305 66.387 377.201 66.2764C377.101 66.1657 377.051 66.0309 377.051 65.8718ZM382.933 58.8283H383.903L386.377 64.9849L388.845 58.8283H389.821L386.75 66.3801H385.993L382.933 58.8283ZM382.616 58.8283H383.472L383.612 63.4341V66.3801H382.616V58.8283ZM389.276 58.8283H390.132V66.3801H389.136V63.4341L389.276 58.8283ZM397.704 62.3656V62.8428C397.704 63.4099 397.633 63.9182 397.492 64.3677C397.35 64.8172 397.146 65.1993 396.88 65.514C396.613 65.8286 396.294 66.0689 395.92 66.2349C395.55 66.4009 395.135 66.4839 394.675 66.4839C394.229 66.4839 393.82 66.4009 393.446 66.2349C393.076 66.0689 392.755 65.8286 392.481 65.514C392.212 65.1993 392.002 64.8172 391.854 64.3677C391.705 63.9182 391.631 63.4099 391.631 62.8428V62.3656C391.631 61.7986 391.703 61.292 391.849 60.8459C391.997 60.3964 392.206 60.0143 392.476 59.6997C392.746 59.3816 393.066 59.1395 393.436 58.9735C393.809 58.8076 394.219 58.7246 394.665 58.7246C395.125 58.7246 395.54 58.8076 395.91 58.9735C396.283 59.1395 396.603 59.3816 396.869 59.6997C397.139 60.0143 397.345 60.3964 397.487 60.8459C397.632 61.292 397.704 61.7986 397.704 62.3656ZM396.714 62.8428V62.3553C396.714 61.9057 396.667 61.5081 396.574 61.1623C396.484 60.8165 396.351 60.5261 396.174 60.291C395.998 60.0558 395.782 59.8778 395.526 59.7567C395.274 59.6357 394.987 59.5752 394.665 59.5752C394.354 59.5752 394.072 59.6357 393.82 59.7567C393.571 59.8778 393.356 60.0558 393.176 60.291C393 60.5261 392.863 60.8165 392.767 61.1623C392.67 61.5081 392.621 61.9057 392.621 62.3553V62.8428C392.621 63.2958 392.67 63.6969 392.767 64.0461C392.863 64.3919 393.002 64.6841 393.182 64.9227C393.365 65.1578 393.581 65.3359 393.83 65.4569C394.082 65.5779 394.364 65.6384 394.675 65.6384C395 65.6384 395.289 65.5779 395.541 65.4569C395.794 65.3359 396.007 65.1578 396.179 64.9227C396.356 64.6841 396.489 64.3919 396.579 64.0461C396.669 63.6969 396.714 63.2958 396.714 62.8428ZM403.762 63.9787H404.758C404.706 64.4559 404.57 64.8829 404.348 65.2598C404.127 65.6367 403.814 65.9358 403.41 66.1571C403.005 66.3749 402.5 66.4839 401.895 66.4839C401.453 66.4839 401.05 66.4009 400.687 66.2349C400.327 66.0689 400.018 65.8338 399.758 65.5295C399.499 65.2218 399.298 64.8535 399.157 64.4247C399.018 63.9925 398.949 63.5119 398.949 62.9828V62.2308C398.949 61.7017 399.018 61.2228 399.157 60.7941C399.298 60.3618 399.501 59.9919 399.763 59.6841C400.03 59.3764 400.35 59.1395 400.723 58.9735C401.096 58.8076 401.517 58.7246 401.983 58.7246C402.554 58.7246 403.036 58.8318 403.43 59.0462C403.825 59.2605 404.131 59.5579 404.348 59.9383C404.57 60.3152 404.706 60.7526 404.758 61.2505H403.762C403.714 60.8978 403.624 60.5952 403.493 60.3428C403.361 60.0869 403.175 59.8899 402.933 59.7515C402.69 59.6132 402.374 59.5441 401.983 59.5441C401.648 59.5441 401.352 59.608 401.096 59.736C400.844 59.8639 400.631 60.0455 400.458 60.2806C400.289 60.5157 400.161 60.7975 400.075 61.126C399.988 61.4545 399.945 61.8193 399.945 62.2204V62.9828C399.945 63.3528 399.983 63.7003 400.059 64.0254C400.139 64.3504 400.258 64.6357 400.417 64.8812C400.576 65.1267 400.778 65.3203 401.024 65.4621C401.269 65.6004 401.56 65.6696 401.895 65.6696C402.32 65.6696 402.659 65.6021 402.912 65.4673C403.164 65.3324 403.354 65.1388 403.482 64.8864C403.614 64.6339 403.707 64.3314 403.762 63.9787ZM407.17 58.8283V66.3801H406.169V58.8283H407.17ZM411.823 58.8283L408.545 62.9828H406.771L406.615 62.153H407.948L410.583 58.8283H411.823ZM410.816 66.3801L407.979 62.8532L408.539 61.9766L412.04 66.3801H410.816ZM415.64 62.848H413.726L413.716 62.0441H415.453C415.74 62.0441 415.991 61.9956 416.205 61.8988C416.42 61.802 416.586 61.6637 416.703 61.4839C416.824 61.3006 416.885 61.0828 416.885 60.8304C416.885 60.5537 416.831 60.329 416.724 60.1561C416.62 59.9798 416.459 59.8518 416.242 59.7723C416.027 59.6893 415.754 59.6478 415.422 59.6478H413.949V66.3801H412.948V58.8283H415.422C415.809 58.8283 416.155 58.8681 416.459 58.9476C416.764 59.0237 417.021 59.1447 417.232 59.3107C417.447 59.4732 417.609 59.6807 417.72 59.9331C417.83 60.1855 417.886 60.4881 417.886 60.8407C417.886 61.1519 417.806 61.4338 417.647 61.6862C417.488 61.9351 417.267 62.1391 416.983 62.2982C416.703 62.4573 416.375 62.5593 415.998 62.6042L415.64 62.848ZM415.593 66.3801H413.332L413.897 65.5658H415.593C415.911 65.5658 416.181 65.5105 416.402 65.3998C416.627 65.2892 416.798 65.1336 416.916 64.933C417.033 64.729 417.092 64.4887 417.092 64.2121C417.092 63.932 417.042 63.69 416.942 63.486C416.841 63.2819 416.684 63.1246 416.47 63.014C416.255 62.9033 415.979 62.848 415.64 62.848H414.214L414.224 62.0441H416.174L416.387 62.3345C416.75 62.3656 417.058 62.4694 417.31 62.6457C417.562 62.8186 417.754 63.0399 417.886 63.3096C418.021 63.5793 418.088 63.8767 418.088 64.2017C418.088 64.672 417.984 65.0696 417.777 65.3947C417.573 65.7162 417.284 65.9617 416.911 66.1312C416.537 66.2971 416.098 66.3801 415.593 66.3801ZM422.362 59.4974L419.862 66.3801H418.84L421.719 58.8283H422.377L422.362 59.4974ZM424.457 66.3801L421.952 59.4974L421.937 58.8283H422.595L425.484 66.3801H424.457ZM424.328 63.5845V64.404H420.085V63.5845H424.328ZM375.63 75.875L377.627 70.8283H378.778L376.107 77.1198C376.031 77.2961 375.946 77.4673 375.853 77.6332C375.759 77.7958 375.645 77.941 375.511 78.0689C375.376 78.1969 375.208 78.2989 375.007 78.3749C374.81 78.451 374.565 78.489 374.271 78.489C374.188 78.489 374.089 78.4839 373.975 78.4735C373.861 78.4666 373.787 78.4579 373.752 78.4476L373.783 77.6488C373.821 77.6557 373.896 77.6626 374.006 77.6696C374.117 77.673 374.198 77.6747 374.25 77.6747C374.447 77.6747 374.603 77.635 374.717 77.5554C374.831 77.4759 374.923 77.3756 374.992 77.2546C375.064 77.1301 375.13 77.0039 375.189 76.876L375.63 75.875ZM373.934 70.8283L376.034 75.5326L376.283 76.4611L375.443 76.5233L372.813 70.8283H373.934ZM384.546 70.8283V71.6478H381.091V70.8283H384.546ZM385.407 70.8283V78.3801H384.406V70.8283H385.407ZM380.749 70.8283H381.745L381.574 74.5264C381.55 75.0589 381.508 75.5344 381.449 75.9528C381.394 76.3677 381.314 76.729 381.211 77.0368C381.107 77.3411 380.972 77.5935 380.806 77.794C380.64 77.9911 380.436 78.1381 380.194 78.2349C379.956 78.3317 379.669 78.3801 379.333 78.3801H379.063V77.5658L379.271 77.5503C379.464 77.5364 379.63 77.4932 379.769 77.4206C379.911 77.3445 380.03 77.2304 380.127 77.0783C380.227 76.9261 380.308 76.729 380.37 76.487C380.433 76.2449 380.481 75.9493 380.516 75.6001C380.554 75.2474 380.583 74.8359 380.604 74.3656L380.749 70.8283ZM387.082 77.8718C387.082 77.7093 387.132 77.5727 387.232 77.4621C387.336 77.348 387.485 77.2909 387.678 77.2909C387.872 77.2909 388.019 77.348 388.119 77.4621C388.223 77.5727 388.275 77.7093 388.275 77.8718C388.275 78.0309 388.223 78.1657 388.119 78.2764C388.019 78.387 387.872 78.4424 387.678 78.4424C387.485 78.4424 387.336 78.387 387.232 78.2764C387.132 78.1657 387.082 78.0309 387.082 77.8718ZM395.443 71.4974L392.943 78.3801H391.921L394.8 70.8283H395.459L395.443 71.4974ZM397.538 78.3801L395.033 71.4974L395.018 70.8283H395.676L398.565 78.3801H397.538ZM397.409 75.5845V76.404H393.166V75.5845H397.409ZM402.362 75.4185H400.344V74.6042H402.362C402.753 74.6042 403.069 74.542 403.311 74.4175C403.553 74.293 403.73 74.1201 403.84 73.8988C403.954 73.6775 404.011 73.4251 404.011 73.1416C404.011 72.8822 403.954 72.6385 403.84 72.4103C403.73 72.182 403.553 71.9988 403.311 71.8605C403.069 71.7187 402.753 71.6478 402.362 71.6478H400.578V78.3801H399.577V70.8283H402.362C402.933 70.8283 403.415 70.9269 403.809 71.124C404.203 71.321 404.502 71.5942 404.706 71.9434C404.91 72.2892 405.012 72.6851 405.012 73.1312C405.012 73.6153 404.91 74.0285 404.706 74.3708C404.502 74.7131 404.203 74.9742 403.809 75.154C403.415 75.3304 402.933 75.4185 402.362 75.4185ZM410.884 70.8283V71.6478H407.243V78.3801H406.247V70.8283H410.884ZM407.009 73.904H409.068C409.622 73.904 410.088 73.9974 410.469 74.1841C410.849 74.3674 411.138 74.625 411.335 74.9569C411.532 75.2889 411.631 75.6779 411.631 76.1239C411.631 76.4559 411.575 76.7602 411.465 77.0368C411.354 77.3099 411.19 77.5485 410.972 77.7525C410.754 77.9531 410.486 78.1087 410.168 78.2193C409.85 78.3265 409.483 78.3801 409.068 78.3801H406.247V70.8283H407.248V77.5658H409.068C409.438 77.5658 409.737 77.4984 409.966 77.3635C410.197 77.2252 410.367 77.0454 410.474 76.8241C410.581 76.6028 410.635 76.366 410.635 76.1135C410.635 75.8611 410.581 75.6295 410.474 75.4185C410.367 75.2076 410.197 75.0399 409.966 74.9154C409.737 74.7875 409.438 74.7235 409.068 74.7235H407.009V73.904ZM415.775 71.4974L413.275 78.3801H412.253L415.132 70.8283H415.79L415.775 71.4974ZM417.87 78.3801L415.365 71.4974L415.349 70.8283H416.008L418.897 78.3801H417.87ZM417.741 75.5845V76.404H413.498V75.5845H417.741ZM422.025 70.8283V78.3801H421.039V70.8283H422.025ZM424.452 70.8283V71.6478H418.617V70.8283H424.452ZM425.168 77.2391V78.0119C425.168 78.3265 425.088 78.6585 424.929 79.0077C424.77 79.3604 424.547 79.6543 424.26 79.8895L423.716 79.5108C423.826 79.3587 423.92 79.2031 423.996 79.044C424.072 78.8884 424.129 78.7259 424.167 78.5565C424.208 78.3905 424.229 78.2142 424.229 78.0274V77.2391H425.168ZM433.871 77.5918V78.3801H428.928V77.6903L431.402 74.9362C431.707 74.5973 431.942 74.3103 432.108 74.0752C432.277 73.8366 432.395 73.6239 432.46 73.4372C432.529 73.247 432.564 73.0534 432.564 72.8563C432.564 72.6073 432.512 72.3826 432.408 72.182C432.308 71.978 432.159 71.8155 431.962 71.6945C431.765 71.5735 431.527 71.513 431.247 71.513C430.911 71.513 430.631 71.5787 430.406 71.71C430.185 71.838 430.019 72.0178 429.908 72.2495C429.798 72.4811 429.742 72.7474 429.742 73.0482H428.783C428.783 72.6229 428.876 72.2339 429.063 71.8812C429.25 71.5285 429.526 71.2484 429.893 71.041C430.259 70.83 430.711 70.7246 431.247 70.7246C431.724 70.7246 432.132 70.8093 432.471 70.9787C432.81 71.1447 433.069 71.3798 433.249 71.6841C433.432 71.9849 433.524 72.3376 433.524 72.7422C433.524 72.9635 433.486 73.1883 433.409 73.4165C433.337 73.6412 433.235 73.866 433.103 74.0907C432.976 74.3155 432.825 74.5368 432.652 74.7546C432.483 74.9725 432.301 75.1869 432.108 75.3978L430.085 77.5918H433.871ZM436.195 70.8283V78.3801H435.194V70.8283H436.195ZM440.847 70.8283L437.569 74.9828H435.795L435.64 74.153H436.973L439.608 70.8283H440.847ZM439.841 78.3801L437.004 74.8532L437.564 73.9766L441.065 78.3801H439.841ZM443.124 74.1322H443.809C444.144 74.1322 444.421 74.0769 444.639 73.9663C444.86 73.8522 445.024 73.6983 445.131 73.5046C445.242 73.3075 445.297 73.0862 445.297 72.8407C445.297 72.5503 445.249 72.3065 445.152 72.1094C445.055 71.9123 444.91 71.7636 444.716 71.6634C444.523 71.5631 444.277 71.513 443.98 71.513C443.71 71.513 443.472 71.5666 443.264 71.6737C443.06 71.7775 442.899 71.9262 442.782 72.1198C442.668 72.3134 442.611 72.5416 442.611 72.8044H441.651C441.651 72.4206 441.748 72.0714 441.942 71.7567C442.135 71.4421 442.407 71.1914 442.756 71.0047C443.109 70.8179 443.517 70.7246 443.98 70.7246C444.436 70.7246 444.836 70.8058 445.178 70.9684C445.52 71.1274 445.787 71.366 445.977 71.6841C446.167 71.9988 446.262 72.3912 446.262 72.8615C446.262 73.0517 446.217 73.2557 446.127 73.4735C446.041 73.6879 445.904 73.8885 445.717 74.0752C445.534 74.2619 445.296 74.4158 445.002 74.5368C444.708 74.6544 444.355 74.7131 443.944 74.7131H443.124V74.1322ZM443.124 74.9206V74.3449H443.944C444.424 74.3449 444.822 74.4019 445.137 74.516C445.451 74.6302 445.698 74.7823 445.878 74.9725C446.062 75.1627 446.189 75.3718 446.262 75.6001C446.338 75.8248 446.376 76.0496 446.376 76.2743C446.376 76.627 446.316 76.94 446.195 77.2131C446.077 77.4863 445.909 77.718 445.692 77.9081C445.477 78.0983 445.225 78.2418 444.934 78.3386C444.644 78.4355 444.327 78.4839 443.985 78.4839C443.657 78.4839 443.347 78.4372 443.057 78.3438C442.77 78.2505 442.516 78.1156 442.294 77.9393C442.073 77.7595 441.9 77.5399 441.776 77.2805C441.651 77.0178 441.589 76.7187 441.589 76.3833H442.548C442.548 76.646 442.605 76.876 442.72 77.0731C442.837 77.2702 443.003 77.424 443.218 77.5347C443.435 77.6419 443.691 77.6955 443.985 77.6955C444.279 77.6955 444.531 77.6453 444.742 77.5451C444.957 77.4413 445.121 77.2857 445.235 77.0783C445.353 76.8708 445.411 76.6097 445.411 76.2951C445.411 75.9804 445.346 75.7228 445.214 75.5223C445.083 75.3183 444.896 75.1678 444.654 75.071C444.416 74.9707 444.134 74.9206 443.809 74.9206H443.124Z" fill="black"/>
<path d="M29.375 355.918C32.7056 355.544 36.4159 353.209 39.3668 354.798C52.397 361.814 81.7955 398.265 87.4306 403.982C93.0854 409.719 120.031 443.244 138.94 435.766C151.908 430.637 148.581 403.847 147.898 396.488C145.248 367.917 128.517 343.307 146.52 316.812C159.21 298.136 193.379 284.732 197.685 315.951C202.318 349.543 180.134 372.092 160.646 396.402C141.545 420.229 111.077 439.24 101.815 469.876C93.2669 498.151 123.906 523.703 149.535 526.639C176.943 529.78 207.334 518.54 231.278 506.139C253.796 494.475 275.393 488.18 299.497 481.159C313.775 477.001 328.77 461.706 320.342 445.499C311.581 428.651 282.4 431.515 266.852 428.616C253.548 426.136 239.27 422.508 226.971 416.902C196.609 403.063 161.627 373.386 163.747 335.762C166.586 285.365 261.634 261.432 264.182 324.737C265.894 367.293 226.023 432.541 207.676 464.277C185.471 502.689 161.53 540.075 137.906 577.632" stroke="black" stroke-width="2.45131" stroke-linecap="round"/>
<path d="M330.162 238.084C339.572 264.225 362.066 286.405 379.518 306.993C383.354 311.519 420.806 354.46 428.873 364.531C435.042 372.232 436.057 372.088 436.884 379.261C439.229 399.579 432.434 411.906 418.106 426.377C398.43 446.25 373.461 459.788 345.408 463.071C333.907 464.417 333.596 459.59 336.277 449.461C340.333 434.14 347.624 419.963 352.988 405.101C363.483 376.02 366.612 344.884 375.986 315.434C387.779 278.386 403.658 241.15 397.175 201.218C395.47 190.711 389.925 195.923 384.255 201.562C367.275 218.452 352.669 237.956 337.397 256.345C317.639 280.135 297.583 303.685 278.48 328.01C265.108 345.037 252.619 362.877 238.341 379.174C229.083 389.741 216.929 407.39 200.527 405.101C174.182 401.425 173.307 366.189 175.203 346.96C179.637 301.986 224.17 289.79 251.074 252.893C255.113 247.354 280.118 185.025 287.027 182.622C289.366 181.808 297.69 200.19 298.057 208.769C298.386 216.437 292.792 233.187 291.929 240.636C285.488 296.267 208.061 334.871 205.609 391.578C204.913 407.685 205.184 445.174 206.298 460.831C207.219 473.776 209.275 497.655 216.462 510.446C228.683 532.193 251.39 513.433 263.837 504.244C290.281 484.72 317.221 459.627 348.767 448.428C368.492 441.425 378.217 459.229 383.738 475.302C391.42 497.668 327.525 478.086 327.473 501.292C327.413 528.242 249.968 520.964 248.623 547.867" stroke="black" stroke-width="8.17103" stroke-linecap="round"/>
<path d="M56.5776 56.9288H59.6417C59.4822 58.3971 59.0619 59.711 58.381 60.8707C57.7001 62.0304 56.7372 62.9507 55.4924 63.6316C54.2476 64.3019 52.6942 64.6371 50.8324 64.6371C49.4705 64.6371 48.231 64.3817 47.1139 63.871C46.0074 63.3603 45.0552 62.6369 44.2572 61.7006C43.4593 60.7537 42.8422 59.6206 42.406 58.3013C41.9804 56.9714 41.7676 55.4925 41.7676 53.8647V51.5506C41.7676 49.9228 41.9804 48.4493 42.406 47.13C42.8422 45.8001 43.4646 44.6617 44.2732 43.7148C45.0924 42.7679 46.0766 42.0391 47.2256 41.5284C48.3747 41.0177 49.6673 40.7623 51.1037 40.7623C52.8592 40.7623 54.3433 41.0922 55.5562 41.7518C56.7691 42.4114 57.7107 43.3264 58.381 44.4968C59.0619 45.6564 59.4822 47.0023 59.6417 48.5344H56.5776C56.4287 47.4492 56.152 46.5182 55.7477 45.7416C55.3434 44.9542 54.7689 44.3478 54.0242 43.9222C53.2794 43.4967 52.3059 43.2839 51.1037 43.2839C50.0716 43.2839 49.162 43.4807 48.3747 43.8743C47.598 44.268 46.9437 44.8266 46.4117 45.55C45.8904 46.2735 45.4967 47.1406 45.2307 48.1514C44.9647 49.1621 44.8318 50.2846 44.8318 51.5187V53.8647C44.8318 55.0031 44.9488 56.0724 45.1829 57.0725C45.4276 58.0726 45.7946 58.9503 46.284 59.7057C46.7734 60.4611 47.3958 61.0569 48.1512 61.4931C48.9066 61.9187 49.8003 62.1315 50.8324 62.1315C52.141 62.1315 53.1837 61.924 53.9603 61.5091C54.737 61.0941 55.3222 60.4983 55.7158 59.7217C56.1201 58.945 56.4074 58.0141 56.5776 56.9288ZM64.8125 41.0815H67.7968L75.4093 60.0249L83.0058 41.0815H86.0061L76.5583 64.3179H74.2283L64.8125 41.0815ZM63.839 41.0815H66.4722L66.9031 55.2531V64.3179H63.839V41.0815ZM84.3304 41.0815H86.9636V64.3179H83.8995V55.2531L84.3304 41.0815ZM110.264 51.9656V53.4338C110.264 55.1787 110.046 56.7426 109.609 58.1258C109.173 59.5089 108.546 60.6845 107.726 61.6527C106.907 62.6209 105.923 63.3603 104.774 63.871C103.635 64.3817 102.359 64.6371 100.944 64.6371C99.5712 64.6371 98.3105 64.3817 97.1614 63.871C96.023 63.3603 95.0336 62.6209 94.193 61.6527C93.3632 60.6845 92.7195 59.5089 92.262 58.1258C91.8045 56.7426 91.5758 55.1787 91.5758 53.4338V51.9656C91.5758 50.2207 91.7992 48.6621 92.246 47.2896C92.7035 45.9065 93.3472 44.7308 94.1771 43.7626C95.007 42.7838 95.9911 42.0391 97.1295 41.5284C98.2786 41.0177 99.5393 40.7623 100.912 40.7623C102.327 40.7623 103.604 41.0177 104.742 41.5284C105.891 42.0391 106.875 42.7838 107.694 43.7626C108.524 44.7308 109.157 45.9065 109.594 47.2896C110.04 48.6621 110.264 50.2207 110.264 51.9656ZM107.216 53.4338V51.9337C107.216 50.5505 107.072 49.327 106.785 48.2631C106.508 47.1991 106.098 46.3054 105.556 45.582C105.013 44.8585 104.348 44.3106 103.561 43.9382C102.784 43.5658 101.901 43.3796 100.912 43.3796C99.9543 43.3796 99.0872 43.5658 98.3105 43.9382C97.5444 44.3106 96.8848 44.8585 96.3316 45.582C95.789 46.3054 95.3687 47.1991 95.0708 48.2631C94.7729 49.327 94.6239 50.5505 94.6239 51.9337V53.4338C94.6239 54.8276 94.7729 56.0617 95.0708 57.1363C95.3687 58.2002 95.7943 59.0993 96.3475 59.8334C96.9114 60.5569 97.5764 61.1048 98.3424 61.4772C99.1191 61.8495 99.9862 62.0357 100.944 62.0357C101.944 62.0357 102.832 61.8495 103.609 61.4772C104.386 61.1048 105.04 60.5569 105.572 59.8334C106.114 59.0993 106.524 58.2002 106.801 57.1363C107.077 56.0617 107.216 54.8276 107.216 53.4338ZM121.18 53.7051L112.881 41.0815H116.488L122.664 51.1517H127.037L126.542 53.7051H121.18ZM122.84 53.4657L116.089 64.3179H112.259L120.893 50.8165L122.84 53.4657ZM128.361 41.0815V64.3179H125.313V41.0815H128.361ZM140.682 41.0815L132.351 53.7051H127.148L126.67 51.1517H130.883L137.059 41.0815H140.682ZM137.458 64.3179L130.723 53.4657L132.686 50.8165L141.288 64.3179H137.458ZM158.971 61.8123V64.3179H146.666V61.8123H158.971ZM147.289 41.0815V64.3179H144.209V41.0815H147.289ZM157.343 51.0719V53.5774H146.666V51.0719H157.343ZM158.811 41.0815V43.603H146.666V41.0815H158.811ZM163.758 41.0815H166.743L174.355 60.0249L181.952 41.0815H184.952L175.504 64.3179H173.174L163.758 41.0815ZM162.785 41.0815H165.418L165.849 55.2531V64.3179H162.785V41.0815ZM183.276 41.0815H185.91V64.3179H182.845V55.2531L183.276 41.0815ZM214.365 41.0815V43.603H203.736V41.0815H214.365ZM217.014 41.0815V64.3179H213.934V41.0815H217.014ZM202.683 41.0815H205.747L205.22 52.4603C205.146 54.0988 205.018 55.5617 204.837 56.849C204.667 58.1258 204.422 59.2376 204.103 60.1845C203.784 61.1207 203.369 61.8974 202.858 62.5145C202.347 63.1209 201.72 63.5731 200.975 63.871C200.241 64.1689 199.358 64.3179 198.326 64.3179H197.496V61.8123L198.134 61.7644C198.73 61.7219 199.241 61.5889 199.666 61.3654C200.103 61.1314 200.47 60.7803 200.767 60.3122C201.076 59.844 201.326 59.2376 201.518 58.4928C201.709 57.7481 201.858 56.8384 201.964 55.7638C202.081 54.6786 202.172 53.4125 202.236 51.9656L202.683 41.0815ZM225.775 58.9876L237.218 41.0815H240.298V64.3179H237.218V46.3959L225.775 64.3179H222.711V41.0815H225.775V58.9876ZM254.98 41.0815H257.965L265.577 60.0249L273.174 41.0815H276.174L266.726 64.3179H264.396L254.98 41.0815ZM254.007 41.0815H256.64L257.071 55.2531V64.3179H254.007V41.0815ZM274.498 41.0815H277.131V64.3179H274.067V55.2531L274.498 41.0815ZM285.031 50.5452H291.367C293.069 50.5452 294.506 50.8325 295.676 51.407C296.846 51.9709 297.735 52.7635 298.341 53.7849C298.947 54.8063 299.251 56.0032 299.251 57.3757C299.251 58.3971 299.08 59.3333 298.74 60.1845C298.4 61.025 297.894 61.7591 297.224 62.3868C296.554 63.0039 295.729 63.4827 294.75 63.8231C293.771 64.153 292.644 64.3179 291.367 64.3179H282.685V41.0815H285.765V61.8123H291.367C292.505 61.8123 293.426 61.6048 294.128 61.1899C294.841 60.7643 295.362 60.2111 295.692 59.5302C296.022 58.8492 296.187 58.1204 296.187 57.3438C296.187 56.5671 296.022 55.8543 295.692 55.2053C295.362 54.5563 294.841 54.0403 294.128 53.6572C293.426 53.2636 292.505 53.0668 291.367 53.0668H285.031V50.5452ZM305.14 41.0815V64.3179H302.059V41.0815H305.14ZM45.7574 96.9876L57.2 79.0815H60.2801V102.318H57.2V84.3959L45.7574 102.318H42.6932V79.0815H45.7574V96.9876ZM72.9995 91.1625H70.2385V89.1995H72.8877C74.0581 89.1995 75.005 89.0346 75.7284 88.7048C76.4519 88.375 76.9786 87.9175 77.3084 87.3323C77.6382 86.7472 77.8031 86.0716 77.8031 85.3055C77.8031 84.5714 77.6223 83.9011 77.2605 83.2947C76.8988 82.6776 76.3402 82.1882 75.5848 81.8265C74.8294 81.4541 73.8559 81.2679 72.6643 81.2679C71.7706 81.2679 70.962 81.4381 70.2385 81.7786C69.5151 82.1084 68.9405 82.5712 68.515 83.167C68.0894 83.7522 67.8766 84.4278 67.8766 85.1938H64.7965C64.7965 84.2044 65.004 83.316 65.4189 82.5287C65.8338 81.7307 66.4031 81.0551 67.1265 80.5019C67.85 79.938 68.6852 79.5071 69.6321 79.2092C70.5896 78.9113 71.6004 78.7623 72.6643 78.7623C73.9091 78.7623 75.0369 78.906 76.0476 79.1932C77.0584 79.4699 77.9255 79.8848 78.649 80.438C79.3724 80.9913 79.9257 81.6775 80.3087 82.4968C80.6917 83.316 80.8832 84.2682 80.8832 85.3534C80.8832 86.1514 80.697 86.9014 80.3246 87.6036C79.9523 88.3058 79.4203 88.9229 78.7287 89.4549C78.0372 89.9869 77.2073 90.4071 76.2391 90.7157C75.271 91.0136 74.1911 91.1625 72.9995 91.1625ZM70.2385 89.806H72.9995C74.3081 89.806 75.4731 89.939 76.4945 90.205C77.5159 90.4709 78.3776 90.8593 79.0798 91.37C79.782 91.8807 80.314 92.5137 80.6757 93.2691C81.0481 94.0139 81.2343 94.8703 81.2343 95.8385C81.2343 96.9237 81.0215 97.8866 80.596 98.7271C80.181 99.5676 79.5905 100.28 78.8245 100.866C78.0585 101.451 77.1488 101.892 76.0955 102.19C75.0528 102.488 73.9091 102.637 72.6643 102.637C71.6642 102.637 70.6748 102.509 69.6959 102.254C68.7278 101.988 67.85 101.584 67.0627 101.041C66.2754 100.488 65.6423 99.7857 65.1636 98.9346C64.6954 98.0834 64.4614 97.062 64.4614 95.8704H67.5415C67.5415 96.6471 67.7542 97.3599 68.1798 98.0089C68.616 98.6579 69.2172 99.1793 69.9832 99.5729C70.7492 99.9559 71.6429 100.147 72.6643 100.147C73.8346 100.147 74.8241 99.9666 75.6327 99.6048C76.4519 99.2325 77.0743 98.7271 77.4999 98.0887C77.9361 97.4397 78.1542 96.7109 78.1542 95.9023C78.1542 95.1895 78.0372 94.5724 77.8031 94.0511C77.5797 93.5191 77.2446 93.0829 76.7977 92.7425C76.3615 92.402 75.8136 92.152 75.1539 91.9924C74.5049 91.8221 73.7495 91.737 72.8877 91.737H70.2385V89.806ZM99.4595 79.0815V81.603H88.2563V102.318H85.1922V79.0815H99.4595ZM87.5381 88.5452H93.8739C95.5762 88.5452 97.0125 88.8325 98.1828 89.407C99.3531 89.9709 100.242 90.7635 100.848 91.7849C101.454 92.8063 101.758 94.0032 101.758 95.3757C101.758 96.3971 101.587 97.3333 101.247 98.1845C100.906 99.025 100.401 99.7591 99.7308 100.387C99.0606 101.004 98.236 101.483 97.2572 101.823C96.2784 102.153 95.1506 102.318 93.8739 102.318H85.1922V79.0815H88.2722V99.8123H93.8739C95.0123 99.8123 95.9326 99.6048 96.6348 99.1899C97.3476 98.7643 97.8689 98.2111 98.1988 97.5302C98.5286 96.8492 98.6935 96.1204 98.6935 95.3438C98.6935 94.5671 98.5286 93.8543 98.1988 93.2053C97.8689 92.5563 97.3476 92.0403 96.6348 91.6572C95.9326 91.2636 95.0123 91.0668 93.8739 91.0668H87.5381V88.5452ZM114.509 81.1402L106.817 102.318H103.673L112.53 79.0815H114.557L114.509 81.1402ZM120.956 102.318L113.248 81.1402L113.2 79.0815H115.227L124.116 102.318H120.956ZM120.557 93.716V96.2375H107.503V93.716H120.557ZM135.511 91.4498H129.622L129.59 88.9761H134.936C135.82 88.9761 136.591 88.8272 137.251 88.5293C137.91 88.2314 138.421 87.8058 138.783 87.2525C139.155 86.6887 139.341 86.0184 139.341 85.2417C139.341 84.3906 139.176 83.699 138.846 83.167C138.527 82.6244 138.033 82.2308 137.362 81.9861C136.703 81.7307 135.862 81.603 134.841 81.603H130.308V102.318H127.228V79.0815H134.841C136.032 79.0815 137.096 79.2039 138.033 79.4486C138.969 79.6826 139.761 80.055 140.41 80.5657C141.07 81.0658 141.57 81.7041 141.911 82.4808C142.251 83.2575 142.421 84.1884 142.421 85.2736C142.421 86.2312 142.177 87.0983 141.687 87.8749C141.198 88.641 140.517 89.2687 139.644 89.7581C138.783 90.2475 137.772 90.5614 136.612 90.6997L135.511 91.4498ZM135.367 102.318H128.409L130.149 99.8123H135.367C136.346 99.8123 137.176 99.6421 137.857 99.3016C138.549 98.9612 139.075 98.4824 139.437 97.8653C139.799 97.2376 139.98 96.4981 139.98 95.647C139.98 94.7852 139.825 94.0405 139.517 93.4127C139.208 92.785 138.724 92.3009 138.064 91.9605C137.405 91.62 136.554 91.4498 135.511 91.4498H131.122L131.154 88.9761H137.155L137.809 89.8698C138.926 89.9656 139.873 90.2848 140.65 90.8274C141.426 91.3593 142.017 92.0403 142.421 92.8701C142.836 93.7 143.044 94.615 143.044 95.6151C143.044 97.062 142.724 98.2856 142.086 99.2857C141.458 100.275 140.57 101.031 139.421 101.552C138.272 102.063 136.921 102.318 135.367 102.318ZM150.8 96.9876L162.242 79.0815H165.322V102.318H162.242V84.3959L150.8 102.318H147.736V79.0815H150.8V96.9876ZM179.031 79.0815V102.318H175.999V79.0815H179.031ZM186.5 79.0815V81.603H168.546V79.0815H186.5ZM192.453 88.5452H198.789C200.491 88.5452 201.927 88.8325 203.097 89.407C204.268 89.9709 205.156 90.7635 205.763 91.7849C206.369 92.8063 206.672 94.0032 206.672 95.3757C206.672 96.3971 206.502 97.3333 206.162 98.1845C205.821 99.025 205.316 99.7591 204.646 100.387C203.975 101.004 203.151 101.483 202.172 101.823C201.193 102.153 200.065 102.318 198.789 102.318H190.107V79.0815H193.187V99.8123H198.789C199.927 99.8123 200.847 99.6048 201.549 99.1899C202.262 98.7643 202.784 98.2111 203.113 97.5302C203.443 96.8492 203.608 96.1204 203.608 95.3438C203.608 94.5671 203.443 93.8543 203.113 93.2053C202.784 92.5563 202.262 92.0403 201.549 91.6572C200.847 91.2636 199.927 91.0668 198.789 91.0668H192.453V88.5452ZM227.116 91.4498H221.227L221.195 88.9761H226.541C227.424 88.9761 228.196 88.8272 228.855 88.5293C229.515 88.2314 230.026 87.8058 230.387 87.2525C230.76 86.6887 230.946 86.0184 230.946 85.2417C230.946 84.3906 230.781 83.699 230.451 83.167C230.132 82.6244 229.637 82.2308 228.967 81.9861C228.307 81.7307 227.467 81.603 226.446 81.603H221.913V102.318H218.833V79.0815H226.446C227.637 79.0815 228.701 79.2039 229.637 79.4486C230.574 79.6826 231.366 80.055 232.015 80.5657C232.675 81.0658 233.175 81.7041 233.515 82.4808C233.856 83.2575 234.026 84.1884 234.026 85.2736C234.026 86.2312 233.781 87.0983 233.292 87.8749C232.803 88.641 232.122 89.2687 231.249 89.7581C230.387 90.2475 229.377 90.5614 228.217 90.6997L227.116 91.4498ZM226.972 102.318H220.014L221.754 99.8123H226.972C227.951 99.8123 228.781 99.6421 229.462 99.3016C230.153 98.9612 230.68 98.4824 231.042 97.8653C231.404 97.2376 231.584 96.4981 231.584 95.647C231.584 94.7852 231.43 94.0405 231.122 93.4127C230.813 92.785 230.329 92.3009 229.669 91.9605C229.01 91.62 228.159 91.4498 227.116 91.4498H222.727L222.759 88.9761H228.76L229.414 89.8698C230.531 89.9656 231.478 90.2848 232.255 90.8274C233.031 91.3593 233.622 92.0403 234.026 92.8701C234.441 93.7 234.649 94.615 234.649 95.6151C234.649 97.062 234.329 98.2856 233.691 99.2857C233.063 100.275 232.175 101.031 231.026 101.552C229.877 102.063 228.526 102.318 226.972 102.318ZM247.799 81.1402L240.106 102.318H236.963L245.82 79.0815H247.847L247.799 81.1402ZM254.246 102.318L246.538 81.1402L246.49 79.0815H248.517L257.406 102.318H254.246ZM253.847 93.716V96.2375H240.793V93.716H253.847ZM274.355 94.9288H277.419C277.259 96.3971 276.839 97.711 276.158 98.8707C275.477 100.03 274.514 100.951 273.269 101.632C272.025 102.302 270.471 102.637 268.609 102.637C267.247 102.637 266.008 102.382 264.891 101.871C263.784 101.36 262.832 100.637 262.034 99.7006C261.236 98.7537 260.619 97.6206 260.183 96.3013C259.757 94.9714 259.545 93.4925 259.545 91.8647V89.5506C259.545 87.9228 259.757 86.4493 260.183 85.13C260.619 83.8001 261.242 82.6617 262.05 81.7148C262.869 80.7679 263.854 80.0391 265.003 79.5284C266.152 79.0177 267.444 78.7623 268.881 78.7623C270.636 78.7623 272.12 79.0922 273.333 79.7518C274.546 80.4114 275.488 81.3264 276.158 82.4968C276.839 83.6564 277.259 85.0023 277.419 86.5344H274.355C274.206 85.4492 273.929 84.5182 273.525 83.7416C273.12 82.9542 272.546 82.3478 271.801 81.9222C271.056 81.4967 270.083 81.2839 268.881 81.2839C267.849 81.2839 266.939 81.4807 266.152 81.8743C265.375 82.268 264.721 82.8266 264.189 83.55C263.667 84.2735 263.274 85.1406 263.008 86.1514C262.742 87.1621 262.609 88.2846 262.609 89.5187V91.8647C262.609 93.0031 262.726 94.0724 262.96 95.0725C263.205 96.0726 263.572 96.9503 264.061 97.7057C264.55 98.4611 265.173 99.0569 265.928 99.4931C266.684 99.9187 267.577 100.131 268.609 100.131C269.918 100.131 270.961 99.924 271.737 99.5091C272.514 99.0941 273.099 98.4983 273.493 97.7217C273.897 96.945 274.184 96.0141 274.355 94.9288ZM60.4397 127.966V129.434C60.4397 131.179 60.2216 132.743 59.7854 134.126C59.3492 135.509 58.7214 136.685 57.9022 137.653C57.083 138.621 56.0988 139.36 54.9498 139.871C53.8114 140.382 52.5347 140.637 51.1196 140.637C49.7471 140.637 48.4864 140.382 47.3373 139.871C46.1989 139.36 45.2095 138.621 44.3689 137.653C43.5391 136.685 42.8954 135.509 42.4379 134.126C41.9804 132.743 41.7517 131.179 41.7517 129.434V127.966C41.7517 126.221 41.9751 124.662 42.4219 123.29C42.8794 121.906 43.5231 120.731 44.353 119.763C45.1829 118.784 46.167 118.039 47.3054 117.528C48.4545 117.018 49.7152 116.762 51.0877 116.762C52.5027 116.762 53.7795 117.018 54.9179 117.528C56.0669 118.039 57.0511 118.784 57.8703 119.763C58.7002 120.731 59.3332 121.906 59.7694 123.29C60.2163 124.662 60.4397 126.221 60.4397 127.966ZM57.3915 129.434V127.934C57.3915 126.551 57.2479 125.327 56.9606 124.263C56.684 123.199 56.2744 122.305 55.7318 121.582C55.1892 120.858 54.5242 120.311 53.7369 119.938C52.9602 119.566 52.0772 119.38 51.0877 119.38C50.1302 119.38 49.263 119.566 48.4864 119.938C47.7203 120.311 47.0607 120.858 46.5075 121.582C45.9648 122.305 45.5446 123.199 45.2467 124.263C44.9488 125.327 44.7998 126.551 44.7998 127.934V129.434C44.7998 130.828 44.9488 132.062 45.2467 133.136C45.5446 134.2 45.9702 135.099 46.5234 135.833C47.0873 136.557 47.7523 137.105 48.5183 137.477C49.295 137.85 50.1621 138.036 51.1196 138.036C52.1197 138.036 53.0081 137.85 53.7848 137.477C54.5614 137.105 55.2158 136.557 55.7477 135.833C56.2903 135.099 56.7 134.2 56.9766 133.136C57.2532 132.062 57.3915 130.828 57.3915 129.434ZM73.191 117.082V140.318H70.1587V117.082H73.191ZM80.6598 117.082V119.603H62.7059V117.082H80.6598ZM99.8585 129.45H93.9696L93.9377 126.976H99.284C100.167 126.976 100.938 126.827 101.598 126.529C102.258 126.231 102.768 125.806 103.13 125.253C103.502 124.689 103.689 124.018 103.689 123.242C103.689 122.391 103.524 121.699 103.194 121.167C102.875 120.624 102.38 120.231 101.71 119.986C101.05 119.731 100.21 119.603 99.1882 119.603H94.6559V140.318H91.5758V117.082H99.1882C100.38 117.082 101.444 117.204 102.38 117.449C103.316 117.683 104.109 118.055 104.758 118.566C105.418 119.066 105.918 119.704 106.258 120.481C106.599 121.257 106.769 122.188 106.769 123.274C106.769 124.231 106.524 125.098 106.035 125.875C105.545 126.641 104.864 127.269 103.992 127.758C103.13 128.248 102.119 128.561 100.96 128.7L99.8585 129.45ZM99.7149 140.318H92.7567L94.4963 137.812H99.7149C100.694 137.812 101.524 137.642 102.204 137.302C102.896 136.961 103.423 136.482 103.784 135.865C104.146 135.238 104.327 134.498 104.327 133.647C104.327 132.785 104.173 132.04 103.864 131.413C103.556 130.785 103.072 130.301 102.412 129.96C101.752 129.62 100.901 129.45 99.8585 129.45H95.4698L95.5017 126.976H101.502L102.157 127.87C103.274 127.966 104.221 128.285 104.997 128.827C105.774 129.359 106.364 130.04 106.769 130.87C107.184 131.7 107.391 132.615 107.391 133.615C107.391 135.062 107.072 136.286 106.434 137.286C105.806 138.275 104.918 139.031 103.768 139.552C102.619 140.063 101.268 140.318 99.7149 140.318ZM125.967 132.929H129.032C128.872 134.397 128.452 135.711 127.771 136.871C127.09 138.03 126.127 138.951 124.882 139.632C123.637 140.302 122.084 140.637 120.222 140.637C118.86 140.637 117.621 140.382 116.504 139.871C115.397 139.36 114.445 138.637 113.647 137.701C112.849 136.754 112.232 135.621 111.796 134.301C111.37 132.971 111.158 131.493 111.158 129.865V127.551C111.158 125.923 111.37 124.449 111.796 123.13C112.232 121.8 112.854 120.662 113.663 119.715C114.482 118.768 115.466 118.039 116.615 117.528C117.765 117.018 119.057 116.762 120.494 116.762C122.249 116.762 123.733 117.092 124.946 117.752C126.159 118.411 127.101 119.326 127.771 120.497C128.452 121.656 128.872 123.002 129.032 124.534H125.967C125.819 123.449 125.542 122.518 125.138 121.742C124.733 120.954 124.159 120.348 123.414 119.922C122.669 119.497 121.696 119.284 120.494 119.284C119.462 119.284 118.552 119.481 117.765 119.874C116.988 120.268 116.334 120.827 115.802 121.55C115.28 122.274 114.887 123.141 114.621 124.151C114.355 125.162 114.222 126.285 114.222 127.519V129.865C114.222 131.003 114.339 132.072 114.573 133.072C114.817 134.073 115.184 134.95 115.674 135.706C116.163 136.461 116.786 137.057 117.541 137.493C118.297 137.919 119.19 138.131 120.222 138.131C121.531 138.131 122.574 137.924 123.35 137.509C124.127 137.094 124.712 136.498 125.106 135.722C125.51 134.945 125.797 134.014 125.967 132.929ZM147.991 137.812V140.318H135.687V137.812H147.991ZM136.309 117.082V140.318H133.229V117.082H136.309ZM146.363 127.072V129.577H135.687V127.072H146.363ZM147.831 117.082V119.603H135.687V117.082H147.831ZM153.8 117.082L159.386 125.987L164.971 117.082H168.562L161.221 128.588L168.738 140.318H165.115L159.386 131.237L153.656 140.318H150.034L157.55 128.588L150.209 117.082H153.8ZM194.432 132.929H197.496C197.336 134.397 196.916 135.711 196.235 136.871C195.554 138.03 194.591 138.951 193.347 139.632C192.102 140.302 190.548 140.637 188.686 140.637C187.325 140.637 186.085 140.382 184.968 139.871C183.862 139.36 182.909 138.637 182.111 137.701C181.313 136.754 180.696 135.621 180.26 134.301C179.835 132.971 179.622 131.493 179.622 129.865V127.551C179.622 125.923 179.835 124.449 180.26 123.13C180.696 121.8 181.319 120.662 182.127 119.715C182.947 118.768 183.931 118.039 185.08 117.528C186.229 117.018 187.521 116.762 188.958 116.762C190.713 116.762 192.197 117.092 193.41 117.752C194.623 118.411 195.565 119.326 196.235 120.497C196.916 121.656 197.336 123.002 197.496 124.534H194.432C194.283 123.449 194.006 122.518 193.602 121.742C193.198 120.954 192.623 120.348 191.878 119.922C191.134 119.497 190.16 119.284 188.958 119.284C187.926 119.284 187.016 119.481 186.229 119.874C185.452 120.268 184.798 120.827 184.266 121.55C183.744 122.274 183.351 123.141 183.085 124.151C182.819 125.162 182.686 126.285 182.686 127.519V129.865C182.686 131.003 182.803 132.072 183.037 133.072C183.282 134.073 183.649 134.95 184.138 135.706C184.628 136.461 185.25 137.057 186.005 137.493C186.761 137.919 187.654 138.131 188.686 138.131C189.995 138.131 191.038 137.924 191.814 137.509C192.591 137.094 193.176 136.498 193.57 135.722C193.974 134.945 194.262 134.014 194.432 132.929ZM209.8 117.082V140.318H206.768V117.082H209.8ZM217.269 117.082V119.603H199.315V117.082H217.269ZM229.286 131.205H223.078V128.7H229.286C230.489 128.7 231.462 128.508 232.207 128.125C232.952 127.742 233.494 127.21 233.835 126.529C234.186 125.848 234.361 125.072 234.361 124.199C234.361 123.401 234.186 122.651 233.835 121.949C233.494 121.247 232.952 120.683 232.207 120.257C231.462 119.821 230.489 119.603 229.286 119.603H223.796V140.318H220.716V117.082H229.286C231.042 117.082 232.526 117.385 233.739 117.991C234.952 118.598 235.872 119.438 236.5 120.513C237.127 121.577 237.441 122.795 237.441 124.167C237.441 125.657 237.127 126.928 236.5 127.982C235.872 129.035 234.952 129.838 233.739 130.391C232.526 130.934 231.042 131.205 229.286 131.205ZM247.735 119.14L240.043 140.318H236.899L245.756 117.082H247.783L247.735 119.14ZM254.182 140.318L246.474 119.14L246.426 117.082H248.453L257.342 140.318H254.182ZM253.783 131.716V134.237H240.729V131.716H253.783ZM262.449 117.082L268.035 125.987L273.62 117.082H277.211L269.87 128.588L277.387 140.318H273.764L268.035 131.237L262.306 140.318H258.683L266.2 128.588L258.858 117.082H262.449ZM298.421 127.966V129.434C298.421 131.179 298.203 132.743 297.766 134.126C297.33 135.509 296.703 136.685 295.883 137.653C295.064 138.621 294.08 139.36 292.931 139.871C291.792 140.382 290.516 140.637 289.101 140.637C287.728 140.637 286.467 140.382 285.318 139.871C284.18 139.36 283.191 138.621 282.35 137.653C281.52 136.685 280.877 135.509 280.419 134.126C279.962 132.743 279.733 131.179 279.733 129.434V127.966C279.733 126.221 279.956 124.662 280.403 123.29C280.861 121.906 281.504 120.731 282.334 119.763C283.164 118.784 284.148 118.039 285.287 117.528C286.436 117.018 287.696 116.762 289.069 116.762C290.484 116.762 291.761 117.018 292.899 117.528C294.048 118.039 295.032 118.784 295.851 119.763C296.681 120.731 297.314 121.906 297.751 123.29C298.197 124.662 298.421 126.221 298.421 127.966ZM295.373 129.434V127.934C295.373 126.551 295.229 125.327 294.942 124.263C294.665 123.199 294.255 122.305 293.713 121.582C293.17 120.858 292.505 120.311 291.718 119.938C290.941 119.566 290.058 119.38 289.069 119.38C288.111 119.38 287.244 119.566 286.467 119.938C285.701 120.311 285.042 120.858 284.489 121.582C283.946 122.305 283.526 123.199 283.228 124.263C282.93 125.327 282.781 126.551 282.781 127.934V129.434C282.781 130.828 282.93 132.062 283.228 133.136C283.526 134.2 283.951 135.099 284.505 135.833C285.068 136.557 285.733 137.105 286.499 137.477C287.276 137.85 288.143 138.036 289.101 138.036C290.101 138.036 290.989 137.85 291.766 137.477C292.543 137.105 293.197 136.557 293.729 135.833C294.271 135.099 294.681 134.2 294.958 133.136C295.234 132.062 295.373 130.828 295.373 129.434ZM311.316 129.45H305.427L305.395 126.976H310.741C311.624 126.976 312.396 126.827 313.055 126.529C313.715 126.231 314.226 125.806 314.587 125.253C314.96 124.689 315.146 124.018 315.146 123.242C315.146 122.391 314.981 121.699 314.651 121.167C314.332 120.624 313.837 120.231 313.167 119.986C312.507 119.731 311.667 119.603 310.645 119.603H306.113V140.318H303.033V117.082H310.645C311.837 117.082 312.901 117.204 313.837 117.449C314.773 117.683 315.566 118.055 316.215 118.566C316.875 119.066 317.375 119.704 317.715 120.481C318.056 121.257 318.226 122.188 318.226 123.274C318.226 124.231 317.981 125.098 317.492 125.875C317.002 126.641 316.322 127.269 315.449 127.758C314.587 128.248 313.577 128.561 312.417 128.7L311.316 129.45ZM311.172 140.318H304.214L305.953 137.812H311.172C312.151 137.812 312.981 137.642 313.662 137.302C314.353 136.961 314.88 136.482 315.242 135.865C315.603 135.238 315.784 134.498 315.784 133.647C315.784 132.785 315.63 132.04 315.321 131.413C315.013 130.785 314.529 130.301 313.869 129.96C313.209 129.62 312.358 129.45 311.316 129.45H306.927L306.959 126.976H312.959L313.614 127.87C314.731 127.966 315.678 128.285 316.455 128.827C317.231 129.359 317.822 130.04 318.226 130.87C318.641 131.7 318.848 132.615 318.848 133.615C318.848 135.062 318.529 136.286 317.891 137.286C317.263 138.275 316.375 139.031 315.226 139.552C314.077 140.063 312.725 140.318 311.172 140.318ZM329.365 133.775H326.397C326.408 132.753 326.498 131.918 326.668 131.269C326.849 130.609 327.142 130.008 327.546 129.466C327.95 128.923 328.488 128.306 329.158 127.614C329.647 127.114 330.094 126.646 330.498 126.21C330.913 125.763 331.249 125.284 331.504 124.774C331.759 124.252 331.887 123.63 331.887 122.907C331.887 122.172 331.754 121.539 331.488 121.007C331.233 120.475 330.85 120.066 330.339 119.779C329.839 119.491 329.216 119.348 328.472 119.348C327.855 119.348 327.269 119.459 326.716 119.683C326.163 119.906 325.716 120.252 325.376 120.72C325.035 121.178 324.86 121.779 324.849 122.524H321.897C321.918 121.321 322.216 120.289 322.79 119.427C323.375 118.566 324.163 117.906 325.152 117.449C326.142 116.991 327.248 116.762 328.472 116.762C329.823 116.762 330.972 117.007 331.919 117.496C332.876 117.986 333.605 118.688 334.105 119.603C334.605 120.507 334.855 121.582 334.855 122.827C334.855 123.784 334.658 124.667 334.265 125.476C333.882 126.274 333.387 127.024 332.781 127.726C332.174 128.428 331.53 129.099 330.85 129.737C330.264 130.28 329.871 130.891 329.669 131.572C329.466 132.253 329.365 132.987 329.365 133.775ZM326.269 138.834C326.269 138.355 326.418 137.951 326.716 137.621C327.014 137.291 327.445 137.126 328.009 137.126C328.583 137.126 329.02 137.291 329.317 137.621C329.615 137.951 329.764 138.355 329.764 138.834C329.764 139.291 329.615 139.685 329.317 140.015C329.02 140.344 328.583 140.509 328.009 140.509C327.445 140.509 327.014 140.344 326.716 140.015C326.418 139.685 326.269 139.291 326.269 138.834Z" fill="black"/>
<path d="M295.657 632.109V633.685H289.014V632.109H295.657ZM297.313 632.109V646.632H295.388V632.109H297.313ZM288.356 632.109H290.271L289.942 639.221C289.895 640.245 289.816 641.159 289.703 641.964C289.596 642.762 289.443 643.456 289.244 644.048C289.044 644.633 288.785 645.119 288.466 645.505C288.147 645.884 287.754 646.166 287.289 646.352C286.83 646.538 286.278 646.632 285.633 646.632H285.115V645.066L285.513 645.036C285.886 645.009 286.205 644.926 286.471 644.786C286.744 644.64 286.973 644.421 287.159 644.128C287.352 643.835 287.508 643.456 287.628 642.991C287.748 642.526 287.841 641.957 287.907 641.285C287.98 640.607 288.037 639.816 288.077 638.912L288.356 632.109ZM310.01 645.066V646.632H302.32V645.066H310.01ZM302.709 632.109V646.632H300.784V632.109H302.709ZM308.993 638.353V639.919H302.32V638.353H308.993ZM309.91 632.109V633.685H302.32V632.109H309.91ZM314.409 632.109V646.632H312.484V632.109H314.409ZM323.356 632.109L317.052 640.098H313.641L313.342 638.503H315.905L320.972 632.109H323.356ZM321.421 646.632L315.965 639.849L317.042 638.163L323.775 646.632H321.421ZM338.118 645.016L337.938 650.133H336.213V646.632H334.786V645.016H338.118ZM325.58 646.632V632.109H327.515V645.066H334.667V632.109H336.592V646.632H325.58ZM342.466 643.3L349.618 632.109H351.543V646.632H349.618V635.431L342.466 646.632H340.551V632.109H342.466V643.3ZM363.103 640.976H359.024L358.076 640.587C357.026 640.255 356.218 639.746 355.652 639.061C355.087 638.37 354.805 637.512 354.805 636.488C354.805 635.55 355.011 634.756 355.423 634.104C355.842 633.452 356.434 632.957 357.198 632.618C357.97 632.279 358.881 632.109 359.931 632.109H364.579V646.632H362.654V633.685H359.931C358.867 633.685 358.066 633.938 357.528 634.443C356.996 634.948 356.73 635.63 356.73 636.488C356.73 637.046 356.846 637.545 357.079 637.984C357.318 638.423 357.671 638.769 358.136 639.021C358.601 639.274 359.18 639.4 359.871 639.4H363.113L363.103 640.976ZM359.832 639.979L356.301 646.632H354.256L357.887 639.979H359.832ZM384.209 632.109V646.632H382.294V633.685H375.132V646.632H373.207V632.109H384.209ZM398.881 638.912V639.829C398.881 640.92 398.744 641.897 398.472 642.762C398.199 643.626 397.807 644.361 397.295 644.966C396.783 645.571 396.168 646.033 395.45 646.352C394.738 646.671 393.94 646.831 393.056 646.831C392.198 646.831 391.41 646.671 390.692 646.352C389.98 646.033 389.362 645.571 388.837 644.966C388.318 644.361 387.916 643.626 387.63 642.762C387.344 641.897 387.201 640.92 387.201 639.829V638.912C387.201 637.821 387.341 636.847 387.62 635.989C387.906 635.125 388.308 634.39 388.827 633.785C389.345 633.173 389.96 632.708 390.672 632.388C391.39 632.069 392.178 631.91 393.036 631.91C393.92 631.91 394.718 632.069 395.43 632.388C396.148 632.708 396.763 633.173 397.275 633.785C397.794 634.39 398.189 635.125 398.462 635.989C398.741 636.847 398.881 637.821 398.881 638.912ZM396.976 639.829V638.892C396.976 638.027 396.886 637.262 396.706 636.597C396.533 635.933 396.277 635.374 395.938 634.922C395.599 634.47 395.184 634.127 394.692 633.894C394.206 633.662 393.654 633.545 393.036 633.545C392.437 633.545 391.895 633.662 391.41 633.894C390.931 634.127 390.519 634.47 390.173 634.922C389.834 635.374 389.571 635.933 389.385 636.597C389.199 637.262 389.106 638.027 389.106 638.892V639.829C389.106 640.7 389.199 641.472 389.385 642.143C389.571 642.808 389.837 643.37 390.183 643.829C390.536 644.281 390.951 644.623 391.43 644.856C391.915 645.089 392.457 645.205 393.056 645.205C393.681 645.205 394.236 645.089 394.722 644.856C395.207 644.623 395.616 644.281 395.948 643.829C396.287 643.37 396.543 642.808 396.716 642.143C396.889 641.472 396.976 640.7 396.976 639.829ZM416.316 638.353V639.919H408.456V638.353H416.316ZM408.755 632.109V646.632H406.83V632.109H408.755ZM417.991 632.109V646.632H416.076V632.109H417.991ZM430.928 632.109V633.685H424.285V632.109H430.928ZM432.584 632.109V646.632H430.659V632.109H432.584ZM423.627 632.109H425.542L425.213 639.221C425.166 640.245 425.086 641.159 424.973 641.964C424.867 642.762 424.714 643.456 424.515 644.048C424.315 644.633 424.056 645.119 423.737 645.505C423.417 645.884 423.025 646.166 422.56 646.352C422.101 646.538 421.549 646.632 420.904 646.632H420.385V645.066L420.784 645.036C421.157 645.009 421.476 644.926 421.742 644.786C422.014 644.64 422.244 644.421 422.43 644.128C422.623 643.835 422.779 643.456 422.899 642.991C423.018 642.526 423.112 641.957 423.178 641.285C423.251 640.607 423.308 639.816 423.348 638.912L423.627 632.109ZM447.146 632.109V646.632H445.231V633.685H438.07V646.632H436.145V632.109H447.146Z" fill="black"/>
</svg>
