<svg width="487" height="688" viewBox="0 0 487 688" fill="none" xmlns="http://www.w3.org/2000/svg">
<g clip-path="url(#clip0_57_722)">
<rect width="486.176" height="688" fill="white"/>
<path fill-rule="evenodd" clip-rule="evenodd" d="M64.7521 96.4185V96.7409V99.9127H75.1654C77.9183 99.9127 80.352 100.192 82.4666 100.751C84.5812 101.309 86.3566 102.167 87.7929 103.324C89.2293 104.441 90.3065 105.917 91.0246 107.753C91.7827 109.548 92.1617 111.682 92.1617 114.156C92.1617 116.749 91.4436 119.083 90.0073 121.158C88.6108 123.233 86.5761 124.869 83.9029 126.066C81.2697 127.262 78.0579 127.861 74.2677 127.861C70.9562 127.861 68.0436 127.262 65.5301 126.066C63.0565 124.829 61.1015 123.193 59.6652 121.158C58.2687 119.083 57.5705 116.809 57.5705 114.336H42.4893C42.4893 118.804 43.4069 122.634 45.2422 125.826C47.0775 129.018 49.5112 131.651 52.5434 133.726C55.6156 135.761 59.0268 137.277 62.7772 138.274C66.5674 139.232 70.3976 139.711 74.2677 139.711C79.0554 139.711 83.4441 139.152 87.4339 138.035C91.4635 136.918 94.9546 135.262 97.907 133.068C100.859 130.873 103.134 128.2 104.729 125.048C106.365 121.856 107.183 118.226 107.183 114.156C107.183 110.525 106.505 107.314 105.148 104.521C103.792 101.688 101.817 99.3142 99.2236 97.3992C98.7612 97.0577 98.2803 96.7308 97.7811 96.4185H82.3334H64.7521Z" fill="black"/>
<path fill-rule="evenodd" clip-rule="evenodd" d="M88.1517 96.5042H70.5666V91.6204V88.269H80.9799C84.6904 88.269 87.7026 87.7304 90.0167 86.6532C92.3307 85.536 94.0064 84 95.0438 82.045C96.121 80.0501 96.6596 77.7361 96.6596 75.1028C96.6596 72.7489 96.0612 70.5944 94.8642 68.6394C93.7072 66.6844 91.9118 65.1284 89.4781 63.9714C87.0443 62.7745 83.9123 62.176 80.0822 62.176C77.2096 62.176 74.5963 62.6947 72.2423 63.732C69.8884 64.7694 68.0132 66.2256 66.6168 68.1008C65.2602 69.976 64.582 72.1903 64.582 74.7438H49.5605C49.5605 70.9535 50.3585 67.5622 51.9544 64.5699C53.5902 61.5377 55.8045 58.9643 58.5973 56.8497C61.4301 54.7351 64.6817 53.1193 68.3523 52.0021C72.0628 50.8451 75.9727 50.2666 80.0822 50.2666C84.8699 50.2666 89.1988 50.8052 93.0688 51.8825C96.9389 52.9198 100.27 54.4758 103.063 56.5505C105.856 58.6251 107.991 61.2185 109.467 64.3305C110.943 67.4026 111.681 70.9734 111.681 75.043C111.681 78.0353 110.983 80.8481 109.586 83.4813C108.23 86.1146 106.275 88.4286 103.721 90.4235C102.023 91.7508 100.094 92.8927 97.9357 93.8491C100.03 94.5692 101.916 95.4543 103.595 96.5042H88.1517Z" fill="black"/>
<path fill-rule="evenodd" clip-rule="evenodd" d="M299.16 231.24L287.623 261.896H303.362L310.396 241.488H344.129L351.179 261.896H366.979L355.399 231.24H349.923H340.588H313.929H302.524H299.16Z" fill="black"/>
<path fill-rule="evenodd" clip-rule="evenodd" d="M336.867 176.917H340.458L361.793 233.398H356.317H346.983H320.324H308.919H305.555L326.813 176.917H330.344H336.867ZM320.896 231.737H346.409L333.638 194.771L320.896 231.737Z" fill="black"/>
<path fill-rule="evenodd" clip-rule="evenodd" d="M125.019 345.635V387.729H139.98V350.265H150.51L177.085 387.729H195.099L165.136 345.635H160.279H150.875H139.98H135.009H125.019Z" fill="black"/>
<path fill-rule="evenodd" clip-rule="evenodd" d="M147.166 337.743V301.117H132.204V346.158H142.194H147.166H158.061H167.465H172.321L169.896 342.75L199.591 301.117H181.218L155.843 337.743H147.166Z" fill="black"/>
<path fill-rule="evenodd" clip-rule="evenodd" d="M288.437 595.667V637.762H303.398L329.346 595.667H314.268L303.398 613.285V595.667H288.437ZM357.08 595.667H342.059V637.762H357.08V595.667Z" fill="black"/>
<path fill-rule="evenodd" clip-rule="evenodd" d="M320.239 595.635H335.317L348.03 575.011V595.635H363.051V550.594H348.03L320.239 595.635ZM309.369 595.635H294.407V550.594H309.369V595.635ZM348.389 528.271H337.676C337.676 530.505 337.018 532.48 335.701 534.196C334.385 535.871 332.15 536.709 328.998 536.709C325.807 536.709 323.532 535.871 322.176 534.196C320.859 532.48 320.201 530.505 320.201 528.271H309.489C309.489 533.258 311.224 537.328 314.695 540.48C318.206 543.592 322.974 545.148 328.998 545.148C332.988 545.148 336.419 544.43 339.292 542.993C342.205 541.557 344.439 539.582 345.995 537.068C347.591 534.515 348.389 531.582 348.389 528.271Z" fill="black"/>
<path fill-rule="evenodd" clip-rule="evenodd" d="M125.018 460.028V511.929H140.039V479.432H158.113C164.855 479.432 170.581 478.355 175.289 476.201C180.036 474.046 183.647 470.954 186.121 466.924C187.401 464.839 188.349 462.541 188.967 460.028H173.169C173.119 460.133 173.067 460.238 173.014 460.341C171.897 462.576 170.122 464.331 167.688 465.608C165.254 466.884 162.062 467.523 158.113 467.523H140.039V460.028H125.018Z" fill="black"/>
<path fill-rule="evenodd" clip-rule="evenodd" d="M195.634 460.552C196.21 458.209 196.498 455.68 196.498 452.965C196.498 447.619 195.261 442.871 192.788 438.721C190.314 434.532 186.703 431.261 181.955 428.907C177.248 426.513 171.522 425.316 164.78 425.316H131.685V460.552H146.706V437.285H164.78C168.729 437.285 171.921 438.023 174.355 439.5C176.789 440.976 178.564 442.931 179.681 445.364C180.838 447.758 181.417 450.332 181.417 453.085C181.417 455.864 180.89 458.354 179.836 460.552H195.634Z" fill="black"/>
<path fill-rule="evenodd" clip-rule="evenodd" d="M37.5859 593.216V595.771C37.5859 602.354 38.4637 608.259 40.2192 613.485C42.0146 618.712 44.5281 623.161 47.7598 626.831C50.9915 630.502 54.8017 633.315 59.1905 635.269C63.6191 637.185 68.5065 638.142 73.8528 638.142C79.239 638.142 84.1464 637.185 88.575 635.269C93.0037 633.315 96.7939 630.502 99.9458 626.831C103.138 623.161 105.591 618.712 107.307 613.485C109.023 608.259 109.88 602.354 109.88 595.771V593.216H94.8589V595.771C94.8589 600.638 94.3801 604.947 93.4226 608.698C92.5049 612.448 91.1484 615.62 89.353 618.213C87.5576 620.767 85.3633 622.702 82.7699 624.018C80.1766 625.295 77.2042 625.933 73.8528 625.933C70.5413 625.933 67.5889 625.295 64.9956 624.018C62.4022 622.702 60.168 620.767 58.2928 618.213C56.4575 615.62 55.0611 612.448 54.1035 608.698C53.146 604.947 52.6672 600.638 52.6672 595.771V593.216H37.5859Z" fill="black"/>
<path fill-rule="evenodd" clip-rule="evenodd" d="M116.093 593.303V591.07C116.093 584.487 115.215 578.602 113.46 573.415C111.744 568.189 109.291 563.74 106.099 560.07C102.907 556.359 99.0969 553.546 94.6682 551.631C90.2396 549.676 85.3322 548.699 79.946 548.699C74.5997 548.699 69.7123 549.676 65.2837 551.631C60.8949 553.546 57.0847 556.359 53.853 560.07C50.6612 563.74 48.1876 568.189 46.4321 573.415C44.6766 578.602 43.7988 584.487 43.7988 591.07V593.303H58.8801V590.95C58.8801 586.083 59.3589 581.794 60.3164 578.083C61.274 574.333 62.6504 571.201 64.4458 568.687C66.2811 566.134 68.4954 564.219 71.0888 562.942C73.6821 561.626 76.6345 560.967 79.946 560.967C83.2575 560.967 86.2299 561.626 88.8631 562.942C91.4964 564.219 93.7107 566.134 95.5061 568.687C97.3414 571.201 98.7178 574.333 99.6355 578.083C100.593 581.794 101.072 586.083 101.072 590.95V593.303H116.093Z" fill="black"/>
<path d="M245.513 56.1119H248.577C248.418 57.5802 247.997 58.8941 247.317 60.0538C246.636 61.2135 245.673 62.1338 244.428 62.8147C243.183 63.485 241.63 63.8202 239.768 63.8202C238.406 63.8202 237.167 63.5648 236.049 63.0541C234.943 62.5434 233.991 61.82 233.193 60.8837C232.395 59.9368 231.778 58.8037 231.342 57.4844C230.916 56.1545 230.703 54.6756 230.703 53.0478V50.7338C230.703 49.1059 230.916 47.6324 231.342 46.3131C231.778 44.9832 232.4 43.8448 233.209 42.8979C234.028 41.951 235.012 41.2222 236.161 40.7115C237.31 40.2008 238.603 39.9455 240.039 39.9455C241.795 39.9455 243.279 40.2753 244.492 40.9349C245.705 41.5946 246.646 42.5095 247.317 43.6799C247.997 44.8396 248.418 46.1854 248.577 47.7175H245.513C245.364 46.6323 245.088 45.7013 244.683 44.9247C244.279 44.1374 243.704 43.5309 242.96 43.1053C242.215 42.6798 241.241 42.467 240.039 42.467C239.007 42.467 238.098 42.6638 237.31 43.0575C236.534 43.4511 235.879 44.0097 235.347 44.7332C234.826 45.4566 234.432 46.3237 234.166 47.3345C233.9 48.3452 233.767 49.4677 233.767 50.7018V53.0478C233.767 54.1862 233.884 55.2555 234.118 56.2556C234.363 57.2557 234.73 58.1334 235.22 58.8888C235.709 59.6442 236.331 60.24 237.087 60.6762C237.842 61.1018 238.736 61.3146 239.768 61.3146C241.077 61.3146 242.119 61.1071 242.896 60.6922C243.673 60.2773 244.258 59.6814 244.651 58.9048C245.056 58.1281 245.343 57.1972 245.513 56.1119ZM254.769 40.2646L260.355 49.1698L265.941 40.2646H269.531L262.19 51.7711L269.707 63.501H266.084L260.355 54.4203L254.626 63.501H251.003L258.52 51.7711L251.179 40.2646H254.769ZM290.741 51.1487V52.6169C290.741 54.3618 290.523 55.9258 290.087 57.3089C289.65 58.692 289.023 59.8676 288.204 60.8358C287.384 61.804 286.4 62.5434 285.251 63.0541C284.113 63.5648 282.836 63.8202 281.421 63.8202C280.048 63.8202 278.788 63.5648 277.639 63.0541C276.5 62.5434 275.511 61.804 274.67 60.8358C273.84 59.8676 273.197 58.692 272.739 57.3089C272.282 55.9258 272.053 54.3618 272.053 52.6169V51.1487C272.053 49.4038 272.276 47.8452 272.723 46.4727C273.181 45.0896 273.824 43.9139 274.654 42.9458C275.484 41.9669 276.468 41.2222 277.607 40.7115C278.756 40.2008 280.017 39.9455 281.389 39.9455C282.804 39.9455 284.081 40.2008 285.219 40.7115C286.368 41.2222 287.352 41.9669 288.172 42.9458C289.001 43.9139 289.635 45.0896 290.071 46.4727C290.518 47.8452 290.741 49.4038 290.741 51.1487ZM287.693 52.6169V51.1168C287.693 49.7337 287.549 48.5101 287.262 47.4462C286.985 46.3823 286.576 45.4886 286.033 44.7651C285.491 44.0416 284.826 43.4937 284.038 43.1213C283.262 42.7489 282.378 42.5627 281.389 42.5627C280.431 42.5627 279.564 42.7489 278.788 43.1213C278.022 43.4937 277.362 44.0416 276.809 44.7651C276.266 45.4886 275.846 46.3823 275.548 47.4462C275.25 48.5101 275.101 49.7337 275.101 51.1168V52.6169C275.101 54.0107 275.25 55.2448 275.548 56.3194C275.846 57.3833 276.272 58.2824 276.825 59.0165C277.389 59.74 278.054 60.2879 278.82 60.6603C279.596 61.0326 280.463 61.2188 281.421 61.2188C282.421 61.2188 283.309 61.0326 284.086 60.6603C284.863 60.2879 285.517 59.74 286.049 59.0165C286.592 58.2824 287.001 57.3833 287.278 56.3194C287.555 55.2448 287.693 54.0107 287.693 52.6169ZM313.084 60.9954V63.501H295.497V60.9954H313.084ZM295.992 60.9954V69.2143H292.943L292.927 60.9954H295.992ZM315.765 60.9954L315.733 69.1983H312.685V60.9954H315.765ZM310.067 40.2646V42.7862H299.886V40.2646H310.067ZM312.717 40.2646V63.501H309.652V40.2646H312.717ZM298.832 40.2646H301.912L301.434 49.6166C301.37 51.021 301.237 52.319 301.035 53.5106C300.832 54.6916 300.582 55.7715 300.285 56.7503C299.987 57.7291 299.646 58.6069 299.263 59.3835C298.88 60.1496 298.471 60.8145 298.034 61.3784C297.598 61.9317 297.141 62.3892 296.662 62.7509C296.194 63.102 295.72 63.352 295.241 63.501H293.837V60.9954H294.827C295.103 60.6975 295.417 60.2666 295.768 59.7027C296.13 59.1388 296.486 58.41 296.837 57.5163C297.199 56.612 297.513 55.5108 297.779 54.2128C298.056 52.9148 298.242 51.3828 298.338 49.6166L298.832 40.2646ZM322.595 58.1707L334.038 40.2646H337.118V63.501H334.038V45.579L322.595 63.501H319.531V40.2646H322.595V58.1707ZM342.831 40.2646H345.927V60.9954H353.907V40.2646H356.971V60.9954H364.903V40.2646H367.983V63.501H342.831V40.2646ZM375.739 49.7283H382.075C383.777 49.7283 385.213 50.0156 386.383 50.5901C387.554 51.154 388.442 51.9466 389.049 52.968C389.655 53.9894 389.958 55.1863 389.958 56.5588C389.958 57.5802 389.788 58.5164 389.448 59.3676C389.107 60.2081 388.602 60.9422 387.931 61.5699C387.261 62.187 386.437 62.6658 385.458 63.0062C384.479 63.3361 383.351 63.501 382.075 63.501H373.393V40.2646H376.473V60.9954H382.075C383.213 60.9954 384.133 60.7879 384.835 60.373C385.548 59.9474 386.07 59.3942 386.399 58.7133C386.729 58.0324 386.894 57.3036 386.894 56.5269C386.894 55.7502 386.729 55.0374 386.399 54.3884C386.07 53.7394 385.548 53.2234 384.835 52.8403C384.133 52.4467 383.213 52.2499 382.075 52.2499H375.739V49.7283ZM408.04 56.1119H411.104C410.944 57.5802 410.524 58.8941 409.843 60.0538C409.162 61.2135 408.199 62.1338 406.955 62.8147C405.71 63.485 404.157 63.8202 402.295 63.8202C400.933 63.8202 399.693 63.5648 398.576 63.0541C397.47 62.5434 396.517 61.82 395.719 60.8837C394.922 59.9368 394.304 58.8037 393.868 57.4844C393.443 56.1545 393.23 54.6756 393.23 53.0478V50.7338C393.23 49.1059 393.443 47.6324 393.868 46.3131C394.304 44.9832 394.927 43.8448 395.735 42.8979C396.555 41.951 397.539 41.2222 398.688 40.7115C399.837 40.2008 401.13 39.9455 402.566 39.9455C404.321 39.9455 405.806 40.2753 407.018 40.9349C408.231 41.5946 409.173 42.5095 409.843 43.6799C410.524 44.8396 410.944 46.1854 411.104 47.7175H408.04C407.891 46.6323 407.614 45.7013 407.21 44.9247C406.806 44.1374 406.231 43.5309 405.486 43.1053C404.742 42.6798 403.768 42.467 402.566 42.467C401.534 42.467 400.624 42.6638 399.837 43.0575C399.06 43.4511 398.406 44.0097 397.874 44.7332C397.353 45.4566 396.959 46.3237 396.693 47.3345C396.427 48.3452 396.294 49.4677 396.294 50.7018V53.0478C396.294 54.1862 396.411 55.2555 396.645 56.2556C396.89 57.2557 397.257 58.1334 397.746 58.8888C398.236 59.6442 398.858 60.24 399.613 60.6762C400.369 61.1018 401.263 61.3146 402.295 61.3146C403.603 61.3146 404.646 61.1071 405.423 60.6922C406.199 60.2773 406.784 59.6814 407.178 58.9048C407.582 58.1281 407.87 57.1972 408.04 56.1119ZM428.196 54.4522H421.669L420.153 53.8298C418.472 53.2978 417.179 52.4839 416.275 51.3881C415.37 50.2816 414.918 48.9091 414.918 47.2706C414.918 45.7705 415.248 44.4991 415.908 43.4564C416.578 42.4138 417.525 41.6212 418.748 41.0785C419.983 40.5359 421.44 40.2646 423.121 40.2646H430.558V63.501H427.478V42.7862H423.121C421.419 42.7862 420.137 43.1905 419.275 43.999C418.424 44.8076 417.998 45.8982 417.998 47.2706C417.998 48.1644 418.184 48.9623 418.557 49.6645C418.94 50.3667 419.504 50.9199 420.249 51.3242C420.993 51.7285 421.919 51.9307 423.025 51.9307H428.212L428.196 54.4522ZM422.962 52.8563L417.312 63.501H414.04L419.85 52.8563H422.962ZM245.513 94.1119H248.577C248.418 95.5802 247.997 96.8941 247.317 98.0538C246.636 99.2135 245.673 100.134 244.428 100.815C243.183 101.485 241.63 101.82 239.768 101.82C238.406 101.82 237.167 101.565 236.049 101.054C234.943 100.543 233.991 99.82 233.193 98.8837C232.395 97.9368 231.778 96.8037 231.342 95.4844C230.916 94.1545 230.703 92.6756 230.703 91.0478V88.7338C230.703 87.1059 230.916 85.6324 231.342 84.3131C231.778 82.9832 232.4 81.8448 233.209 80.8979C234.028 79.951 235.012 79.2222 236.161 78.7115C237.31 78.2008 238.603 77.9455 240.039 77.9455C241.795 77.9455 243.279 78.2753 244.492 78.9349C245.705 79.5946 246.646 80.5095 247.317 81.6799C247.997 82.8396 248.418 84.1854 248.577 85.7175H245.513C245.364 84.6323 245.088 83.7013 244.683 82.9247C244.279 82.1374 243.704 81.5309 242.96 81.1053C242.215 80.6798 241.241 80.467 240.039 80.467C239.007 80.467 238.098 80.6638 237.31 81.0575C236.534 81.4511 235.879 82.0097 235.347 82.7332C234.826 83.4566 234.432 84.3237 234.166 85.3345C233.9 86.3452 233.767 87.4677 233.767 88.7018V91.0478C233.767 92.1862 233.884 93.2555 234.118 94.2556C234.363 95.2557 234.73 96.1334 235.22 96.8888C235.709 97.6442 236.331 98.24 237.087 98.6762C237.842 99.1018 238.736 99.3146 239.768 99.3146C241.077 99.3146 242.119 99.1071 242.896 98.6922C243.673 98.2773 244.258 97.6814 244.651 96.9048C245.056 96.1281 245.343 95.1972 245.513 94.1119ZM275.053 78.2646V80.7862H263.85V101.501H260.786V78.2646H275.053ZM263.132 87.7283H269.468C271.17 87.7283 272.606 88.0156 273.777 88.5901C274.947 89.154 275.835 89.9466 276.442 90.968C277.048 91.9894 277.351 93.1863 277.351 94.5588C277.351 95.5802 277.181 96.5164 276.841 97.3676C276.5 98.2081 275.995 98.9422 275.325 99.5699C274.654 100.187 273.83 100.666 272.851 101.006C271.872 101.336 270.744 101.501 269.468 101.501H260.786V78.2646H263.866V98.9954H269.468C270.606 98.9954 271.526 98.7879 272.229 98.373C272.941 97.9474 273.463 97.3942 273.793 96.7133C274.122 96.0324 274.287 95.3036 274.287 94.5269C274.287 93.7502 274.122 93.0374 273.793 92.3884C273.463 91.7394 272.941 91.2234 272.229 90.8403C271.526 90.4467 270.606 90.2499 269.468 90.2499H263.132V87.7283ZM283.99 87.7283H290.326C292.028 87.7283 293.465 88.0156 294.635 88.5901C295.805 89.154 296.694 89.9466 297.3 90.968C297.907 91.9894 298.21 93.1863 298.21 94.5588C298.21 95.5802 298.04 96.5164 297.699 97.3676C297.359 98.2081 296.853 98.9422 296.183 99.5699C295.513 100.187 294.688 100.666 293.709 101.006C292.731 101.336 291.603 101.501 290.326 101.501H281.644V78.2646H284.724V98.9954H290.326C291.465 98.9954 292.385 98.7879 293.087 98.373C293.8 97.9474 294.321 97.3942 294.651 96.7133C294.981 96.0324 295.146 95.3036 295.146 94.5269C295.146 93.7502 294.981 93.0374 294.651 92.3884C294.321 91.7394 293.8 91.2234 293.087 90.8403C292.385 90.4467 291.465 90.2499 290.326 90.2499H283.99V87.7283ZM304.099 78.2646V101.501H301.019V78.2646H304.099ZM318.063 90.6329H312.174L312.142 88.1592H317.488C318.371 88.1592 319.143 88.0103 319.802 87.7124C320.462 87.4145 320.973 86.9889 321.334 86.4357C321.707 85.8718 321.893 85.2015 321.893 84.4248C321.893 83.5737 321.728 82.8821 321.398 82.3501C321.079 81.8075 320.584 81.4139 319.914 81.1692C319.254 80.9138 318.414 80.7862 317.393 80.7862H312.86V101.501H309.78V78.2646H317.393C318.584 78.2646 319.648 78.387 320.584 78.6317C321.521 78.8658 322.313 79.2381 322.962 79.7488C323.622 80.2489 324.122 80.8872 324.462 81.6639C324.803 82.4406 324.973 83.3715 324.973 84.4567C324.973 85.4143 324.728 86.2814 324.239 87.0581C323.75 87.8241 323.069 88.4518 322.196 88.9412C321.334 89.4306 320.324 89.7445 319.164 89.8828L318.063 90.6329ZM317.919 101.501H310.961L312.701 98.9954H317.919C318.898 98.9954 319.728 98.8252 320.409 98.4847C321.1 98.1443 321.627 97.6655 321.989 97.0484C322.351 96.4207 322.531 95.6813 322.531 94.8301C322.531 93.9683 322.377 93.2236 322.069 92.5958C321.76 91.9681 321.276 91.484 320.616 91.1436C319.957 90.8031 319.106 90.6329 318.063 90.6329H313.674L313.706 88.1592H319.707L320.361 89.0529C321.478 89.1487 322.425 89.4679 323.202 90.0105C323.978 90.5424 324.569 91.2234 324.973 92.0532C325.388 92.8831 325.596 93.7981 325.596 94.7982C325.596 96.2451 325.276 97.4687 324.638 98.4688C324.01 99.4582 323.122 100.214 321.973 100.735C320.824 101.246 319.473 101.501 317.919 101.501ZM330.256 78.2646H333.352V98.9954H341.331V78.2646H344.395V98.9954H352.327V78.2646H355.407V101.501H330.256V78.2646ZM364.121 96.1707L375.563 78.2646H378.643V101.501H375.563V83.579L364.121 101.501H361.056V78.2646H364.121V96.1707ZM385.218 78.2646H388.203L395.815 97.208L403.412 78.2646H406.412L396.964 101.501H394.634L385.218 78.2646ZM384.245 78.2646H386.878L387.309 92.4362V101.501H384.245V78.2646ZM404.736 78.2646H407.37V101.501H404.305V92.4362L404.736 78.2646ZM429.17 90.6329H423.281L423.249 88.1592H428.595C429.478 88.1592 430.25 88.0103 430.909 87.7124C431.569 87.4145 432.079 86.9889 432.441 86.4357C432.814 85.8718 433 85.2015 433 84.4248C433 83.5737 432.835 82.8821 432.505 82.3501C432.186 81.8075 431.691 81.4139 431.021 81.1692C430.361 80.9138 429.521 80.7862 428.499 80.7862H423.967V101.501H420.887V78.2646H428.499C429.691 78.2646 430.755 78.387 431.691 78.6317C432.627 78.8658 433.42 79.2381 434.069 79.7488C434.729 80.2489 435.229 80.8872 435.569 81.6639C435.91 82.4406 436.08 83.3715 436.08 84.4567C436.08 85.4143 435.835 86.2814 435.346 87.0581C434.856 87.8241 434.175 88.4518 433.303 88.9412C432.441 89.4306 431.43 89.7445 430.271 89.8828L429.17 90.6329ZM429.026 101.501H422.068L423.807 98.9954H429.026C430.005 98.9954 430.835 98.8252 431.516 98.4847C432.207 98.1443 432.734 97.6655 433.096 97.0484C433.457 96.4207 433.638 95.6813 433.638 94.8301C433.638 93.9683 433.484 93.2236 433.175 92.5958C432.867 91.9681 432.383 91.484 431.723 91.1436C431.063 90.8031 430.212 90.6329 429.17 90.6329H424.781L424.813 88.1592H430.813L431.468 89.0529C432.585 89.1487 433.532 89.4679 434.308 90.0105C435.085 90.5424 435.676 91.2234 436.08 92.0532C436.495 92.8831 436.702 93.7981 436.702 94.7982C436.702 96.2451 436.383 97.4687 435.745 98.4688C435.117 99.4582 434.229 100.214 433.08 100.735C431.931 101.246 430.579 101.501 429.026 101.501ZM231.597 116.265H234.693V136.995H242.672V116.265H245.737V136.995H253.668V116.265H256.748V139.501H231.597V116.265ZM277.016 136.995V139.501H264.712V136.995H277.016ZM265.334 116.265V139.501H262.254V116.265H265.334ZM275.388 126.255V128.761H264.712V126.255H275.388ZM276.857 116.265V118.786H264.712V116.265H276.857ZM294.858 132.112H297.923C297.763 133.58 297.343 134.894 296.662 136.054C295.981 137.214 295.018 138.134 293.773 138.815C292.528 139.485 290.975 139.82 289.113 139.82C287.751 139.82 286.512 139.565 285.395 139.054C284.288 138.543 283.336 137.82 282.538 136.884C281.74 135.937 281.123 134.804 280.687 133.484C280.261 132.155 280.048 130.676 280.048 129.048V126.734C280.048 125.106 280.261 123.632 280.687 122.313C281.123 120.983 281.745 119.845 282.554 118.898C283.373 117.951 284.357 117.222 285.506 116.711C286.656 116.201 287.948 115.945 289.385 115.945C291.14 115.945 292.624 116.275 293.837 116.935C295.05 117.595 295.992 118.51 296.662 119.68C297.343 120.84 297.763 122.185 297.923 123.717H294.858C294.71 122.632 294.433 121.701 294.029 120.925C293.624 120.137 293.05 119.531 292.305 119.105C291.56 118.68 290.587 118.467 289.385 118.467C288.352 118.467 287.443 118.664 286.656 119.057C285.879 119.451 285.225 120.01 284.693 120.733C284.171 121.457 283.778 122.324 283.512 123.334C283.246 124.345 283.113 125.468 283.113 126.702V129.048C283.113 130.186 283.23 131.255 283.464 132.256C283.708 133.256 284.075 134.133 284.565 134.889C285.054 135.644 285.677 136.24 286.432 136.676C287.187 137.102 288.081 137.315 289.113 137.315C290.422 137.315 291.465 137.107 292.241 136.692C293.018 136.277 293.603 135.681 293.997 134.905C294.401 134.128 294.688 133.197 294.858 132.112ZM310.227 116.265V139.501H307.195V116.265H310.227ZM317.696 116.265V118.786H299.742V116.265H317.696ZM338.586 127.149V128.617C338.586 130.362 338.368 131.926 337.932 133.309C337.496 134.692 336.868 135.868 336.049 136.836C335.229 137.804 334.245 138.543 333.096 139.054C331.958 139.565 330.681 139.82 329.266 139.82C327.894 139.82 326.633 139.565 325.484 139.054C324.345 138.543 323.356 137.804 322.515 136.836C321.686 135.868 321.042 134.692 320.584 133.309C320.127 131.926 319.898 130.362 319.898 128.617V127.149C319.898 125.404 320.122 123.845 320.568 122.473C321.026 121.09 321.67 119.914 322.499 118.946C323.329 117.967 324.313 117.222 325.452 116.711C326.601 116.201 327.862 115.945 329.234 115.945C330.649 115.945 331.926 116.201 333.064 116.711C334.213 117.222 335.198 117.967 336.017 118.946C336.847 119.914 337.48 121.09 337.916 122.473C338.363 123.845 338.586 125.404 338.586 127.149ZM335.538 128.617V127.117C335.538 125.734 335.394 124.51 335.107 123.446C334.83 122.382 334.421 121.489 333.878 120.765C333.336 120.042 332.671 119.494 331.883 119.121C331.107 118.749 330.224 118.563 329.234 118.563C328.277 118.563 327.41 118.749 326.633 119.121C325.867 119.494 325.207 120.042 324.654 120.765C324.111 121.489 323.691 122.382 323.393 123.446C323.095 124.51 322.946 125.734 322.946 127.117V128.617C322.946 130.011 323.095 131.245 323.393 132.319C323.691 133.383 324.117 134.282 324.67 135.016C325.234 135.74 325.899 136.288 326.665 136.66C327.441 137.033 328.309 137.219 329.266 137.219C330.266 137.219 331.155 137.033 331.931 136.66C332.708 136.288 333.362 135.74 333.894 135.016C334.437 134.282 334.846 133.383 335.123 132.319C335.4 131.245 335.538 130.011 335.538 128.617ZM346.406 134.171L357.849 116.265H360.929V139.501H357.849V121.579L346.406 139.501H343.342V116.265H346.406V134.171ZM354.577 110.503H356.971C356.971 111.333 356.779 112.073 356.396 112.722C356.013 113.36 355.466 113.86 354.753 114.222C354.04 114.584 353.194 114.764 352.215 114.764C350.736 114.764 349.566 114.371 348.704 113.584C347.853 112.786 347.427 111.759 347.427 110.503H349.821C349.821 111.131 350.002 111.684 350.364 112.163C350.726 112.642 351.343 112.881 352.215 112.881C353.066 112.881 353.673 112.642 354.035 112.163C354.396 111.684 354.577 111.131 354.577 110.503ZM383.208 130.388H377V127.883H383.208C384.41 127.883 385.383 127.691 386.128 127.308C386.873 126.925 387.415 126.393 387.756 125.712C388.107 125.031 388.283 124.255 388.283 123.382C388.283 122.584 388.107 121.834 387.756 121.132C387.415 120.43 386.873 119.866 386.128 119.44C385.383 119.004 384.41 118.786 383.208 118.786H377.718V139.501H374.638V116.265H383.208C384.963 116.265 386.447 116.568 387.66 117.174C388.873 117.781 389.793 118.621 390.421 119.696C391.049 120.76 391.363 121.978 391.363 123.35C391.363 124.84 391.049 126.111 390.421 127.165C389.793 128.218 388.873 129.021 387.66 129.574C386.447 130.117 384.963 130.388 383.208 130.388ZM401.656 118.323L393.964 139.501H390.82L399.677 116.265H401.704L401.656 118.323ZM408.104 139.501L400.395 118.323L400.348 116.265H402.374L411.264 139.501H408.104ZM407.705 130.899V133.421H394.65V130.899H407.705ZM421.493 128.346H418.732V126.383H421.382C422.552 126.383 423.499 126.218 424.222 125.888C424.946 125.558 425.472 125.101 425.802 124.515C426.132 123.93 426.297 123.255 426.297 122.489C426.297 121.755 426.116 121.084 425.754 120.478C425.393 119.861 424.834 119.371 424.079 119.01C423.323 118.637 422.35 118.451 421.158 118.451C420.264 118.451 419.456 118.621 418.732 118.962C418.009 119.292 417.434 119.754 417.009 120.35C416.583 120.935 416.37 121.611 416.37 122.377H413.29C413.29 121.387 413.498 120.499 413.913 119.712C414.328 118.914 414.897 118.238 415.62 117.685C416.344 117.121 417.179 116.69 418.126 116.392C419.084 116.094 420.094 115.945 421.158 115.945C422.403 115.945 423.531 116.089 424.542 116.376C425.552 116.653 426.419 117.068 427.143 117.621C427.866 118.174 428.42 118.861 428.803 119.68C429.186 120.499 429.377 121.451 429.377 122.537C429.377 123.334 429.191 124.085 428.819 124.787C428.446 125.489 427.914 126.106 427.223 126.638C426.531 127.17 425.701 127.59 424.733 127.899C423.765 128.197 422.685 128.346 421.493 128.346ZM418.732 126.989H421.493C422.802 126.989 423.967 127.122 424.988 127.388C426.01 127.654 426.872 128.042 427.574 128.553C428.276 129.064 428.808 129.697 429.17 130.452C429.542 131.197 429.728 132.053 429.728 133.022C429.728 134.107 429.515 135.07 429.09 135.91C428.675 136.751 428.084 137.464 427.318 138.049C426.552 138.634 425.643 139.075 424.589 139.373C423.547 139.671 422.403 139.82 421.158 139.82C420.158 139.82 419.169 139.692 418.19 139.437C417.222 139.171 416.344 138.767 415.557 138.224C414.769 137.671 414.136 136.969 413.657 136.118C413.189 135.267 412.955 134.245 412.955 133.054H416.035C416.035 133.83 416.248 134.543 416.674 135.192C417.11 135.841 417.711 136.362 418.477 136.756C419.243 137.139 420.137 137.331 421.158 137.331C422.329 137.331 423.318 137.15 424.127 136.788C424.946 136.416 425.568 135.91 425.994 135.272C426.43 134.623 426.648 133.894 426.648 133.085C426.648 132.373 426.531 131.756 426.297 131.234C426.074 130.702 425.738 130.266 425.292 129.926C424.855 129.585 424.307 129.335 423.648 129.175C422.999 129.005 422.243 128.92 421.382 128.92H418.732V126.989ZM439.75 132.958H436.782C436.793 131.936 436.883 131.101 437.053 130.452C437.234 129.793 437.527 129.191 437.931 128.649C438.335 128.106 438.873 127.489 439.543 126.798C440.032 126.298 440.479 125.829 440.884 125.393C441.298 124.946 441.634 124.468 441.889 123.957C442.144 123.436 442.272 122.813 442.272 122.09C442.272 121.356 442.139 120.723 441.873 120.191C441.618 119.659 441.235 119.249 440.724 118.962C440.224 118.674 439.602 118.531 438.857 118.531C438.24 118.531 437.655 118.643 437.101 118.866C436.548 119.089 436.101 119.435 435.761 119.903C435.42 120.361 435.245 120.962 435.234 121.707H432.282C432.303 120.504 432.601 119.472 433.175 118.611C433.76 117.749 434.548 117.089 435.537 116.632C436.527 116.174 437.633 115.945 438.857 115.945C440.208 115.945 441.357 116.19 442.304 116.68C443.261 117.169 443.99 117.871 444.49 118.786C444.99 119.691 445.24 120.765 445.24 122.01C445.24 122.967 445.044 123.85 444.65 124.659C444.267 125.457 443.772 126.207 443.166 126.909C442.559 127.612 441.916 128.282 441.235 128.92C440.649 129.463 440.256 130.075 440.054 130.755C439.852 131.436 439.75 132.17 439.75 132.958ZM436.654 138.017C436.654 137.538 436.803 137.134 437.101 136.804C437.399 136.474 437.83 136.309 438.394 136.309C438.968 136.309 439.405 136.474 439.703 136.804C440 137.134 440.149 137.538 440.149 138.017C440.149 138.474 440 138.868 439.703 139.198C439.405 139.528 438.968 139.692 438.394 139.692C437.83 139.692 437.399 139.528 437.101 139.198C436.803 138.868 436.654 138.474 436.654 138.017Z" fill="black"/>
<path d="M433.995 629.603H435.255V635.205H445.613V636.737H433.995V629.603ZM444.36 620.331H445.613V626.483H444.36V620.331ZM433.995 626.172H445.613V627.712H433.995V626.172ZM438.99 621.145H440.243V626.483H438.99V621.145ZM433.995 620.411H435.255V626.483H433.995V620.411ZM433.995 618.368V616.82H444.36V612.83H433.995V611.298H444.36V607.332H433.995V605.792H445.613V618.368H433.995ZM433.995 598.986H445.613V600.502H433.995V598.986ZM433.995 595.251H435.255V604.228H433.995V595.251ZM435.024 589.865L445.613 593.711V595.283L433.995 590.855V589.841L435.024 589.865ZM445.613 586.641L435.024 590.496L433.995 590.52V589.506L445.613 585.062V586.641ZM441.312 586.841H442.573V593.368H441.312V586.841ZM433.995 575.893H435.255V581.207H433.995V575.893ZM433.995 574.568H445.613V576.109H433.995V574.568ZM433.995 581.734V580.202L439.684 580.465C440.503 580.503 441.235 580.566 441.878 580.657C442.517 580.742 443.073 580.864 443.546 581.024C444.014 581.184 444.403 581.391 444.711 581.646C445.014 581.902 445.24 582.216 445.389 582.588C445.538 582.955 445.613 583.396 445.613 583.912V584.327H444.36L444.336 584.008C444.315 583.71 444.248 583.455 444.137 583.242C444.02 583.024 443.844 582.841 443.61 582.692C443.376 582.537 443.073 582.412 442.7 582.317C442.328 582.221 441.873 582.146 441.336 582.093C440.793 582.035 440.16 581.989 439.437 581.958L433.995 581.734ZM438.726 570.667V567.499C438.726 566.647 438.87 565.929 439.157 565.344C439.439 564.759 439.836 564.315 440.346 564.012C440.857 563.708 441.455 563.557 442.142 563.557C442.652 563.557 443.121 563.642 443.546 563.812C443.966 563.982 444.333 564.235 444.647 564.57C444.956 564.905 445.195 565.318 445.365 565.807C445.53 566.296 445.613 566.86 445.613 567.499V571.839H433.995V570.299H444.36V567.499C444.36 566.929 444.256 566.469 444.049 566.118C443.836 565.762 443.559 565.501 443.219 565.336C442.878 565.171 442.514 565.089 442.126 565.089C441.737 565.089 441.381 565.171 441.056 565.336C440.732 565.501 440.474 565.762 440.282 566.118C440.086 566.469 439.987 566.929 439.987 567.499V570.667H438.726ZM433.995 559.375H445.613V560.892H433.995V559.375ZM433.995 555.641H435.255V564.618H433.995V555.641Z" fill="black"/>
<path d="M295.928 356.111V357.372H290.326V367.729H288.794V356.111H295.928ZM294.507 366.947C294.507 366.697 294.584 366.487 294.739 366.317C294.898 366.142 295.127 366.054 295.425 366.054C295.723 366.054 295.949 366.142 296.103 366.317C296.263 366.487 296.343 366.697 296.343 366.947C296.343 367.192 296.263 367.4 296.103 367.57C295.949 367.74 295.723 367.825 295.425 367.825C295.127 367.825 294.898 367.74 294.739 367.57C294.584 367.4 294.507 367.192 294.507 366.947ZM303.556 356.111H305.048L308.854 365.583L312.653 356.111H314.153L309.429 367.729H308.264L303.556 356.111ZM303.069 356.111H304.386L304.601 363.197V367.729H303.069V356.111ZM313.315 356.111H314.632V367.729H313.099V363.197L313.315 356.111ZM326.282 361.553V362.287C326.282 363.16 326.173 363.942 325.954 364.633C325.736 365.325 325.423 365.913 325.013 366.397C324.603 366.881 324.111 367.251 323.537 367.506C322.967 367.761 322.329 367.889 321.622 367.889C320.935 367.889 320.305 367.761 319.73 367.506C319.161 367.251 318.667 366.881 318.246 366.397C317.831 365.913 317.509 365.325 317.281 364.633C317.052 363.942 316.938 363.16 316.938 362.287V361.553C316.938 360.681 317.049 359.902 317.273 359.215C317.502 358.524 317.823 357.936 318.238 357.452C318.653 356.962 319.145 356.59 319.715 356.335C320.289 356.079 320.919 355.952 321.606 355.952C322.313 355.952 322.952 356.079 323.521 356.335C324.095 356.59 324.587 356.962 324.997 357.452C325.412 357.936 325.728 358.524 325.947 359.215C326.17 359.902 326.282 360.681 326.282 361.553ZM324.758 362.287V361.537C324.758 360.846 324.686 360.234 324.542 359.702C324.404 359.17 324.199 358.723 323.928 358.362C323.656 358 323.324 357.726 322.93 357.54C322.542 357.353 322.1 357.26 321.606 357.26C321.127 357.26 320.693 357.353 320.305 357.54C319.922 357.726 319.592 358 319.316 358.362C319.044 358.723 318.834 359.17 318.685 359.702C318.536 360.234 318.462 360.846 318.462 361.537V362.287C318.462 362.984 318.536 363.601 318.685 364.139C318.834 364.671 319.047 365.12 319.324 365.487C319.605 365.849 319.938 366.123 320.321 366.309C320.709 366.495 321.143 366.588 321.622 366.588C322.122 366.588 322.566 366.495 322.954 366.309C323.343 366.123 323.67 365.849 323.936 365.487C324.207 365.12 324.412 364.671 324.55 364.139C324.688 363.601 324.758 362.984 324.758 362.287ZM335.602 364.035H337.134C337.054 364.769 336.844 365.426 336.503 366.006C336.163 366.586 335.682 367.046 335.059 367.386C334.437 367.722 333.66 367.889 332.729 367.889C332.048 367.889 331.428 367.761 330.87 367.506C330.317 367.251 329.841 366.889 329.442 366.421C329.043 365.947 328.734 365.381 328.516 364.721C328.303 364.056 328.197 363.317 328.197 362.503V361.346C328.197 360.532 328.303 359.795 328.516 359.136C328.734 358.471 329.045 357.901 329.45 357.428C329.859 356.954 330.351 356.59 330.926 356.335C331.5 356.079 332.147 355.952 332.865 355.952C333.742 355.952 334.485 356.117 335.091 356.446C335.697 356.776 336.168 357.234 336.503 357.819C336.844 358.399 337.054 359.072 337.134 359.838H335.602C335.527 359.295 335.389 358.83 335.187 358.441C334.985 358.048 334.697 357.744 334.325 357.532C333.953 357.319 333.466 357.212 332.865 357.212C332.349 357.212 331.894 357.311 331.5 357.508C331.112 357.705 330.785 357.984 330.519 358.346C330.258 358.707 330.061 359.141 329.928 359.646C329.795 360.152 329.729 360.713 329.729 361.33V362.503C329.729 363.072 329.787 363.607 329.904 364.107C330.027 364.607 330.21 365.046 330.455 365.423C330.7 365.801 331.011 366.099 331.389 366.317C331.766 366.53 332.213 366.636 332.729 366.636C333.383 366.636 333.905 366.533 334.293 366.325C334.681 366.118 334.974 365.82 335.171 365.431C335.373 365.043 335.517 364.578 335.602 364.035ZM340.844 356.111V367.729H339.304V356.111H340.844ZM348.002 356.111L342.959 362.503H340.23L339.99 361.226H342.041L346.095 356.111H348.002ZM346.454 367.729L342.089 362.303L342.951 360.955L348.337 367.729H346.454ZM353.875 362.295H350.93L350.914 361.059H353.588C354.029 361.059 354.415 360.984 354.745 360.835C355.074 360.686 355.33 360.473 355.511 360.197C355.697 359.915 355.79 359.58 355.79 359.191C355.79 358.766 355.707 358.42 355.543 358.154C355.383 357.883 355.136 357.686 354.8 357.564C354.471 357.436 354.05 357.372 353.54 357.372H351.273V367.729H349.733V356.111H353.54C354.135 356.111 354.667 356.172 355.136 356.295C355.604 356.412 356 356.598 356.325 356.853C356.654 357.103 356.904 357.423 357.075 357.811C357.245 358.199 357.33 358.665 357.33 359.207C357.33 359.686 357.208 360.12 356.963 360.508C356.718 360.891 356.378 361.205 355.941 361.45C355.511 361.694 355.005 361.851 354.425 361.92L353.875 362.295ZM353.803 367.729H350.324L351.194 366.477H353.803C354.292 366.477 354.707 366.392 355.048 366.221C355.394 366.051 355.657 365.812 355.838 365.503C356.019 365.189 356.109 364.82 356.109 364.394C356.109 363.963 356.032 363.591 355.878 363.277C355.723 362.963 355.481 362.721 355.152 362.551C354.822 362.381 354.396 362.295 353.875 362.295H351.68L351.696 361.059H354.697L355.024 361.505C355.582 361.553 356.056 361.713 356.444 361.984C356.833 362.25 357.128 362.591 357.33 363.006C357.537 363.421 357.641 363.878 357.641 364.378C357.641 365.102 357.482 365.713 357.162 366.213C356.848 366.708 356.404 367.086 355.83 367.346C355.255 367.602 354.58 367.729 353.803 367.729ZM364.216 357.141L360.37 367.729H358.798L363.227 356.111H364.24L364.216 357.141ZM367.44 367.729L363.586 357.141L363.562 356.111H364.575L369.02 367.729H367.44ZM367.24 363.429V364.689H360.713V363.429H367.24ZM292.321 382.875L295.393 375.111H297.164L293.055 384.79C292.938 385.062 292.808 385.325 292.664 385.58C292.52 385.83 292.345 386.054 292.137 386.251C291.93 386.448 291.672 386.604 291.363 386.722C291.06 386.839 290.682 386.897 290.23 386.897C290.103 386.897 289.951 386.889 289.775 386.873C289.6 386.862 289.485 386.849 289.432 386.833L289.48 385.604C289.539 385.615 289.653 385.626 289.823 385.636C289.993 385.642 290.118 385.644 290.198 385.644C290.502 385.644 290.741 385.583 290.916 385.461C291.092 385.338 291.233 385.184 291.339 384.998C291.451 384.806 291.552 384.612 291.643 384.415L292.321 382.875ZM289.712 375.111L292.943 382.349L293.326 383.777L292.034 383.873L287.988 375.111H289.712ZM306.038 375.111V376.372H300.723V375.111H306.038ZM307.362 375.111V386.729H305.822V375.111H307.362ZM300.197 375.111H301.729L301.465 380.801C301.428 381.62 301.364 382.351 301.274 382.995C301.189 383.633 301.066 384.189 300.907 384.663C300.747 385.131 300.54 385.519 300.284 385.828C300.029 386.131 299.715 386.357 299.343 386.506C298.976 386.655 298.534 386.729 298.018 386.729H297.603V385.477L297.922 385.453C298.22 385.431 298.476 385.365 298.688 385.253C298.907 385.136 299.09 384.961 299.239 384.727C299.393 384.493 299.518 384.189 299.614 383.817C299.71 383.445 299.784 382.99 299.838 382.452C299.896 381.91 299.941 381.277 299.973 380.553L300.197 375.111ZM309.94 385.947C309.94 385.697 310.017 385.487 310.171 385.317C310.331 385.142 310.559 385.054 310.857 385.054C311.155 385.054 311.381 385.142 311.536 385.317C311.695 385.487 311.775 385.697 311.775 385.947C311.775 386.192 311.695 386.4 311.536 386.57C311.381 386.74 311.155 386.825 310.857 386.825C310.559 386.825 310.331 386.74 310.171 386.57C310.017 386.4 309.94 386.192 309.94 385.947ZM322.803 376.141L318.956 386.729H317.384L321.813 375.111H322.827L322.803 376.141ZM326.026 386.729L322.172 376.141L322.148 375.111H323.162L327.606 386.729H326.026ZM325.827 382.429V383.689H319.3V382.429H325.827ZM333.447 382.173H330.343V380.92H333.447C334.048 380.92 334.535 380.825 334.907 380.633C335.28 380.442 335.551 380.176 335.721 379.835C335.897 379.495 335.985 379.106 335.985 378.67C335.985 378.271 335.897 377.896 335.721 377.545C335.551 377.194 335.28 376.912 334.907 376.699C334.535 376.481 334.048 376.372 333.447 376.372H330.702V386.729H329.162V375.111H333.447C334.325 375.111 335.067 375.263 335.674 375.566C336.28 375.869 336.74 376.29 337.054 376.827C337.368 377.359 337.525 377.968 337.525 378.654C337.525 379.399 337.368 380.035 337.054 380.561C336.74 381.088 336.28 381.49 335.674 381.766C335.067 382.038 334.325 382.173 333.447 382.173ZM346.558 375.111V376.372H340.956V386.729H339.424V375.111H346.558ZM340.597 379.843H343.765C344.616 379.843 345.334 379.987 345.919 380.274C346.504 380.556 346.949 380.952 347.252 381.463C347.555 381.974 347.707 382.572 347.707 383.258C347.707 383.769 347.622 384.237 347.451 384.663C347.281 385.083 347.028 385.45 346.693 385.764C346.358 386.073 345.946 386.312 345.456 386.482C344.967 386.647 344.403 386.729 343.765 386.729H339.424V375.111H340.964V385.477H343.765C344.334 385.477 344.794 385.373 345.145 385.166C345.502 384.953 345.762 384.676 345.927 384.336C346.092 383.995 346.175 383.631 346.175 383.242C346.175 382.854 346.092 382.498 345.927 382.173C345.762 381.849 345.502 381.591 345.145 381.399C344.794 381.202 344.334 381.104 343.765 381.104H340.597V379.843ZM354.082 376.141L350.236 386.729H348.664L353.093 375.111H354.106L354.082 376.141ZM357.306 386.729L353.452 376.141L353.428 375.111H354.441L358.886 386.729H357.306ZM357.107 382.429V383.689H350.579V382.429H357.107ZM363.698 375.111V386.729H362.181V375.111H363.698ZM367.432 375.111V376.372H358.455V375.111H367.432ZM368.533 384.974V386.163C368.533 386.647 368.411 387.158 368.166 387.695C367.921 388.238 367.578 388.69 367.137 389.052L366.299 388.469C366.469 388.235 366.613 387.996 366.73 387.751C366.847 387.511 366.935 387.261 366.993 387.001C367.057 386.745 367.089 386.474 367.089 386.187V384.974H368.533ZM381.923 385.517V386.729H374.318V385.668L378.125 381.431C378.593 380.91 378.954 380.468 379.21 380.106C379.47 379.739 379.651 379.412 379.752 379.125C379.859 378.832 379.912 378.535 379.912 378.231C379.912 377.848 379.832 377.503 379.673 377.194C379.518 376.88 379.29 376.63 378.986 376.444C378.683 376.258 378.316 376.165 377.885 376.165C377.369 376.165 376.938 376.266 376.592 376.468C376.252 376.665 375.997 376.941 375.826 377.298C375.656 377.654 375.571 378.064 375.571 378.527H374.095C374.095 377.872 374.239 377.274 374.526 376.731C374.813 376.189 375.239 375.758 375.803 375.438C376.366 375.114 377.061 374.952 377.885 374.952C378.619 374.952 379.247 375.082 379.768 375.343C380.29 375.598 380.689 375.96 380.965 376.428C381.247 376.891 381.388 377.433 381.388 378.056C381.388 378.396 381.33 378.742 381.213 379.093C381.101 379.439 380.944 379.785 380.742 380.13C380.545 380.476 380.314 380.817 380.048 381.152C379.787 381.487 379.508 381.817 379.21 382.141L376.098 385.517H381.923ZM385.498 375.111V386.729H383.958V375.111H385.498ZM392.655 375.111L387.612 381.503H384.883L384.644 380.226H386.695L390.748 375.111H392.655ZM391.107 386.729L386.742 381.303L387.604 379.955L392.99 386.729H391.107ZM396.158 380.194H397.212C397.728 380.194 398.153 380.109 398.488 379.939C398.829 379.763 399.081 379.527 399.246 379.229C399.417 378.926 399.502 378.585 399.502 378.207C399.502 377.761 399.427 377.385 399.278 377.082C399.129 376.779 398.906 376.55 398.608 376.396C398.31 376.242 397.932 376.165 397.475 376.165C397.06 376.165 396.693 376.247 396.374 376.412C396.06 376.572 395.812 376.8 395.632 377.098C395.456 377.396 395.368 377.747 395.368 378.152H393.892C393.892 377.561 394.041 377.024 394.339 376.54C394.637 376.056 395.054 375.67 395.592 375.383C396.134 375.095 396.762 374.952 397.475 374.952C398.177 374.952 398.791 375.077 399.318 375.327C399.845 375.571 400.254 375.939 400.547 376.428C400.84 376.912 400.986 377.516 400.986 378.239C400.986 378.532 400.917 378.846 400.778 379.181C400.645 379.511 400.435 379.819 400.148 380.106C399.866 380.394 399.499 380.63 399.047 380.817C398.595 380.998 398.052 381.088 397.419 381.088H396.158V380.194ZM396.158 381.407V380.521H397.419C398.158 380.521 398.77 380.609 399.254 380.785C399.738 380.96 400.119 381.194 400.395 381.487C400.677 381.78 400.874 382.101 400.986 382.452C401.103 382.798 401.161 383.144 401.161 383.49C401.161 384.032 401.068 384.514 400.882 384.934C400.701 385.354 400.443 385.711 400.108 386.003C399.778 386.296 399.39 386.517 398.943 386.666C398.496 386.815 398.009 386.889 397.483 386.889C396.977 386.889 396.501 386.817 396.055 386.674C395.613 386.53 395.222 386.323 394.882 386.051C394.541 385.775 394.275 385.437 394.084 385.038C393.892 384.634 393.796 384.173 393.796 383.657H395.273C395.273 384.062 395.36 384.415 395.536 384.719C395.717 385.022 395.972 385.259 396.302 385.429C396.637 385.594 397.031 385.676 397.483 385.676C397.935 385.676 398.323 385.599 398.648 385.445C398.978 385.285 399.23 385.046 399.406 384.727C399.587 384.407 399.677 384.006 399.677 383.522C399.677 383.038 399.576 382.641 399.374 382.333C399.172 382.019 398.885 381.788 398.512 381.639C398.145 381.484 397.712 381.407 397.212 381.407H396.158Z" fill="black"/>
<path d="M38.4225 505.417H50.1045V506.894H40.2658L41.351 509.87H40.0184L38.4225 505.649V505.417ZM38.4225 496.225H50.1045V497.701H40.2658L41.351 500.677H40.0184L38.4225 496.456V496.225ZM49.3225 491.701C49.0725 491.701 48.8623 491.623 48.6921 491.469C48.5166 491.31 48.4288 491.081 48.4288 490.783C48.4288 490.485 48.5166 490.259 48.6921 490.105C48.8623 489.945 49.0725 489.865 49.3225 489.865C49.5672 489.865 49.7747 489.945 49.9449 490.105C50.1151 490.259 50.2002 490.485 50.2002 490.783C50.2002 491.081 50.1151 491.31 49.9449 491.469C49.7747 491.623 49.5672 491.701 49.3225 491.701ZM38.4225 482.724H50.1045V484.2H40.2658L41.351 487.176H40.0184L38.4225 482.955V482.724ZM48.8916 470.77H50.1045V478.375H49.0432L44.8061 474.569C44.2848 474.1 43.8432 473.739 43.4815 473.483C43.1144 473.223 42.7873 473.042 42.5 472.941C42.2074 472.834 41.9095 472.781 41.6063 472.781C41.2233 472.781 40.8775 472.861 40.569 473.02C40.2551 473.175 40.0051 473.404 39.8189 473.707C39.6327 474.01 39.5396 474.377 39.5396 474.808C39.5396 475.324 39.6407 475.755 39.8428 476.101C40.0397 476.441 40.3163 476.696 40.6727 476.867C41.0291 477.037 41.4387 477.122 41.9016 477.122V478.598C41.2472 478.598 40.6488 478.455 40.1062 478.167C39.5636 477.88 39.1327 477.454 38.8135 476.891C38.489 476.327 38.3267 475.632 38.3267 474.808C38.3267 474.074 38.4571 473.446 38.7177 472.925C38.9731 472.403 39.3348 472.004 39.8029 471.728C40.2658 471.446 40.8084 471.305 41.4308 471.305C41.7712 471.305 42.117 471.363 42.4681 471.48C42.8139 471.592 43.1597 471.749 43.5054 471.951C43.8512 472.148 44.1917 472.379 44.5268 472.645C44.862 472.906 45.1918 473.185 45.5163 473.483L48.8916 476.595V470.77ZM49.3225 469.007C49.0725 469.007 48.8623 468.93 48.6921 468.775C48.5166 468.616 48.4288 468.387 48.4288 468.089C48.4288 467.791 48.5166 467.565 48.6921 467.411C48.8623 467.251 49.0725 467.172 49.3225 467.172C49.5672 467.172 49.7747 467.251 49.9449 467.411C50.1151 467.565 50.2002 467.791 50.2002 468.089C50.2002 468.387 50.1151 468.616 49.9449 468.775C49.7747 468.93 49.5672 469.007 49.3225 469.007ZM48.8916 457.269H50.1045V464.873H49.0432L44.8061 461.067C44.2848 460.599 43.8432 460.237 43.4815 459.982C43.1144 459.721 42.7873 459.54 42.5 459.439C42.2074 459.333 41.9095 459.28 41.6063 459.28C41.2233 459.28 40.8775 459.36 40.569 459.519C40.2551 459.673 40.0051 459.902 39.8189 460.205C39.6327 460.509 39.5396 460.876 39.5396 461.307C39.5396 461.823 39.6407 462.253 39.8428 462.599C40.0397 462.94 40.3163 463.195 40.6727 463.365C41.0291 463.536 41.4387 463.621 41.9016 463.621V465.097C41.2472 465.097 40.6488 464.953 40.1062 464.666C39.5636 464.379 39.1327 463.953 38.8135 463.389C38.489 462.825 38.3267 462.131 38.3267 461.307C38.3267 460.572 38.4571 459.945 38.7177 459.423C38.9731 458.902 39.3348 458.503 39.8029 458.226C40.2658 457.945 40.8084 457.804 41.4308 457.804C41.7712 457.804 42.117 457.862 42.4681 457.979C42.8139 458.091 43.1597 458.248 43.5054 458.45C43.8512 458.647 44.1917 458.878 44.5268 459.144C44.862 459.405 45.1918 459.684 45.5163 459.982L48.8916 463.094V457.269ZM43.3698 448.396H45.1412C46.0935 448.396 46.8967 448.481 47.551 448.651C48.2054 448.821 48.732 449.066 49.131 449.385C49.53 449.704 49.8199 450.09 50.0008 450.542C50.1763 450.989 50.2641 451.494 50.2641 452.058C50.2641 452.505 50.2082 452.917 50.0965 453.295C49.9848 453.673 49.8066 454.013 49.5619 454.317C49.3119 454.614 48.9874 454.87 48.5884 455.083C48.1894 455.295 47.7053 455.458 47.1361 455.569C46.5669 455.681 45.9019 455.737 45.1412 455.737H43.3698C42.4176 455.737 41.6196 455.652 40.9759 455.482C40.3322 455.306 39.8162 455.059 39.4279 454.739C39.0342 454.42 38.7523 454.037 38.5821 453.59C38.4118 453.138 38.3267 452.633 38.3267 452.074C38.3267 451.622 38.3826 451.207 38.4943 450.829C38.6007 450.446 38.7736 450.106 39.013 449.808C39.247 449.51 39.5609 449.257 39.9546 449.05C40.3429 448.837 40.819 448.675 41.3829 448.563C41.9468 448.452 42.6091 448.396 43.3698 448.396ZM45.3806 449.88H43.1224C42.6011 449.88 42.1436 449.912 41.7499 449.976C41.351 450.034 41.0105 450.122 40.7286 450.239C40.4466 450.356 40.2179 450.505 40.0423 450.686C39.8668 450.861 39.7391 451.066 39.6593 451.3C39.5742 451.529 39.5316 451.787 39.5316 452.074C39.5316 452.425 39.5981 452.737 39.7311 453.008C39.8588 453.279 40.0636 453.508 40.3455 453.694C40.6275 453.875 40.9972 454.013 41.4547 454.109C41.9122 454.205 42.4681 454.253 43.1224 454.253H45.3806C45.9019 454.253 46.3621 454.223 46.7611 454.165C47.1601 454.101 47.5058 454.008 47.7984 453.886C48.0857 453.763 48.3224 453.614 48.5086 453.439C48.6948 453.263 48.8331 453.061 48.9235 452.832C49.0086 452.598 49.0512 452.34 49.0512 452.058C49.0512 451.697 48.982 451.38 48.8437 451.109C48.7054 450.837 48.49 450.611 48.1974 450.43C47.8995 450.244 47.5191 450.106 47.0563 450.016C46.5882 449.925 46.0296 449.88 45.3806 449.88ZM48.8916 438.884H50.1045V446.489H49.0432L44.8061 442.682C44.2848 442.214 43.8432 441.853 43.4815 441.597C43.1144 441.336 42.7873 441.156 42.5 441.055C42.2074 440.948 41.9095 440.895 41.6063 440.895C41.2233 440.895 40.8775 440.975 40.569 441.134C40.2551 441.289 40.0051 441.517 39.8189 441.821C39.6327 442.124 39.5396 442.491 39.5396 442.922C39.5396 443.438 39.6407 443.869 39.8428 444.214C40.0397 444.555 40.3163 444.81 40.6727 444.98C41.0291 445.151 41.4387 445.236 41.9016 445.236L41.9016 446.712C41.2472 446.712 40.6488 446.568 40.1062 446.281C39.5636 445.994 39.1327 445.568 38.8135 445.004C38.489 444.441 38.3267 443.746 38.3267 442.922C38.3267 442.188 38.4571 441.56 38.7177 441.039C38.9731 440.517 39.3348 440.118 39.8029 439.842C40.2658 439.56 40.8084 439.419 41.4308 439.419C41.7712 439.419 42.117 439.477 42.4681 439.594C42.8139 439.706 43.1597 439.863 43.5054 440.065C43.8512 440.262 44.1917 440.493 44.5268 440.759C44.862 441.02 45.1918 441.299 45.5163 441.597L48.8916 444.709V438.884ZM43.5693 435.15V434.096C43.5693 433.58 43.4842 433.155 43.3139 432.82C43.1384 432.479 42.9017 432.227 42.6037 432.062C42.3005 431.891 41.9601 431.806 41.5824 431.806C41.1355 431.806 40.7605 431.881 40.4573 432.03C40.154 432.179 39.9253 432.402 39.771 432.7C39.6168 432.998 39.5396 433.376 39.5396 433.833C39.5396 434.248 39.6221 434.615 39.787 434.934C39.9466 435.248 40.1753 435.495 40.4732 435.676C40.7711 435.852 41.1222 435.94 41.5265 435.94V437.416C40.936 437.416 40.3987 437.267 39.9147 436.969C39.4306 436.671 39.0449 436.254 38.7576 435.716C38.4704 435.174 38.3267 434.546 38.3267 433.833C38.3267 433.131 38.4517 432.516 38.7018 431.99C38.9465 431.463 39.3135 431.054 39.8029 430.761C40.287 430.468 40.8908 430.322 41.6143 430.322C41.9069 430.322 42.2207 430.391 42.5559 430.53C42.8857 430.663 43.1942 430.873 43.4815 431.16C43.7688 431.442 44.0055 431.809 44.1917 432.261C44.3725 432.713 44.463 433.256 44.463 433.889V435.15H43.5693ZM44.7822 435.15H43.8964V433.889C43.8964 433.15 43.9842 432.538 44.1598 432.054C44.3353 431.57 44.5694 431.189 44.862 430.913C45.1545 430.631 45.4764 430.434 45.8275 430.322C46.1733 430.205 46.519 430.147 46.8648 430.147C47.4074 430.147 47.8888 430.24 48.3091 430.426C48.7294 430.607 49.0858 430.865 49.3784 431.2C49.6709 431.53 49.8917 431.918 50.0407 432.365C50.1896 432.812 50.2641 433.298 50.2641 433.825C50.2641 434.33 50.1923 434.807 50.0486 435.253C49.905 435.695 49.6975 436.086 49.4262 436.426C49.1496 436.767 48.8118 437.033 48.4128 437.224C48.0085 437.416 47.5484 437.512 47.0324 437.512V436.035C47.4367 436.035 47.7904 435.948 48.0937 435.772C48.3969 435.591 48.6336 435.336 48.8038 435.006C48.9687 434.671 49.0512 434.277 49.0512 433.825C49.0512 433.373 48.9741 432.985 48.8198 432.66C48.6602 432.33 48.4208 432.078 48.1016 431.902C47.7825 431.721 47.3808 431.631 46.8967 431.631C46.4126 431.631 46.0163 431.732 45.7078 431.934C45.3939 432.136 45.1625 432.423 45.0136 432.796C44.8593 433.163 44.7822 433.596 44.7822 434.096V435.15Z" fill="black"/>
</g>
<defs>
<clipPath id="clip0_57_722">
<rect width="486.176" height="688" fill="white"/>
</clipPath>
</defs>
</svg>
