<svg width="487" height="688" viewBox="0 0 487 688" fill="none" xmlns="http://www.w3.org/2000/svg">
<g clip-path="url(#clip0_57_560)">
<rect width="486.176" height="688" fill="#2051FF"/>
<rect x="64.5518" y="455.126" width="31.867" height="35.1354" fill="white"/>
<rect x="257.387" y="528.665" width="31.0499" height="34.3183" fill="white"/>
<rect x="415.088" y="93.9668" width="31.0499" height="33.5012" fill="white"/>
<rect x="415.088" y="419.99" width="31.0499" height="70.2708" fill="white"/>
<path d="M44.0369 48.8475H40.9328V47.5947H44.0369C44.638 47.5947 45.1247 47.499 45.4971 47.3075C45.8695 47.116 46.1408 46.85 46.311 46.5095C46.4866 46.1691 46.5743 45.7807 46.5743 45.3445C46.5743 44.9455 46.4866 44.5705 46.311 44.2194C46.1408 43.8683 45.8695 43.5863 45.4971 43.3736C45.1247 43.1555 44.638 43.0464 44.0369 43.0464H41.2919V53.4038H39.7519V41.7856H44.0369C44.9146 41.7856 45.6567 41.9372 46.2631 42.2405C46.8696 42.5437 47.3297 42.9639 47.6436 43.5012C47.9575 44.0332 48.1144 44.6423 48.1144 45.3285C48.1144 46.0733 47.9575 46.709 47.6436 47.2356C47.3297 47.7623 46.8696 48.1639 46.2631 48.4406C45.6567 48.7119 44.9146 48.8475 44.0369 48.8475ZM53.2612 42.815L49.415 53.4038H47.8431L52.2717 41.7856H53.2851L53.2612 42.815ZM56.4849 53.4038L52.6308 42.815L52.6069 41.7856H53.6203L58.0648 53.4038H56.4849ZM56.2854 49.1029V50.3636H49.7582V49.1029H56.2854ZM66.7067 41.7856V43.0464H61.105V53.4038H59.573V41.7856H66.7067ZM60.746 46.5175H63.9138C64.765 46.5175 65.4831 46.6611 66.0683 46.9484C66.6535 47.2303 67.0976 47.6266 67.4009 48.1373C67.7041 48.648 67.8557 49.2465 67.8557 49.9327C67.8557 50.4434 67.7706 50.9115 67.6004 51.3371C67.4301 51.7574 67.1774 52.1244 66.8423 52.4383C66.5072 52.7468 66.0949 52.9862 65.6055 53.1564C65.1161 53.3214 64.5522 53.4038 63.9138 53.4038H59.573V41.7856H61.113V52.151H63.9138C64.483 52.151 64.9432 52.0473 65.2943 51.8398C65.6507 51.627 65.9114 51.3504 66.0763 51.01C66.2412 50.6695 66.3236 50.3051 66.3236 49.9168C66.3236 49.5284 66.2412 49.172 66.0763 48.8475C65.9114 48.523 65.6507 48.265 65.2943 48.0735C64.9432 47.8767 64.483 47.7783 63.9138 47.7783H60.746V46.5175ZM78.8754 47.2277V47.9618C78.8754 48.8342 78.7664 49.6162 78.5483 50.3078C78.3301 50.9993 78.0163 51.5871 77.6067 52.0712C77.1971 52.5553 76.705 52.925 76.1305 53.1804C75.5613 53.4357 74.9229 53.5634 74.2154 53.5634C73.5291 53.5634 72.8988 53.4357 72.3242 53.1804C71.755 52.925 71.2603 52.5553 70.84 52.0712C70.4251 51.5871 70.1033 50.9993 69.8745 50.3078C69.6458 49.6162 69.5314 48.8342 69.5314 47.9618V47.2277C69.5314 46.3552 69.6431 45.5759 69.8665 44.8897C70.0953 44.1981 70.4171 43.6103 70.8321 43.1262C71.247 42.6368 71.7391 42.2644 72.3083 42.0091C72.8828 41.7537 73.5132 41.626 74.1994 41.626C74.9069 41.626 75.5453 41.7537 76.1145 42.0091C76.689 42.2644 77.1811 42.6368 77.5907 43.1262C78.0056 43.6103 78.3222 44.1981 78.5403 44.8897C78.7637 45.5759 78.8754 46.3552 78.8754 47.2277ZM77.3513 47.9618V47.2117C77.3513 46.5201 77.2795 45.9084 77.1359 45.3764C76.9976 44.8445 76.7928 44.3976 76.5215 44.0359C76.2502 43.6741 75.9177 43.4002 75.524 43.214C75.1357 43.0278 74.6941 42.9347 74.1994 42.9347C73.7206 42.9347 73.2871 43.0278 72.8988 43.214C72.5157 43.4002 72.1859 43.6741 71.9093 44.0359C71.638 44.3976 71.4279 44.8445 71.2789 45.3764C71.13 45.9084 71.0555 46.5201 71.0555 47.2117V47.9618C71.0555 48.6587 71.13 49.2757 71.2789 49.813C71.4279 50.345 71.6407 50.7945 71.9173 51.1616C72.1992 51.5233 72.5317 51.7973 72.9147 51.9835C73.3031 52.1696 73.7366 52.2627 74.2154 52.2627C74.7154 52.2627 75.1596 52.1696 75.548 51.9835C75.9363 51.7973 76.2634 51.5233 76.5294 51.1616C76.8007 50.7945 77.0055 50.345 77.1439 49.813C77.2822 49.2757 77.3513 48.6587 77.3513 47.9618ZM85.251 41.7856V53.4038H83.7349V41.7856H85.251ZM88.9855 41.7856V43.0464H80.0085V41.7856H88.9855ZM94.3716 42.815L90.5255 53.4038H88.9535L93.3822 41.7856H94.3956L94.3716 42.815ZM97.5953 53.4038L93.7412 42.815L93.7173 41.7856H94.7307L99.1753 53.4038H97.5953ZM97.3959 49.1029V50.3636H90.8686V49.1029H97.3959ZM103.987 41.7856V53.4038H102.471V41.7856H103.987ZM107.721 41.7856V43.0464H98.7444V41.7856H107.721ZM110.698 46.5175H113.866C114.717 46.5175 115.435 46.6611 116.02 46.9484C116.605 47.2303 117.049 47.6266 117.353 48.1373C117.656 48.648 117.807 49.2465 117.807 49.9327C117.807 50.4434 117.722 50.9115 117.552 51.3371C117.382 51.7574 117.129 52.1244 116.794 52.4383C116.459 52.7468 116.047 52.9862 115.557 53.1564C115.068 53.3214 114.504 53.4038 113.866 53.4038H109.525V41.7856H111.065V52.151H113.866C114.435 52.151 114.895 52.0473 115.246 51.8398C115.602 51.627 115.863 51.3504 116.028 51.01C116.193 50.6695 116.275 50.3051 116.275 49.9168C116.275 49.5284 116.193 49.172 116.028 48.8475C115.863 48.523 115.602 48.265 115.246 48.0735C114.895 47.8767 114.435 47.7783 113.866 47.7783H110.698V46.5175ZM125.5 41.7856V53.4038H123.96V41.7856H125.5ZM132.657 41.7856L127.614 48.1772H124.885L124.646 46.9005H126.697L130.75 41.7856H132.657ZM131.109 53.4038L126.745 47.9777L127.606 46.6292L132.992 53.4038H131.109ZM138.69 42.815L134.844 53.4038H133.272L137.7 41.7856H138.714L138.69 42.815ZM141.914 53.4038L138.059 42.815L138.036 41.7856H139.049L143.494 53.4038H141.914ZM141.714 49.1029V50.3636H135.187V49.1029H141.714ZM151.968 49.7093H153.5C153.42 50.4434 153.21 51.1004 152.869 51.6802C152.529 52.2601 152.048 52.7202 151.425 53.0607C150.803 53.3958 150.026 53.5634 149.095 53.5634C148.414 53.5634 147.794 53.4357 147.236 53.1804C146.683 52.925 146.207 52.5633 145.808 52.0952C145.409 51.6217 145.1 51.0552 144.882 50.3955C144.669 49.7306 144.563 48.9911 144.563 48.1772V47.0202C144.563 46.2063 144.669 45.4695 144.882 44.8099C145.1 44.1449 145.411 43.5757 145.816 43.1023C146.225 42.6288 146.717 42.2644 147.292 42.0091C147.866 41.7537 148.513 41.626 149.231 41.626C150.109 41.626 150.851 41.791 151.457 42.1208C152.064 42.4506 152.534 42.9081 152.869 43.4933C153.21 44.0731 153.42 44.746 153.5 45.5121H151.968C151.893 44.9695 151.755 44.504 151.553 44.1157C151.351 43.722 151.063 43.4188 150.691 43.206C150.319 42.9932 149.832 42.8868 149.231 42.8868C148.715 42.8868 148.26 42.9852 147.866 43.1821C147.478 43.3789 147.151 43.6582 146.885 44.0199C146.624 44.3816 146.427 44.8152 146.294 45.3206C146.161 45.8259 146.095 46.3872 146.095 47.0042V48.1772C146.095 48.7464 146.153 49.2811 146.27 49.7811C146.393 50.2812 146.576 50.72 146.821 51.0977C147.066 51.4754 147.377 51.7733 147.755 51.9914C148.132 52.2042 148.579 52.3106 149.095 52.3106C149.749 52.3106 150.271 52.2069 150.659 51.9994C151.047 51.7919 151.34 51.494 151.537 51.1057C151.739 50.7174 151.883 50.2519 151.968 49.7093ZM162.612 49.7093H164.144C164.065 50.4434 163.855 51.1004 163.514 51.6802C163.174 52.2601 162.692 52.7202 162.07 53.0607C161.447 53.3958 160.671 53.5634 159.74 53.5634C159.059 53.5634 158.439 53.4357 157.881 53.1804C157.327 52.925 156.851 52.5633 156.452 52.0952C156.053 51.6217 155.745 51.0552 155.527 50.3955C155.314 49.7306 155.207 48.9911 155.207 48.1772V47.0202C155.207 46.2063 155.314 45.4695 155.527 44.8099C155.745 44.1449 156.056 43.5757 156.46 43.1023C156.87 42.6288 157.362 42.2644 157.936 42.0091C158.511 41.7537 159.157 41.626 159.875 41.626C160.753 41.626 161.495 41.791 162.102 42.1208C162.708 42.4506 163.179 42.9081 163.514 43.4933C163.855 44.0731 164.065 44.746 164.144 45.5121H162.612C162.538 44.9695 162.4 44.504 162.197 44.1157C161.995 43.722 161.708 43.4188 161.336 43.206C160.963 42.9932 160.477 42.8868 159.875 42.8868C159.359 42.8868 158.905 42.9852 158.511 43.1821C158.123 43.3789 157.795 43.6582 157.529 44.0199C157.269 44.3816 157.072 44.8152 156.939 45.3206C156.806 45.8259 156.74 46.3872 156.74 47.0042V48.1772C156.74 48.7464 156.798 49.2811 156.915 49.7811C157.037 50.2812 157.221 50.72 157.466 51.0977C157.71 51.4754 158.022 51.7733 158.399 51.9914C158.777 52.2042 159.224 52.3106 159.74 52.3106C160.394 52.3106 160.915 52.2069 161.304 51.9994C161.692 51.7919 161.985 51.494 162.182 51.1057C162.384 50.7174 162.527 50.2519 162.612 49.7093ZM167.847 50.7387L173.568 41.7856H175.108V53.4038H173.568V44.4428L167.847 53.4038H166.315V41.7856H167.847V50.7387ZM182.194 48.8475H179.09V47.5947H182.194C182.795 47.5947 183.282 47.499 183.654 47.3075C184.027 47.116 184.298 46.85 184.468 46.5095C184.644 46.1691 184.732 45.7807 184.732 45.3445C184.732 44.9455 184.644 44.5705 184.468 44.2194C184.298 43.8683 184.027 43.5863 183.654 43.3736C183.282 43.1555 182.795 43.0464 182.194 43.0464H179.449V53.4038H177.909V41.7856H182.194C183.072 41.7856 183.814 41.9372 184.42 42.2405C185.027 42.5437 185.487 42.9639 185.801 43.5012C186.115 44.0332 186.272 44.6423 186.272 45.3285C186.272 46.0733 186.115 46.709 185.801 47.2356C185.487 47.7623 185.027 48.1639 184.42 48.4406C183.814 48.7119 183.072 48.8475 182.194 48.8475ZM197.164 47.2277V47.9618C197.164 48.8342 197.055 49.6162 196.837 50.3078C196.618 50.9993 196.305 51.5871 195.895 52.0712C195.485 52.5553 194.993 52.925 194.419 53.1804C193.85 53.4357 193.211 53.5634 192.504 53.5634C191.817 53.5634 191.187 53.4357 190.613 53.1804C190.043 52.925 189.549 52.5553 189.128 52.0712C188.713 51.5871 188.392 50.9993 188.163 50.3078C187.934 49.6162 187.82 48.8342 187.82 47.9618V47.2277C187.82 46.3552 187.931 45.5759 188.155 44.8897C188.384 44.1981 188.705 43.6103 189.12 43.1262C189.535 42.6368 190.027 42.2644 190.597 42.0091C191.171 41.7537 191.801 41.626 192.488 41.626C193.195 41.626 193.834 41.7537 194.403 42.0091C194.977 42.2644 195.469 42.6368 195.879 43.1262C196.294 43.6103 196.61 44.1981 196.829 44.8897C197.052 45.5759 197.164 46.3552 197.164 47.2277ZM195.64 47.9618V47.2117C195.64 46.5201 195.568 45.9084 195.424 45.3764C195.286 44.8445 195.081 44.3976 194.81 44.0359C194.538 43.6741 194.206 43.4002 193.812 43.214C193.424 43.0278 192.982 42.9347 192.488 42.9347C192.009 42.9347 191.575 43.0278 191.187 43.214C190.804 43.4002 190.474 43.6741 190.198 44.0359C189.926 44.3976 189.716 44.8445 189.567 45.3764C189.418 45.9084 189.344 46.5201 189.344 47.2117V47.9618C189.344 48.6587 189.418 49.2757 189.567 49.813C189.716 50.345 189.929 50.7945 190.206 51.1616C190.488 51.5233 190.82 51.7973 191.203 51.9835C191.591 52.1696 192.025 52.2627 192.504 52.2627C193.004 52.2627 193.448 52.1696 193.836 51.9835C194.225 51.7973 194.552 51.5233 194.818 51.1616C195.089 50.7945 195.294 50.345 195.432 49.813C195.57 49.2757 195.64 48.6587 195.64 47.9618ZM199.957 41.7856H201.449L205.255 51.2573L209.053 41.7856H210.553L205.829 53.4038H204.664L199.957 41.7856ZM199.47 41.7856H200.786L201.002 48.8714V53.4038H199.47V41.7856ZM209.715 41.7856H211.032V53.4038H209.5V48.8714L209.715 41.7856ZM43.8932 66.9698H40.9488L40.9328 65.7329H43.606C44.0475 65.7329 44.4332 65.6585 44.763 65.5095C45.0928 65.3606 45.3482 65.1478 45.529 64.8711C45.7152 64.5892 45.8083 64.2541 45.8083 63.8657C45.8083 63.4402 45.7259 63.0944 45.5609 62.8284C45.4014 62.5571 45.154 62.3603 44.8188 62.2379C44.489 62.1102 44.0688 62.0464 43.5581 62.0464H41.2919V72.4038H39.7519V60.7856H43.5581C44.1539 60.7856 44.6859 60.8468 45.154 60.9692C45.6221 61.0862 46.0184 61.2724 46.3429 61.5277C46.6728 61.7778 46.9228 62.0969 47.093 62.4853C47.2632 62.8736 47.3484 63.3391 47.3484 63.8817C47.3484 64.3605 47.226 64.794 46.9813 65.1823C46.7366 65.5654 46.3961 65.8792 45.9599 66.1239C45.529 66.3686 45.0237 66.5256 44.4438 66.5947L43.8932 66.9698ZM43.8214 72.4038H40.3423L41.2121 71.151H43.8214C44.3108 71.151 44.7258 71.0659 45.0662 70.8957C45.412 70.7255 45.6753 70.4861 45.8562 70.1775C46.0371 69.8637 46.1275 69.4939 46.1275 69.0684C46.1275 68.6375 46.0504 68.2651 45.8961 67.9512C45.7418 67.6374 45.4998 67.3953 45.1699 67.2251C44.8401 67.0549 44.4146 66.9698 43.8932 66.9698H41.6989L41.7148 65.7329H44.7151L45.0423 66.1798C45.6008 66.2277 46.0743 66.3873 46.4626 66.6586C46.851 66.9245 47.1462 67.265 47.3484 67.6799C47.5558 68.0949 47.6596 68.5524 47.6596 69.0524C47.6596 69.7759 47.5 70.3877 47.1808 70.8877C46.8669 71.3824 46.4227 71.7601 45.8482 72.0208C45.2737 72.2761 44.5981 72.4038 43.8214 72.4038ZM56.9477 68.7093H58.4798C58.4 69.4434 58.1899 70.1004 57.8494 70.6802C57.5089 71.2601 57.0275 71.7202 56.4051 72.0607C55.7827 72.3958 55.006 72.5634 54.0751 72.5634C53.3942 72.5634 52.7744 72.4357 52.2159 72.1804C51.6626 71.925 51.1865 71.5633 50.7875 71.0952C50.3885 70.6217 50.08 70.0552 49.8619 69.3955C49.6491 68.7306 49.5427 67.9911 49.5427 67.1772V66.0202C49.5427 65.2063 49.6491 64.4695 49.8619 63.8099C50.08 63.1449 50.3912 62.5757 50.7955 62.1023C51.2051 61.6288 51.6972 61.2644 52.2717 61.0091C52.8462 60.7537 53.4926 60.626 54.2107 60.626C55.0885 60.626 55.8306 60.791 56.437 61.1208C57.0435 61.4506 57.5143 61.9081 57.8494 62.4933C58.1899 63.0731 58.4 63.746 58.4798 64.5121H56.9477C56.8732 63.9695 56.7349 63.504 56.5328 63.1157C56.3306 62.722 56.0434 62.4188 55.671 62.206C55.2986 61.9932 54.8119 61.8868 54.2107 61.8868C53.6947 61.8868 53.2399 61.9852 52.8462 62.1821C52.4579 62.3789 52.1307 62.6582 51.8648 63.0199C51.6041 63.3816 51.4073 63.8152 51.2743 64.3206C51.1413 64.8259 51.0748 65.3872 51.0748 66.0042V67.1772C51.0748 67.7464 51.1333 68.2811 51.2503 68.7811C51.3727 69.2812 51.5562 69.72 51.8009 70.0977C52.0456 70.4754 52.3568 70.7733 52.7345 70.9914C53.1122 71.2042 53.5591 71.3106 54.0751 71.3106C54.7294 71.3106 55.2507 71.2069 55.6391 70.9994C56.0274 70.7919 56.32 70.494 56.5168 70.1057C56.719 69.7174 56.8626 69.2519 56.9477 68.7093ZM62.2301 60.7856V72.4038H60.6901V60.7856H62.2301ZM64.8953 66.108V67.3209H62.1344V66.108H64.8953ZM73.2339 66.2277V66.9618C73.2339 67.8342 73.1248 68.6162 72.9067 69.3078C72.6886 69.9993 72.3748 70.5871 71.9652 71.0712C71.5555 71.5553 71.0635 71.925 70.4889 72.1804C69.9197 72.4357 69.2814 72.5634 68.5739 72.5634C67.8876 72.5634 67.2572 72.4357 66.6827 72.1804C66.1135 71.925 65.6188 71.5553 65.1985 71.0712C64.7836 70.5871 64.4618 69.9993 64.233 69.3078C64.0043 68.6162 63.8899 67.8342 63.8899 66.9618V66.2277C63.8899 65.3552 64.0016 64.5759 64.225 63.8897C64.4538 63.1981 64.7756 62.6103 65.1905 62.1262C65.6055 61.6368 66.0976 61.2644 66.6668 61.0091C67.2413 60.7537 67.8717 60.626 68.5579 60.626C69.2654 60.626 69.9038 60.7537 70.473 61.0091C71.0475 61.2644 71.5396 61.6368 71.9492 62.1262C72.3641 62.6103 72.6807 63.1981 72.8988 63.8897C73.1222 64.5759 73.2339 65.3552 73.2339 66.2277ZM71.7098 66.9618V66.2117C71.7098 65.5201 71.638 64.9084 71.4944 64.3764C71.3561 63.8445 71.1512 63.3976 70.8799 63.0359C70.6086 62.6741 70.2762 62.4002 69.8825 62.214C69.4942 62.0278 69.0526 61.9347 68.5579 61.9347C68.0791 61.9347 67.6456 62.0278 67.2572 62.214C66.8742 62.4002 66.5444 62.6741 66.2678 63.0359C65.9965 63.3976 65.7864 63.8445 65.6374 64.3764C65.4884 64.9084 65.414 65.5201 65.414 66.2117V66.9618C65.414 67.6587 65.4884 68.2757 65.6374 68.813C65.7864 69.345 65.9991 69.7945 66.2758 70.1616C66.5577 70.5233 66.8902 70.7973 67.2732 70.9835C67.6615 71.1696 68.0951 71.2627 68.5739 71.2627C69.0739 71.2627 69.5181 71.1696 69.9064 70.9835C70.2948 70.7973 70.6219 70.5233 70.8879 70.1616C71.1592 69.7945 71.364 69.345 71.5023 68.813C71.6407 68.2757 71.7098 67.6587 71.7098 66.9618ZM82.5779 67.0974L78.4286 60.7856H80.2319L83.32 65.8207H85.5064L85.259 67.0974H82.5779ZM83.4078 66.9777L80.0324 72.4038H78.1174L82.4343 65.6531L83.4078 66.9777ZM86.1687 60.7856V72.4038H84.6446V60.7856H86.1687ZM92.3289 60.7856L88.1636 67.0974H85.5622L85.3229 65.8207H87.4294L90.5175 60.7856H92.3289ZM90.717 72.4038L87.3497 66.9777L88.3311 65.6531L92.6321 72.4038H90.717ZM95.6962 69.7387L101.418 60.7856H102.958V72.4038H101.418V63.4428L95.6962 72.4038H94.1642V60.7856H95.6962V69.7387ZM109.317 66.8261H107.937V65.8446H109.261C109.847 65.8446 110.32 65.7622 110.682 65.5973C111.043 65.4324 111.307 65.2036 111.472 64.911C111.637 64.6185 111.719 64.2807 111.719 63.8976C111.719 63.5306 111.629 63.1955 111.448 62.8922C111.267 62.5837 110.988 62.339 110.61 62.1581C110.232 61.9719 109.745 61.8788 109.15 61.8788C108.703 61.8788 108.299 61.9639 107.937 62.1342C107.575 62.2991 107.288 62.5305 107.075 62.8284C106.862 63.121 106.756 63.4588 106.756 63.8418H105.216C105.216 63.3471 105.32 62.9029 105.527 62.5092C105.734 62.1102 106.019 61.7724 106.381 61.4958C106.743 61.2139 107.16 60.9984 107.634 60.8495C108.112 60.7005 108.618 60.626 109.15 60.626C109.772 60.626 110.336 60.6979 110.841 60.8415C111.347 60.9798 111.78 61.1873 112.142 61.4639C112.504 61.7405 112.78 62.0836 112.972 62.4933C113.163 62.9029 113.259 63.379 113.259 63.9216C113.259 64.3206 113.166 64.6956 112.98 65.0467C112.794 65.3978 112.528 65.7063 112.182 65.9723C111.836 66.2383 111.421 66.4484 110.937 66.6027C110.453 66.7517 109.913 66.8261 109.317 66.8261ZM107.937 66.1479H109.317C109.972 66.1479 110.554 66.2144 111.065 66.3474C111.575 66.4804 112.006 66.6745 112.357 66.9299C112.709 67.1852 112.975 67.5017 113.155 67.8794C113.342 68.2518 113.435 68.68 113.435 69.1641C113.435 69.7067 113.328 70.1882 113.115 70.6084C112.908 71.0287 112.613 71.3851 112.23 71.6777C111.847 71.9703 111.392 72.191 110.865 72.34C110.344 72.4889 109.772 72.5634 109.15 72.5634C108.65 72.5634 108.155 72.4996 107.665 72.3719C107.181 72.2389 106.743 72.0368 106.349 71.7654C105.955 71.4888 105.639 71.1377 105.399 70.7122C105.165 70.2866 105.048 69.7759 105.048 69.1801H106.588C106.588 69.5684 106.695 69.9248 106.907 70.2493C107.126 70.5738 107.426 70.8345 107.809 71.0313C108.192 71.2228 108.639 71.3186 109.15 71.3186C109.735 71.3186 110.23 71.2282 110.634 71.0473C111.043 70.8611 111.355 70.6084 111.567 70.2892C111.786 69.9647 111.895 69.6003 111.895 69.196C111.895 68.8396 111.836 68.5311 111.719 68.2704C111.607 68.0044 111.44 67.7863 111.216 67.6161C110.998 67.4459 110.724 67.3209 110.394 67.2411C110.07 67.1559 109.692 67.1134 109.261 67.1134H107.937V66.1479ZM123.05 65.7808V67.0336H116.762V65.7808H123.05ZM117.002 60.7856V72.4038H115.461V60.7856H117.002ZM124.391 60.7856V72.4038H122.858V60.7856H124.391ZM128.253 65.5175H131.421C132.272 65.5175 132.99 65.6611 133.575 65.9484C134.16 66.2303 134.604 66.6266 134.908 67.1373C135.211 67.648 135.362 68.2465 135.362 68.9327C135.362 69.4434 135.277 69.9115 135.107 70.3371C134.937 70.7574 134.684 71.1244 134.349 71.4383C134.014 71.7468 133.602 71.9862 133.112 72.1564C132.623 72.3214 132.059 72.4038 131.421 72.4038H127.08V60.7856H128.62V71.151H131.421C131.99 71.151 132.45 71.0473 132.801 70.8398C133.157 70.627 133.418 70.3504 133.583 70.01C133.748 69.6695 133.83 69.3051 133.83 68.9168C133.83 68.5284 133.748 68.172 133.583 67.8475C133.418 67.523 133.157 67.265 132.801 67.0735C132.45 66.8767 131.99 66.7783 131.421 66.7783H128.253V65.5175ZM140.374 69.1322H138.889C138.895 68.6215 138.94 68.2039 139.025 67.8794C139.115 67.5496 139.262 67.249 139.464 66.9777C139.666 66.7064 139.935 66.3979 140.27 66.0521C140.514 65.8021 140.738 65.568 140.94 65.3499C141.148 65.1265 141.315 64.8871 141.443 64.6318C141.57 64.3711 141.634 64.0599 141.634 63.6982C141.634 63.3311 141.568 63.0146 141.435 62.7486C141.307 62.4826 141.116 62.2778 140.86 62.1342C140.61 61.9905 140.299 61.9187 139.927 61.9187C139.618 61.9187 139.326 61.9746 139.049 62.0863C138.772 62.198 138.549 62.3709 138.379 62.605C138.208 62.8337 138.121 63.1343 138.115 63.5067H136.639C136.65 62.9055 136.799 62.3895 137.086 61.9586C137.379 61.5277 137.772 61.1979 138.267 60.9692C138.762 60.7404 139.315 60.626 139.927 60.626C140.602 60.626 141.177 60.7484 141.65 60.9931C142.129 61.2378 142.493 61.5889 142.743 62.0464C142.993 62.4986 143.118 63.0359 143.118 63.6583C143.118 64.137 143.02 64.5786 142.823 64.9829C142.632 65.3818 142.384 65.7569 142.081 66.108C141.778 66.4591 141.456 66.7942 141.116 67.1134C140.823 67.3847 140.626 67.6906 140.525 68.031C140.424 68.3715 140.374 68.7386 140.374 69.1322ZM138.825 71.6617C138.825 71.4223 138.9 71.2202 139.049 71.0553C139.198 70.8904 139.413 70.8079 139.695 70.8079C139.983 70.8079 140.201 70.8904 140.35 71.0553C140.499 71.2202 140.573 71.4223 140.573 71.6617C140.573 71.8905 140.499 72.0873 140.35 72.2522C140.201 72.4171 139.983 72.4996 139.695 72.4996C139.413 72.4996 139.198 72.4171 139.049 72.2522C138.9 72.0873 138.825 71.8905 138.825 71.6617Z" fill="white"/>
<path d="M281.584 620.259L287.306 611.306H288.846V622.924H287.306V613.963L281.584 622.924H280.052V611.306H281.584V620.259ZM299.259 611.306V612.566H293.945V611.306H299.259ZM300.583 611.306V622.924H299.043V611.306H300.583ZM293.418 611.306H294.95L294.687 616.995C294.649 617.814 294.586 618.546 294.495 619.189C294.41 619.828 294.288 620.384 294.128 620.857C293.968 621.325 293.761 621.714 293.506 622.022C293.25 622.325 292.936 622.551 292.564 622.7C292.197 622.849 291.755 622.924 291.239 622.924H290.825V621.671L291.144 621.647C291.442 621.626 291.697 621.559 291.91 621.448C292.128 621.331 292.311 621.155 292.46 620.921C292.615 620.687 292.74 620.384 292.835 620.011C292.931 619.639 293.006 619.184 293.059 618.647C293.117 618.104 293.163 617.471 293.194 616.748L293.418 611.306ZM304.964 620.259L310.686 611.306H312.226V622.924H310.686V613.963L304.964 622.924H303.432V611.306H304.964V620.259ZM322.679 619.07L325.751 611.306H327.522L323.413 620.985C323.296 621.256 323.165 621.519 323.022 621.775C322.878 622.025 322.703 622.248 322.495 622.445C322.288 622.642 322.03 622.799 321.721 622.916C321.418 623.033 321.04 623.091 320.588 623.091C320.46 623.091 320.309 623.083 320.133 623.067C319.958 623.057 319.843 623.044 319.79 623.028L319.838 621.799C319.897 621.809 320.011 621.82 320.181 621.831C320.351 621.836 320.476 621.839 320.556 621.839C320.859 621.839 321.099 621.777 321.274 621.655C321.45 621.533 321.591 621.378 321.697 621.192C321.809 621.001 321.91 620.807 322 620.61L322.679 619.07ZM320.069 611.306L323.301 618.543L323.684 619.971L322.391 620.067L318.346 611.306H320.069ZM333.499 617.49H330.555L330.539 616.253H333.212C333.653 616.253 334.039 616.178 334.369 616.03C334.699 615.881 334.954 615.668 335.135 615.391C335.321 615.109 335.414 614.774 335.414 614.386C335.414 613.96 335.332 613.614 335.167 613.348C335.007 613.077 334.76 612.88 334.425 612.758C334.095 612.63 333.675 612.566 333.164 612.566H330.898V622.924H329.358V611.306H333.164C333.76 611.306 334.292 611.367 334.76 611.489C335.228 611.606 335.624 611.792 335.949 612.048C336.278 612.298 336.529 612.617 336.699 613.005C336.869 613.394 336.954 613.859 336.954 614.402C336.954 614.88 336.832 615.314 336.587 615.702C336.342 616.085 336.002 616.399 335.566 616.644C335.135 616.889 334.629 617.046 334.05 617.115L333.499 617.49ZM333.427 622.924H329.948L330.818 621.671H333.427C333.917 621.671 334.331 621.586 334.672 621.416C335.018 621.245 335.281 621.006 335.462 620.698C335.643 620.384 335.733 620.014 335.733 619.588C335.733 619.157 335.656 618.785 335.502 618.471C335.348 618.157 335.106 617.915 334.776 617.745C334.446 617.575 334.02 617.49 333.499 617.49H331.305L331.321 616.253H334.321L334.648 616.7C335.207 616.748 335.68 616.907 336.068 617.179C336.457 617.445 336.752 617.785 336.954 618.2C337.162 618.615 337.265 619.072 337.265 619.572C337.265 620.296 337.106 620.908 336.787 621.408C336.473 621.902 336.028 622.28 335.454 622.541C334.879 622.796 334.204 622.924 333.427 622.924ZM341.143 620.259L346.865 611.306H348.405V622.924H346.865V613.963L341.143 622.924H339.611V611.306H341.143V620.259ZM360.518 621.671V622.924H351.724V621.671H360.518ZM351.972 621.671V625.78H350.447L350.439 621.671H351.972ZM361.858 621.671L361.842 625.773H360.318V621.671H361.858ZM359.009 611.306V612.566H353.919V611.306H359.009ZM360.334 611.306V622.924H358.802V611.306H360.334ZM353.392 611.306H354.932L354.693 615.982C354.661 616.684 354.594 617.333 354.493 617.929C354.392 618.519 354.267 619.059 354.118 619.548C353.969 620.038 353.799 620.477 353.607 620.865C353.416 621.248 353.211 621.581 352.993 621.863C352.775 622.139 352.546 622.368 352.307 622.549C352.073 622.724 351.836 622.849 351.597 622.924H350.894V621.671H351.389C351.527 621.522 351.684 621.307 351.86 621.025C352.041 620.743 352.219 620.378 352.394 619.932C352.575 619.479 352.732 618.929 352.865 618.28C353.004 617.631 353.097 616.865 353.145 615.982L353.392 611.306ZM371.051 621.671V622.924H364.898V621.671H371.051ZM365.21 611.306V622.924H363.67V611.306H365.21ZM370.237 616.301V617.554H364.898V616.301H370.237ZM370.971 611.306V612.566H364.898V611.306H370.971ZM377.41 611.306V622.924H375.894V611.306H377.41ZM381.145 611.306V612.566H372.168V611.306H381.145ZM384.121 616.038H387.289C388.14 616.038 388.858 616.181 389.443 616.468C390.029 616.75 390.473 617.147 390.776 617.657C391.079 618.168 391.231 618.767 391.231 619.453C391.231 619.963 391.146 620.432 390.975 620.857C390.805 621.277 390.552 621.644 390.217 621.958C389.882 622.267 389.47 622.506 388.981 622.676C388.491 622.841 387.927 622.924 387.289 622.924H382.948V611.306H384.488V621.671H387.289C387.858 621.671 388.318 621.567 388.669 621.36C389.026 621.147 389.286 620.87 389.451 620.53C389.616 620.19 389.699 619.825 389.699 619.437C389.699 619.048 389.616 618.692 389.451 618.368C389.286 618.043 389.026 617.785 388.669 617.594C388.318 617.397 387.858 617.298 387.289 617.298H384.121V616.038ZM404.325 619.229H405.857C405.777 619.963 405.567 620.62 405.227 621.2C404.886 621.78 404.405 622.24 403.783 622.581C403.16 622.916 402.383 623.083 401.453 623.083C400.772 623.083 400.152 622.956 399.593 622.7C399.04 622.445 398.564 622.083 398.165 621.615C397.766 621.142 397.457 620.575 397.239 619.916C397.027 619.251 396.92 618.511 396.92 617.697V616.54C396.92 615.726 397.027 614.99 397.239 614.33C397.457 613.665 397.769 613.096 398.173 612.622C398.583 612.149 399.075 611.784 399.649 611.529C400.224 611.274 400.87 611.146 401.588 611.146C402.466 611.146 403.208 611.311 403.814 611.641C404.421 611.971 404.892 612.428 405.227 613.013C405.567 613.593 405.777 614.266 405.857 615.032H404.325C404.251 614.489 404.112 614.024 403.91 613.636C403.708 613.242 403.421 612.939 403.048 612.726C402.676 612.513 402.189 612.407 401.588 612.407C401.072 612.407 400.617 612.505 400.224 612.702C399.835 612.899 399.508 613.178 399.242 613.54C398.982 613.902 398.785 614.335 398.652 614.841C398.519 615.346 398.452 615.907 398.452 616.524V617.697C398.452 618.266 398.511 618.801 398.628 619.301C398.75 619.801 398.934 620.24 399.178 620.618C399.423 620.995 399.734 621.293 400.112 621.511C400.49 621.724 400.936 621.831 401.453 621.831C402.107 621.831 402.628 621.727 403.016 621.519C403.405 621.312 403.697 621.014 403.894 620.626C404.096 620.237 404.24 619.772 404.325 619.229ZM412.097 617.49H409.153L409.137 616.253H411.81C412.251 616.253 412.637 616.178 412.967 616.03C413.297 615.881 413.552 615.668 413.733 615.391C413.919 615.109 414.012 614.774 414.012 614.386C414.012 613.96 413.93 613.614 413.765 613.348C413.605 613.077 413.358 612.88 413.023 612.758C412.693 612.63 412.273 612.566 411.762 612.566H409.496V622.924H407.956V611.306H411.762C412.358 611.306 412.89 611.367 413.358 611.489C413.826 611.606 414.222 611.792 414.547 612.048C414.877 612.298 415.127 612.617 415.297 613.005C415.467 613.394 415.552 613.859 415.552 614.402C415.552 614.88 415.43 615.314 415.185 615.702C414.941 616.085 414.6 616.399 414.164 616.644C413.733 616.889 413.228 617.046 412.648 617.115L412.097 617.49ZM412.025 622.924H408.546L409.416 621.671H412.025C412.515 621.671 412.93 621.586 413.27 621.416C413.616 621.245 413.879 621.006 414.06 620.698C414.241 620.384 414.331 620.014 414.331 619.588C414.331 619.157 414.254 618.785 414.1 618.471C413.946 618.157 413.704 617.915 413.374 617.745C413.044 617.575 412.619 617.49 412.097 617.49H409.903L409.919 616.253H412.919L413.246 616.7C413.805 616.748 414.278 616.907 414.667 617.179C415.055 617.445 415.35 617.785 415.552 618.2C415.76 618.615 415.864 619.072 415.864 619.572C415.864 620.296 415.704 620.908 415.385 621.408C415.071 621.902 414.627 622.28 414.052 622.541C413.478 622.796 412.802 622.924 412.025 622.924ZM427.083 616.748V617.482C427.083 618.354 426.974 619.136 426.756 619.828C426.537 620.519 426.224 621.107 425.814 621.591C425.404 622.075 424.912 622.445 424.338 622.7C423.769 622.956 423.13 623.083 422.423 623.083C421.736 623.083 421.106 622.956 420.532 622.7C419.962 622.445 419.468 622.075 419.047 621.591C418.632 621.107 418.311 620.519 418.082 619.828C417.853 619.136 417.739 618.354 417.739 617.482V616.748C417.739 615.875 417.85 615.096 418.074 614.41C418.303 613.718 418.624 613.13 419.039 612.646C419.454 612.157 419.946 611.784 420.516 611.529C421.09 611.274 421.72 611.146 422.407 611.146C423.114 611.146 423.753 611.274 424.322 611.529C424.896 611.784 425.388 612.157 425.798 612.646C426.213 613.13 426.529 613.718 426.748 614.41C426.971 615.096 427.083 615.875 427.083 616.748ZM425.559 617.482V616.732C425.559 616.04 425.487 615.428 425.343 614.896C425.205 614.364 425 613.918 424.729 613.556C424.457 613.194 424.125 612.92 423.731 612.734C423.343 612.548 422.901 612.455 422.407 612.455C421.928 612.455 421.494 612.548 421.106 612.734C420.723 612.92 420.393 613.194 420.117 613.556C419.845 613.918 419.635 614.364 419.486 614.896C419.337 615.428 419.263 616.04 419.263 616.732V617.482C419.263 618.179 419.337 618.796 419.486 619.333C419.635 619.865 419.848 620.315 420.125 620.682C420.407 621.043 420.739 621.317 421.122 621.503C421.51 621.69 421.944 621.783 422.423 621.783C422.923 621.783 423.367 621.69 423.755 621.503C424.144 621.317 424.471 621.043 424.737 620.682C425.008 620.315 425.213 619.865 425.351 619.333C425.489 618.796 425.559 618.179 425.559 617.482ZM430.993 620.259L436.714 611.306H438.254V622.924H436.714V613.963L430.993 622.924H429.461V611.306H430.993V620.259ZM286.994 638.229H288.526C288.447 638.963 288.237 639.62 287.896 640.2C287.556 640.78 287.074 641.24 286.452 641.581C285.829 641.916 285.053 642.083 284.122 642.083C283.441 642.083 282.821 641.956 282.263 641.7C281.709 641.445 281.233 641.083 280.834 640.615C280.435 640.142 280.127 639.575 279.909 638.916C279.696 638.251 279.589 637.511 279.589 636.697V635.54C279.589 634.726 279.696 633.99 279.909 633.33C280.127 632.665 280.438 632.096 280.842 631.622C281.252 631.149 281.744 630.784 282.318 630.529C282.893 630.274 283.539 630.146 284.257 630.146C285.135 630.146 285.877 630.311 286.484 630.641C287.09 630.971 287.561 631.428 287.896 632.013C288.237 632.593 288.447 633.266 288.526 634.032H286.994C286.92 633.489 286.782 633.024 286.579 632.636C286.377 632.242 286.09 631.939 285.718 631.726C285.345 631.513 284.859 631.407 284.257 631.407C283.741 631.407 283.287 631.505 282.893 631.702C282.505 631.899 282.177 632.178 281.911 632.54C281.651 632.902 281.454 633.335 281.321 633.841C281.188 634.346 281.121 634.907 281.121 635.524V636.697C281.121 637.266 281.18 637.801 281.297 638.301C281.419 638.801 281.603 639.24 281.848 639.618C282.092 639.995 282.403 640.293 282.781 640.511C283.159 640.724 283.606 640.831 284.122 640.831C284.776 640.831 285.297 640.727 285.686 640.519C286.074 640.312 286.367 640.014 286.563 639.626C286.766 639.237 286.909 638.772 286.994 638.229ZM292.237 630.306V641.924H290.697V630.306H292.237ZM299.395 630.306L294.351 636.697H291.622L291.383 635.421H293.434L297.487 630.306H299.395ZM297.847 641.924L293.482 636.498L294.343 635.149L299.73 641.924H297.847ZM305.411 637.368H302.307V636.115H305.411C306.012 636.115 306.499 636.019 306.871 635.827C307.244 635.636 307.515 635.37 307.685 635.03C307.861 634.689 307.949 634.301 307.949 633.865C307.949 633.466 307.861 633.091 307.685 632.739C307.515 632.388 307.244 632.106 306.871 631.894C306.499 631.675 306.012 631.566 305.411 631.566H302.666V641.924H301.126V630.306H305.411C306.289 630.306 307.031 630.457 307.637 630.76C308.244 631.064 308.704 631.484 309.018 632.021C309.332 632.553 309.489 633.162 309.489 633.849C309.489 634.593 309.332 635.229 309.018 635.756C308.704 636.282 308.244 636.684 307.637 636.961C307.031 637.232 306.289 637.368 305.411 637.368ZM312.68 635.038H315.848C316.699 635.038 317.418 635.181 318.003 635.468C318.588 635.75 319.032 636.147 319.335 636.657C319.639 637.168 319.79 637.767 319.79 638.453C319.79 638.963 319.705 639.432 319.535 639.857C319.365 640.277 319.112 640.644 318.777 640.958C318.442 641.267 318.029 641.506 317.54 641.676C317.051 641.841 316.487 641.924 315.848 641.924H311.507V630.306H313.047V640.671H315.848C316.417 640.671 316.878 640.567 317.229 640.36C317.585 640.147 317.846 639.87 318.011 639.53C318.176 639.19 318.258 638.825 318.258 638.437C318.258 638.048 318.176 637.692 318.011 637.368C317.846 637.043 317.585 636.785 317.229 636.594C316.878 636.397 316.417 636.298 315.848 636.298H312.68V635.038ZM322.735 630.306V641.924H321.195V630.306H322.735ZM329.629 630.306V641.924H328.113V630.306H329.629ZM333.363 630.306V631.566H324.386V630.306H333.363ZM336.332 635.038H339.5C340.351 635.038 341.069 635.181 341.654 635.468C342.239 635.75 342.683 636.147 342.987 636.657C343.29 637.168 343.441 637.767 343.441 638.453C343.441 638.963 343.356 639.432 343.186 639.857C343.016 640.277 342.763 640.644 342.428 640.958C342.093 641.267 341.681 641.506 341.191 641.676C340.702 641.841 340.138 641.924 339.5 641.924H335.159V630.306H336.699V640.671H339.5C340.069 640.671 340.529 640.567 340.88 640.36C341.236 640.147 341.497 639.87 341.662 639.53C341.827 639.19 341.909 638.825 341.909 638.437C341.909 638.048 341.827 637.692 341.662 637.368C341.497 637.043 341.236 636.785 340.88 636.594C340.529 636.397 340.069 636.298 339.5 636.298H336.332V635.038ZM346.386 630.306V641.924H344.846V630.306H346.386ZM356.608 640.671V641.924H350.455V640.671H356.608ZM350.767 630.306V641.924H349.227V630.306H350.767ZM355.794 635.301V636.554H350.455V635.301H355.794ZM356.528 630.306V631.566H350.455V630.306H356.528ZM366.542 630.306V641.924H365.026V630.306H366.542ZM370.277 630.306V631.566H361.3V630.306H370.277ZM375.663 631.335L371.817 641.924H370.245L374.673 630.306H375.687L375.663 631.335ZM378.886 641.924L375.032 631.335L375.008 630.306H376.022L380.466 641.924H378.886ZM378.687 637.623V638.884H372.16V637.623H378.687ZM389.635 630.306V631.566H384.32V630.306H389.635ZM390.959 630.306V641.924H389.419V630.306H390.959ZM383.794 630.306H385.326L385.063 635.995C385.025 636.814 384.962 637.546 384.871 638.189C384.786 638.828 384.664 639.384 384.504 639.857C384.344 640.325 384.137 640.714 383.882 641.022C383.626 641.325 383.312 641.551 382.94 641.7C382.573 641.849 382.131 641.924 381.615 641.924H381.2V640.671L381.52 640.647C381.818 640.626 382.073 640.559 382.286 640.448C382.504 640.331 382.687 640.155 382.836 639.921C382.991 639.687 383.116 639.384 383.211 639.011C383.307 638.639 383.382 638.184 383.435 637.647C383.493 637.104 383.538 636.471 383.57 635.748L383.794 630.306ZM398.181 631.335L394.335 641.924H392.763L397.191 630.306H398.205L398.181 631.335ZM401.405 641.924L397.551 631.335L397.527 630.306H398.54L402.985 641.924H401.405ZM401.205 637.623V638.884H394.678V637.623H401.205ZM412.129 635.301V636.554H405.841V635.301H412.129ZM406.081 630.306V641.924H404.541V630.306H406.081ZM413.47 630.306V641.924H411.938V630.306H413.47ZM420.26 630.306V641.924H418.744V630.306H420.26ZM423.995 630.306V631.566H415.018V630.306H423.995ZM426.963 635.038H430.131C430.982 635.038 431.7 635.181 432.285 635.468C432.871 635.75 433.315 636.147 433.618 636.657C433.921 637.168 434.073 637.767 434.073 638.453C434.073 638.963 433.988 639.432 433.817 639.857C433.647 640.277 433.394 640.644 433.059 640.958C432.724 641.267 432.312 641.506 431.823 641.676C431.333 641.841 430.769 641.924 430.131 641.924H425.79V630.306H427.33V640.671H430.131C430.7 640.671 431.16 640.567 431.511 640.36C431.868 640.147 432.128 639.87 432.293 639.53C432.458 639.19 432.541 638.825 432.541 638.437C432.541 638.048 432.458 637.692 432.293 637.368C432.128 637.043 431.868 636.785 431.511 636.594C431.16 636.397 430.7 636.298 430.131 636.298H426.963V635.038ZM437.017 630.306V641.924H435.477V630.306H437.017ZM442.842 638.652H441.358C441.363 638.142 441.409 637.724 441.494 637.399C441.584 637.07 441.73 636.769 441.933 636.498C442.135 636.226 442.403 635.918 442.739 635.572C442.983 635.322 443.207 635.088 443.409 634.87C443.616 634.647 443.784 634.407 443.911 634.152C444.039 633.891 444.103 633.58 444.103 633.218C444.103 632.851 444.037 632.535 443.904 632.269C443.776 632.003 443.584 631.798 443.329 631.654C443.079 631.511 442.768 631.439 442.395 631.439C442.087 631.439 441.794 631.495 441.518 631.606C441.241 631.718 441.018 631.891 440.847 632.125C440.677 632.354 440.589 632.654 440.584 633.027H439.108C439.118 632.426 439.267 631.91 439.555 631.479C439.847 631.048 440.241 630.718 440.736 630.489C441.23 630.26 441.784 630.146 442.395 630.146C443.071 630.146 443.646 630.268 444.119 630.513C444.598 630.758 444.962 631.109 445.212 631.566C445.462 632.019 445.587 632.556 445.587 633.178C445.587 633.657 445.489 634.099 445.292 634.503C445.1 634.902 444.853 635.277 444.55 635.628C444.247 635.979 443.925 636.314 443.584 636.633C443.292 636.905 443.095 637.211 442.994 637.551C442.893 637.892 442.842 638.259 442.842 638.652ZM441.294 641.182C441.294 640.942 441.369 640.74 441.518 640.575C441.667 640.41 441.882 640.328 442.164 640.328C442.451 640.328 442.669 640.41 442.818 640.575C442.967 640.74 443.042 640.942 443.042 641.182C443.042 641.41 442.967 641.607 442.818 641.772C442.669 641.937 442.451 642.02 442.164 642.02C441.882 642.02 441.667 641.937 441.518 641.772C441.369 641.607 441.294 641.41 441.294 641.182Z" fill="white"/>
<path d="M48.3298 165.5V206.164H41.3477V165.5H48.3298ZM72.795 165.5L56.2614 188.681H46.3469L45.3973 182.593H52.3794L64.221 165.5H72.795ZM65.6453 206.164L52.4911 187.62L57.0155 182.23L74.0517 206.164H65.6453ZM93.3223 187.787H82.9609L82.905 182.676H91.9538C93.4805 182.676 94.7745 182.453 95.8358 182.006C96.9157 181.541 97.7349 180.88 98.2935 180.023C98.8521 179.148 99.1314 178.096 99.1314 176.867C99.1314 175.508 98.8707 174.4 98.3494 173.544C97.828 172.687 97.0274 172.064 95.9475 171.673C94.8863 171.282 93.5271 171.086 91.87 171.086H85.0834V206.164H78.0734V165.5H91.87C94.1043 165.5 96.0965 165.715 97.8467 166.143C99.6154 166.571 101.114 167.241 102.343 168.154C103.591 169.047 104.531 170.183 105.164 171.561C105.816 172.939 106.141 174.577 106.141 176.476C106.141 178.152 105.741 179.688 104.94 181.084C104.14 182.462 102.958 183.589 101.394 184.464C99.8296 185.339 97.8839 185.86 95.5565 186.028L93.3223 187.787ZM93.0151 206.164H80.7545L83.9104 200.606H93.0151C94.5977 200.606 95.9196 200.346 96.9809 199.824C98.0422 199.284 98.8335 198.549 99.3548 197.618C99.8947 196.668 100.165 195.561 100.165 194.295C100.165 192.973 99.932 191.828 99.4665 190.859C99.001 189.873 98.2656 189.118 97.2602 188.597C96.2547 188.057 94.9421 187.787 93.3223 187.787H85.4465L85.5023 182.676H95.752L97.3439 184.603C99.5782 184.678 101.412 185.171 102.846 186.084C104.298 186.996 105.378 188.178 106.086 189.631C106.793 191.083 107.147 192.647 107.147 194.322C107.147 196.91 106.579 199.08 105.443 200.83C104.326 202.58 102.715 203.911 100.612 204.824C98.5076 205.717 95.9755 206.164 93.0151 206.164ZM140.828 200.606V206.164H119.24V200.606H140.828ZM121.223 165.5V206.164H114.213V165.5H121.223ZM138.008 182.481V187.955H119.24V182.481H138.008ZM140.689 165.5V171.086H119.24V165.5H140.689ZM170.572 192.926H177.554C177.331 195.589 176.586 197.962 175.32 200.048C174.054 202.114 172.276 203.744 169.985 204.935C167.695 206.127 164.912 206.723 161.635 206.723C159.121 206.723 156.859 206.276 154.848 205.382C152.837 204.47 151.115 203.185 149.682 201.528C148.248 199.852 147.149 197.832 146.386 195.468C145.641 193.103 145.269 190.459 145.269 187.536V184.157C145.269 181.233 145.651 178.59 146.414 176.225C147.196 173.86 148.313 171.84 149.765 170.164C151.218 168.47 152.958 167.176 154.988 166.282C157.036 165.389 159.335 164.942 161.886 164.942C165.126 164.942 167.863 165.538 170.097 166.729C172.331 167.921 174.063 169.569 175.292 171.673C176.539 173.777 177.303 176.188 177.582 178.906H170.6C170.414 177.156 170.004 175.657 169.371 174.41C168.757 173.162 167.844 172.213 166.634 171.561C165.424 170.891 163.841 170.555 161.886 170.555C160.285 170.555 158.889 170.853 157.697 171.449C156.505 172.045 155.509 172.92 154.709 174.074C153.908 175.229 153.303 176.653 152.893 178.347C152.502 180.023 152.307 181.941 152.307 184.101V187.536C152.307 189.584 152.484 191.446 152.837 193.122C153.21 194.779 153.768 196.203 154.513 197.395C155.277 198.586 156.245 199.508 157.418 200.159C158.591 200.811 159.996 201.137 161.635 201.137C163.627 201.137 165.238 200.82 166.466 200.187C167.714 199.554 168.654 198.633 169.287 197.423C169.939 196.194 170.367 194.695 170.572 192.926ZM199.813 165.5V206.164H192.859V165.5H199.813ZM212.576 165.5V171.086H180.207V165.5H212.576Z" fill="white"/>
<path d="M157.717 233.32V273.983H150.735V238.905H132.665V273.983H125.683V233.32H157.717ZM198.576 252.534V254.769C198.576 257.841 198.176 260.596 197.375 263.036C196.575 265.475 195.43 267.551 193.94 269.264C192.469 270.976 190.7 272.289 188.634 273.201C186.567 274.095 184.277 274.542 181.763 274.542C179.269 274.542 176.988 274.095 174.921 273.201C172.873 272.289 171.095 270.976 169.587 269.264C168.079 267.551 166.906 265.475 166.068 263.036C165.249 260.596 164.839 257.841 164.839 254.769V252.534C164.839 249.462 165.249 246.716 166.068 244.296C166.887 241.857 168.041 239.781 169.531 238.068C171.039 236.336 172.817 235.023 174.865 234.13C176.932 233.217 179.213 232.761 181.708 232.761C184.221 232.761 186.511 233.217 188.578 234.13C190.645 235.023 192.423 236.336 193.912 238.068C195.402 239.781 196.547 241.857 197.347 244.296C198.167 246.716 198.576 249.462 198.576 252.534ZM191.566 254.769V252.479C191.566 250.207 191.343 248.206 190.896 246.474C190.468 244.724 189.825 243.262 188.969 242.089C188.131 240.898 187.098 240.004 185.869 239.408C184.64 238.794 183.253 238.487 181.708 238.487C180.162 238.487 178.784 238.794 177.574 239.408C176.364 240.004 175.331 240.898 174.474 242.089C173.636 243.262 172.994 244.724 172.547 246.474C172.1 248.206 171.877 250.207 171.877 252.479V254.769C171.877 257.04 172.1 259.051 172.547 260.801C172.994 262.551 173.646 264.032 174.502 265.242C175.377 266.433 176.42 267.336 177.63 267.951C178.84 268.547 180.218 268.845 181.763 268.845C183.327 268.845 184.715 268.547 185.925 267.951C187.135 267.336 188.159 266.433 188.997 265.242C189.835 264.032 190.468 262.551 190.896 260.801C191.343 259.051 191.566 257.04 191.566 254.769Z" fill="white"/>
<path d="M252.15 308.493V349.157H245.168V314.079H227.098V349.157H220.116V308.493H252.15ZM293.009 327.708V329.942C293.009 333.014 292.609 335.77 291.808 338.209C291.007 340.648 289.862 342.724 288.373 344.437C286.902 346.15 285.133 347.462 283.066 348.375C281 349.268 278.71 349.715 276.196 349.715C273.701 349.715 271.42 349.268 269.354 348.375C267.306 347.462 265.527 346.15 264.019 344.437C262.511 342.724 261.338 340.648 260.5 338.209C259.681 335.77 259.272 333.014 259.272 329.942V327.708C259.272 324.636 259.681 321.889 260.5 319.469C261.32 317.03 262.474 314.954 263.964 313.241C265.472 311.509 267.25 310.197 269.298 309.303C271.365 308.391 273.645 307.935 276.14 307.935C278.654 307.935 280.944 308.391 283.011 309.303C285.077 310.197 286.855 311.509 288.345 313.241C289.834 314.954 290.979 317.03 291.78 319.469C292.599 321.889 293.009 324.636 293.009 327.708ZM285.999 329.942V327.652C285.999 325.38 285.776 323.379 285.329 321.647C284.9 319.897 284.258 318.436 283.402 317.263C282.564 316.071 281.53 315.177 280.302 314.582C279.073 313.967 277.686 313.66 276.14 313.66C274.595 313.66 273.217 313.967 272.007 314.582C270.797 315.177 269.763 316.071 268.907 317.263C268.069 318.436 267.427 319.897 266.98 321.647C266.533 323.379 266.309 325.38 266.309 327.652V329.942C266.309 332.214 266.533 334.224 266.98 335.975C267.427 337.725 268.078 339.205 268.935 340.415C269.81 341.607 270.852 342.51 272.063 343.124C273.273 343.72 274.651 344.018 276.196 344.018C277.76 344.018 279.147 343.72 280.357 343.124C281.568 342.51 282.592 341.607 283.43 340.415C284.267 339.205 284.9 337.725 285.329 335.975C285.776 334.224 285.999 332.214 285.999 329.942ZM306.945 337.734L324.987 308.493H331.997V349.157H324.987V319.888L306.945 349.157H299.963V308.493H306.945V337.734ZM364.422 335.919H371.404C371.18 338.581 370.435 340.955 369.169 343.04C367.903 345.107 366.125 346.736 363.835 347.928C361.545 349.12 358.761 349.715 355.485 349.715C352.971 349.715 350.709 349.268 348.698 348.375C346.687 347.462 344.965 346.178 343.531 344.521C342.098 342.845 340.999 340.825 340.236 338.46C339.491 336.096 339.119 333.452 339.119 330.529V327.149C339.119 324.226 339.5 321.582 340.264 319.218C341.046 316.853 342.163 314.833 343.615 313.157C345.067 311.463 346.808 310.169 348.838 309.275C350.886 308.381 353.185 307.935 355.736 307.935C358.976 307.935 361.713 308.53 363.947 309.722C366.181 310.914 367.913 312.561 369.141 314.665C370.389 316.769 371.152 319.18 371.432 321.899H364.45C364.263 320.149 363.854 318.65 363.221 317.402C362.606 316.155 361.694 315.205 360.484 314.554C359.273 313.883 357.691 313.548 355.736 313.548C354.135 313.548 352.738 313.846 351.547 314.442C350.355 315.038 349.359 315.913 348.558 317.067C347.758 318.221 347.153 319.646 346.743 321.34C346.352 323.016 346.156 324.934 346.156 327.093V330.529C346.156 332.577 346.333 334.439 346.687 336.114C347.059 337.771 347.618 339.196 348.363 340.387C349.126 341.579 350.094 342.5 351.267 343.152C352.44 343.804 353.846 344.13 355.485 344.13C357.477 344.13 359.087 343.813 360.316 343.18C361.564 342.547 362.504 341.625 363.137 340.415C363.789 339.186 364.217 337.688 364.422 335.919ZM384.893 308.493V349.157H377.911V308.493H384.893ZM409.358 308.493L392.825 331.674H382.91L381.961 325.585H388.943L400.784 308.493H409.358ZM402.209 349.157L389.054 330.612L393.579 325.222L410.615 349.157H402.209ZM427.316 334.997L437.65 308.493H445.386L431.254 341.784C430.807 342.808 430.295 343.804 429.718 344.772C429.159 345.722 428.48 346.569 427.679 347.313C426.879 348.058 425.91 348.654 424.775 349.101C423.639 349.529 422.261 349.743 420.641 349.743C420.213 349.743 419.692 349.725 419.077 349.687C418.481 349.65 418.044 349.613 417.765 349.576L417.82 344.074C418.044 344.111 418.416 344.139 418.938 344.158C419.478 344.176 419.869 344.186 420.111 344.186C421.191 344.186 422.047 344.009 422.68 343.655C423.313 343.282 423.816 342.789 424.188 342.175C424.579 341.542 424.924 340.853 425.221 340.108L427.316 334.997ZM419.552 308.493L429.774 331.003L431.785 338.321L426.339 338.516L411.9 308.493H419.552Z" fill="white"/>
<path d="M74.356 399.613V401.847C74.356 404.919 73.9557 407.675 73.1551 410.114C72.3545 412.553 71.2094 414.629 69.7199 416.342C68.249 418.055 66.4802 419.367 64.4135 420.28C62.3468 421.173 60.0567 421.62 57.5432 421.62C55.0483 421.62 52.7674 421.173 50.7007 420.28C48.6527 419.367 46.8746 418.055 45.3664 416.342C43.8583 414.629 42.6853 412.553 41.8475 410.114C41.0282 407.675 40.6186 404.919 40.6186 401.847V399.613C40.6186 396.54 41.0282 393.794 41.8475 391.374C42.6667 388.935 43.8211 386.859 45.3106 385.146C46.8187 383.414 48.5968 382.102 50.6449 381.208C52.7116 380.296 54.9924 379.839 57.4873 379.839C60.0009 379.839 62.291 380.296 64.3577 381.208C66.4244 382.102 68.2025 383.414 69.692 385.146C71.1815 386.859 72.3266 388.935 73.1272 391.374C73.9464 393.794 74.356 396.54 74.356 399.613ZM67.346 401.847V399.557C67.346 397.285 67.1226 395.284 66.6757 393.552C66.2475 391.802 65.6051 390.34 64.7487 389.167C63.9108 387.976 62.8775 387.082 61.6486 386.486C60.4198 385.872 59.0327 385.565 57.4873 385.565C55.942 385.565 54.5642 385.872 53.3539 386.486C52.1437 387.082 51.1104 387.976 50.2539 389.167C49.416 390.34 48.7737 391.802 48.3268 393.552C47.88 395.284 47.6566 397.285 47.6566 399.557V401.847C47.6566 404.118 47.88 406.129 48.3268 407.879C48.7737 409.63 49.4254 411.11 50.2818 412.32C51.1569 413.512 52.1996 414.415 53.4098 415.029C54.62 415.625 55.9978 415.923 57.5432 415.923C59.1072 415.923 60.4943 415.625 61.7045 415.029C62.9147 414.415 63.9388 413.512 64.7766 412.32C65.6145 411.11 66.2475 409.63 66.6757 407.879C67.1226 406.129 67.346 404.118 67.346 401.847ZM96.6986 380.398V421.062H89.7445V380.398H96.6986ZM109.462 380.398V385.984H77.093V380.398H109.462ZM130.073 402.685H119.712L119.656 397.574H128.704C130.231 397.574 131.525 397.35 132.587 396.904C133.666 396.438 134.486 395.777 135.044 394.921C135.603 394.046 135.882 392.994 135.882 391.765C135.882 390.406 135.621 389.298 135.1 388.441C134.579 387.585 133.778 386.961 132.698 386.57C131.637 386.179 130.278 385.984 128.621 385.984H121.834V421.062H114.824V380.398H128.621C130.855 380.398 132.847 380.612 134.597 381.04C136.366 381.469 137.865 382.139 139.094 383.051C140.341 383.945 141.282 385.081 141.915 386.458C142.566 387.836 142.892 389.475 142.892 391.374C142.892 393.049 142.492 394.586 141.691 395.982C140.891 397.36 139.708 398.486 138.144 399.361C136.58 400.236 134.635 400.758 132.307 400.925L130.073 402.685ZM129.766 421.062H117.505L120.661 415.504H129.766C131.348 415.504 132.67 415.243 133.732 414.722C134.793 414.182 135.584 413.446 136.105 412.515C136.645 411.566 136.915 410.458 136.915 409.192C136.915 407.87 136.683 406.725 136.217 405.757C135.752 404.77 135.016 404.016 134.011 403.495C133.005 402.955 131.693 402.685 130.073 402.685H122.197L122.253 397.574H132.503L134.095 399.501C136.329 399.575 138.163 400.069 139.597 400.981C141.049 401.893 142.129 403.076 142.836 404.528C143.544 405.98 143.897 407.544 143.897 409.22C143.897 411.808 143.33 413.977 142.194 415.727C141.077 417.477 139.466 418.809 137.362 419.721C135.258 420.615 132.726 421.062 129.766 421.062ZM177.579 415.504V421.062H155.99V415.504H177.579ZM157.973 380.398V421.062H150.963V380.398H157.973ZM174.758 397.378V402.852H155.99V397.378H174.758ZM177.439 380.398V385.984H155.99V380.398H177.439ZM200.592 380.398V421.062H193.638V380.398H200.592ZM213.355 380.398V385.984H180.986V380.398H213.355ZM250.36 399.613V401.847C250.36 404.919 249.96 407.675 249.159 410.114C248.359 412.553 247.214 414.629 245.724 416.342C244.253 418.055 242.484 419.367 240.418 420.28C238.351 421.173 236.061 421.62 233.547 421.62C231.052 421.62 228.772 421.173 226.705 420.28C224.657 419.367 222.879 418.055 221.371 416.342C219.862 414.629 218.689 412.553 217.852 410.114C217.032 407.675 216.623 404.919 216.623 401.847V399.613C216.623 396.54 217.032 393.794 217.852 391.374C218.671 388.935 219.825 386.859 221.315 385.146C222.823 383.414 224.601 382.102 226.649 381.208C228.716 380.296 230.997 379.839 233.491 379.839C236.005 379.839 238.295 380.296 240.362 381.208C242.429 382.102 244.207 383.414 245.696 385.146C247.186 386.859 248.331 388.935 249.131 391.374C249.951 393.794 250.36 396.54 250.36 399.613ZM243.35 401.847V399.557C243.35 397.285 243.127 395.284 242.68 393.552C242.252 391.802 241.609 390.34 240.753 389.167C239.915 387.976 238.882 387.082 237.653 386.486C236.424 385.872 235.037 385.565 233.491 385.565C231.946 385.565 230.568 385.872 229.358 386.486C228.148 387.082 227.114 387.976 226.258 389.167C225.42 390.34 224.778 391.802 224.331 393.552C223.884 395.284 223.661 397.285 223.661 399.557V401.847C223.661 404.118 223.884 406.129 224.331 407.879C224.778 409.63 225.429 411.11 226.286 412.32C227.161 413.512 228.204 414.415 229.414 415.029C230.624 415.625 232.002 415.923 233.547 415.923C235.111 415.923 236.498 415.625 237.709 415.029C238.919 414.415 239.943 413.512 240.781 412.32C241.619 411.11 242.252 409.63 242.68 407.879C243.127 406.129 243.35 404.118 243.35 401.847ZM272.619 402.685H262.258L262.202 397.574H271.251C272.777 397.574 274.071 397.35 275.133 396.904C276.212 396.438 277.032 395.777 277.59 394.921C278.149 394.046 278.428 392.994 278.428 391.765C278.428 390.406 278.167 389.298 277.646 388.441C277.125 387.585 276.324 386.961 275.244 386.57C274.183 386.179 272.824 385.984 271.167 385.984H264.38V421.062H257.37V380.398H271.167C273.401 380.398 275.393 380.612 277.143 381.04C278.912 381.469 280.411 382.139 281.64 383.051C282.887 383.945 283.828 385.081 284.461 386.458C285.112 387.836 285.438 389.475 285.438 391.374C285.438 393.049 285.038 394.586 284.237 395.982C283.437 397.36 282.254 398.486 280.69 399.361C279.126 400.236 277.181 400.758 274.853 400.925L272.619 402.685ZM272.312 421.062H260.051L263.207 415.504H272.312C273.894 415.504 275.216 415.243 276.278 414.722C277.339 414.182 278.13 413.446 278.652 412.515C279.191 411.566 279.461 410.458 279.461 409.192C279.461 407.87 279.229 406.725 278.763 405.757C278.298 404.77 277.562 404.016 276.557 403.495C275.551 402.955 274.239 402.685 272.619 402.685H264.743L264.799 397.574H275.049L276.641 399.501C278.875 399.575 280.709 400.069 282.143 400.981C283.595 401.893 284.675 403.076 285.382 404.528C286.09 405.98 286.443 407.544 286.443 409.22C286.443 411.808 285.876 413.977 284.74 415.727C283.623 417.477 282.012 418.809 279.908 419.721C277.804 420.615 275.272 421.062 272.312 421.062Z" fill="white"/>
<path d="M371.061 41.7218V53.4038H369.585V43.5651L366.609 44.6503V43.3177L370.83 41.7218H371.061ZM380.254 41.7218V53.4038H378.777V43.5651L375.801 44.6503V43.3177L380.022 41.7218H380.254ZM384.778 52.6218C384.778 52.3718 384.855 52.1617 385.009 51.9914C385.169 51.8159 385.398 51.7281 385.696 51.7281C385.994 51.7281 386.22 51.8159 386.374 51.9914C386.533 52.1617 386.613 52.3718 386.613 52.6218C386.613 52.8665 386.533 53.074 386.374 53.2442C386.22 53.4144 385.994 53.4996 385.696 53.4996C385.398 53.4996 385.169 53.4144 385.009 53.2442C384.855 53.074 384.778 52.8665 384.778 52.6218ZM393.755 41.7218V53.4038H392.279V43.5651L389.302 44.6503V43.3177L393.524 41.7218H393.755ZM405.708 52.1909V53.4038H398.104V52.3425L401.91 48.1054C402.378 47.5841 402.74 47.1426 402.995 46.7808C403.256 46.4138 403.437 46.0866 403.538 45.7993C403.644 45.5068 403.697 45.2088 403.697 44.9056C403.697 44.5226 403.618 44.1768 403.458 43.8683C403.304 43.5544 403.075 43.3044 402.772 43.1182C402.469 42.932 402.102 42.8389 401.671 42.8389C401.155 42.8389 400.724 42.94 400.378 43.1422C400.037 43.339 399.782 43.6156 399.612 43.972C399.442 44.3284 399.357 44.7381 399.357 45.2009H397.88C397.88 44.5465 398.024 43.9481 398.311 43.4055C398.599 42.8629 399.024 42.432 399.588 42.1128C400.152 41.7883 400.846 41.626 401.671 41.626C402.405 41.626 403.032 41.7564 403.554 42.017C404.075 42.2724 404.474 42.6341 404.751 43.1023C405.033 43.5651 405.174 44.1077 405.174 44.7301C405.174 45.0705 405.115 45.4163 404.998 45.7674C404.886 46.1132 404.729 46.459 404.527 46.8048C404.33 47.1505 404.099 47.491 403.833 47.8261C403.572 48.1613 403.293 48.4911 402.995 48.8156L399.883 52.1909H405.708ZM407.472 52.6218C407.472 52.3718 407.549 52.1617 407.703 51.9914C407.863 51.8159 408.091 51.7281 408.389 51.7281C408.687 51.7281 408.913 51.8159 409.068 51.9914C409.227 52.1617 409.307 52.3718 409.307 52.6218C409.307 52.8665 409.227 53.074 409.068 53.2442C408.913 53.4144 408.687 53.4996 408.389 53.4996C408.091 53.4996 407.863 53.4144 407.703 53.2442C407.549 53.074 407.472 52.8665 407.472 52.6218ZM419.21 52.1909V53.4038H411.605V52.3425L415.411 48.1054C415.879 47.5841 416.241 47.1426 416.497 46.7808C416.757 46.4138 416.938 46.0866 417.039 45.7993C417.146 45.5068 417.199 45.2088 417.199 44.9056C417.199 44.5226 417.119 44.1768 416.959 43.8683C416.805 43.5544 416.576 43.3044 416.273 43.1182C415.97 42.932 415.603 42.8389 415.172 42.8389C414.656 42.8389 414.225 42.94 413.879 43.1422C413.539 43.339 413.283 43.6156 413.113 43.972C412.943 44.3284 412.858 44.7381 412.858 45.2009H411.382C411.382 44.5465 411.525 43.9481 411.813 43.4055C412.1 42.8629 412.525 42.432 413.089 42.1128C413.653 41.7883 414.347 41.626 415.172 41.626C415.906 41.626 416.534 41.7564 417.055 42.017C417.576 42.2724 417.975 42.6341 418.252 43.1023C418.534 43.5651 418.675 44.1077 418.675 44.7301C418.675 45.0705 418.616 45.4163 418.499 45.7674C418.388 46.1132 418.231 46.459 418.029 46.8048C417.832 47.1505 417.6 47.491 417.334 47.8261C417.074 48.1613 416.794 48.4911 416.497 48.8156L413.385 52.1909H419.21ZM428.083 46.6691V48.4406C428.083 49.3928 427.998 50.196 427.827 50.8504C427.657 51.5047 427.413 52.0313 427.093 52.4303C426.774 52.8293 426.388 53.1192 425.936 53.3001C425.489 53.4756 424.984 53.5634 424.42 53.5634C423.973 53.5634 423.561 53.5075 423.183 53.3958C422.806 53.2841 422.465 53.1059 422.162 52.8612C421.864 52.6112 421.609 52.2867 421.396 51.8877C421.183 51.4887 421.021 51.0046 420.909 50.4354C420.798 49.8662 420.742 49.2013 420.742 48.4406V46.6691C420.742 45.7169 420.827 44.9189 420.997 44.2752C421.173 43.6316 421.42 43.1156 421.739 42.7272C422.058 42.3336 422.441 42.0516 422.888 41.8814C423.34 41.7112 423.846 41.626 424.404 41.626C424.856 41.626 425.271 41.6819 425.649 41.7936C426.032 41.9 426.373 42.0729 426.67 42.3123C426.968 42.5464 427.221 42.8602 427.428 43.2539C427.641 43.6422 427.804 44.1183 427.915 44.6822C428.027 45.2461 428.083 45.9084 428.083 46.6691ZM426.599 48.6799V46.4217C426.599 45.9004 426.567 45.4429 426.503 45.0493C426.444 44.6503 426.357 44.3098 426.24 44.0279C426.123 43.7459 425.974 43.5172 425.793 43.3416C425.617 43.1661 425.412 43.0384 425.178 42.9586C424.95 42.8735 424.692 42.831 424.404 42.831C424.053 42.831 423.742 42.8974 423.471 43.0304C423.199 43.1581 422.971 43.3629 422.784 43.6449C422.604 43.9268 422.465 44.2965 422.369 44.754C422.274 45.2115 422.226 45.7674 422.226 46.4217V48.6799C422.226 49.2013 422.255 49.6614 422.314 50.0604C422.377 50.4594 422.471 50.8051 422.593 51.0977C422.715 51.385 422.864 51.6217 423.04 51.8079C423.215 51.9941 423.417 52.1324 423.646 52.2228C423.88 52.308 424.138 52.3505 424.42 52.3505C424.782 52.3505 425.098 52.2814 425.37 52.143C425.641 52.0047 425.867 51.7893 426.048 51.4967C426.234 51.1988 426.373 50.8184 426.463 50.3556C426.553 49.8875 426.599 49.3289 426.599 48.6799ZM437.594 52.1909V53.4038H429.99V52.3425L433.796 48.1054C434.264 47.5841 434.626 47.1426 434.881 46.7808C435.142 46.4138 435.323 46.0866 435.424 45.7993C435.53 45.5068 435.584 45.2088 435.584 44.9056C435.584 44.5226 435.504 44.1768 435.344 43.8683C435.19 43.5544 434.961 43.3044 434.658 43.1182C434.355 42.932 433.988 42.8389 433.557 42.8389C433.041 42.8389 432.61 42.94 432.264 43.1422C431.924 43.339 431.668 43.6156 431.498 43.972C431.328 44.3284 431.243 44.7381 431.243 45.2009H429.766C429.766 44.5465 429.91 43.9481 430.197 43.4055C430.485 42.8629 430.91 42.432 431.474 42.1128C432.038 41.7883 432.732 41.626 433.557 41.626C434.291 41.626 434.919 41.7564 435.44 42.017C435.961 42.2724 436.36 42.6341 436.637 43.1023C436.919 43.5651 437.06 44.1077 437.06 44.7301C437.06 45.0705 437.001 45.4163 436.884 45.7674C436.772 46.1132 436.616 46.459 436.413 46.8048C436.217 47.1505 435.985 47.491 435.719 47.8261C435.459 48.1613 435.179 48.4911 434.881 48.8156L431.769 52.1909H437.594ZM441.329 46.8686H442.382C442.898 46.8686 443.324 46.7835 443.659 46.6132C443.999 46.4377 444.252 46.201 444.417 45.9031C444.587 45.5998 444.672 45.2594 444.672 44.8817C444.672 44.4348 444.598 44.0598 444.449 43.7566C444.3 43.4534 444.076 43.2246 443.779 43.0703C443.481 42.9161 443.103 42.8389 442.645 42.8389C442.23 42.8389 441.863 42.9214 441.544 43.0863C441.23 43.2459 440.983 43.4746 440.802 43.7725C440.627 44.0704 440.539 44.4215 440.539 44.8258H439.063C439.063 44.2353 439.212 43.6981 439.509 43.214C439.807 42.7299 440.225 42.3442 440.762 42.0569C441.305 41.7697 441.933 41.626 442.645 41.626C443.348 41.626 443.962 41.7511 444.489 42.0011C445.015 42.2458 445.425 42.6128 445.718 43.1023C446.01 43.5863 446.156 44.1901 446.156 44.9136C446.156 45.2062 446.087 45.52 445.949 45.8552C445.816 46.185 445.606 46.4936 445.319 46.7808C445.037 47.0681 444.67 47.3048 444.217 47.491C443.765 47.6719 443.223 47.7623 442.59 47.7623H441.329V46.8686ZM441.329 48.0815V47.1957H442.59C443.329 47.1957 443.941 47.2835 444.425 47.4591C444.909 47.6346 445.289 47.8687 445.566 48.1613C445.848 48.4539 446.045 48.7757 446.156 49.1268C446.273 49.4726 446.332 49.8183 446.332 50.1641C446.332 50.7067 446.239 51.1882 446.053 51.6084C445.872 52.0287 445.614 52.3851 445.279 52.6777C444.949 52.9703 444.561 53.191 444.114 53.34C443.667 53.4889 443.18 53.5634 442.653 53.5634C442.148 53.5634 441.672 53.4916 441.225 53.348C440.784 53.2043 440.393 52.9969 440.052 52.7255C439.712 52.4489 439.446 52.1111 439.254 51.7122C439.063 51.3079 438.967 50.8477 438.967 50.3317H440.443C440.443 50.736 440.531 51.0897 440.706 51.393C440.887 51.6962 441.143 51.9329 441.472 52.1031C441.808 52.2681 442.201 52.3505 442.653 52.3505C443.106 52.3505 443.494 52.2734 443.818 52.1191C444.148 51.9595 444.401 51.7201 444.576 51.401C444.757 51.0818 444.848 50.6801 444.848 50.196C444.848 49.712 444.747 49.3156 444.545 49.0071C444.342 48.6932 444.055 48.4618 443.683 48.3129C443.316 48.1586 442.882 48.0815 442.382 48.0815H441.329Z" fill="white"/>
<path d="M48.5921 611.306V612.566H42.9905V622.924H41.4584V611.306H48.5921ZM47.1718 622.142C47.1718 621.892 47.2489 621.682 47.4032 621.511C47.5628 621.336 47.7915 621.248 48.0894 621.248C48.3873 621.248 48.6134 621.336 48.7677 621.511C48.9273 621.682 49.0071 621.892 49.0071 622.142C49.0071 622.387 48.9273 622.594 48.7677 622.764C48.6134 622.934 48.3873 623.02 48.0894 623.02C47.7915 623.02 47.5628 622.934 47.4032 622.764C47.2489 622.594 47.1718 622.387 47.1718 622.142ZM56.2205 611.306H57.7127L61.5189 620.777L65.3172 611.306H66.8173L62.0935 622.924H60.9285L56.2205 611.306ZM55.7338 611.306H57.0504L57.2659 618.391V622.924H55.7338V611.306ZM65.9795 611.306H67.2961V622.924H65.764V618.391L65.9795 611.306ZM78.9462 616.748V617.482C78.9462 618.354 78.8371 619.136 78.619 619.828C78.4009 620.519 78.0871 621.107 77.6774 621.591C77.2678 622.075 76.7758 622.445 76.2012 622.7C75.632 622.956 74.9937 623.083 74.2862 623.083C73.5999 623.083 72.9695 622.956 72.395 622.7C71.8258 622.445 71.3311 622.075 70.9108 621.591C70.4959 621.107 70.174 620.519 69.9453 619.828C69.7166 619.136 69.6022 618.354 69.6022 617.482V616.748C69.6022 615.875 69.7139 615.096 69.9373 614.41C70.1661 613.718 70.4879 613.13 70.9028 612.646C71.3178 612.157 71.8098 611.784 72.3791 611.529C72.9536 611.274 73.584 611.146 74.2702 611.146C74.9777 611.146 75.6161 611.274 76.1853 611.529C76.7598 611.784 77.2519 612.157 77.6615 612.646C78.0764 613.13 78.3929 613.718 78.6111 614.41C78.8345 615.096 78.9462 615.875 78.9462 616.748ZM77.4221 617.482V616.732C77.4221 616.04 77.3503 615.428 77.2067 614.896C77.0683 614.364 76.8635 613.918 76.5922 613.556C76.3209 613.194 75.9885 612.92 75.5948 612.734C75.2065 612.548 74.7649 612.455 74.2702 612.455C73.7914 612.455 73.3579 612.548 72.9695 612.734C72.5865 612.92 72.2567 613.194 71.9801 613.556C71.7088 613.918 71.4986 614.364 71.3497 614.896C71.2007 615.428 71.1263 616.04 71.1263 616.732V617.482C71.1263 618.179 71.2007 618.796 71.3497 619.333C71.4986 619.865 71.7114 620.315 71.9881 620.682C72.27 621.043 72.6025 621.317 72.9855 621.503C73.3738 621.69 73.8074 621.783 74.2862 621.783C74.7862 621.783 75.2304 621.69 75.6187 621.503C76.0071 621.317 76.3342 621.043 76.6002 620.682C76.8715 620.315 77.0763 619.865 77.2146 619.333C77.3529 618.796 77.4221 618.179 77.4221 617.482ZM88.2663 619.229H89.7983C89.7185 619.963 89.5084 620.62 89.1679 621.2C88.8275 621.78 88.3461 622.24 87.7237 622.581C87.1013 622.916 86.3246 623.083 85.3936 623.083C84.7127 623.083 84.093 622.956 83.5344 622.7C82.9812 622.445 82.5051 622.083 82.1061 621.615C81.7071 621.142 81.3986 620.575 81.1805 619.916C80.9677 619.251 80.8613 618.511 80.8613 617.697V616.54C80.8613 615.726 80.9677 614.99 81.1805 614.33C81.3986 613.665 81.7098 613.096 82.1141 612.622C82.5237 612.149 83.0157 611.784 83.5903 611.529C84.1648 611.274 84.8111 611.146 85.5293 611.146C86.407 611.146 87.1491 611.311 87.7556 611.641C88.362 611.971 88.8328 612.428 89.1679 613.013C89.5084 613.593 89.7185 614.266 89.7983 615.032H88.2663C88.1918 614.489 88.0535 614.024 87.8513 613.636C87.6492 613.242 87.3619 612.939 86.9895 612.726C86.6172 612.513 86.1304 612.407 85.5293 612.407C85.0133 612.407 84.5584 612.505 84.1648 612.702C83.7765 612.899 83.4493 613.178 83.1833 613.54C82.9226 613.902 82.7258 614.335 82.5928 614.841C82.4598 615.346 82.3933 615.907 82.3933 616.524V617.697C82.3933 618.266 82.4519 618.801 82.5689 619.301C82.6912 619.801 82.8748 620.24 83.1195 620.618C83.3642 620.995 83.6754 621.293 84.0531 621.511C84.4308 621.724 84.8776 621.831 85.3936 621.831C86.048 621.831 86.5693 621.727 86.9576 621.519C87.346 621.312 87.6385 621.014 87.8354 620.626C88.0375 620.237 88.1811 619.772 88.2663 619.229ZM93.5088 611.306V622.924H91.9688V611.306H93.5088ZM100.666 611.306L95.6234 617.697H92.8944L92.655 616.421H94.7057L98.7593 611.306H100.666ZM99.1184 622.924L94.7536 617.498L95.6154 616.149L101.002 622.924H99.1184ZM106.539 617.49H103.595L103.579 616.253H106.252C106.694 616.253 107.079 616.178 107.409 616.03C107.739 615.881 107.994 615.668 108.175 615.391C108.361 615.109 108.454 614.774 108.454 614.386C108.454 613.96 108.372 613.614 108.207 613.348C108.047 613.077 107.8 612.88 107.465 612.758C107.135 612.63 106.715 612.566 106.204 612.566H103.938V622.924H102.398V611.306H106.204C106.8 611.306 107.332 611.367 107.8 611.489C108.268 611.606 108.665 611.792 108.989 612.048C109.319 612.298 109.569 612.617 109.739 613.005C109.909 613.394 109.994 613.859 109.994 614.402C109.994 614.88 109.872 615.314 109.627 615.702C109.383 616.085 109.042 616.399 108.606 616.644C108.175 616.889 107.67 617.046 107.09 617.115L106.539 617.49ZM106.468 622.924H102.988L103.858 621.671H106.468C106.957 621.671 107.372 621.586 107.712 621.416C108.058 621.245 108.321 621.006 108.502 620.698C108.683 620.384 108.774 620.014 108.774 619.588C108.774 619.157 108.696 618.785 108.542 618.471C108.388 618.157 108.146 617.915 107.816 617.745C107.486 617.575 107.061 617.49 106.539 617.49H104.345L104.361 616.253H107.361L107.688 616.7C108.247 616.748 108.72 616.907 109.109 617.179C109.497 617.445 109.792 617.785 109.994 618.2C110.202 618.615 110.306 619.072 110.306 619.572C110.306 620.296 110.146 620.908 109.827 621.408C109.513 621.902 109.069 622.28 108.494 622.541C107.92 622.796 107.244 622.924 106.468 622.924ZM116.881 612.335L113.035 622.924H111.463L115.891 611.306H116.905L116.881 612.335ZM120.105 622.924L116.25 612.335L116.226 611.306H117.24L121.684 622.924H120.105ZM119.905 618.623V619.884H113.378V618.623H119.905ZM44.9854 638.07L48.0575 630.306H49.8289L45.7195 639.985C45.6025 640.256 45.4721 640.519 45.3285 640.775C45.1849 641.025 45.0093 641.248 44.8019 641.445C44.5944 641.642 44.3364 641.799 44.0278 641.916C43.7246 642.033 43.3469 642.091 42.8948 642.091C42.7671 642.091 42.6155 642.083 42.4399 642.067C42.2644 642.057 42.15 642.044 42.0968 642.028L42.1447 640.799C42.2032 640.809 42.3176 640.82 42.4878 640.831C42.658 640.836 42.783 640.839 42.8628 640.839C43.1661 640.839 43.4054 640.777 43.581 640.655C43.7565 640.533 43.8975 640.378 44.0039 640.192C44.1156 640.001 44.2167 639.807 44.3071 639.61L44.9854 638.07ZM42.3761 630.306L45.6078 637.543L45.9908 638.971L44.6981 639.067L40.6525 630.306H42.3761ZM58.7022 630.306V631.566H53.3878V630.306H58.7022ZM60.0268 630.306V641.924H58.4867V630.306H60.0268ZM52.8612 630.306H54.3932L54.1299 635.995C54.0927 636.814 54.0288 637.546 53.9384 638.189C53.8533 638.828 53.7309 639.384 53.5713 639.857C53.4117 640.325 53.2043 640.714 52.9489 641.022C52.6936 641.325 52.3797 641.551 52.0074 641.7C51.6403 641.849 51.1988 641.924 50.6828 641.924H50.2678V640.671L50.587 640.647C50.8849 640.626 51.1402 640.559 51.353 640.448C51.5711 640.331 51.7547 640.155 51.9036 639.921C52.0579 639.687 52.1829 639.384 52.2787 639.011C52.3744 638.639 52.4489 638.184 52.5021 637.647C52.5606 637.104 52.6058 636.471 52.6377 635.748L52.8612 630.306ZM62.6041 641.142C62.6041 640.892 62.6813 640.682 62.8356 640.511C62.9951 640.336 63.2239 640.248 63.5218 640.248C63.8197 640.248 64.0458 640.336 64.2001 640.511C64.3596 640.682 64.4394 640.892 64.4394 641.142C64.4394 641.387 64.3596 641.594 64.2001 641.764C64.0458 641.934 63.8197 642.02 63.5218 642.02C63.2239 642.02 62.9951 641.934 62.8356 641.764C62.6813 641.594 62.6041 641.387 62.6041 641.142ZM75.4671 631.335L71.621 641.924H70.049L74.4777 630.306H75.4911L75.4671 631.335ZM78.6908 641.924L74.8367 631.335L74.8128 630.306H75.8262L80.2708 641.924H78.6908ZM78.4914 637.623V638.884H71.9641V637.623H78.4914ZM86.1118 637.368H83.0078V636.115H86.1118C86.7129 636.115 87.1997 636.019 87.572 635.827C87.9444 635.636 88.2157 635.37 88.386 635.03C88.5615 634.689 88.6493 634.301 88.6493 633.865C88.6493 633.466 88.5615 633.091 88.386 632.739C88.2157 632.388 87.9444 632.106 87.572 631.894C87.1997 631.675 86.7129 631.566 86.1118 631.566H83.3668V641.924H81.8268V630.306H86.1118C86.9895 630.306 87.7316 630.457 88.3381 630.76C88.9445 631.064 89.4047 631.484 89.7185 632.021C90.0324 632.553 90.1893 633.162 90.1893 633.849C90.1893 634.593 90.0324 635.229 89.7185 635.756C89.4047 636.282 88.9445 636.684 88.3381 636.961C87.7316 637.232 86.9895 637.368 86.1118 637.368ZM99.2221 630.306V631.566H93.6205V641.924H92.0884V630.306H99.2221ZM93.2614 635.038H96.4293C97.2805 635.038 97.9986 635.181 98.5838 635.468C99.1689 635.75 99.6131 636.147 99.9164 636.657C100.22 637.168 100.371 637.767 100.371 638.453C100.371 638.963 100.286 639.432 100.116 639.857C99.9456 640.277 99.6929 640.644 99.3578 640.958C99.0226 641.267 98.6104 641.506 98.121 641.676C97.6316 641.841 97.0677 641.924 96.4293 641.924H92.0884V630.306H93.6285V640.671H96.4293C96.9985 640.671 97.4587 640.567 97.8098 640.36C98.1662 640.147 98.4268 639.87 98.5918 639.53C98.7567 639.19 98.8391 638.825 98.8391 638.437C98.8391 638.048 98.7567 637.692 98.5918 637.368C98.4268 637.043 98.1662 636.785 97.8098 636.594C97.4587 636.397 96.9985 636.298 96.4293 636.298H93.2614V635.038ZM106.747 631.335L102.901 641.924H101.329L105.757 630.306H106.771L106.747 631.335ZM109.971 641.924L106.116 631.335L106.092 630.306H107.106L111.55 641.924H109.971ZM109.771 637.623V638.884H103.244V637.623H109.771ZM116.362 630.306V641.924H114.846V630.306H116.362ZM120.097 630.306V631.566H111.12V630.306H120.097ZM121.198 640.168V641.357C121.198 641.841 121.075 642.352 120.831 642.889C120.586 643.432 120.243 643.884 119.801 644.246L118.963 643.663C119.134 643.429 119.277 643.19 119.394 642.945C119.511 642.706 119.599 642.456 119.658 642.195C119.722 641.94 119.753 641.668 119.753 641.381V640.168H121.198ZM134.587 640.711V641.924H126.983V640.863L130.789 636.625C131.257 636.104 131.619 635.663 131.874 635.301C132.135 634.934 132.316 634.607 132.417 634.319C132.523 634.027 132.577 633.729 132.577 633.426C132.577 633.043 132.497 632.697 132.337 632.388C132.183 632.074 131.954 631.824 131.651 631.638C131.348 631.452 130.981 631.359 130.55 631.359C130.034 631.359 129.603 631.46 129.257 631.662C128.917 631.859 128.661 632.136 128.491 632.492C128.321 632.848 128.236 633.258 128.236 633.721H126.759C126.759 633.067 126.903 632.468 127.19 631.925C127.478 631.383 127.903 630.952 128.467 630.633C129.031 630.308 129.725 630.146 130.55 630.146C131.284 630.146 131.912 630.276 132.433 630.537C132.954 630.792 133.353 631.154 133.63 631.622C133.912 632.085 134.053 632.628 134.053 633.25C134.053 633.591 133.994 633.936 133.877 634.287C133.765 634.633 133.609 634.979 133.406 635.325C133.21 635.671 132.978 636.011 132.712 636.346C132.451 636.681 132.172 637.011 131.874 637.336L128.762 640.711H134.587ZM138.162 630.306V641.924H136.622V630.306H138.162ZM145.32 630.306L140.277 636.697H137.548L137.308 635.421H139.359L143.413 630.306H145.32ZM143.772 641.924L139.407 636.498L140.269 635.149L145.655 641.924H143.772ZM148.823 635.389H149.876C150.392 635.389 150.818 635.303 151.153 635.133C151.493 634.958 151.746 634.721 151.911 634.423C152.081 634.12 152.166 633.779 152.166 633.402C152.166 632.955 152.092 632.58 151.943 632.277C151.794 631.973 151.57 631.745 151.272 631.59C150.975 631.436 150.597 631.359 150.139 631.359C149.724 631.359 149.357 631.441 149.038 631.606C148.724 631.766 148.477 631.995 148.296 632.293C148.121 632.59 148.033 632.942 148.033 633.346H146.557C146.557 632.755 146.706 632.218 147.003 631.734C147.301 631.25 147.719 630.864 148.256 630.577C148.799 630.29 149.427 630.146 150.139 630.146C150.842 630.146 151.456 630.271 151.983 630.521C152.509 630.766 152.919 631.133 153.212 631.622C153.504 632.106 153.65 632.71 153.65 633.434C153.65 633.726 153.581 634.04 153.443 634.375C153.31 634.705 153.1 635.014 152.813 635.301C152.531 635.588 152.164 635.825 151.711 636.011C151.259 636.192 150.717 636.282 150.084 636.282H148.823V635.389ZM148.823 636.601V635.716H150.084C150.823 635.716 151.435 635.804 151.919 635.979C152.403 636.155 152.783 636.389 153.06 636.681C153.342 636.974 153.539 637.296 153.65 637.647C153.767 637.993 153.826 638.338 153.826 638.684C153.826 639.227 153.733 639.708 153.547 640.128C153.366 640.549 153.108 640.905 152.773 641.198C152.443 641.49 152.054 641.711 151.608 641.86C151.161 642.009 150.674 642.083 150.147 642.083C149.642 642.083 149.166 642.012 148.719 641.868C148.278 641.724 147.887 641.517 147.546 641.246C147.206 640.969 146.94 640.631 146.748 640.232C146.557 639.828 146.461 639.368 146.461 638.852H147.937C147.937 639.256 148.025 639.61 148.2 639.913C148.381 640.216 148.637 640.453 148.966 640.623C149.302 640.788 149.695 640.871 150.147 640.871C150.6 640.871 150.988 640.793 151.312 640.639C151.642 640.48 151.895 640.24 152.07 639.921C152.251 639.602 152.342 639.2 152.342 638.716C152.342 638.232 152.241 637.836 152.039 637.527C151.836 637.213 151.549 636.982 151.177 636.833C150.81 636.679 150.376 636.601 149.876 636.601H148.823Z" fill="white"/>
<path d="M327.249 26.9644L53.1113 191.202L195.287 319.895L53.1113 449.406L218.983 646.328L253.71 471.876L377.092 417.131L462.071 197.739H364.836L327.249 26.9644Z" stroke="white" stroke-width="2.45131"/>
</g>
<defs>
<clipPath id="clip0_57_560">
<rect width="486.176" height="688" fill="white"/>
</clipPath>
</defs>
</svg>
