<svg width="487" height="688" viewBox="0 0 487 688" fill="none" xmlns="http://www.w3.org/2000/svg">
<rect width="486.176" height="688" fill="white"/>
<path d="M41.1952 434.985C36.6066 529.181 78.1902 612.757 168.399 640.255C290.367 677.434 556.406 565.56 394.671 404.869C348.569 359.064 500.531 274.299 336.023 249.133C171.515 223.967 47.8176 299.042 41.1952 434.985Z" fill="#040404" stroke="black" stroke-width="0.792548"/>
<path d="M377.149 44.0262V45.1777C377.149 45.7966 377.094 46.3188 376.983 46.7441C376.873 47.1694 376.714 47.5117 376.506 47.771C376.299 48.0304 376.048 48.2188 375.754 48.3364C375.464 48.4505 375.135 48.5075 374.769 48.5075C374.478 48.5075 374.21 48.4712 373.965 48.3986C373.719 48.326 373.498 48.2102 373.301 48.0511C373.107 47.8886 372.941 47.6777 372.803 47.4183C372.665 47.159 372.559 46.8443 372.487 46.4744C372.414 46.1044 372.378 45.6722 372.378 45.1777V44.0262C372.378 43.4073 372.433 42.8886 372.544 42.4702C372.658 42.0518 372.819 41.7164 373.026 41.464C373.234 41.2081 373.482 41.0249 373.773 40.9142C374.067 40.8036 374.395 40.7483 374.758 40.7483C375.052 40.7483 375.322 40.7846 375.568 40.8572C375.816 40.9263 376.038 41.0387 376.231 41.1943C376.425 41.3465 376.589 41.5505 376.724 41.8063C376.862 42.0588 376.968 42.3682 377.041 42.7348C377.113 43.1013 377.149 43.5318 377.149 44.0262ZM376.185 45.3333V43.8655C376.185 43.5266 376.164 43.2292 376.123 42.9733C376.084 42.714 376.027 42.4927 375.951 42.3095C375.875 42.1262 375.778 41.9775 375.661 41.8634C375.547 41.7493 375.414 41.6663 375.262 41.6144C375.113 41.5591 374.945 41.5314 374.758 41.5314C374.53 41.5314 374.328 41.5747 374.152 41.6611C373.975 41.7441 373.827 41.8772 373.706 42.0605C373.588 42.2438 373.498 42.4841 373.436 42.7814C373.374 43.0788 373.342 43.4402 373.342 43.8655V45.3333C373.342 45.6722 373.361 45.9713 373.399 46.2306C373.441 46.4899 373.502 46.7147 373.581 46.9049C373.661 47.0916 373.757 47.2454 373.871 47.3665C373.986 47.4875 374.117 47.5774 374.266 47.6362C374.418 47.6915 374.586 47.7192 374.769 47.7192C375.004 47.7192 375.21 47.6742 375.386 47.5843C375.562 47.4944 375.709 47.3544 375.827 47.1642C375.948 46.9706 376.038 46.7233 376.097 46.4225C376.155 46.1182 376.185 45.7551 376.185 45.3333ZM381.537 40.8105V48.4038H380.578V42.0086L378.643 42.714V41.8478L381.387 40.8105H381.537ZM384.478 47.8955C384.478 47.733 384.528 47.5964 384.629 47.4858C384.732 47.3717 384.881 47.3146 385.075 47.3146C385.268 47.3146 385.415 47.3717 385.516 47.4858C385.619 47.5964 385.671 47.733 385.671 47.8955C385.671 48.0546 385.619 48.1894 385.516 48.3001C385.415 48.4107 385.268 48.466 385.075 48.466C384.881 48.466 384.732 48.4107 384.629 48.3001C384.528 48.1894 384.478 48.0546 384.478 47.8955ZM391.9 44.0262V45.1777C391.9 45.7966 391.845 46.3188 391.734 46.7441C391.624 47.1694 391.465 47.5117 391.257 47.771C391.05 48.0304 390.799 48.2188 390.505 48.3364C390.215 48.4505 389.886 48.5075 389.52 48.5075C389.229 48.5075 388.961 48.4712 388.716 48.3986C388.47 48.326 388.249 48.2102 388.052 48.0511C387.858 47.8886 387.692 47.6777 387.554 47.4183C387.416 47.159 387.31 46.8443 387.238 46.4744C387.165 46.1044 387.129 45.6722 387.129 45.1777V44.0262C387.129 43.4073 387.184 42.8886 387.295 42.4702C387.409 42.0518 387.57 41.7164 387.777 41.464C387.984 41.2081 388.233 41.0249 388.524 40.9142C388.818 40.8036 389.146 40.7483 389.509 40.7483C389.803 40.7483 390.073 40.7846 390.318 40.8572C390.567 40.9263 390.789 41.0387 390.982 41.1943C391.176 41.3465 391.34 41.5505 391.475 41.8063C391.613 42.0588 391.719 42.3682 391.791 42.7348C391.864 43.1013 391.9 43.5318 391.9 44.0262ZM390.936 45.3333V43.8655C390.936 43.5266 390.915 43.2292 390.873 42.9733C390.835 42.714 390.778 42.4927 390.702 42.3095C390.626 42.1262 390.529 41.9775 390.412 41.8634C390.298 41.7493 390.165 41.6663 390.012 41.6144C389.864 41.5591 389.696 41.5314 389.509 41.5314C389.281 41.5314 389.079 41.5747 388.903 41.6611C388.726 41.7441 388.577 41.8772 388.456 42.0605C388.339 42.2438 388.249 42.4841 388.187 42.7814C388.124 43.0788 388.093 43.4402 388.093 43.8655V45.3333C388.093 45.6722 388.112 45.9713 388.15 46.2306C388.192 46.4899 388.252 46.7147 388.332 46.9049C388.411 47.0916 388.508 47.2454 388.622 47.3665C388.737 47.4875 388.868 47.5774 389.017 47.6362C389.169 47.6915 389.336 47.7192 389.52 47.7192C389.755 47.7192 389.961 47.6742 390.137 47.5843C390.313 47.4944 390.46 47.3544 390.578 47.1642C390.699 46.9706 390.789 46.7233 390.848 46.4225C390.906 46.1182 390.936 45.7551 390.936 45.3333ZM398.083 47.6154V48.4038H393.14V47.714L395.614 44.9598C395.918 44.621 396.153 44.334 396.319 44.0989C396.489 43.8603 396.606 43.6476 396.672 43.4609C396.741 43.2707 396.776 43.0771 396.776 42.88C396.776 42.631 396.724 42.4063 396.62 42.2057C396.52 42.0017 396.371 41.8392 396.174 41.7182C395.977 41.5971 395.739 41.5366 395.458 41.5366C395.123 41.5366 394.843 41.6023 394.618 41.7337C394.397 41.8617 394.231 42.0415 394.12 42.2731C394.01 42.5048 393.954 42.7711 393.954 43.0719H392.995C392.995 42.6466 393.088 42.2576 393.275 41.9049C393.462 41.5522 393.738 41.2721 394.105 41.0646C394.471 40.8537 394.923 40.7483 395.458 40.7483C395.936 40.7483 396.344 40.833 396.683 41.0024C397.021 41.1684 397.281 41.4035 397.461 41.7078C397.644 42.0086 397.735 42.3613 397.735 42.7659C397.735 42.9872 397.697 43.2119 397.621 43.4402C397.549 43.6649 397.447 43.8897 397.315 44.1144C397.187 44.3392 397.037 44.5605 396.864 44.7783C396.695 44.9962 396.513 45.2105 396.319 45.4215L394.297 47.6154H398.083ZM399.229 47.8955C399.229 47.733 399.279 47.5964 399.38 47.4858C399.483 47.3717 399.632 47.3146 399.826 47.3146C400.019 47.3146 400.166 47.3717 400.267 47.4858C400.37 47.5964 400.422 47.733 400.422 47.8955C400.422 48.0546 400.37 48.1894 400.267 48.3001C400.166 48.4107 400.019 48.466 399.826 48.466C399.632 48.466 399.483 48.4107 399.38 48.3001C399.279 48.1894 399.229 48.0546 399.229 47.8955ZM406.859 47.6154V48.4038H401.916V47.714L404.39 44.9598C404.694 44.621 404.929 44.334 405.095 44.0989C405.265 43.8603 405.382 43.6476 405.448 43.4609C405.517 43.2707 405.552 43.0771 405.552 42.88C405.552 42.631 405.5 42.4063 405.396 42.2057C405.296 42.0017 405.147 41.8392 404.95 41.7182C404.753 41.5971 404.514 41.5366 404.234 41.5366C403.899 41.5366 403.619 41.6023 403.394 41.7337C403.173 41.8617 403.007 42.0415 402.896 42.2731C402.786 42.5048 402.73 42.7711 402.73 43.0719H401.771C401.771 42.6466 401.864 42.2576 402.051 41.9049C402.237 41.5522 402.514 41.2721 402.881 41.0646C403.247 40.8537 403.698 40.7483 404.234 40.7483C404.712 40.7483 405.12 40.833 405.458 41.0024C405.797 41.1684 406.057 41.4035 406.236 41.7078C406.42 42.0086 406.511 42.3613 406.511 42.7659C406.511 42.9872 406.473 43.2119 406.397 43.4402C406.325 43.6649 406.223 43.8897 406.091 44.1144C405.963 44.3392 405.813 44.5605 405.64 44.7783C405.471 44.9962 405.289 45.2105 405.095 45.4215L403.073 47.6154H406.859ZM412.626 44.0262V45.1777C412.626 45.7966 412.571 46.3188 412.46 46.7441C412.35 47.1694 412.191 47.5117 411.983 47.771C411.776 48.0304 411.525 48.2188 411.231 48.3364C410.941 48.4505 410.612 48.5075 410.246 48.5075C409.955 48.5075 409.687 48.4712 409.442 48.3986C409.196 48.326 408.975 48.2102 408.778 48.0511C408.584 47.8886 408.418 47.6777 408.28 47.4183C408.142 47.159 408.036 46.8443 407.964 46.4744C407.891 46.1044 407.855 45.6722 407.855 45.1777V44.0262C407.855 43.4073 407.91 42.8886 408.021 42.4702C408.135 42.0518 408.296 41.7164 408.503 41.464C408.71 41.2081 408.959 41.0249 409.25 40.9142C409.544 40.8036 409.872 40.7483 410.235 40.7483C410.529 40.7483 410.799 40.7846 411.044 40.8572C411.293 40.9263 411.515 41.0387 411.708 41.1943C411.902 41.3465 412.066 41.5505 412.201 41.8063C412.339 42.0588 412.445 42.3682 412.517 42.7348C412.59 43.1013 412.626 43.5318 412.626 44.0262ZM411.662 45.3333V43.8655C411.662 43.5266 411.641 43.2292 411.599 42.9733C411.561 42.714 411.504 42.4927 411.428 42.3095C411.352 42.1262 411.255 41.9775 411.138 41.8634C411.024 41.7493 410.891 41.6663 410.738 41.6144C410.59 41.5591 410.422 41.5314 410.235 41.5314C410.007 41.5314 409.805 41.5747 409.628 41.6611C409.452 41.7441 409.303 41.8772 409.182 42.0605C409.065 42.2438 408.975 42.4841 408.913 42.7814C408.85 43.0788 408.819 43.4402 408.819 43.8655V45.3333C408.819 45.6722 408.838 45.9713 408.876 46.2306C408.918 46.4899 408.978 46.7147 409.058 46.9049C409.137 47.0916 409.234 47.2454 409.348 47.3665C409.463 47.4875 409.594 47.5774 409.743 47.6362C409.895 47.6915 410.062 47.7192 410.246 47.7192C410.481 47.7192 410.687 47.6742 410.863 47.5843C411.039 47.4944 411.186 47.3544 411.304 47.1642C411.425 46.9706 411.515 46.7233 411.574 46.4225C411.632 46.1182 411.662 45.7551 411.662 45.3333ZM418.809 47.6154V48.4038H413.866V47.714L416.34 44.9598C416.644 44.621 416.879 44.334 417.045 44.0989C417.215 43.8603 417.332 43.6476 417.398 43.4609C417.467 43.2707 417.502 43.0771 417.502 42.88C417.502 42.631 417.45 42.4063 417.346 42.2057C417.246 42.0017 417.097 41.8392 416.9 41.7182C416.703 41.5971 416.465 41.5366 416.184 41.5366C415.849 41.5366 415.569 41.6023 415.344 41.7337C415.123 41.8617 414.957 42.0415 414.846 42.2731C414.736 42.5048 414.68 42.7711 414.68 43.0719H413.721C413.721 42.6466 413.814 42.2576 414.001 41.9049C414.188 41.5522 414.464 41.2721 414.831 41.0646C415.197 40.8537 415.649 40.7483 416.184 40.7483C416.662 40.7483 417.07 40.833 417.409 41.0024C417.747 41.1684 418.007 41.4035 418.187 41.7078C418.37 42.0086 418.461 42.3613 418.461 42.7659C418.461 42.9872 418.423 43.2119 418.347 43.4402C418.275 43.6649 418.173 43.8897 418.041 44.1144C417.913 44.3392 417.763 44.5605 417.59 44.7783C417.421 44.9962 417.239 45.2105 417.045 45.4215L415.023 47.6154H418.809ZM421.236 44.1559H421.921C422.256 44.1559 422.533 44.1006 422.751 43.9899C422.972 43.8758 423.136 43.722 423.244 43.5283C423.354 43.3312 423.41 43.1099 423.41 42.8644C423.41 42.574 423.361 42.3302 423.264 42.1331C423.167 41.936 423.022 41.7873 422.829 41.6871C422.635 41.5868 422.389 41.5366 422.092 41.5366C421.822 41.5366 421.584 41.5902 421.376 41.6974C421.172 41.8012 421.012 41.9498 420.894 42.1435C420.78 42.3371 420.723 42.5653 420.723 42.8281H419.763C419.763 42.4443 419.86 42.0951 420.054 41.7804C420.247 41.4658 420.519 41.2151 420.868 41.0283C421.221 40.8416 421.629 40.7483 422.092 40.7483C422.549 40.7483 422.948 40.8295 423.29 40.992C423.633 41.1511 423.899 41.3897 424.089 41.7078C424.279 42.0225 424.374 42.4149 424.374 42.8852C424.374 43.0754 424.329 43.2794 424.239 43.4972C424.153 43.7116 424.016 43.9121 423.83 44.0989C423.646 44.2856 423.408 44.4395 423.114 44.5605C422.82 44.678 422.467 44.7368 422.056 44.7368H421.236V44.1559ZM421.236 44.9443V44.3686H422.056C422.536 44.3686 422.934 44.4256 423.249 44.5397C423.563 44.6538 423.811 44.806 423.99 44.9962C424.174 45.1863 424.302 45.3955 424.374 45.6237C424.45 45.8485 424.488 46.0733 424.488 46.298C424.488 46.6507 424.428 46.9636 424.307 47.2368C424.189 47.51 424.022 47.7416 423.804 47.9318C423.589 48.122 423.337 48.2655 423.046 48.3623C422.756 48.4591 422.44 48.5075 422.097 48.5075C421.769 48.5075 421.459 48.4609 421.169 48.3675C420.882 48.2741 420.628 48.1393 420.406 47.9629C420.185 47.7831 420.012 47.5636 419.888 47.3042C419.763 47.0414 419.701 46.7423 419.701 46.4069H420.661C420.661 46.6697 420.718 46.8997 420.832 47.0968C420.949 47.2939 421.115 47.4477 421.33 47.5584C421.548 47.6656 421.803 47.7192 422.097 47.7192C422.391 47.7192 422.644 47.669 422.855 47.5688C423.069 47.465 423.233 47.3094 423.347 47.102C423.465 46.8945 423.524 46.6334 423.524 46.3188C423.524 46.0041 423.458 45.7465 423.327 45.5459C423.195 45.3419 423.008 45.1915 422.766 45.0947C422.528 44.9944 422.246 44.9443 421.921 44.9443H421.236Z" fill="black"/>
<path d="M377.341 58.8286V59.6481H373.7V66.3804H372.704V58.8286H377.341ZM376.418 65.8721C376.418 65.7096 376.468 65.573 376.569 65.4623C376.672 65.3482 376.821 65.2912 377.015 65.2912C377.208 65.2912 377.355 65.3482 377.455 65.4623C377.559 65.573 377.611 65.7096 377.611 65.8721C377.611 66.0311 377.559 66.166 377.455 66.2766C377.355 66.3873 377.208 66.4426 377.015 66.4426C376.821 66.4426 376.672 66.3873 376.569 66.2766C376.468 66.166 376.418 66.0311 376.418 65.8721ZM382.3 58.8286H383.27L385.744 64.9852L388.213 58.8286H389.188L386.117 66.3804H385.36L382.3 58.8286ZM381.983 58.8286H382.839L382.979 63.4343V66.3804H381.983V58.8286ZM388.643 58.8286H389.499V66.3804H388.503V63.4343L388.643 58.8286ZM397.072 62.3659V62.8431C397.072 63.4101 397.001 63.9184 396.859 64.3679C396.717 64.8174 396.513 65.1995 396.247 65.5142C395.981 65.8289 395.661 66.0692 395.287 66.2351C394.917 66.4011 394.502 66.4841 394.043 66.4841C393.596 66.4841 393.187 66.4011 392.813 66.2351C392.443 66.0692 392.122 65.8289 391.849 65.5142C391.579 65.1995 391.37 64.8174 391.221 64.3679C391.072 63.9184 390.998 63.4101 390.998 62.8431V62.3659C390.998 61.7988 391.071 61.2922 391.216 60.8462C391.364 60.3967 391.574 60.0146 391.843 59.6999C392.113 59.3818 392.433 59.1398 392.803 58.9738C393.176 58.8078 393.586 58.7248 394.032 58.7248C394.492 58.7248 394.907 58.8078 395.277 58.9738C395.65 59.1398 395.97 59.3818 396.236 59.6999C396.506 60.0146 396.712 60.3967 396.854 60.8462C396.999 61.2922 397.072 61.7988 397.072 62.3659ZM396.081 62.8431V62.3555C396.081 61.906 396.034 61.5083 395.941 61.1626C395.851 60.8168 395.718 60.5263 395.541 60.2912C395.365 60.0561 395.149 59.878 394.893 59.757C394.641 59.636 394.354 59.5754 394.032 59.5754C393.721 59.5754 393.439 59.636 393.187 59.757C392.938 59.878 392.723 60.0561 392.544 60.2912C392.367 60.5263 392.231 60.8168 392.134 61.1626C392.037 61.5083 391.989 61.906 391.989 62.3555V62.8431C391.989 63.296 392.037 63.6971 392.134 64.0464C392.231 64.3921 392.369 64.6843 392.549 64.9229C392.732 65.158 392.948 65.3361 393.197 65.4571C393.449 65.5782 393.731 65.6387 394.043 65.6387C394.368 65.6387 394.656 65.5782 394.909 65.4571C395.161 65.3361 395.374 65.158 395.547 64.9229C395.723 64.6843 395.856 64.3921 395.946 64.0464C396.036 63.6971 396.081 63.296 396.081 62.8431ZM403.13 63.9789H404.125C404.074 64.4561 403.937 64.8831 403.716 65.26C403.494 65.6369 403.181 65.936 402.777 66.1573C402.372 66.3752 401.867 66.4841 401.262 66.4841C400.82 66.4841 400.417 66.4011 400.054 66.2351C399.694 66.0692 399.385 65.834 399.125 65.5298C398.866 65.222 398.666 64.8538 398.524 64.425C398.385 63.9928 398.316 63.5121 398.316 62.9831V62.231C398.316 61.702 398.385 61.2231 398.524 60.7943C398.666 60.3621 398.868 59.9921 399.131 59.6844C399.397 59.3766 399.717 59.1398 400.09 58.9738C400.464 58.8078 400.884 58.7248 401.351 58.7248C401.921 58.7248 402.403 58.832 402.798 59.0464C403.192 59.2608 403.498 59.5582 403.716 59.9385C403.937 60.3154 404.074 60.7528 404.125 61.2507H403.13C403.081 60.898 402.991 60.5955 402.86 60.3431C402.728 60.0872 402.542 59.8901 402.3 59.7518C402.058 59.6135 401.741 59.5443 401.351 59.5443C401.015 59.5443 400.719 59.6083 400.464 59.7362C400.211 59.8642 399.999 60.0457 399.826 60.2808C399.656 60.516 399.528 60.7978 399.442 61.1263C399.355 61.4547 399.312 61.8195 399.312 62.2206V62.9831C399.312 63.3531 399.35 63.7006 399.426 64.0256C399.506 64.3506 399.625 64.6359 399.784 64.8814C399.943 65.1269 400.146 65.3206 400.391 65.4623C400.637 65.6006 400.927 65.6698 401.262 65.6698C401.688 65.6698 402.027 65.6024 402.279 65.4675C402.531 65.3327 402.722 65.139 402.849 64.8866C402.981 64.6342 403.074 64.3316 403.13 63.9789ZM406.537 58.8286V66.3804H405.536V58.8286H406.537ZM411.19 58.8286L407.912 62.9831H406.138L405.982 62.1532H407.315L409.95 58.8286H411.19ZM410.183 66.3804L407.346 62.8534L407.907 61.9769L411.408 66.3804H410.183ZM415.007 62.8482H413.093L413.083 62.0443H414.82C415.107 62.0443 415.358 61.9959 415.572 61.8991C415.787 61.8023 415.953 61.6639 416.07 61.4841C416.191 61.3009 416.252 61.083 416.252 60.8306C416.252 60.554 416.198 60.3292 416.091 60.1563C415.987 59.98 415.827 59.8521 415.609 59.7725C415.394 59.6895 415.121 59.6481 414.789 59.6481H413.316V66.3804H412.315V58.8286H414.789C415.177 58.8286 415.522 58.8683 415.827 58.9479C416.131 59.0239 416.388 59.1449 416.599 59.3109C416.814 59.4734 416.976 59.6809 417.087 59.9333C417.198 60.1857 417.253 60.4883 417.253 60.841C417.253 61.1522 417.173 61.434 417.014 61.6864C416.855 61.9354 416.634 62.1394 416.35 62.2984C416.07 62.4575 415.742 62.5595 415.365 62.6045L415.007 62.8482ZM414.96 66.3804H412.699L413.264 65.5661H414.96C415.279 65.5661 415.548 65.5107 415.77 65.4001C415.994 65.2894 416.165 65.1338 416.283 64.9333C416.401 64.7293 416.459 64.489 416.459 64.2123C416.459 63.9323 416.409 63.6902 416.309 63.4862C416.209 63.2822 416.051 63.1249 415.837 63.0142C415.623 62.9036 415.346 62.8482 415.007 62.8482H413.581L413.591 62.0443H415.541L415.754 62.3348C416.117 62.3659 416.425 62.4696 416.677 62.646C416.93 62.8188 417.122 63.0401 417.253 63.3099C417.388 63.5796 417.455 63.8769 417.455 64.202C417.455 64.6722 417.351 65.0699 417.144 65.3949C416.94 65.7165 416.651 65.962 416.278 66.1314C415.904 66.2974 415.465 66.3804 414.96 66.3804ZM421.729 59.4976L419.229 66.3804H418.207L421.086 58.8286H421.745L421.729 59.4976ZM423.824 66.3804L421.319 59.4976L421.304 58.8286H421.962L424.851 66.3804H423.824ZM423.695 63.5847V64.4042H419.452V63.5847H423.695ZM374.997 75.8752L376.994 70.8286H378.145L375.474 77.12C375.398 77.2964 375.313 77.4675 375.22 77.6335C375.127 77.796 375.013 77.9412 374.878 78.0692C374.743 78.1971 374.575 78.2991 374.375 78.3752C374.177 78.4513 373.932 78.4893 373.638 78.4893C373.555 78.4893 373.457 78.4841 373.342 78.4737C373.228 78.4668 373.154 78.4582 373.119 78.4478L373.151 77.649C373.189 77.656 373.263 77.6629 373.374 77.6698C373.484 77.6733 373.565 77.675 373.617 77.675C373.814 77.675 373.97 77.6352 374.084 77.5557C374.198 77.4762 374.29 77.3759 374.359 77.2549C374.432 77.1304 374.497 77.0042 374.556 76.8762L374.997 75.8752ZM373.301 70.8286L375.402 75.5329L375.651 76.4613L374.81 76.5235L372.181 70.8286H373.301ZM383.913 70.8286V71.6481H380.459V70.8286H383.913ZM384.774 70.8286V78.3804H383.773V70.8286H384.774ZM380.116 70.8286H381.112L380.941 74.5267C380.917 75.0592 380.875 75.5346 380.816 75.953C380.761 76.3679 380.682 76.7293 380.578 77.037C380.474 77.3413 380.339 77.5937 380.173 77.7943C380.007 77.9914 379.803 78.1383 379.561 78.2351C379.323 78.332 379.036 78.3804 378.7 78.3804H378.431V77.5661L378.638 77.5505C378.832 77.5367 378.998 77.4934 379.136 77.4208C379.278 77.3448 379.397 77.2307 379.494 77.0785C379.594 76.9264 379.675 76.7293 379.738 76.4872C379.8 76.2452 379.848 75.9495 379.883 75.6003C379.921 75.2476 379.95 74.8361 379.971 74.3659L380.116 70.8286ZM386.449 77.8721C386.449 77.7096 386.499 77.573 386.6 77.4623C386.703 77.3482 386.852 77.2912 387.046 77.2912C387.239 77.2912 387.386 77.3482 387.487 77.4623C387.59 77.573 387.642 77.7096 387.642 77.8721C387.642 78.0311 387.59 78.166 387.487 78.2766C387.386 78.3873 387.239 78.4426 387.046 78.4426C386.852 78.4426 386.703 78.3873 386.6 78.2766C386.499 78.166 386.449 78.0311 386.449 77.8721ZM394.81 71.4976L392.31 78.3804H391.288L394.167 70.8286H394.826L394.81 71.4976ZM396.906 78.3804L394.4 71.4976L394.385 70.8286H395.044L397.933 78.3804H396.906ZM396.776 75.5847V76.4042H392.533V75.5847H396.776ZM401.729 75.4188H399.712V74.6045H401.729C402.12 74.6045 402.436 74.5422 402.678 74.4177C402.92 74.2933 403.097 74.1204 403.207 73.8991C403.321 73.6778 403.379 73.4254 403.379 73.1418C403.379 72.8825 403.321 72.6387 403.207 72.4105C403.097 72.1823 402.92 71.999 402.678 71.8607C402.436 71.7189 402.12 71.6481 401.729 71.6481H399.945V78.3804H398.944V70.8286H401.729C402.3 70.8286 402.782 70.9271 403.176 71.1242C403.57 71.3213 403.87 71.5945 404.074 71.9437C404.278 72.2895 404.38 72.6854 404.38 73.1314C404.38 73.6155 404.278 74.0287 404.074 74.3711C403.87 74.7134 403.57 74.9744 403.176 75.1543C402.782 75.3306 402.3 75.4188 401.729 75.4188ZM410.251 70.8286V71.6481H406.61V78.3804H405.614V70.8286H410.251ZM406.376 73.9043H408.436C408.989 73.9043 409.456 73.9976 409.836 74.1843C410.216 74.3676 410.505 74.6252 410.702 74.9572C410.899 75.2891 410.998 75.6781 410.998 76.1242C410.998 76.4561 410.942 76.7604 410.832 77.037C410.721 77.3102 410.557 77.5488 410.339 77.7528C410.121 77.9533 409.853 78.1089 409.535 78.2196C409.217 78.3268 408.85 78.3804 408.436 78.3804H405.614V70.8286H406.615V77.5661H408.436C408.806 77.5661 409.105 77.4986 409.333 77.3638C409.565 77.2255 409.734 77.0457 409.841 76.8244C409.948 76.6031 410.002 76.3662 410.002 76.1138C410.002 75.8614 409.948 75.6297 409.841 75.4188C409.734 75.2078 409.565 75.0401 409.333 74.9157C409.105 74.7877 408.806 74.7238 408.436 74.7238H406.376V73.9043ZM415.142 71.4976L412.642 78.3804H411.62L414.499 70.8286H415.158L415.142 71.4976ZM417.237 78.3804L414.732 71.4976L414.717 70.8286H415.375L418.264 78.3804H417.237ZM417.108 75.5847V76.4042H412.865V75.5847H417.108ZM421.392 70.8286V78.3804H420.406V70.8286H421.392ZM423.819 70.8286V71.6481H417.984V70.8286H423.819ZM424.535 77.2393V78.0121C424.535 78.3268 424.456 78.6587 424.296 79.008C424.137 79.3607 423.914 79.6546 423.627 79.8897L423.083 79.5111C423.193 79.3589 423.287 79.2033 423.363 79.0443C423.439 78.8887 423.496 78.7262 423.534 78.5567C423.575 78.3907 423.596 78.2144 423.596 78.0277V77.2393H424.535ZM433.238 77.592V78.3804H428.295V77.6905L430.769 74.9364C431.074 74.5975 431.309 74.3106 431.475 74.0754C431.644 73.8368 431.762 73.6242 431.828 73.4375C431.897 73.2473 431.931 73.0536 431.931 72.8566C431.931 72.6076 431.879 72.3828 431.776 72.1823C431.675 71.9783 431.527 71.8158 431.33 71.6947C431.132 71.5737 430.894 71.5132 430.614 71.5132C430.278 71.5132 429.998 71.5789 429.774 71.7103C429.552 71.8382 429.386 72.018 429.276 72.2497C429.165 72.4814 429.11 72.7476 429.11 73.0485H428.15C428.15 72.6231 428.244 72.2341 428.43 71.8815C428.617 71.5288 428.894 71.2487 429.26 71.0412C429.627 70.8303 430.078 70.7248 430.614 70.7248C431.091 70.7248 431.499 70.8095 431.838 70.979C432.177 71.1449 432.436 71.3801 432.616 71.6844C432.799 71.9852 432.891 72.3379 432.891 72.7424C432.891 72.9637 432.853 73.1885 432.777 73.4167C432.704 73.6415 432.602 73.8662 432.471 74.091C432.343 74.3157 432.192 74.537 432.019 74.7549C431.85 74.9727 431.668 75.1871 431.475 75.398L429.452 77.592H433.238ZM435.562 70.8286V78.3804H434.561V70.8286H435.562ZM440.214 70.8286L436.936 74.9831H435.163L435.007 74.1532H436.34L438.975 70.8286H440.214ZM439.208 78.3804L436.371 74.8534L436.931 73.9769L440.432 78.3804H439.208ZM442.491 74.1325H443.176C443.511 74.1325 443.788 74.0772 444.006 73.9665C444.227 73.8524 444.391 73.6985 444.499 73.5049C444.609 73.3078 444.665 73.0865 444.665 72.841C444.665 72.5505 444.616 72.3068 444.519 72.1097C444.423 71.9126 444.277 71.7639 444.084 71.6636C443.89 71.5633 443.645 71.5132 443.347 71.5132C443.077 71.5132 442.839 71.5668 442.631 71.674C442.427 71.7777 442.267 71.9264 442.149 72.12C442.035 72.3137 441.978 72.5419 441.978 72.8047H441.018C441.018 72.4209 441.115 72.0716 441.309 71.757C441.502 71.4423 441.774 71.1916 442.123 71.0049C442.476 70.8182 442.884 70.7248 443.347 70.7248C443.804 70.7248 444.203 70.8061 444.545 70.9686C444.888 71.1277 445.154 71.3662 445.344 71.6844C445.534 71.999 445.629 72.3915 445.629 72.8617C445.629 73.0519 445.584 73.2559 445.494 73.4738C445.408 73.6881 445.271 73.8887 445.085 74.0754C444.901 74.2621 444.663 74.416 444.369 74.537C444.075 74.6546 443.722 74.7134 443.311 74.7134H442.491V74.1325ZM442.491 74.9209V74.3451H443.311C443.791 74.3451 444.189 74.4022 444.504 74.5163C444.818 74.6304 445.066 74.7825 445.245 74.9727C445.429 75.1629 445.557 75.3721 445.629 75.6003C445.705 75.8251 445.743 76.0498 445.743 76.2746C445.743 76.6273 445.683 76.9402 445.562 77.2134C445.444 77.4865 445.277 77.7182 445.059 77.9084C444.844 78.0986 444.592 78.2421 444.301 78.3389C444.011 78.4357 443.695 78.4841 443.352 78.4841C443.024 78.4841 442.714 78.4374 442.424 78.3441C442.137 78.2507 441.883 78.1159 441.661 77.9395C441.44 77.7597 441.267 77.5401 441.143 77.2808C441.018 77.018 440.956 76.7189 440.956 76.3835H441.916C441.916 76.6463 441.973 76.8762 442.087 77.0733C442.204 77.2704 442.37 77.4243 442.585 77.5349C442.803 77.6421 443.058 77.6957 443.352 77.6957C443.646 77.6957 443.899 77.6456 444.11 77.5453C444.324 77.4416 444.488 77.286 444.602 77.0785C444.72 76.871 444.779 76.61 444.779 76.2953C444.779 75.9807 444.713 75.7231 444.582 75.5225C444.45 75.3185 444.263 75.1681 444.021 75.0713C443.783 74.971 443.501 74.9209 443.176 74.9209H442.491Z" fill="black"/>
<path d="M42.7032 38.8901H45.6879L53.3011 57.8355L60.8985 38.8901H63.8991L54.4503 62.1289H52.12L42.7032 38.8901ZM41.7296 38.8901H44.3631L44.7941 53.0632V62.1289H41.7296V38.8901ZM62.2232 38.8901H64.8567V62.1289H61.7923V53.0632L62.2232 38.8901ZM88.1594 49.7753V51.2437C88.1594 52.9887 87.9413 54.5529 87.505 55.9361C87.0688 57.3194 86.441 58.4952 85.6217 59.4635C84.8023 60.4317 83.8181 61.1713 82.6689 61.682C81.5304 62.1927 80.2535 62.4481 78.8383 62.4481C77.4657 62.4481 76.2048 62.1927 75.0556 61.682C73.9171 61.1713 72.9275 60.4317 72.0869 59.4635C71.257 58.4952 70.6132 57.3194 70.1557 55.9361C69.6981 54.5529 69.4694 52.9887 69.4694 51.2437V49.7753C69.4694 48.0302 69.6928 46.4714 70.1397 45.0988C70.5973 43.7155 71.241 42.5397 72.071 41.5715C72.9009 40.5925 73.8852 39.8477 75.0237 39.337C76.1729 38.8262 77.4338 38.5708 78.8064 38.5708C80.2216 38.5708 81.4985 38.8262 82.637 39.337C83.7862 39.8477 84.7704 40.5925 85.5897 41.5715C86.4197 42.5397 87.0528 43.7155 87.4891 45.0988C87.936 46.4714 88.1594 48.0302 88.1594 49.7753ZM85.1109 51.2437V49.7434C85.1109 48.3601 84.9673 47.1364 84.68 46.0724C84.4033 45.0083 83.9937 44.1145 83.451 43.391C82.9083 42.6674 82.2433 42.1194 81.4559 41.747C80.6791 41.3746 79.796 41.1884 78.8064 41.1884C77.8488 41.1884 76.9816 41.3746 76.2048 41.747C75.4387 42.1194 74.779 42.6674 74.2257 43.391C73.683 44.1145 73.2627 45.0083 72.9648 46.0724C72.6668 47.1364 72.5179 48.3601 72.5179 49.7434V51.2437C72.5179 52.6376 72.6668 53.8719 72.9648 54.9466C73.2627 56.0106 73.6883 56.9097 74.2416 57.6439C74.8056 58.3675 75.4706 58.9155 76.2367 59.2879C77.0135 59.6603 77.8807 59.8465 78.8383 59.8465C79.8385 59.8465 80.727 59.6603 81.5038 59.2879C82.2805 58.9155 82.9349 58.3675 83.467 57.6439C84.0096 56.9097 84.4193 56.0106 84.6959 54.9466C84.9726 53.8719 85.1109 52.6376 85.1109 51.2437ZM99.0766 51.515L90.777 38.8901H94.3841L100.561 48.9613H104.934L104.439 51.515H99.0766ZM100.736 51.2756L93.9851 62.1289H90.1545L98.7893 48.6261L100.736 51.2756ZM106.259 38.8901V62.1289H103.21V38.8901H106.259ZM118.581 38.8901L110.249 51.515H105.046L104.567 48.9613H108.781L114.958 38.8901H118.581ZM115.357 62.1289L108.621 51.2756L110.584 48.6261L119.187 62.1289H115.357ZM137.287 48.8815V51.3873H124.71V48.8815H137.287ZM125.188 38.8901V62.1289H122.108V38.8901H125.188ZM139.968 38.8901V62.1289H136.904V38.8901H139.968ZM163.335 49.7753V51.2437C163.335 52.9887 163.116 54.5529 162.68 55.9361C162.244 57.3194 161.616 58.4952 160.797 59.4635C159.977 60.4317 158.993 61.1713 157.844 61.682C156.706 62.1927 155.429 62.4481 154.013 62.4481C152.641 62.4481 151.38 62.1927 150.231 61.682C149.092 61.1713 148.103 60.4317 147.262 59.4635C146.432 58.4952 145.788 57.3194 145.331 55.9361C144.873 54.5529 144.645 52.9887 144.645 51.2437V49.7753C144.645 48.0302 144.868 46.4714 145.315 45.0988C145.772 43.7155 146.416 42.5397 147.246 41.5715C148.076 40.5925 149.06 39.8477 150.199 39.337C151.348 38.8262 152.609 38.5708 153.982 38.5708C155.397 38.5708 156.674 38.8262 157.812 39.337C158.961 39.8477 159.946 40.5925 160.765 41.5715C161.595 42.5397 162.228 43.7155 162.664 45.0988C163.111 46.4714 163.335 48.0302 163.335 49.7753ZM160.286 51.2437V49.7434C160.286 48.3601 160.142 47.1364 159.855 46.0724C159.578 45.0083 159.169 44.1145 158.626 43.391C158.083 42.6674 157.418 42.1194 156.631 41.747C155.854 41.3746 154.971 41.1884 153.982 41.1884C153.024 41.1884 152.157 41.3746 151.38 41.747C150.614 42.1194 149.954 42.6674 149.401 43.391C148.858 44.1145 148.438 45.0083 148.14 46.0724C147.842 47.1364 147.693 48.3601 147.693 49.7434V51.2437C147.693 52.6376 147.842 53.8719 148.14 54.9466C148.438 56.0106 148.863 56.9097 149.417 57.6439C149.981 58.3675 150.646 58.9155 151.412 59.2879C152.189 59.6603 153.056 59.8465 154.013 59.8465C155.014 59.8465 155.902 59.6603 156.679 59.2879C157.456 58.9155 158.11 58.3675 158.642 57.6439C159.185 56.9097 159.594 56.0106 159.871 54.9466C160.148 53.8719 160.286 52.6376 160.286 51.2437ZM190.995 38.8901V41.4119H180.365V38.8901H190.995ZM193.644 38.8901V62.1289H190.564V38.8901H193.644ZM179.311 38.8901H182.376L181.849 50.2701C181.775 51.9087 181.647 53.3718 181.466 54.6593C181.296 55.9361 181.051 57.0481 180.732 57.9951C180.413 58.9314 179.998 59.7082 179.487 60.3253C178.976 60.9318 178.348 61.3841 177.603 61.682C176.869 61.9799 175.986 62.1289 174.954 62.1289H174.124V59.6231L174.762 59.5752C175.358 59.5326 175.869 59.3996 176.295 59.1762C176.731 58.9421 177.098 58.5909 177.396 58.1228C177.705 57.6546 177.955 57.0481 178.146 56.3032C178.338 55.5584 178.487 54.6486 178.593 53.5739C178.71 52.4886 178.801 51.2224 178.864 49.7753L179.311 38.8901ZM202.406 56.798L213.85 38.8901H216.931V62.1289H213.85V44.205L202.406 62.1289H199.342V38.8901H202.406V56.798ZM44.9377 94.798L56.3816 76.8901H59.462V100.129H56.3816V82.205L44.9377 100.129H41.8732V76.8901H44.9377V94.798ZM72.1827 88.9723H69.4215V87.0092H72.071C73.2414 87.0092 74.1884 86.8442 74.912 86.5144C75.6355 86.1845 76.1623 85.727 76.4921 85.1418C76.822 84.5565 76.9869 83.8809 76.9869 83.1147C76.9869 82.3806 76.806 81.7102 76.4442 81.1037C76.0824 80.4865 75.5238 79.9971 74.7683 79.6353C74.0129 79.2629 73.0393 79.0767 71.8475 79.0767C70.9537 79.0767 70.1451 79.2469 69.4215 79.5874C68.6979 79.9173 68.1234 80.3801 67.6977 80.976C67.2721 81.5612 67.0593 82.2369 67.0593 83.003H63.9789C63.9789 82.0135 64.1864 81.125 64.6013 80.3376C65.0163 79.5395 65.5856 78.8639 66.3091 78.3106C67.0327 77.7466 67.868 77.3157 68.815 77.0177C69.7726 76.7198 70.7835 76.5708 71.8475 76.5708C73.0925 76.5708 74.2204 76.7145 75.2312 77.0018C76.2421 77.2784 77.1093 77.6934 77.8328 78.2467C78.5564 78.8 79.1097 79.4863 79.4927 80.3057C79.8758 81.125 80.0673 82.0773 80.0673 83.1626C80.0673 83.9607 79.8811 84.7108 79.5087 85.4131C79.1363 86.1154 78.6042 86.7325 77.9126 87.2645C77.221 87.7966 76.391 88.2169 75.4227 88.5254C74.4545 88.8234 73.3744 88.9723 72.1827 88.9723ZM69.4215 87.6157H72.1827C73.4915 87.6157 74.6566 87.7487 75.6781 88.0147C76.6996 88.2807 77.5615 88.6691 78.2638 89.1798C78.966 89.6906 79.4981 90.3237 79.8598 91.0792C80.2322 91.824 80.4185 92.6806 80.4185 93.6488C80.4185 94.7342 80.2056 95.6971 79.78 96.5377C79.365 97.3783 78.7745 98.0913 78.0084 98.6765C77.2423 99.2617 76.3325 99.7033 75.2791 100.001C74.2363 100.299 73.0925 100.448 71.8475 100.448C70.8473 100.448 69.8578 100.32 68.8788 100.065C67.9105 99.7991 67.0327 99.3947 66.2453 98.852C65.4579 98.2987 64.8248 97.5965 64.346 96.7452C63.8778 95.894 63.6437 94.8725 63.6437 93.6808H66.7241C66.7241 94.4575 66.9369 95.1704 67.3626 95.8195C67.7988 96.4686 68.4 96.99 69.1661 97.3837C69.9322 97.7667 70.826 97.9582 71.8475 97.9582C73.018 97.9582 74.0076 97.7774 74.8162 97.4156C75.6355 97.0432 76.258 96.5377 76.6836 95.8993C77.1199 95.2502 77.338 94.5214 77.338 93.7127C77.338 92.9998 77.221 92.3826 76.9869 91.8612C76.7634 91.3292 76.4283 90.893 75.9814 90.5525C75.5451 90.212 74.9971 89.9619 74.3374 89.8023C73.6883 89.6321 72.9329 89.5469 72.071 89.5469H69.4215V87.6157ZM85.4461 76.8901H88.4307L96.044 95.8355L103.641 76.8901H106.642L97.1932 100.129H94.8629L85.4461 76.8901ZM84.4725 76.8901H87.106L87.5369 91.0632V100.129H84.4725V76.8901ZM104.966 76.8901H107.6V100.129H104.535V91.0632L104.966 76.8901ZM127.774 97.6231V100.129H115.468V97.6231H127.774ZM116.091 76.8901V100.129H113.01V76.8901H116.091ZM126.146 86.8815V89.3873H115.468V86.8815H126.146ZM127.614 76.8901V79.4119H115.468V76.8901H127.614ZM146.767 86.8815V89.3873H134.19V86.8815H146.767ZM134.669 76.8901V100.129H131.589V76.8901H134.669ZM149.449 76.8901V100.129H146.384V76.8901H149.449ZM158.131 94.798L169.575 76.8901H172.656V100.129H169.575V82.205L158.131 100.129H155.067V76.8901H158.131V94.798ZM186.366 76.8901V100.129H183.333V76.8901H186.366ZM193.836 76.8901V79.4119H175.88V76.8901H193.836ZM199.789 86.3548H206.125C207.828 86.3548 209.264 86.6421 210.435 87.2167C211.605 87.7806 212.494 88.5733 213.1 89.5948C213.707 90.6163 214.01 91.8134 214.01 93.186C214.01 94.2075 213.84 95.1438 213.499 95.9951C213.159 96.8357 212.653 97.5699 211.983 98.1977C211.313 98.8148 210.488 99.2936 209.509 99.6341C208.53 99.964 207.402 100.129 206.125 100.129H197.443V76.8901H200.523V97.6231H206.125C207.264 97.6231 208.184 97.4156 208.887 97.0006C209.599 96.575 210.121 96.0217 210.451 95.3407C210.781 94.6597 210.945 93.9308 210.945 93.1541C210.945 92.3773 210.781 91.6644 210.451 91.0153C210.121 90.3662 209.599 89.8502 208.887 89.4671C208.184 89.0734 207.264 88.8766 206.125 88.8766H199.789V86.3548ZM50.0132 127.26H44.1237L44.0918 124.786H49.4386C50.3218 124.786 51.0932 124.637 51.7529 124.339C52.4127 124.041 52.9234 123.615 53.2852 123.062C53.6576 122.498 53.8438 121.828 53.8438 121.051C53.8438 120.2 53.6789 119.508 53.349 118.976C53.0298 118.433 52.535 118.04 51.8647 117.795C51.205 117.54 50.3644 117.412 49.3429 117.412H44.81V138.129H41.7296V114.89H49.3429C50.5346 114.89 51.5987 115.012 52.535 115.257C53.4714 115.491 54.2641 115.864 54.9132 116.374C55.5729 116.875 56.073 117.513 56.4135 118.29C56.754 119.066 56.9242 119.997 56.9242 121.083C56.9242 122.04 56.6795 122.908 56.19 123.684C55.7006 124.451 55.0196 125.078 54.1471 125.568C53.2852 126.057 52.2743 126.371 51.1145 126.509L50.0132 127.26ZM49.8696 138.129H42.9107L44.6504 135.623H49.8696C50.8485 135.623 51.6785 135.453 52.3595 135.112C53.0511 134.772 53.5778 134.293 53.9396 133.676C54.3013 133.048 54.4822 132.309 54.4822 131.457C54.4822 130.595 54.3279 129.851 54.0194 129.223C53.7108 128.595 53.2267 128.111 52.5669 127.77C51.9072 127.43 51.056 127.26 50.0132 127.26H45.624L45.6559 124.786H51.6572L52.3116 125.68C53.4288 125.775 54.3758 126.094 55.1526 126.637C55.9293 127.169 56.5199 127.85 56.9242 128.68C57.3392 129.51 57.5467 130.425 57.5467 131.425C57.5467 132.872 57.2275 134.096 56.5891 135.096C55.9613 136.086 55.0728 136.841 53.9236 137.363C52.7744 137.874 51.4231 138.129 49.8696 138.129ZM76.125 130.739H79.1895C79.0299 132.207 78.6096 133.522 77.9286 134.681C77.2476 135.841 76.2846 136.762 75.0397 137.443C73.7947 138.113 72.2412 138.448 70.3791 138.448C69.0172 138.448 67.7775 138.193 66.6603 137.682C65.5537 137.171 64.6014 136.448 63.8033 135.511C63.0053 134.564 62.3881 133.431 61.9519 132.112C61.5262 130.782 61.3134 129.303 61.3134 127.675V125.36C61.3134 123.732 61.5262 122.259 61.9519 120.939C62.3881 119.609 63.0106 118.471 63.8193 117.524C64.6386 116.577 65.6228 115.848 66.772 115.337C67.9212 114.826 69.214 114.571 70.6505 114.571C72.4062 114.571 73.8905 114.901 75.1035 115.56C76.3165 116.22 77.2582 117.135 77.9286 118.306C78.6096 119.465 79.0299 120.811 79.1895 122.344H76.125C75.976 121.258 75.6994 120.327 75.2951 119.551C74.8907 118.763 74.3161 118.157 73.5713 117.731C72.8265 117.305 71.8529 117.093 70.6505 117.093C69.6183 117.093 68.7086 117.289 67.9212 117.683C67.1444 118.077 66.49 118.636 65.958 119.359C65.4366 120.083 65.0429 120.95 64.7769 121.961C64.5109 122.972 64.3779 124.094 64.3779 125.328V127.675C64.3779 128.813 64.4949 129.883 64.729 130.883C64.9738 131.883 65.3409 132.761 65.8303 133.516C66.3198 134.272 66.9423 134.868 67.6977 135.304C68.4532 135.729 69.347 135.942 70.3791 135.942C71.6879 135.942 72.7307 135.735 73.5074 135.32C74.2842 134.905 74.8694 134.309 75.2631 133.532C75.6675 132.755 75.9548 131.824 76.125 130.739ZM98.1509 135.623V138.129H85.8451V135.623H98.1509ZM86.4676 114.89V138.129H83.3872V114.89H86.4676ZM96.5229 124.881V127.387H85.8451V124.881H96.5229ZM97.9912 114.89V117.412H85.8451V114.89H97.9912ZM124.933 125.281V127.802H115.404V125.281H124.933ZM109.738 130.739H112.803C112.973 131.835 113.255 132.771 113.649 133.548C114.053 134.325 114.644 134.921 115.42 135.336C116.197 135.74 117.24 135.942 118.549 135.942C119.581 135.942 120.475 135.729 121.23 135.304C121.986 134.868 122.608 134.272 123.097 133.516C123.587 132.761 123.949 131.883 124.183 130.883C124.428 129.883 124.55 128.813 124.55 127.675V125.344C124.55 124.355 124.465 123.44 124.295 122.599C124.124 121.748 123.869 120.987 123.528 120.317C123.188 119.636 122.762 119.056 122.252 118.577C121.751 118.098 121.166 117.731 120.496 117.476C119.836 117.22 119.097 117.093 118.277 117.093C117.086 117.093 116.112 117.305 115.357 117.731C114.612 118.157 114.037 118.763 113.633 119.551C113.239 120.327 112.962 121.258 112.803 122.344H109.738C109.898 120.811 110.318 119.465 110.999 118.306C111.68 117.135 112.622 116.22 113.824 115.56C115.037 114.901 116.522 114.571 118.277 114.571C119.714 114.571 121.007 114.826 122.156 115.337C123.305 115.848 124.284 116.577 125.093 117.524C125.912 118.471 126.534 119.609 126.96 120.939C127.396 122.269 127.614 123.748 127.614 125.376V127.675C127.614 129.303 127.396 130.782 126.96 132.112C126.534 133.431 125.923 134.564 125.125 135.511C124.326 136.448 123.369 137.171 122.252 137.682C121.145 138.193 119.911 138.448 118.549 138.448C116.687 138.448 115.133 138.113 113.888 137.443C112.643 136.762 111.68 135.841 110.999 134.681C110.329 133.522 109.909 132.207 109.738 130.739ZM133.105 114.89H136.09L143.703 133.835L151.3 114.89H154.301L144.852 138.129H142.522L133.105 114.89ZM132.131 114.89H134.765L135.196 129.063V138.129H132.131V114.89ZM152.625 114.89H155.258V138.129H152.194V129.063L152.625 114.89ZM178.561 125.775V127.244C178.561 128.989 178.343 130.553 177.907 131.936C177.47 133.319 176.843 134.495 176.023 135.463C175.204 136.432 174.22 137.171 173.071 137.682C171.932 138.193 170.655 138.448 169.24 138.448C167.867 138.448 166.607 138.193 165.457 137.682C164.319 137.171 163.329 136.432 162.489 135.463C161.659 134.495 161.015 133.319 160.557 131.936C160.1 130.553 159.871 128.989 159.871 127.244V125.775C159.871 124.03 160.095 122.471 160.541 121.099C160.999 119.716 161.643 118.54 162.473 117.571C163.303 116.593 164.287 115.848 165.425 115.337C166.575 114.826 167.835 114.571 169.208 114.571C170.623 114.571 171.9 114.826 173.039 115.337C174.188 115.848 175.172 116.593 175.991 117.571C176.821 118.54 177.454 119.716 177.891 121.099C178.338 122.471 178.561 124.03 178.561 125.775ZM175.513 127.244V125.743C175.513 124.36 175.369 123.136 175.082 122.072C174.805 121.008 174.395 120.115 173.853 119.391C173.31 118.667 172.645 118.119 171.858 117.747C171.081 117.375 170.198 117.188 169.208 117.188C168.25 117.188 167.383 117.375 166.607 117.747C165.84 118.119 165.181 118.667 164.627 119.391C164.085 120.115 163.664 121.008 163.366 122.072C163.069 123.136 162.92 124.36 162.92 125.743V127.244C162.92 128.638 163.069 129.872 163.366 130.947C163.664 132.011 164.09 132.91 164.643 133.644C165.207 134.367 165.872 134.915 166.638 135.288C167.415 135.66 168.282 135.847 169.24 135.847C170.24 135.847 171.129 135.66 171.905 135.288C172.682 134.915 173.337 134.367 173.869 133.644C174.411 132.91 174.821 132.011 175.098 130.947C175.374 129.872 175.513 128.638 175.513 127.244ZM203.332 135.543L203.045 143.731H200.284V138.129H198.001V135.543H203.332ZM183.27 138.129V114.89H186.366V135.623H197.81V114.89H200.89V138.129H183.27ZM210.291 132.798L221.735 114.89H224.815V138.129H221.735V120.205L210.291 138.129H207.227V114.89H210.291V132.798ZM233.626 132.798L245.07 114.89H248.15V138.129H245.07V120.205L233.626 138.129H230.561V114.89H233.626V132.798ZM56.9083 162.881V165.387H44.3312V162.881H56.9083ZM44.81 152.89V176.129H41.7296V152.89H44.81ZM59.5897 152.89V176.129H56.5252V152.89H59.5897ZM73.9544 154.949L66.2613 176.129H63.117L71.9752 152.89H74.0022L73.9544 154.949ZM80.4025 176.129L72.6935 154.949L72.6456 152.89H74.6726L83.5627 176.129H80.4025ZM80.0035 167.526V170.048H66.9476V167.526H80.0035ZM112.531 152.89V176.129H109.467V155.412H98.0072V176.129H94.9268V152.89H112.531ZM136.01 163.775V165.244C136.01 166.989 135.792 168.553 135.355 169.936C134.919 171.319 134.291 172.495 133.472 173.463C132.653 174.432 131.668 175.171 130.519 175.682C129.381 176.193 128.104 176.448 126.689 176.448C125.316 176.448 124.055 176.193 122.906 175.682C121.767 175.171 120.778 174.432 119.937 173.463C119.107 172.495 118.464 171.319 118.006 169.936C117.548 168.553 117.32 166.989 117.32 165.244V163.775C117.32 162.03 117.543 160.471 117.99 159.099C118.448 157.716 119.091 156.54 119.921 155.571C120.751 154.593 121.736 153.848 122.874 153.337C124.023 152.826 125.284 152.571 126.657 152.571C128.072 152.571 129.349 152.826 130.487 153.337C131.637 153.848 132.621 154.593 133.44 155.571C134.27 156.54 134.903 157.716 135.339 159.099C135.786 160.471 136.01 162.03 136.01 163.775ZM132.961 165.244V163.743C132.961 162.36 132.818 161.136 132.53 160.072C132.254 159.008 131.844 158.115 131.301 157.391C130.759 156.667 130.094 156.119 129.306 155.747C128.529 155.375 127.646 155.188 126.657 155.188C125.699 155.188 124.832 155.375 124.055 155.747C123.289 156.119 122.629 156.667 122.076 157.391C121.533 158.115 121.113 159.008 120.815 160.072C120.517 161.136 120.368 162.36 120.368 163.743V165.244C120.368 166.638 120.517 167.872 120.815 168.947C121.113 170.011 121.539 170.91 122.092 171.644C122.656 172.367 123.321 172.915 124.087 173.288C124.864 173.66 125.731 173.847 126.689 173.847C127.689 173.847 128.577 173.66 129.354 173.288C130.131 172.915 130.785 172.367 131.317 171.644C131.86 170.91 132.27 170.011 132.546 168.947C132.823 167.872 132.961 166.638 132.961 165.244ZM155.051 152.89V155.412H144.421V152.89H155.051ZM157.7 152.89V176.129H154.62V152.89H157.7ZM143.368 152.89H146.432L145.905 164.27C145.831 165.909 145.703 167.372 145.522 168.659C145.352 169.936 145.107 171.048 144.788 171.995C144.469 172.931 144.054 173.708 143.543 174.325C143.032 174.932 142.405 175.384 141.66 175.682C140.926 175.98 140.043 176.129 139.01 176.129H138.18V173.623L138.819 173.575C139.415 173.533 139.925 173.4 140.351 173.176C140.787 172.942 141.154 172.591 141.452 172.123C141.761 171.655 142.011 171.048 142.203 170.303C142.394 169.558 142.543 168.649 142.649 167.574C142.766 166.489 142.857 165.222 142.921 163.775L143.368 152.89ZM181.147 163.775V165.244C181.147 166.989 180.929 168.553 180.492 169.936C180.056 171.319 179.428 172.495 178.609 173.463C177.79 174.432 176.805 175.171 175.656 175.682C174.518 176.193 173.241 176.448 171.826 176.448C170.453 176.448 169.192 176.193 168.043 175.682C166.904 175.171 165.915 174.432 165.074 173.463C164.244 172.495 163.601 171.319 163.143 169.936C162.685 168.553 162.457 166.989 162.457 165.244V163.775C162.457 162.03 162.68 160.471 163.127 159.099C163.585 157.716 164.228 156.54 165.058 155.571C165.888 154.593 166.873 153.848 168.011 153.337C169.16 152.826 170.421 152.571 171.794 152.571C173.209 152.571 174.486 152.826 175.624 153.337C176.774 153.848 177.758 154.593 178.577 155.571C179.407 156.54 180.04 157.716 180.476 159.099C180.923 160.471 181.147 162.03 181.147 163.775ZM178.098 165.244V163.743C178.098 162.36 177.955 161.136 177.667 160.072C177.391 159.008 176.981 158.115 176.438 157.391C175.896 156.667 175.231 156.119 174.443 155.747C173.666 155.375 172.783 155.188 171.794 155.188C170.836 155.188 169.969 155.375 169.192 155.747C168.426 156.119 167.766 156.667 167.213 157.391C166.67 158.115 166.25 159.008 165.952 160.072C165.654 161.136 165.505 162.36 165.505 163.743V165.244C165.505 166.638 165.654 167.872 165.952 168.947C166.25 170.011 166.676 170.91 167.229 171.644C167.793 172.367 168.458 172.915 169.224 173.288C170.001 173.66 170.868 173.847 171.826 173.847C172.826 173.847 173.714 173.66 174.491 173.288C175.268 172.915 175.922 172.367 176.454 171.644C176.997 170.91 177.407 170.011 177.683 168.947C177.96 167.872 178.098 166.638 178.098 165.244ZM192.064 165.515L183.764 152.89H187.371L193.548 162.961H197.922L197.427 165.515H192.064ZM193.724 165.276L186.972 176.129H183.142L191.777 162.626L193.724 165.276ZM199.246 152.89V176.129H196.198V152.89H199.246ZM211.568 152.89L203.236 165.515H198.033L197.554 162.961H201.768L207.945 152.89H211.568ZM208.344 176.129L201.608 165.276L203.572 162.626L212.174 176.129H208.344ZM218.303 170.798L229.747 152.89H232.828V176.129H229.747V158.205L218.303 176.129H215.239V152.89H218.303V170.798ZM246.538 152.89V176.129H243.505V152.89H246.538ZM254.008 152.89V155.412H236.052V152.89H254.008ZM272.219 173.623V176.129H259.913V173.623H272.219ZM260.536 152.89V176.129H257.455V152.89H260.536ZM270.591 162.881V165.387H259.913V162.881H270.591ZM272.059 152.89V155.412H259.913V152.89H272.059ZM290.973 152.89V155.412H280.343V152.89H290.973ZM293.622 152.89V176.129H290.542V152.89H293.622ZM279.289 152.89H282.354L281.827 164.27C281.753 165.909 281.625 167.372 281.444 168.659C281.274 169.936 281.029 171.048 280.71 171.995C280.391 172.931 279.976 173.708 279.465 174.325C278.954 174.932 278.326 175.384 277.582 175.682C276.847 175.98 275.964 176.129 274.932 176.129H274.102V173.623L274.741 173.575C275.336 173.533 275.847 173.4 276.273 173.176C276.709 172.942 277.076 172.591 277.374 172.123C277.683 171.655 277.933 171.048 278.124 170.303C278.316 169.558 278.465 168.649 278.571 167.574C278.688 166.489 278.779 165.222 278.843 163.775L279.289 152.89ZM301.427 162.355H307.763C309.466 162.355 310.902 162.642 312.073 163.217C313.243 163.781 314.132 164.573 314.738 165.595C315.345 166.616 315.648 167.813 315.648 169.186C315.648 170.207 315.478 171.144 315.137 171.995C314.797 172.836 314.291 173.57 313.621 174.198C312.951 174.815 312.126 175.294 311.147 175.634C310.168 175.964 309.04 176.129 307.763 176.129H299.081V152.89H302.161V173.623H307.763C308.902 173.623 309.822 173.416 310.525 173.001C311.238 172.575 311.759 172.022 312.089 171.341C312.419 170.66 312.584 169.931 312.584 169.154C312.584 168.377 312.419 167.664 312.089 167.015C311.759 166.366 311.238 165.85 310.525 165.467C309.822 165.073 308.902 164.877 307.763 164.877H301.427V162.355ZM334.881 162.881V165.387H322.304V162.881H334.881ZM322.782 152.89V176.129H319.702V152.89H322.782ZM337.562 152.89V176.129H334.498V152.89H337.562ZM345.527 162.355H351.863C353.565 162.355 355.002 162.642 356.172 163.217C357.343 163.781 358.231 164.573 358.838 165.595C359.444 166.616 359.748 167.813 359.748 169.186C359.748 170.207 359.577 171.144 359.237 171.995C358.896 172.836 358.391 173.57 357.721 174.198C357.05 174.815 356.226 175.294 355.247 175.634C354.268 175.964 353.14 176.129 351.863 176.129H343.18V152.89H346.261V173.623H351.863C353.001 173.623 353.922 173.416 354.624 173.001C355.337 172.575 355.858 172.022 356.188 171.341C356.518 170.66 356.683 169.931 356.683 169.154C356.683 168.377 356.518 167.664 356.188 167.015C355.858 166.366 355.337 165.85 354.624 165.467C353.922 165.073 353.001 164.877 351.863 164.877H345.527V162.355ZM365.637 152.89V176.129H362.557V152.89H365.637ZM386.083 173.623V176.129H373.777V173.623H386.083ZM374.4 152.89V176.129H371.319V152.89H374.4ZM384.455 162.881V165.387H373.777V162.881H384.455ZM385.923 152.89V155.412H373.777V152.89H385.923ZM395.867 169.585H392.898C392.909 168.564 392.999 167.728 393.169 167.079C393.35 166.419 393.643 165.818 394.047 165.276C394.452 164.733 394.989 164.116 395.659 163.424C396.149 162.924 396.596 162.456 397 162.02C397.415 161.573 397.75 161.094 398.005 160.583C398.261 160.062 398.389 159.439 398.389 158.716C398.389 157.982 398.256 157.348 397.99 156.816C397.734 156.284 397.351 155.875 396.84 155.587C396.34 155.3 395.718 155.156 394.973 155.156C394.356 155.156 393.771 155.268 393.217 155.492C392.664 155.715 392.217 156.061 391.877 156.529C391.536 156.987 391.36 157.588 391.35 158.333H388.397C388.418 157.13 388.716 156.098 389.291 155.236C389.876 154.374 390.664 153.715 391.653 153.257C392.643 152.8 393.749 152.571 394.973 152.571C396.324 152.571 397.473 152.816 398.42 153.305C399.378 153.794 400.107 154.497 400.607 155.412C401.107 156.316 401.357 157.391 401.357 158.636C401.357 159.594 401.16 160.477 400.767 161.285C400.384 162.083 399.889 162.834 399.282 163.536C398.676 164.238 398.032 164.908 397.351 165.547C396.766 166.09 396.372 166.701 396.17 167.382C395.968 168.063 395.867 168.798 395.867 169.585ZM392.77 174.645C392.77 174.166 392.919 173.761 393.217 173.432C393.515 173.102 393.946 172.937 394.51 172.937C395.085 172.937 395.521 173.102 395.819 173.432C396.117 173.761 396.266 174.166 396.266 174.645C396.266 175.102 396.117 175.496 395.819 175.826C395.521 176.156 395.085 176.32 394.51 176.32C393.946 176.32 393.515 176.156 393.217 175.826C392.919 175.496 392.77 175.102 392.77 174.645Z" fill="black"/>
<path d="M218.567 508.63V510.206H211.924V508.63H218.567ZM220.222 508.63V523.152H218.297V508.63H220.222ZM211.265 508.63H213.18L212.851 515.741C212.805 516.765 212.725 517.68 212.612 518.484C212.506 519.282 212.353 519.977 212.153 520.569C211.954 521.154 211.694 521.64 211.375 522.025C211.056 522.404 210.664 522.687 210.198 522.873C209.739 523.059 209.187 523.152 208.542 523.152H208.024V521.586L208.423 521.556C208.795 521.53 209.114 521.447 209.38 521.307C209.653 521.161 209.882 520.941 210.068 520.649C210.261 520.356 210.418 519.977 210.537 519.512C210.657 519.046 210.75 518.478 210.817 517.806C210.89 517.128 210.946 516.337 210.986 515.432L211.265 508.63ZM232.92 521.586V523.152H225.23V521.586H232.92ZM225.619 508.63V523.152H223.693V508.63H225.619ZM231.902 514.874V516.44H225.23V514.874H231.902ZM232.82 508.63V510.206H225.23V508.63H232.82ZM237.318 508.63V523.152H235.393V508.63H237.318ZM246.266 508.63L239.962 516.619H236.55L236.251 515.023H238.815L243.882 508.63H246.266ZM244.33 523.152L238.875 516.37L239.952 514.684L246.684 523.152H244.33ZM261.028 521.536L260.848 526.653H259.123V523.152H257.696V521.536H261.028ZM248.49 523.152V508.63H250.425V521.586H257.576V508.63H259.502V523.152H248.49ZM265.376 519.821L272.528 508.63H274.453V523.152H272.528V511.951L265.376 523.152H263.461V508.63H265.376V519.821ZM286.014 517.497H281.934L280.986 517.108C279.936 516.775 279.128 516.267 278.563 515.582C277.997 514.89 277.715 514.032 277.715 513.008C277.715 512.071 277.921 511.276 278.333 510.625C278.752 509.973 279.344 509.477 280.109 509.138C280.88 508.799 281.791 508.63 282.842 508.63H287.49V523.152H285.565V510.206H282.842C281.778 510.206 280.976 510.458 280.438 510.964C279.906 511.469 279.64 512.151 279.64 513.008C279.64 513.567 279.756 514.066 279.989 514.505C280.228 514.943 280.581 515.289 281.046 515.542C281.512 515.795 282.09 515.921 282.782 515.921H286.023L286.014 517.497ZM282.742 516.499L279.211 523.152H277.166L280.797 516.499H282.742ZM307.119 508.63V523.152H305.204V510.206H298.043V523.152H296.118V508.63H307.119ZM321.792 515.432V516.35C321.792 517.44 321.655 518.418 321.383 519.282C321.11 520.147 320.718 520.882 320.206 521.487C319.694 522.092 319.079 522.554 318.36 522.873C317.649 523.192 316.851 523.352 315.967 523.352C315.109 523.352 314.321 523.192 313.603 522.873C312.891 522.554 312.273 522.092 311.747 521.487C311.229 520.882 310.826 520.147 310.541 519.282C310.255 518.418 310.112 517.44 310.112 516.35V515.432C310.112 514.342 310.251 513.367 310.531 512.51C310.817 511.645 311.219 510.91 311.737 510.305C312.256 509.694 312.871 509.228 313.583 508.909C314.301 508.59 315.089 508.43 315.947 508.43C316.831 508.43 317.629 508.59 318.341 508.909C319.059 509.228 319.674 509.694 320.186 510.305C320.704 510.91 321.1 511.645 321.373 512.51C321.652 513.367 321.792 514.342 321.792 515.432ZM319.887 516.35V515.412C319.887 514.548 319.797 513.783 319.617 513.118C319.444 512.453 319.188 511.895 318.849 511.442C318.51 510.99 318.094 510.648 317.602 510.415C317.117 510.182 316.565 510.066 315.947 510.066C315.348 510.066 314.806 510.182 314.321 510.415C313.842 510.648 313.43 510.99 313.084 511.442C312.745 511.895 312.482 512.453 312.296 513.118C312.11 513.783 312.017 514.548 312.017 515.412V516.35C312.017 517.221 312.11 517.992 312.296 518.664C312.482 519.329 312.748 519.891 313.094 520.35C313.446 520.802 313.862 521.144 314.341 521.377C314.826 521.61 315.368 521.726 315.967 521.726C316.592 521.726 317.147 521.61 317.632 521.377C318.118 521.144 318.527 520.802 318.859 520.35C319.198 519.891 319.454 519.329 319.627 518.664C319.8 517.992 319.887 517.221 319.887 516.35ZM339.227 514.874V516.44H331.367V514.874H339.227ZM331.666 508.63V523.152H329.741V508.63H331.666ZM340.903 508.63V523.152H338.988V508.63H340.903ZM353.839 508.63V510.206H347.196V508.63H353.839ZM355.495 508.63V523.152H353.57V508.63H355.495ZM346.538 508.63H348.453L348.124 515.741C348.078 516.765 347.998 517.68 347.885 518.484C347.778 519.282 347.625 519.977 347.426 520.569C347.226 521.154 346.967 521.64 346.648 522.025C346.329 522.404 345.936 522.687 345.471 522.873C345.012 523.059 344.46 523.152 343.815 523.152H343.296V521.586L343.695 521.556C344.068 521.53 344.387 521.447 344.653 521.307C344.926 521.161 345.155 520.941 345.341 520.649C345.534 520.356 345.69 519.977 345.81 519.512C345.93 519.046 346.023 518.478 346.089 517.806C346.162 517.128 346.219 516.337 346.259 515.432L346.538 508.63ZM370.058 508.63V523.152H368.143V510.206H360.981V523.152H359.056V508.63H370.058Z" fill="white"/>
</svg>
