<svg width="487" height="688" viewBox="0 0 487 688" fill="none" xmlns="http://www.w3.org/2000/svg">
<g clip-path="url(#clip0_58_996)">
<rect width="486.176" height="688" fill="white"/>
<path d="M377.151 44.0262V45.1777C377.151 45.7966 377.096 46.3188 376.985 46.7441C376.875 47.1694 376.716 47.5117 376.508 47.771C376.301 48.0304 376.05 48.2188 375.756 48.3364C375.466 48.4505 375.137 48.5075 374.771 48.5075C374.48 48.5075 374.212 48.4712 373.967 48.3986C373.721 48.326 373.5 48.2102 373.303 48.0511C373.109 47.8886 372.943 47.6777 372.805 47.4183C372.667 47.159 372.561 46.8443 372.489 46.4744C372.416 46.1044 372.38 45.6722 372.38 45.1777V44.0262C372.38 43.4073 372.435 42.8886 372.546 42.4702C372.66 42.0518 372.821 41.7164 373.028 41.464C373.235 41.2081 373.484 41.0249 373.775 40.9142C374.069 40.8036 374.397 40.7483 374.76 40.7483C375.054 40.7483 375.324 40.7846 375.569 40.8572C375.818 40.9263 376.04 41.0387 376.233 41.1943C376.427 41.3465 376.591 41.5505 376.726 41.8063C376.864 42.0588 376.97 42.3682 377.043 42.7348C377.115 43.1013 377.151 43.5318 377.151 44.0262ZM376.187 45.3333V43.8655C376.187 43.5266 376.166 43.2292 376.124 42.9733C376.086 42.714 376.029 42.4927 375.953 42.3095C375.877 42.1262 375.78 41.9775 375.663 41.8634C375.549 41.7493 375.416 41.6663 375.263 41.6144C375.115 41.5591 374.947 41.5314 374.76 41.5314C374.532 41.5314 374.33 41.5747 374.154 41.6611C373.977 41.7441 373.828 41.8772 373.707 42.0605C373.59 42.2438 373.5 42.4841 373.438 42.7814C373.376 43.0788 373.344 43.4402 373.344 43.8655V45.3333C373.344 45.6722 373.363 45.9713 373.401 46.2306C373.443 46.4899 373.503 46.7147 373.583 46.9049C373.663 47.0916 373.759 47.2454 373.873 47.3665C373.988 47.4875 374.119 47.5774 374.268 47.6362C374.42 47.6915 374.587 47.7192 374.771 47.7192C375.006 47.7192 375.212 47.6742 375.388 47.5843C375.564 47.4944 375.711 47.3544 375.829 47.1642C375.95 46.9706 376.04 46.7233 376.099 46.4225C376.157 46.1182 376.187 45.7551 376.187 45.3333ZM381.539 40.8105V48.4038H380.58V42.0086L378.645 42.714V41.8478L381.389 40.8105H381.539ZM384.48 47.8955C384.48 47.733 384.53 47.5964 384.631 47.4858C384.734 47.3717 384.883 47.3146 385.077 47.3146C385.27 47.3146 385.417 47.3717 385.518 47.4858C385.621 47.5964 385.673 47.733 385.673 47.8955C385.673 48.0546 385.621 48.1894 385.518 48.3001C385.417 48.4107 385.27 48.466 385.077 48.466C384.883 48.466 384.734 48.4107 384.631 48.3001C384.53 48.1894 384.48 48.0546 384.48 47.8955ZM391.902 44.0262V45.1777C391.902 45.7966 391.847 46.3188 391.736 46.7441C391.626 47.1694 391.467 47.5117 391.259 47.771C391.052 48.0304 390.801 48.2188 390.507 48.3364C390.217 48.4505 389.888 48.5075 389.522 48.5075C389.231 48.5075 388.963 48.4712 388.718 48.3986C388.472 48.326 388.251 48.2102 388.054 48.0511C387.86 47.8886 387.694 47.6777 387.556 47.4183C387.418 47.159 387.312 46.8443 387.24 46.4744C387.167 46.1044 387.131 45.6722 387.131 45.1777V44.0262C387.131 43.4073 387.186 42.8886 387.297 42.4702C387.411 42.0518 387.571 41.7164 387.779 41.464C387.986 41.2081 388.235 41.0249 388.526 40.9142C388.82 40.8036 389.148 40.7483 389.511 40.7483C389.805 40.7483 390.075 40.7846 390.32 40.8572C390.569 40.9263 390.791 41.0387 390.984 41.1943C391.178 41.3465 391.342 41.5505 391.477 41.8063C391.615 42.0588 391.721 42.3682 391.793 42.7348C391.866 43.1013 391.902 43.5318 391.902 44.0262ZM390.938 45.3333V43.8655C390.938 43.5266 390.917 43.2292 390.875 42.9733C390.837 42.714 390.78 42.4927 390.704 42.3095C390.628 42.1262 390.531 41.9775 390.414 41.8634C390.3 41.7493 390.167 41.6663 390.014 41.6144C389.866 41.5591 389.698 41.5314 389.511 41.5314C389.283 41.5314 389.081 41.5747 388.904 41.6611C388.728 41.7441 388.579 41.8772 388.458 42.0605C388.341 42.2438 388.251 42.4841 388.189 42.7814C388.126 43.0788 388.095 43.4402 388.095 43.8655V45.3333C388.095 45.6722 388.114 45.9713 388.152 46.2306C388.194 46.4899 388.254 46.7147 388.334 46.9049C388.413 47.0916 388.51 47.2454 388.624 47.3665C388.738 47.4875 388.87 47.5774 389.019 47.6362C389.171 47.6915 389.338 47.7192 389.522 47.7192C389.757 47.7192 389.963 47.6742 390.139 47.5843C390.315 47.4944 390.462 47.3544 390.58 47.1642C390.701 46.9706 390.791 46.7233 390.849 46.4225C390.908 46.1182 390.938 45.7551 390.938 45.3333ZM398.085 47.6154V48.4038H393.142V47.714L395.616 44.9598C395.92 44.621 396.155 44.334 396.321 44.0989C396.491 43.8603 396.608 43.6476 396.674 43.4609C396.743 43.2707 396.778 43.0771 396.778 42.88C396.778 42.631 396.726 42.4063 396.622 42.2057C396.522 42.0017 396.373 41.8392 396.176 41.7182C395.979 41.5971 395.741 41.5366 395.46 41.5366C395.125 41.5366 394.845 41.6023 394.62 41.7337C394.399 41.8617 394.233 42.0415 394.122 42.2731C394.012 42.5048 393.956 42.7711 393.956 43.0719H392.997C392.997 42.6466 393.09 42.2576 393.277 41.9049C393.464 41.5522 393.74 41.2721 394.107 41.0646C394.473 40.8537 394.924 40.7483 395.46 40.7483C395.938 40.7483 396.346 40.833 396.684 41.0024C397.023 41.1684 397.283 41.4035 397.462 41.7078C397.646 42.0086 397.737 42.3613 397.737 42.7659C397.737 42.9872 397.699 43.2119 397.623 43.4402C397.551 43.6649 397.449 43.8897 397.317 44.1144C397.189 44.3392 397.039 44.5605 396.866 44.7783C396.697 44.9962 396.515 45.2105 396.321 45.4215L394.299 47.6154H398.085ZM399.231 47.8955C399.231 47.733 399.281 47.5964 399.382 47.4858C399.485 47.3717 399.634 47.3146 399.828 47.3146C400.021 47.3146 400.168 47.3717 400.268 47.4858C400.372 47.5964 400.424 47.733 400.424 47.8955C400.424 48.0546 400.372 48.1894 400.268 48.3001C400.168 48.4107 400.021 48.466 399.828 48.466C399.634 48.466 399.485 48.4107 399.382 48.3001C399.281 48.1894 399.231 48.0546 399.231 47.8955ZM406.861 47.6154V48.4038H401.918V47.714L404.392 44.9598C404.696 44.621 404.931 44.334 405.097 44.0989C405.267 43.8603 405.384 43.6476 405.45 43.4609C405.519 43.2707 405.554 43.0771 405.554 42.88C405.554 42.631 405.502 42.4063 405.398 42.2057C405.298 42.0017 405.149 41.8392 404.952 41.7182C404.755 41.5971 404.516 41.5366 404.236 41.5366C403.901 41.5366 403.621 41.6023 403.396 41.7337C403.175 41.8617 403.009 42.0415 402.898 42.2731C402.787 42.5048 402.732 42.7711 402.732 43.0719H401.773C401.773 42.6466 401.866 42.2576 402.053 41.9049C402.239 41.5522 402.516 41.2721 402.883 41.0646C403.249 40.8537 403.7 40.7483 404.236 40.7483C404.713 40.7483 405.121 40.833 405.46 41.0024C405.799 41.1684 406.059 41.4035 406.238 41.7078C406.422 42.0086 406.513 42.3613 406.513 42.7659C406.513 42.9872 406.475 43.2119 406.399 43.4402C406.327 43.6649 406.225 43.8897 406.093 44.1144C405.965 44.3392 405.815 44.5605 405.642 44.7783C405.472 44.9962 405.291 45.2105 405.097 45.4215L403.074 47.6154H406.861ZM412.628 44.0262V45.1777C412.628 45.7966 412.573 46.3188 412.462 46.7441C412.352 47.1694 412.193 47.5117 411.985 47.771C411.778 48.0304 411.527 48.2188 411.233 48.3364C410.943 48.4505 410.614 48.5075 410.248 48.5075C409.957 48.5075 409.689 48.4712 409.444 48.3986C409.198 48.326 408.977 48.2102 408.78 48.0511C408.586 47.8886 408.42 47.6777 408.282 47.4183C408.144 47.159 408.038 46.8443 407.966 46.4744C407.893 46.1044 407.857 45.6722 407.857 45.1777V44.0262C407.857 43.4073 407.912 42.8886 408.023 42.4702C408.137 42.0518 408.297 41.7164 408.505 41.464C408.712 41.2081 408.961 41.0249 409.252 40.9142C409.546 40.8036 409.874 40.7483 410.237 40.7483C410.531 40.7483 410.801 40.7846 411.046 40.8572C411.295 40.9263 411.517 41.0387 411.71 41.1943C411.904 41.3465 412.068 41.5505 412.203 41.8063C412.341 42.0588 412.447 42.3682 412.519 42.7348C412.592 43.1013 412.628 43.5318 412.628 44.0262ZM411.664 45.3333V43.8655C411.664 43.5266 411.643 43.2292 411.601 42.9733C411.563 42.714 411.506 42.4927 411.43 42.3095C411.354 42.1262 411.257 41.9775 411.14 41.8634C411.026 41.7493 410.893 41.6663 410.74 41.6144C410.592 41.5591 410.424 41.5314 410.237 41.5314C410.009 41.5314 409.807 41.5747 409.63 41.6611C409.454 41.7441 409.305 41.8772 409.184 42.0605C409.067 42.2438 408.977 42.4841 408.915 42.7814C408.852 43.0788 408.821 43.4402 408.821 43.8655V45.3333C408.821 45.6722 408.84 45.9713 408.878 46.2306C408.92 46.4899 408.98 46.7147 409.06 46.9049C409.139 47.0916 409.236 47.2454 409.35 47.3665C409.464 47.4875 409.596 47.5774 409.745 47.6362C409.897 47.6915 410.064 47.7192 410.248 47.7192C410.483 47.7192 410.689 47.6742 410.865 47.5843C411.041 47.4944 411.188 47.3544 411.306 47.1642C411.427 46.9706 411.517 46.7233 411.575 46.4225C411.634 46.1182 411.664 45.7551 411.664 45.3333ZM418.811 47.6154V48.4038H413.868V47.714L416.342 44.9598C416.646 44.621 416.881 44.334 417.047 44.0989C417.217 43.8603 417.334 43.6476 417.4 43.4609C417.469 43.2707 417.504 43.0771 417.504 42.88C417.504 42.631 417.452 42.4063 417.348 42.2057C417.248 42.0017 417.099 41.8392 416.902 41.7182C416.705 41.5971 416.467 41.5366 416.186 41.5366C415.851 41.5366 415.571 41.6023 415.346 41.7337C415.125 41.8617 414.959 42.0415 414.848 42.2731C414.738 42.5048 414.682 42.7711 414.682 43.0719H413.723C413.723 42.6466 413.816 42.2576 414.003 41.9049C414.19 41.5522 414.466 41.2721 414.833 41.0646C415.199 40.8537 415.65 40.7483 416.186 40.7483C416.664 40.7483 417.072 40.833 417.41 41.0024C417.749 41.1684 418.009 41.4035 418.188 41.7078C418.372 42.0086 418.463 42.3613 418.463 42.7659C418.463 42.9872 418.425 43.2119 418.349 43.4402C418.277 43.6649 418.175 43.8897 418.043 44.1144C417.915 44.3392 417.765 44.5605 417.592 44.7783C417.423 44.9962 417.241 45.2105 417.047 45.4215L415.025 47.6154H418.811ZM421.238 44.1559H421.923C422.258 44.1559 422.535 44.1006 422.753 43.9899C422.974 43.8758 423.138 43.722 423.246 43.5283C423.356 43.3312 423.411 43.1099 423.411 42.8644C423.411 42.574 423.363 42.3302 423.266 42.1331C423.169 41.936 423.024 41.7873 422.831 41.6871C422.637 41.5868 422.391 41.5366 422.094 41.5366C421.824 41.5366 421.586 41.5902 421.378 41.6974C421.174 41.8012 421.013 41.9498 420.896 42.1435C420.782 42.3371 420.725 42.5653 420.725 42.8281H419.765C419.765 42.4443 419.862 42.0951 420.056 41.7804C420.249 41.4658 420.521 41.2151 420.87 41.0283C421.223 40.8416 421.631 40.7483 422.094 40.7483C422.55 40.7483 422.95 40.8295 423.292 40.992C423.635 41.1511 423.901 41.3897 424.091 41.7078C424.281 42.0225 424.376 42.4149 424.376 42.8852C424.376 43.0754 424.331 43.2794 424.241 43.4972C424.155 43.7116 424.018 43.9121 423.832 44.0989C423.648 44.2856 423.41 44.4395 423.116 44.5605C422.822 44.678 422.469 44.7368 422.058 44.7368H421.238V44.1559ZM421.238 44.9443V44.3686H422.058C422.538 44.3686 422.936 44.4256 423.251 44.5397C423.565 44.6538 423.813 44.806 423.992 44.9962C424.176 45.1863 424.304 45.3955 424.376 45.6237C424.452 45.8485 424.49 46.0733 424.49 46.298C424.49 46.6507 424.43 46.9636 424.309 47.2368C424.191 47.51 424.024 47.7416 423.806 47.9318C423.591 48.122 423.339 48.2655 423.048 48.3623C422.758 48.4591 422.442 48.5075 422.099 48.5075C421.771 48.5075 421.461 48.4609 421.171 48.3675C420.884 48.2741 420.63 48.1393 420.408 47.9629C420.187 47.7831 420.014 47.5636 419.89 47.3042C419.765 47.0414 419.703 46.7423 419.703 46.4069H420.663C420.663 46.6697 420.72 46.8997 420.834 47.0968C420.951 47.2939 421.117 47.4477 421.332 47.5584C421.549 47.6656 421.805 47.7192 422.099 47.7192C422.393 47.7192 422.646 47.669 422.856 47.5688C423.071 47.465 423.235 47.3094 423.349 47.102C423.467 46.8945 423.526 46.6334 423.526 46.3188C423.526 46.0041 423.46 45.7465 423.328 45.5459C423.197 45.3419 423.01 45.1915 422.768 45.0947C422.53 44.9944 422.248 44.9443 421.923 44.9443H421.238Z" fill="black"/>
<path d="M377.343 58.8286V59.6481H373.702V66.3804H372.706V58.8286H377.343ZM376.42 65.8721C376.42 65.7096 376.47 65.573 376.571 65.4623C376.674 65.3482 376.823 65.2912 377.017 65.2912C377.21 65.2912 377.357 65.3482 377.457 65.4623C377.561 65.573 377.613 65.7096 377.613 65.8721C377.613 66.0311 377.561 66.166 377.457 66.2766C377.357 66.3873 377.21 66.4426 377.017 66.4426C376.823 66.4426 376.674 66.3873 376.571 66.2766C376.47 66.166 376.42 66.0311 376.42 65.8721ZM382.302 58.8286H383.272L385.746 64.9852L388.215 58.8286H389.19L386.119 66.3804H385.362L382.302 58.8286ZM381.985 58.8286H382.841L382.981 63.4343V66.3804H381.985V58.8286ZM388.645 58.8286H389.501V66.3804H388.505V63.4343L388.645 58.8286ZM397.073 62.3659V62.8431C397.073 63.4101 397.003 63.9184 396.861 64.3679C396.719 64.8174 396.515 65.1995 396.249 65.5142C395.983 65.8289 395.663 66.0692 395.289 66.2351C394.919 66.4011 394.504 66.4841 394.044 66.4841C393.598 66.4841 393.189 66.4011 392.815 66.2351C392.445 66.0692 392.124 65.8289 391.85 65.5142C391.581 65.1995 391.372 64.8174 391.223 64.3679C391.074 63.9184 391 63.4101 391 62.8431V62.3659C391 61.7988 391.072 61.2922 391.218 60.8462C391.366 60.3967 391.576 60.0146 391.845 59.6999C392.115 59.3818 392.435 59.1398 392.805 58.9738C393.178 58.8078 393.588 58.7248 394.034 58.7248C394.494 58.7248 394.909 58.8078 395.279 58.9738C395.652 59.1398 395.972 59.3818 396.238 59.6999C396.508 60.0146 396.714 60.3967 396.856 60.8462C397.001 61.2922 397.073 61.7988 397.073 62.3659ZM396.083 62.8431V62.3555C396.083 61.906 396.036 61.5083 395.943 61.1626C395.853 60.8168 395.72 60.5263 395.543 60.2912C395.367 60.0561 395.151 59.878 394.895 59.757C394.643 59.636 394.356 59.5754 394.034 59.5754C393.723 59.5754 393.441 59.636 393.189 59.757C392.94 59.878 392.725 60.0561 392.546 60.2912C392.369 60.5263 392.233 60.8168 392.136 61.1626C392.039 61.5083 391.991 61.906 391.991 62.3555V62.8431C391.991 63.296 392.039 63.6971 392.136 64.0464C392.233 64.3921 392.371 64.6843 392.551 64.9229C392.734 65.158 392.95 65.3361 393.199 65.4571C393.451 65.5782 393.733 65.6387 394.044 65.6387C394.369 65.6387 394.658 65.5782 394.911 65.4571C395.163 65.3361 395.376 65.158 395.549 64.9229C395.725 64.6843 395.858 64.3921 395.948 64.0464C396.038 63.6971 396.083 63.296 396.083 62.8431ZM403.132 63.9789H404.127C404.076 64.4561 403.939 64.8831 403.718 65.26C403.496 65.6369 403.183 65.936 402.779 66.1573C402.374 66.3752 401.869 66.4841 401.264 66.4841C400.822 66.4841 400.419 66.4011 400.056 66.2351C399.696 66.0692 399.387 65.834 399.127 65.5298C398.868 65.222 398.668 64.8538 398.526 64.425C398.387 63.9928 398.318 63.5121 398.318 62.9831V62.231C398.318 61.702 398.387 61.2231 398.526 60.7943C398.668 60.3621 398.87 59.9921 399.133 59.6844C399.399 59.3766 399.719 59.1398 400.092 58.9738C400.466 58.8078 400.886 58.7248 401.352 58.7248C401.923 58.7248 402.405 58.832 402.8 59.0464C403.194 59.2608 403.5 59.5582 403.718 59.9385C403.939 60.3154 404.076 60.7528 404.127 61.2507H403.132C403.083 60.898 402.993 60.5955 402.862 60.3431C402.73 60.0872 402.544 59.8901 402.302 59.7518C402.06 59.6135 401.743 59.5443 401.352 59.5443C401.017 59.5443 400.721 59.6083 400.466 59.7362C400.213 59.8642 400.001 60.0457 399.828 60.2808C399.658 60.516 399.53 60.7978 399.444 61.1263C399.357 61.4547 399.314 61.8195 399.314 62.2206V62.9831C399.314 63.3531 399.352 63.7006 399.428 64.0256C399.508 64.3506 399.627 64.6359 399.786 64.8814C399.945 65.1269 400.147 65.3206 400.393 65.4623C400.638 65.6006 400.929 65.6698 401.264 65.6698C401.69 65.6698 402.028 65.6024 402.281 65.4675C402.533 65.3327 402.724 65.139 402.851 64.8866C402.983 64.6342 403.076 64.3316 403.132 63.9789ZM406.539 58.8286V66.3804H405.538V58.8286H406.539ZM411.192 58.8286L407.914 62.9831H406.14L405.984 62.1532H407.317L409.952 58.8286H411.192ZM410.185 66.3804L407.348 62.8534L407.908 61.9769L411.409 66.3804H410.185ZM415.009 62.8482H413.095L413.085 62.0443H414.822C415.109 62.0443 415.36 61.9959 415.574 61.8991C415.789 61.8023 415.955 61.6639 416.072 61.4841C416.193 61.3009 416.254 61.083 416.254 60.8306C416.254 60.554 416.2 60.3292 416.093 60.1563C415.989 59.98 415.829 59.8521 415.611 59.7725C415.396 59.6895 415.123 59.6481 414.791 59.6481H413.318V66.3804H412.317V58.8286H414.791C415.178 58.8286 415.524 58.8683 415.829 58.9479C416.133 59.0239 416.39 59.1449 416.601 59.3109C416.816 59.4734 416.978 59.6809 417.089 59.9333C417.2 60.1857 417.255 60.4883 417.255 60.841C417.255 61.1522 417.175 61.434 417.016 61.6864C416.857 61.9354 416.636 62.1394 416.352 62.2984C416.072 62.4575 415.744 62.5595 415.367 62.6045L415.009 62.8482ZM414.962 66.3804H412.701L413.266 65.5661H414.962C415.28 65.5661 415.55 65.5107 415.771 65.4001C415.996 65.2894 416.167 65.1338 416.285 64.9333C416.403 64.7293 416.461 64.489 416.461 64.2123C416.461 63.9323 416.411 63.6902 416.311 63.4862C416.211 63.2822 416.053 63.1249 415.839 63.0142C415.625 62.9036 415.348 62.8482 415.009 62.8482H413.583L413.593 62.0443H415.543L415.756 62.3348C416.119 62.3659 416.427 62.4696 416.679 62.646C416.932 62.8188 417.123 63.0401 417.255 63.3099C417.39 63.5796 417.457 63.8769 417.457 64.202C417.457 64.6722 417.353 65.0699 417.146 65.3949C416.942 65.7165 416.653 65.962 416.28 66.1314C415.906 66.2974 415.467 66.3804 414.962 66.3804ZM421.731 59.4976L419.231 66.3804H418.209L421.088 58.8286H421.747L421.731 59.4976ZM423.826 66.3804L421.321 59.4976L421.306 58.8286H421.964L424.853 66.3804H423.826ZM423.697 63.5847V64.4042H419.454V63.5847H423.697ZM374.999 75.8752L376.996 70.8286H378.147L375.476 77.12C375.4 77.2964 375.315 77.4675 375.222 77.6335C375.129 77.796 375.015 77.9412 374.88 78.0692C374.745 78.1971 374.577 78.2991 374.377 78.3752C374.179 78.4513 373.934 78.4893 373.64 78.4893C373.557 78.4893 373.459 78.4841 373.344 78.4737C373.23 78.4668 373.156 78.4582 373.121 78.4478L373.152 77.649C373.191 77.656 373.265 77.6629 373.376 77.6698C373.486 77.6733 373.567 77.675 373.619 77.675C373.816 77.675 373.972 77.6352 374.086 77.5557C374.2 77.4762 374.292 77.3759 374.361 77.2549C374.434 77.1304 374.499 77.0042 374.558 76.8762L374.999 75.8752ZM373.303 70.8286L375.404 75.5329L375.652 76.4613L374.812 76.5235L372.183 70.8286H373.303ZM383.915 70.8286V71.6481H380.461V70.8286H383.915ZM384.776 70.8286V78.3804H383.775V70.8286H384.776ZM380.118 70.8286H381.114L380.943 74.5267C380.919 75.0592 380.877 75.5346 380.818 75.953C380.763 76.3679 380.684 76.7293 380.58 77.037C380.476 77.3413 380.341 77.5937 380.175 77.7943C380.009 77.9914 379.805 78.1383 379.563 78.2351C379.325 78.332 379.038 78.3804 378.702 78.3804H378.433V77.5661L378.64 77.5505C378.834 77.5367 379 77.4934 379.138 77.4208C379.28 77.3448 379.399 77.2307 379.496 77.0785C379.596 76.9264 379.677 76.7293 379.74 76.4872C379.802 76.2452 379.85 75.9495 379.885 75.6003C379.923 75.2476 379.952 74.8361 379.973 74.3659L380.118 70.8286ZM386.451 77.8721C386.451 77.7096 386.501 77.573 386.602 77.4623C386.705 77.3482 386.854 77.2912 387.048 77.2912C387.241 77.2912 387.388 77.3482 387.488 77.4623C387.592 77.573 387.644 77.7096 387.644 77.8721C387.644 78.0311 387.592 78.166 387.488 78.2766C387.388 78.3873 387.241 78.4426 387.048 78.4426C386.854 78.4426 386.705 78.3873 386.602 78.2766C386.501 78.166 386.451 78.0311 386.451 77.8721ZM394.812 71.4976L392.312 78.3804H391.29L394.169 70.8286H394.828L394.812 71.4976ZM396.908 78.3804L394.402 71.4976L394.387 70.8286H395.045L397.934 78.3804H396.908ZM396.778 75.5847V76.4042H392.535V75.5847H396.778ZM401.731 75.4188H399.714V74.6045H401.731C402.122 74.6045 402.438 74.5422 402.68 74.4177C402.922 74.2933 403.099 74.1204 403.209 73.8991C403.323 73.6778 403.38 73.4254 403.38 73.1418C403.38 72.8825 403.323 72.6387 403.209 72.4105C403.099 72.1823 402.922 71.999 402.68 71.8607C402.438 71.7189 402.122 71.6481 401.731 71.6481H399.947V78.3804H398.946V70.8286H401.731C402.302 70.8286 402.784 70.9271 403.178 71.1242C403.572 71.3213 403.871 71.5945 404.076 71.9437C404.28 72.2895 404.382 72.6854 404.382 73.1314C404.382 73.6155 404.28 74.0287 404.076 74.3711C403.871 74.7134 403.572 74.9744 403.178 75.1543C402.784 75.3306 402.302 75.4188 401.731 75.4188ZM410.253 70.8286V71.6481H406.612V78.3804H405.616V70.8286H410.253ZM406.378 73.9043H408.438C408.991 73.9043 409.458 73.9976 409.838 74.1843C410.218 74.3676 410.507 74.6252 410.704 74.9572C410.901 75.2891 411 75.6781 411 76.1242C411 76.4561 410.944 76.7604 410.834 77.037C410.723 77.3102 410.559 77.5488 410.341 77.7528C410.123 77.9533 409.855 78.1089 409.537 78.2196C409.219 78.3268 408.852 78.3804 408.438 78.3804H405.616V70.8286H406.617V77.5661H408.438C408.807 77.5661 409.107 77.4986 409.335 77.3638C409.566 77.2255 409.736 77.0457 409.843 76.8244C409.95 76.6031 410.004 76.3662 410.004 76.1138C410.004 75.8614 409.95 75.6297 409.843 75.4188C409.736 75.2078 409.566 75.0401 409.335 74.9157C409.107 74.7877 408.807 74.7238 408.438 74.7238H406.378V73.9043ZM415.144 71.4976L412.644 78.3804H411.622L414.501 70.8286H415.159L415.144 71.4976ZM417.239 78.3804L414.734 71.4976L414.719 70.8286H415.377L418.266 78.3804H417.239ZM417.11 75.5847V76.4042H412.867V75.5847H417.11ZM421.394 70.8286V78.3804H420.408V70.8286H421.394ZM423.821 70.8286V71.6481H417.986V70.8286H423.821ZM424.537 77.2393V78.0121C424.537 78.3268 424.457 78.6587 424.298 79.008C424.139 79.3607 423.916 79.6546 423.629 79.8897L423.085 79.5111C423.195 79.3589 423.289 79.2033 423.365 79.0443C423.441 78.8887 423.498 78.7262 423.536 78.5567C423.577 78.3907 423.598 78.2144 423.598 78.0277V77.2393H424.537ZM433.24 77.592V78.3804H428.297V77.6905L430.771 74.9364C431.076 74.5975 431.311 74.3106 431.477 74.0754C431.646 73.8368 431.764 73.6242 431.829 73.4375C431.899 73.2473 431.933 73.0536 431.933 72.8566C431.933 72.6076 431.881 72.3828 431.778 72.1823C431.677 71.9783 431.529 71.8158 431.332 71.6947C431.134 71.5737 430.896 71.5132 430.616 71.5132C430.28 71.5132 430 71.5789 429.776 71.7103C429.554 71.8382 429.388 72.018 429.278 72.2497C429.167 72.4814 429.112 72.7476 429.112 73.0485H428.152C428.152 72.6231 428.245 72.2341 428.432 71.8815C428.619 71.5288 428.896 71.2487 429.262 71.0412C429.629 70.8303 430.08 70.7248 430.616 70.7248C431.093 70.7248 431.501 70.8095 431.84 70.979C432.179 71.1449 432.438 71.3801 432.618 71.6844C432.801 71.9852 432.893 72.3379 432.893 72.7424C432.893 72.9637 432.855 73.1885 432.779 73.4167C432.706 73.6415 432.604 73.8662 432.473 74.091C432.345 74.3157 432.194 74.537 432.021 74.7549C431.852 74.9727 431.67 75.1871 431.477 75.398L429.454 77.592H433.24ZM435.564 70.8286V78.3804H434.563V70.8286H435.564ZM440.216 70.8286L436.938 74.9831H435.165L435.009 74.1532H436.342L438.977 70.8286H440.216ZM439.21 78.3804L436.373 74.8534L436.933 73.9769L440.434 78.3804H439.21ZM442.493 74.1325H443.178C443.513 74.1325 443.79 74.0772 444.008 73.9665C444.229 73.8524 444.393 73.6985 444.501 73.5049C444.611 73.3078 444.667 73.0865 444.667 72.841C444.667 72.5505 444.618 72.3068 444.521 72.1097C444.424 71.9126 444.279 71.7639 444.086 71.6636C443.892 71.5633 443.646 71.5132 443.349 71.5132C443.079 71.5132 442.841 71.5668 442.633 71.674C442.429 71.7777 442.269 71.9264 442.151 72.12C442.037 72.3137 441.98 72.5419 441.98 72.8047H441.02C441.02 72.4209 441.117 72.0716 441.311 71.757C441.504 71.4423 441.776 71.1916 442.125 71.0049C442.478 70.8182 442.886 70.7248 443.349 70.7248C443.806 70.7248 444.205 70.8061 444.547 70.9686C444.89 71.1277 445.156 71.3662 445.346 71.6844C445.536 71.999 445.631 72.3915 445.631 72.8617C445.631 73.0519 445.586 73.2559 445.496 73.4738C445.41 73.6881 445.273 73.8887 445.087 74.0754C444.903 74.2621 444.665 74.416 444.371 74.537C444.077 74.6546 443.724 74.7134 443.313 74.7134H442.493V74.1325ZM442.493 74.9209V74.3451H443.313C443.793 74.3451 444.191 74.4022 444.506 74.5163C444.82 74.6304 445.068 74.7825 445.247 74.9727C445.431 75.1629 445.559 75.3721 445.631 75.6003C445.707 75.8251 445.745 76.0498 445.745 76.2746C445.745 76.6273 445.685 76.9402 445.564 77.2134C445.446 77.4865 445.279 77.7182 445.061 77.9084C444.846 78.0986 444.594 78.2421 444.303 78.3389C444.013 78.4357 443.697 78.4841 443.354 78.4841C443.026 78.4841 442.716 78.4374 442.426 78.3441C442.139 78.2507 441.885 78.1159 441.663 77.9395C441.442 77.7597 441.269 77.5401 441.145 77.2808C441.02 77.018 440.958 76.7189 440.958 76.3835H441.918C441.918 76.6463 441.975 76.8762 442.089 77.0733C442.206 77.2704 442.372 77.4243 442.587 77.5349C442.804 77.6421 443.06 77.6957 443.354 77.6957C443.648 77.6957 443.901 77.6456 444.112 77.5453C444.326 77.4416 444.49 77.286 444.604 77.0785C444.722 76.871 444.781 76.61 444.781 76.2953C444.781 75.9807 444.715 75.7231 444.584 75.5225C444.452 75.3185 444.265 75.1681 444.023 75.0713C443.785 74.971 443.503 74.9209 443.178 74.9209H442.493Z" fill="black"/>
<path d="M67.2745 264.829C25.499 311.375 14.9281 390.754 67.2745 424.981C120.046 459.486 185.566 414.483 214.353 358.387C235.478 317.222 245.36 274.25 214.353 239.908C175.313 196.668 106.187 221.474 67.2745 264.829Z" stroke="black" stroke-width="0.817103"/>
<g filter="url(#filter0_f_58_996)">
<path d="M70.5156 434.996C67.2374 511.031 96.9451 578.495 161.391 600.692C248.525 630.703 516.032 514.707 400.488 384.995C367.552 348.021 398.668 305.288 281.143 284.974C163.617 264.659 75.2467 325.261 70.5156 434.996Z" fill="#2051FF"/>
<path d="M70.5156 434.996C67.2374 511.031 96.9451 578.495 161.391 600.692C248.525 630.703 516.032 514.707 400.488 384.995C367.552 348.021 398.668 305.288 281.143 284.974C163.617 264.659 75.2467 325.261 70.5156 434.996Z" stroke="black" stroke-width="0.792548"/>
</g>
<path d="M295.374 633.647V635.223H288.731V633.647H295.374ZM297.03 633.647V648.169H295.105V633.647H297.03ZM288.073 633.647H289.988L289.659 640.758C289.612 641.782 289.533 642.697 289.42 643.501C289.313 644.299 289.16 644.994 288.961 645.586C288.761 646.171 288.502 646.657 288.183 647.042C287.864 647.421 287.471 647.704 287.006 647.89C286.547 648.076 285.995 648.169 285.35 648.169H284.831V646.603L285.23 646.574C285.603 646.547 285.922 646.464 286.188 646.324C286.46 646.178 286.69 645.958 286.876 645.666C287.069 645.373 287.225 644.994 287.345 644.529C287.465 644.063 287.558 643.495 287.624 642.823C287.697 642.145 287.754 641.354 287.794 640.449L288.073 633.647ZM309.727 646.603V648.169H302.037V646.603H309.727ZM302.426 633.647V648.169H300.501V633.647H302.426ZM308.71 639.891V641.457H302.037V639.891H308.71ZM309.628 633.647V635.223H302.037V633.647H309.628ZM314.126 633.647V648.169H312.201V633.647H314.126ZM323.073 633.647L316.769 641.636H313.358L313.059 640.04H315.622L320.689 633.647H323.073ZM321.138 648.169L315.682 641.387L316.759 639.701L323.492 648.169H321.138ZM337.835 646.554L337.656 651.67H335.93V648.169H334.504V646.554H337.835ZM325.297 648.169V633.647H327.232V646.603H334.384V633.647H336.309V648.169H325.297ZM342.184 644.838L349.336 633.647H351.261V648.169H349.336V636.968L342.184 648.169H340.269V633.647H342.184V644.838ZM362.821 642.514H358.742L357.794 642.125C356.743 641.792 355.935 641.284 355.37 640.599C354.805 639.907 354.522 639.05 354.522 638.025C354.522 637.088 354.729 636.293 355.141 635.642C355.56 634.99 356.152 634.495 356.916 634.155C357.688 633.816 358.599 633.647 359.649 633.647H364.297V648.169H362.372V635.223H359.649C358.585 635.223 357.784 635.475 357.245 635.981C356.713 636.486 356.447 637.168 356.447 638.025C356.447 638.584 356.564 639.083 356.797 639.522C357.036 639.961 357.388 640.306 357.854 640.559C358.319 640.812 358.898 640.938 359.589 640.938H362.831L362.821 642.514ZM359.55 641.517L356.019 648.169H353.974L357.605 641.517H359.55ZM383.927 633.647V648.169H382.012V635.223H374.85V648.169H372.925V633.647H383.927ZM398.599 640.449V641.367C398.599 642.457 398.463 643.435 398.19 644.299C397.918 645.164 397.525 645.899 397.013 646.504C396.501 647.109 395.886 647.571 395.168 647.89C394.457 648.209 393.659 648.369 392.774 648.369C391.916 648.369 391.128 648.209 390.41 647.89C389.699 647.571 389.08 647.109 388.555 646.504C388.036 645.899 387.634 645.164 387.348 644.299C387.062 643.435 386.919 642.457 386.919 641.367V640.449C386.919 639.359 387.059 638.385 387.338 637.527C387.624 636.662 388.026 635.928 388.545 635.322C389.064 634.711 389.679 634.245 390.39 633.926C391.109 633.607 391.896 633.447 392.754 633.447C393.639 633.447 394.437 633.607 395.148 633.926C395.866 634.245 396.481 634.711 396.993 635.322C397.512 635.928 397.908 636.662 398.18 637.527C398.46 638.385 398.599 639.359 398.599 640.449ZM396.694 641.367V640.429C396.694 639.565 396.604 638.8 396.425 638.135C396.252 637.47 395.996 636.912 395.657 636.459C395.318 636.007 394.902 635.665 394.41 635.432C393.925 635.199 393.373 635.083 392.754 635.083C392.156 635.083 391.614 635.199 391.128 635.432C390.65 635.665 390.237 636.007 389.892 636.459C389.553 636.912 389.29 637.47 389.104 638.135C388.917 638.8 388.824 639.565 388.824 640.429V641.367C388.824 642.238 388.917 643.009 389.104 643.681C389.29 644.346 389.556 644.908 389.902 645.367C390.254 645.819 390.67 646.161 391.148 646.394C391.634 646.627 392.176 646.743 392.774 646.743C393.399 646.743 393.955 646.627 394.44 646.394C394.925 646.161 395.334 645.819 395.667 645.367C396.006 644.908 396.262 644.346 396.435 643.681C396.608 643.009 396.694 642.238 396.694 641.367ZM416.035 639.891V641.457H408.175V639.891H416.035ZM408.474 633.647V648.169H406.549V633.647H408.474ZM417.71 633.647V648.169H415.795V633.647H417.71ZM430.647 633.647V635.223H424.004V633.647H430.647ZM432.303 633.647V648.169H430.378V633.647H432.303ZM423.346 633.647H425.261L424.932 640.758C424.885 641.782 424.805 642.697 424.692 643.501C424.586 644.299 424.433 644.994 424.233 645.586C424.034 646.171 423.775 646.657 423.455 647.042C423.136 647.421 422.744 647.704 422.278 647.89C421.82 648.076 421.268 648.169 420.623 648.169H420.104V646.603L420.503 646.574C420.875 646.547 421.195 646.464 421.461 646.324C421.733 646.178 421.963 645.958 422.149 645.666C422.342 645.373 422.498 644.994 422.618 644.529C422.737 644.063 422.83 643.495 422.897 642.823C422.97 642.145 423.027 641.354 423.066 640.449L423.346 633.647ZM446.865 633.647V648.169H444.95V635.223H437.789V648.169H435.864V633.647H446.865Z" fill="black"/>
<path d="M303.3 370.413V370.89C303.3 371.457 303.229 371.966 303.088 372.415C302.946 372.865 302.742 373.247 302.476 373.562C302.209 373.876 301.889 374.117 301.516 374.283C301.146 374.448 300.731 374.531 300.271 374.531C299.825 374.531 299.415 374.448 299.042 374.283C298.672 374.117 298.35 373.876 298.077 373.562C297.807 373.247 297.598 372.865 297.45 372.415C297.301 371.966 297.227 371.457 297.227 370.89V370.413C297.227 369.846 297.299 369.34 297.444 368.894C297.593 368.444 297.802 368.062 298.072 367.747C298.342 367.429 298.662 367.187 299.032 367.021C299.405 366.855 299.815 366.772 300.261 366.772C300.721 366.772 301.136 366.855 301.506 367.021C301.879 367.187 302.199 367.429 302.465 367.747C302.735 368.062 302.941 368.444 303.082 368.894C303.228 369.34 303.3 369.846 303.3 370.413ZM302.31 370.89V370.403C302.31 369.953 302.263 369.556 302.17 369.21C302.08 368.864 301.946 368.574 301.77 368.339C301.594 368.103 301.378 367.925 301.122 367.804C300.869 367.683 300.582 367.623 300.261 367.623C299.95 367.623 299.668 367.683 299.415 367.804C299.166 367.925 298.952 368.103 298.772 368.339C298.596 368.574 298.459 368.864 298.362 369.21C298.266 369.556 298.217 369.953 298.217 370.403V370.89C298.217 371.343 298.266 371.744 298.362 372.094C298.459 372.44 298.598 372.732 298.777 372.97C298.961 373.205 299.177 373.383 299.426 373.505C299.678 373.626 299.96 373.686 300.271 373.686C300.596 373.686 300.885 373.626 301.137 373.505C301.39 373.383 301.602 373.205 301.775 372.97C301.952 372.732 302.085 372.44 302.175 372.094C302.265 371.744 302.31 371.343 302.31 370.89ZM310.567 366.876V374.428H309.571V367.695H305.847V374.428H304.846V366.876H310.567ZM313.191 369.952H315.25C315.804 369.952 316.27 370.045 316.651 370.232C317.031 370.415 317.32 370.673 317.517 371.005C317.714 371.336 317.813 371.725 317.813 372.172C317.813 372.503 317.757 372.808 317.647 373.084C317.536 373.358 317.372 373.596 317.154 373.8C316.936 374.001 316.668 374.156 316.35 374.267C316.032 374.374 315.665 374.428 315.25 374.428H312.429V366.876H313.43V373.613H315.25C315.62 373.613 315.919 373.546 316.148 373.411C316.379 373.273 316.549 373.093 316.656 372.872C316.763 372.65 316.817 372.414 316.817 372.161C316.817 371.909 316.763 371.677 316.656 371.466C316.549 371.255 316.379 371.088 316.148 370.963C315.919 370.835 315.62 370.771 315.25 370.771H313.191V369.952ZM319.726 366.876V374.428H318.725V366.876H319.726ZM324.208 366.876V374.428H323.222V366.876H324.208ZM326.635 366.876V367.695H320.8V366.876H326.635Z" fill="black"/>
<path d="M317.037 206.318C322.396 171.863 357.548 148.492 391.393 156.884C433.477 167.318 446.146 242.769 409.778 266.375C373.586 289.868 310.406 248.954 317.037 206.318Z" stroke="black" stroke-width="0.817103"/>
</g>
<path d="M42.5479 38.8901H45.5326L53.1459 57.8355L60.7432 38.8901H63.7438L54.295 62.1289H51.9648L42.5479 38.8901ZM41.5743 38.8901H44.2078L44.6388 53.0632V62.1289H41.5743V38.8901ZM62.0679 38.8901H64.7014V62.1289H61.637V53.0632L62.0679 38.8901ZM88.0041 49.7753V51.2437C88.0041 52.9887 87.786 54.5529 87.3498 55.9361C86.9135 57.3194 86.2857 58.4952 85.4664 59.4635C84.6471 60.4317 83.6628 61.1713 82.5136 61.682C81.3751 62.1927 80.0983 62.4481 78.6831 62.4481C77.3104 62.4481 76.0495 62.1927 74.9004 61.682C73.7618 61.1713 72.7723 60.4317 71.9317 59.4635C71.1017 58.4952 70.458 57.3194 70.0004 55.9361C69.5429 54.5529 69.3141 52.9887 69.3141 51.2437V49.7753C69.3141 48.0302 69.5376 46.4714 69.9845 45.0988C70.442 43.7155 71.0857 42.5397 71.9157 41.5715C72.7457 40.5925 73.7299 39.8477 74.8684 39.337C76.0176 38.8262 77.2785 38.5708 78.6511 38.5708C80.0663 38.5708 81.3432 38.8262 82.4817 39.337C83.6309 39.8477 84.6151 40.5925 85.4345 41.5715C86.2644 42.5397 86.8975 43.7155 87.3338 45.0988C87.7807 46.4714 88.0041 48.0302 88.0041 49.7753ZM84.9556 51.2437V49.7434C84.9556 48.3601 84.812 47.1364 84.5247 46.0724C84.248 45.0083 83.8384 44.1145 83.2957 43.391C82.7531 42.6674 82.088 42.1194 81.3006 41.747C80.5239 41.3746 79.6407 41.1884 78.6511 41.1884C77.6935 41.1884 76.8263 41.3746 76.0495 41.747C75.2834 42.1194 74.6237 42.6674 74.0704 43.391C73.5277 44.1145 73.1074 45.0083 72.8095 46.0724C72.5116 47.1364 72.3626 48.3601 72.3626 49.7434V51.2437C72.3626 52.6376 72.5116 53.8719 72.8095 54.9466C73.1074 56.0106 73.5331 56.9097 74.0864 57.6439C74.6503 58.3675 75.3153 58.9155 76.0815 59.2879C76.8582 59.6603 77.7254 59.8465 78.6831 59.8465C79.6833 59.8465 80.5718 59.6603 81.3485 59.2879C82.1253 58.9155 82.7797 58.3675 83.3117 57.6439C83.8543 56.9097 84.264 56.0106 84.5407 54.9466C84.8173 53.8719 84.9556 52.6376 84.9556 51.2437ZM98.9213 51.515L90.6217 38.8901H94.2288L100.406 48.9613H104.779L104.284 51.515H98.9213ZM100.581 51.2756L93.8298 62.1289H89.9992L98.634 48.6261L100.581 51.2756ZM106.104 38.8901V62.1289H103.055V38.8901H106.104ZM118.425 38.8901L110.094 51.515H104.891L104.412 48.9613H108.625L114.802 38.8901H118.425ZM115.201 62.1289L108.466 51.2756L110.429 48.6261L119.032 62.1289H115.201ZM137.131 48.8815V51.3873H124.554V48.8815H137.131ZM125.033 38.8901V62.1289H121.953V38.8901H125.033ZM139.813 38.8901V62.1289H136.748V38.8901H139.813ZM163.179 49.7753V51.2437C163.179 52.9887 162.961 54.5529 162.525 55.9361C162.089 57.3194 161.461 58.4952 160.642 59.4635C159.822 60.4317 158.838 61.1713 157.689 61.682C156.55 62.1927 155.273 62.4481 153.858 62.4481C152.486 62.4481 151.225 62.1927 150.076 61.682C148.937 61.1713 147.947 60.4317 147.107 59.4635C146.277 58.4952 145.633 57.3194 145.176 55.9361C144.718 54.5529 144.489 52.9887 144.489 51.2437V49.7753C144.489 48.0302 144.713 46.4714 145.16 45.0988C145.617 43.7155 146.261 42.5397 147.091 41.5715C147.921 40.5925 148.905 39.8477 150.044 39.337C151.193 38.8262 152.454 38.5708 153.826 38.5708C155.241 38.5708 156.518 38.8262 157.657 39.337C158.806 39.8477 159.79 40.5925 160.61 41.5715C161.44 42.5397 162.073 43.7155 162.509 45.0988C162.956 46.4714 163.179 48.0302 163.179 49.7753ZM160.131 51.2437V49.7434C160.131 48.3601 159.987 47.1364 159.7 46.0724C159.423 45.0083 159.014 44.1145 158.471 43.391C157.928 42.6674 157.263 42.1194 156.476 41.747C155.699 41.3746 154.816 41.1884 153.826 41.1884C152.869 41.1884 152.001 41.3746 151.225 41.747C150.459 42.1194 149.799 42.6674 149.246 43.391C148.703 44.1145 148.283 45.0083 147.985 46.0724C147.687 47.1364 147.538 48.3601 147.538 49.7434V51.2437C147.538 52.6376 147.687 53.8719 147.985 54.9466C148.283 56.0106 148.708 56.9097 149.262 57.6439C149.825 58.3675 150.49 58.9155 151.257 59.2879C152.033 59.6603 152.901 59.8465 153.858 59.8465C154.858 59.8465 155.747 59.6603 156.524 59.2879C157.3 58.9155 157.955 58.3675 158.487 57.6439C159.029 56.9097 159.439 56.0106 159.716 54.9466C159.992 53.8719 160.131 52.6376 160.131 51.2437ZM190.839 38.8901V41.4119H180.209V38.8901H190.839ZM193.489 38.8901V62.1289H190.408V38.8901H193.489ZM179.156 38.8901H182.22L181.694 50.2701C181.619 51.9087 181.492 53.3718 181.311 54.6593C181.14 55.9361 180.896 57.0481 180.577 57.9951C180.257 58.9314 179.842 59.7082 179.332 60.3253C178.821 60.9318 178.193 61.3841 177.448 61.682C176.714 61.9799 175.831 62.1289 174.799 62.1289H173.969V59.6231L174.607 59.5752C175.203 59.5326 175.714 59.3996 176.139 59.1762C176.576 58.9421 176.943 58.5909 177.241 58.1228C177.549 57.6546 177.799 57.0481 177.991 56.3032C178.182 55.5584 178.331 54.6486 178.438 53.5739C178.555 52.4886 178.645 51.2224 178.709 49.7753L179.156 38.8901ZM202.251 56.798L213.695 38.8901H216.775V62.1289H213.695V44.205L202.251 62.1289H199.187V38.8901H202.251V56.798ZM48.6928 88.9723H45.9316V87.0092H48.5811C49.7515 87.0092 50.6985 86.8442 51.4221 86.5144C52.1457 86.1845 52.6724 85.727 53.0022 85.1418C53.3321 84.5565 53.497 83.8809 53.497 83.1147C53.497 82.3806 53.3161 81.7102 52.9543 81.1037C52.5926 80.4865 52.0339 79.9971 51.2785 79.6353C50.523 79.2629 49.5494 79.0767 48.3576 79.0767C47.4638 79.0767 46.6552 79.2469 45.9316 79.5874C45.2081 79.9173 44.6335 80.3801 44.2078 80.976C43.7822 81.5612 43.5694 82.2369 43.5694 83.003H40.489C40.489 82.0135 40.6965 81.125 41.1115 80.3376C41.5264 79.5395 42.0957 78.8639 42.8193 78.3106C43.5428 77.7466 44.3781 77.3157 45.3251 77.0177C46.2827 76.7198 47.2936 76.5708 48.3576 76.5708C49.6026 76.5708 50.7305 76.7145 51.7413 77.0018C52.7522 77.2784 53.6194 77.6934 54.3429 78.2467C55.0665 78.8 55.6198 79.4863 56.0028 80.3057C56.3859 81.125 56.5774 82.0773 56.5774 83.1626C56.5774 83.9607 56.3912 84.7108 56.0188 85.4131C55.6464 86.1154 55.1144 86.7325 54.4227 87.2645C53.7311 87.7966 52.9011 88.2169 51.9328 88.5254C50.9646 88.8234 49.8846 88.9723 48.6928 88.9723ZM45.9316 87.6157H48.6928C50.0016 87.6157 51.1667 87.7487 52.1882 88.0147C53.2097 88.2807 54.0716 88.6691 54.7739 89.1798C55.4761 89.6906 56.0082 90.3237 56.3699 91.0792C56.7424 91.824 56.9286 92.6806 56.9286 93.6488C56.9286 94.7342 56.7158 95.6971 56.2901 96.5377C55.8752 97.3783 55.2846 98.0913 54.5185 98.6765C53.7524 99.2617 52.8426 99.7033 51.7892 100.001C50.7464 100.299 49.6026 100.448 48.3576 100.448C47.3574 100.448 46.3679 100.32 45.3889 100.065C44.4207 99.7991 43.5428 99.3947 42.7554 98.852C41.968 98.2987 41.3349 97.5965 40.8561 96.7452C40.3879 95.894 40.1538 94.8725 40.1538 93.6808H43.2342C43.2342 94.4575 43.447 95.1704 43.8727 95.8195C44.3089 96.4686 44.9101 96.99 45.6762 97.3837C46.4423 97.7667 47.3362 97.9582 48.3576 97.9582C49.5281 97.9582 50.5177 97.7774 51.3263 97.4156C52.1457 97.0432 52.7681 96.5377 53.1937 95.8993C53.63 95.2502 53.8481 94.5214 53.8481 93.7127C53.8481 92.9998 53.7311 92.3826 53.497 91.8612C53.2736 91.3292 52.9384 90.893 52.4915 90.5525C52.0552 90.212 51.5072 89.9619 50.8475 89.8023C50.1984 89.6321 49.443 89.5469 48.5811 89.5469H45.9316V87.6157ZM69.5854 78.949L61.8924 100.129H58.7481L67.6063 76.8901H69.6333L69.5854 78.949ZM76.0336 100.129L68.3245 78.949L68.2767 76.8901H70.3037L79.1938 100.129H76.0336ZM75.6346 91.5261V94.0479H62.5787V91.5261H75.6346ZM96.4793 76.8901V79.4119H85.2749V100.129H82.2104V76.8901H96.4793ZM84.5566 86.3548H90.893C92.5955 86.3548 94.032 86.6421 95.2024 87.2167C96.3729 87.7806 97.2614 88.5733 97.8679 89.5948C98.4744 90.6163 98.7776 91.8134 98.7776 93.186C98.7776 94.2075 98.6074 95.1438 98.2669 95.9951C97.9264 96.8357 97.421 97.5699 96.7506 98.1977C96.0803 98.8148 95.2556 99.2936 94.2767 99.6341C93.2978 99.964 92.1699 100.129 90.893 100.129H82.2104V76.8901H85.2908V97.6231H90.893C92.0316 97.6231 92.952 97.4156 93.6542 97.0006C94.3672 96.575 94.8885 96.0217 95.2184 95.3407C95.5483 94.6597 95.7132 93.9308 95.7132 93.1541C95.7132 92.3773 95.5483 91.6644 95.2184 91.0153C94.8885 90.3662 94.3672 89.8502 93.6542 89.4671C92.952 89.0734 92.0316 88.8766 90.893 88.8766H84.5566V86.3548ZM105.417 86.3548H111.754C113.456 86.3548 114.893 86.6421 116.063 87.2167C117.234 87.7806 118.122 88.5733 118.729 89.5948C119.335 90.6163 119.638 91.8134 119.638 93.186C119.638 94.2075 119.468 95.1438 119.128 95.9951C118.787 96.8357 118.282 97.5699 117.611 98.1977C116.941 98.8148 116.116 99.2936 115.137 99.6341C114.158 99.964 113.031 100.129 111.754 100.129H103.071V76.8901H106.152V97.6231H111.754C112.892 97.6231 113.813 97.4156 114.515 97.0006C115.228 96.575 115.749 96.0217 116.079 95.3407C116.409 94.6597 116.574 93.9308 116.574 93.1541C116.574 92.3773 116.409 91.6644 116.079 91.0153C115.749 90.3662 115.228 89.8502 114.515 89.4671C113.813 89.0734 112.892 88.8766 111.754 88.8766H105.417V86.3548ZM125.528 76.8901V100.129H122.447V76.8901H125.528ZM139.318 76.8901V100.129H136.285V76.8901H139.318ZM146.788 76.8901V79.4119H128.832V76.8901H146.788ZM152.741 86.3548H159.077C160.78 86.3548 162.216 86.6421 163.387 87.2167C164.557 87.7806 165.446 88.5733 166.052 89.5948C166.659 90.6163 166.962 91.8134 166.962 93.186C166.962 94.2075 166.792 95.1438 166.451 95.9951C166.111 96.8357 165.605 97.5699 164.935 98.1977C164.265 98.8148 163.44 99.2936 162.461 99.6341C161.482 99.964 160.354 100.129 159.077 100.129H150.395V76.8901H153.475V97.6231H159.077C160.216 97.6231 161.136 97.4156 161.839 97.0006C162.551 96.575 163.073 96.0217 163.403 95.3407C163.733 94.6597 163.898 93.9308 163.898 93.1541C163.898 92.3773 163.733 91.6644 163.403 91.0153C163.073 90.3662 162.551 89.8502 161.839 89.4671C161.136 89.0734 160.216 88.8766 159.077 88.8766H152.741V86.3548ZM187.408 89.2596H181.518L181.486 86.7857H186.833C187.716 86.7857 188.488 86.6368 189.147 86.3388C189.807 86.0409 190.318 85.6153 190.68 85.062C191.052 84.498 191.238 83.8277 191.238 83.0509C191.238 82.1997 191.073 81.508 190.744 80.976C190.424 80.4333 189.93 80.0396 189.259 79.7949C188.599 79.5395 187.759 79.4119 186.737 79.4119H182.205V100.129H179.124V76.8901H186.737C187.929 76.8901 188.993 77.0124 189.93 77.2571C190.866 77.4912 191.659 77.8637 192.308 78.3744C192.967 78.8745 193.467 79.5129 193.808 80.2897C194.148 81.0664 194.319 81.9975 194.319 83.0828C194.319 84.0405 194.074 84.9077 193.585 85.6844C193.095 86.4505 192.414 87.0783 191.542 87.5678C190.68 88.0573 189.669 88.3712 188.509 88.5095L187.408 89.2596ZM187.264 100.129H180.305L182.045 97.6231H187.264C188.243 97.6231 189.073 97.4528 189.754 97.1123C190.446 96.7718 190.972 96.293 191.334 95.6759C191.696 95.0481 191.877 94.3086 191.877 93.4573C191.877 92.5954 191.722 91.8506 191.414 91.2228C191.105 90.595 190.621 90.1109 189.961 89.7704C189.302 89.4299 188.45 89.2596 187.408 89.2596H183.019L183.05 86.7857H189.052L189.706 87.6795C190.823 87.7753 191.77 88.0945 192.547 88.6372C193.324 89.1692 193.914 89.8502 194.319 90.6801C194.734 91.5101 194.941 92.4252 194.941 93.4254C194.941 94.8725 194.622 96.0962 193.984 97.0964C193.356 98.0859 192.467 98.8414 191.318 99.3628C190.169 99.8735 188.818 100.129 187.264 100.129ZM213.519 92.7391H216.584C216.424 94.2075 216.004 95.5216 215.323 96.6814C214.642 97.8412 213.679 98.7616 212.434 99.4426C211.189 100.113 209.636 100.448 207.774 100.448C206.412 100.448 205.172 100.193 204.055 99.682C202.948 99.1713 201.996 98.4477 201.198 97.5113C200.4 96.5643 199.783 95.4311 199.346 94.1117C198.921 92.7816 198.708 91.3026 198.708 89.6746V87.3603C198.708 85.7323 198.921 84.2586 199.346 82.9392C199.783 81.6091 200.405 80.4706 201.214 79.5236C202.033 78.5766 203.017 77.8477 204.166 77.337C205.316 76.8262 206.608 76.5708 208.045 76.5708C209.801 76.5708 211.285 76.9007 212.498 77.5604C213.711 78.2201 214.653 79.1352 215.323 80.3057C216.004 81.4655 216.424 82.8115 216.584 84.3437H213.519C213.371 83.2584 213.094 82.3273 212.69 81.5506C212.285 80.7632 211.711 80.1567 210.966 79.7311C210.221 79.3054 209.247 79.0926 208.045 79.0926C207.013 79.0926 206.103 79.2895 205.316 79.6832C204.539 80.0769 203.885 80.6355 203.352 81.3591C202.831 82.0826 202.437 82.9498 202.171 83.9607C201.905 84.9715 201.772 86.0941 201.772 87.3284V89.6746C201.772 90.8131 201.889 91.8825 202.124 92.8827C202.368 93.8829 202.735 94.7608 203.225 95.5162C203.714 96.2717 204.337 96.8676 205.092 97.3039C205.848 97.7295 206.741 97.9423 207.774 97.9423C209.082 97.9423 210.125 97.7348 210.902 97.3198C211.679 96.9048 212.264 96.309 212.658 95.5322C213.062 94.7555 213.349 93.8244 213.519 92.7391ZM235.545 97.6231V100.129H223.24V97.6231H235.545ZM223.862 76.8901V100.129H220.782V76.8901H223.862ZM233.917 86.8815V89.3873H223.24V86.8815H233.917ZM235.386 76.8901V79.4119H223.24V76.8901H235.386ZM59.3227 114.89V138.129H56.2582V117.412H44.7984V138.129H41.718V114.89H59.3227ZM79.8482 114.89V117.412H69.2183V114.89H79.8482ZM82.4977 114.89V138.129H79.4173V114.89H82.4977ZM68.1649 114.89H71.2294L70.7027 126.27C70.6282 127.909 70.5005 129.372 70.3196 130.659C70.1494 131.936 69.9047 133.048 69.5854 133.995C69.2662 134.931 68.8512 135.708 68.3405 136.325C67.8298 136.932 67.202 137.384 66.4571 137.682C65.7229 137.98 64.8398 138.129 63.8076 138.129H62.9777V135.623L63.6161 135.575C64.212 135.533 64.7227 135.4 65.1483 135.176C65.5846 134.942 65.9517 134.591 66.2496 134.123C66.5582 133.655 66.8083 133.048 66.9998 132.303C67.1913 131.558 67.3403 130.649 67.4467 129.574C67.5637 128.489 67.6542 127.222 67.718 125.775L68.1649 114.89ZM105.944 125.775V127.244C105.944 128.989 105.726 130.553 105.29 131.936C104.853 133.319 104.226 134.495 103.406 135.463C102.587 136.432 101.603 137.171 100.454 137.682C99.315 138.193 98.0381 138.448 96.623 138.448C95.2503 138.448 93.9894 138.193 92.8403 137.682C91.7017 137.171 90.7122 136.432 89.8716 135.463C89.0416 134.495 88.3978 133.319 87.9403 131.936C87.4828 130.553 87.254 128.989 87.254 127.244V125.775C87.254 124.03 87.4774 122.471 87.9243 121.099C88.3819 119.716 89.0256 118.54 89.8556 117.571C90.6856 116.593 91.6698 115.848 92.8083 115.337C93.9575 114.826 95.2184 114.571 96.591 114.571C98.0062 114.571 99.2831 114.826 100.422 115.337C101.571 115.848 102.555 116.593 103.374 117.571C104.204 118.54 104.837 119.716 105.274 121.099C105.721 122.471 105.944 124.03 105.944 125.775ZM102.896 127.244V125.743C102.896 124.36 102.752 123.136 102.465 122.072C102.188 121.008 101.778 120.115 101.236 119.391C100.693 118.667 100.028 118.119 99.2405 117.747C98.4638 117.375 97.5806 117.188 96.591 117.188C95.6334 117.188 94.7662 117.375 93.9894 117.747C93.2233 118.119 92.5636 118.667 92.0103 119.391C91.4676 120.115 91.0473 121.008 90.7494 122.072C90.4515 123.136 90.3025 124.36 90.3025 125.743V127.244C90.3025 128.638 90.4515 129.872 90.7494 130.947C91.0473 132.011 91.4729 132.91 92.0263 133.644C92.5902 134.367 93.2552 134.915 94.0213 135.288C94.7981 135.66 95.6653 135.847 96.623 135.847C97.6232 135.847 98.5116 135.66 99.2884 135.288C100.065 134.915 100.72 134.367 101.252 133.644C101.794 132.91 102.204 132.011 102.481 130.947C102.757 129.872 102.896 128.638 102.896 127.244ZM112.201 114.89L117.787 123.796L123.373 114.89H126.964L119.622 126.398L127.14 138.129H123.517L117.787 129.047L112.057 138.129H108.434L115.951 126.398L108.609 114.89H112.201ZM148.176 125.775V127.244C148.176 128.989 147.958 130.553 147.522 131.936C147.086 133.319 146.458 134.495 145.638 135.463C144.819 136.432 143.835 137.171 142.686 137.682C141.547 138.193 140.27 138.448 138.855 138.448C137.482 138.448 136.222 138.193 135.072 137.682C133.934 137.171 132.944 136.432 132.104 135.463C131.274 134.495 130.63 133.319 130.172 131.936C129.715 130.553 129.486 128.989 129.486 127.244V125.775C129.486 124.03 129.71 122.471 130.156 121.099C130.614 119.716 131.258 118.54 132.088 117.571C132.918 116.593 133.902 115.848 135.04 115.337C136.19 114.826 137.451 114.571 138.823 114.571C140.238 114.571 141.515 114.826 142.654 115.337C143.803 115.848 144.787 116.593 145.606 117.571C146.436 118.54 147.07 119.716 147.506 121.099C147.953 122.471 148.176 124.03 148.176 125.775ZM145.128 127.244V125.743C145.128 124.36 144.984 123.136 144.697 122.072C144.42 121.008 144.01 120.115 143.468 119.391C142.925 118.667 142.26 118.119 141.473 117.747C140.696 117.375 139.813 117.188 138.823 117.188C137.866 117.188 136.998 117.375 136.222 117.747C135.455 118.119 134.796 118.667 134.242 119.391C133.7 120.115 133.279 121.008 132.982 122.072C132.684 123.136 132.535 124.36 132.535 125.743V127.244C132.535 128.638 132.684 129.872 132.982 130.947C133.279 132.011 133.705 132.91 134.258 133.644C134.822 134.367 135.487 134.915 136.253 135.288C137.03 135.66 137.897 135.847 138.855 135.847C139.855 135.847 140.744 135.66 141.521 135.288C142.297 134.915 142.952 134.367 143.484 133.644C144.026 132.91 144.436 132.011 144.713 130.947C144.989 129.872 145.128 128.638 145.128 127.244ZM167.553 135.623V138.129H155.247V135.623H167.553ZM155.869 114.89V138.129H152.789V114.89H155.869ZM165.925 124.881V127.387H155.247V124.881H165.925ZM167.393 114.89V117.412H155.247V114.89H167.393ZM177.336 131.585H174.368C174.378 130.564 174.469 129.728 174.639 129.079C174.82 128.419 175.113 127.818 175.517 127.276C175.921 126.733 176.459 126.116 177.129 125.424C177.618 124.924 178.065 124.456 178.47 124.02C178.885 123.573 179.22 123.094 179.475 122.583C179.731 122.062 179.858 121.439 179.858 120.716C179.858 119.982 179.725 119.348 179.459 118.816C179.204 118.284 178.821 117.875 178.31 117.587C177.81 117.3 177.188 117.156 176.443 117.156C175.826 117.156 175.24 117.268 174.687 117.492C174.134 117.715 173.687 118.061 173.346 118.529C173.006 118.987 172.83 119.588 172.82 120.333H169.867C169.888 119.13 170.186 118.098 170.761 117.236C171.346 116.374 172.133 115.715 173.123 115.257C174.112 114.8 175.219 114.571 176.443 114.571C177.794 114.571 178.943 114.816 179.89 115.305C180.848 115.794 181.577 116.497 182.077 117.412C182.577 118.316 182.827 119.391 182.827 120.636C182.827 121.594 182.63 122.477 182.236 123.285C181.853 124.083 181.359 124.834 180.752 125.536C180.146 126.238 179.502 126.908 178.821 127.547C178.236 128.09 177.842 128.701 177.64 129.382C177.438 130.063 177.336 130.798 177.336 131.585ZM174.24 136.645C174.24 136.166 174.389 135.761 174.687 135.432C174.985 135.102 175.416 134.937 175.98 134.937C176.554 134.937 176.991 135.102 177.289 135.432C177.587 135.761 177.735 136.166 177.735 136.645C177.735 137.102 177.587 137.496 177.289 137.826C176.991 138.156 176.554 138.32 175.98 138.32C175.416 138.32 174.985 138.156 174.687 137.826C174.389 137.496 174.24 137.102 174.24 136.645Z" fill="black"/>
<defs>
<filter id="filter0_f_58_996" x="-11.8353" y="198.977" width="522.921" height="488.602" filterUnits="userSpaceOnUse" color-interpolation-filters="sRGB">
<feFlood flood-opacity="0" result="BackgroundImageFix"/>
<feBlend mode="normal" in="SourceGraphic" in2="BackgroundImageFix" result="shape"/>
<feGaussianBlur stdDeviation="40.8551" result="effect1_foregroundBlur_58_996"/>
</filter>
<clipPath id="clip0_58_996">
<rect width="486.176" height="688" fill="white"/>
</clipPath>
</defs>
</svg>
