<svg width="58" height="58" viewBox="0 0 58 58" fill="none" xmlns="http://www.w3.org/2000/svg">
<circle cx="29" cy="29" r="28.5" stroke="#959595"/>
<path d="M37.8125 20.1376C36.6665 18.98 35.3015 18.0622 33.797 17.4376C32.2926 16.8131 30.6789 16.4944 29.05 16.5001C22.225 16.5001 16.6625 22.0626 16.6625 28.8876C16.6625 31.0751 17.2375 33.2001 18.3125 35.0751L16.5625 41.5001L23.125 39.7751C24.9375 40.7626 26.975 41.2876 29.05 41.2876C35.875 41.2876 41.4375 35.7251 41.4375 28.9001C41.4375 25.5876 40.15 22.4751 37.8125 20.1376ZM29.05 39.1876C27.2 39.1876 25.3875 38.6876 23.8 37.7501L23.425 37.5251L19.525 38.5501L20.5625 34.7501L20.3125 34.3626C19.2847 32.7213 18.7389 30.8241 18.7375 28.8876C18.7375 23.2126 23.3625 18.5876 29.0375 18.5876C31.7875 18.5876 34.375 19.6626 36.3125 21.6126C37.2719 22.5675 38.0321 23.7034 38.5492 24.9544C39.0664 26.2053 39.33 27.5465 39.325 28.9001C39.35 34.5751 34.725 39.1876 29.05 39.1876ZM34.7 31.4876C34.3875 31.3376 32.8625 30.5876 32.5875 30.4751C32.3 30.3751 32.1 30.3251 31.8875 30.6251C31.675 30.9376 31.0875 31.6376 30.9125 31.8376C30.7375 32.0501 30.55 32.0751 30.2375 31.9126C29.925 31.7626 28.925 31.4251 27.75 30.3751C26.825 29.5501 26.2125 28.5376 26.025 28.2251C25.85 27.9126 26 27.7501 26.1625 27.5876C26.3 27.4501 26.475 27.2251 26.625 27.0501C26.775 26.8751 26.8375 26.7376 26.9375 26.5376C27.0375 26.3251 26.9875 26.1501 26.9125 26.0001C26.8375 25.8501 26.2125 24.3251 25.9625 23.7001C25.7125 23.1001 25.45 23.1751 25.2625 23.1626H24.6625C24.45 23.1626 24.125 23.2376 23.8375 23.5501C23.5625 23.8626 22.7625 24.6126 22.7625 26.1376C22.7625 27.6626 23.875 29.1376 24.025 29.3376C24.175 29.5501 26.2125 32.6751 29.3125 34.0126C30.05 34.3376 30.625 34.5251 31.075 34.6626C31.8125 34.9001 32.4875 34.8626 33.025 34.7876C33.625 34.7001 34.8625 34.0376 35.1125 33.3126C35.375 32.5876 35.375 31.9751 35.2875 31.8376C35.2 31.7001 35.0125 31.6376 34.7 31.4876Z" fill="#959595"/>
</svg>
