<svg width="56" height="56" viewBox="0 0 56 56" fill="none" xmlns="http://www.w3.org/2000/svg">
<path d="M19.9709 26.8917C21.2865 26.8917 22.4074 26.4324 23.3335 25.514C24.2597 24.5955 24.9336 23.4938 25.3552 22.2088L23.391 21.7143C23.1104 22.5577 22.6865 23.2922 22.1191 23.9178C21.5518 24.5449 20.8357 24.8585 19.9709 24.8585C19.1077 24.8585 18.3924 24.5449 17.825 23.9178C17.2577 23.2922 16.8337 22.5577 16.5531 21.7143L14.5889 22.2088C15.0106 23.4938 15.6845 24.5955 16.6106 25.514C17.5368 26.4324 18.6569 26.8901 19.9709 26.8917ZM27.8139 39.544C29.1234 39.544 30.3792 39.2672 31.5813 38.7137C32.785 38.1617 33.9074 37.3467 34.9485 36.2688L33.4788 34.898C32.6064 35.7306 31.691 36.3638 30.7326 36.7978C29.7743 37.2332 28.7968 37.451 27.8001 37.451C26.8035 37.451 25.826 37.2332 24.8676 36.7978C23.9093 36.3623 22.9939 35.729 22.1214 34.898L20.6517 36.2688C21.7312 37.3758 22.8674 38.1977 24.0603 38.7344C25.2517 39.2726 26.5022 39.5417 27.8116 39.5417M35.6293 26.8917C36.9449 26.8917 38.0658 26.4324 38.992 25.514C39.9166 24.5955 40.5897 23.4938 41.0114 22.2088L39.0495 21.7143C38.7689 22.5577 38.3449 23.2922 37.7775 23.9178C37.2102 24.5449 36.4941 24.8585 35.6293 24.8585C34.7645 24.8585 34.0485 24.5449 33.4811 23.9178C32.9138 23.2906 32.4898 22.5562 32.2092 21.7143L30.245 22.2088C30.6667 23.4938 31.3414 24.5955 32.269 25.514C33.1936 26.434 34.313 26.894 35.627 26.894M27.8093 48.3001C24.9481 48.3001 22.2571 47.7573 19.7363 46.6717C17.2171 45.5846 15.0251 44.1095 13.1606 42.2465C11.2961 40.3835 9.82024 38.1939 8.7331 35.6777C7.64597 33.1615 7.10163 30.4712 7.1001 27.607C7.09857 24.7427 7.64214 22.0517 8.7308 19.5339C9.81641 17.0147 11.2892 14.8228 13.1491 12.9582C15.009 11.0937 17.1994 9.61786 19.7202 8.53073C22.241 7.44359 24.932 6.90002 27.7932 6.90002C30.6544 6.90002 33.3454 7.44359 35.8662 8.53073C38.3855 9.61633 40.5774 11.0899 42.442 12.9513C44.3065 14.8128 45.7823 17.0032 46.8695 19.5224C47.9566 22.0417 48.5002 24.732 48.5002 27.5932C48.5002 30.4544 47.9574 33.1454 46.8718 35.6662C45.7862 38.187 44.3111 40.3789 42.4466 42.2419C40.582 44.1049 38.3924 45.5807 35.8777 46.6694C33.3631 47.7581 30.6751 48.3016 27.8093 48.3001ZM27.8001 46.0001C32.9368 46.0001 37.2876 44.2176 40.8527 40.6526C44.4177 37.0876 46.2002 32.7367 46.2002 27.6001C46.2002 22.4634 44.4177 18.1125 40.8527 14.5475C37.2876 10.9825 32.9368 9.20003 27.8001 9.20003C22.6635 9.20003 18.3126 10.9825 14.7476 14.5475C11.1826 18.1125 9.4001 22.4634 9.4001 27.6001C9.4001 32.7367 11.1826 37.0876 14.7476 40.6526C18.3126 44.2176 22.6635 46.0001 27.8001 46.0001Z" fill="black"/>
</svg>
