<svg width="58" height="58" viewBox="0 0 58 58" fill="none" xmlns="http://www.w3.org/2000/svg">
<circle cx="29" cy="29" r="28.5" stroke="#959595"/>
<path fill-rule="evenodd" clip-rule="evenodd" d="M17.75 27.75C17.75 23.0363 17.75 20.6787 19.215 19.215C20.6787 17.75 23.0363 17.75 27.75 17.75H30.25C34.9637 17.75 37.3212 17.75 38.785 19.215C40.25 20.6787 40.25 23.0363 40.25 27.75V30.25C40.25 34.9637 40.25 37.3212 38.785 38.785C37.3212 40.25 34.9637 40.25 30.25 40.25H27.75C23.0363 40.25 20.6787 40.25 19.215 38.785C17.75 37.3212 17.75 34.9637 17.75 30.25V27.75ZM36.5 23.375C36.5 23.8723 36.3025 24.3492 35.9508 24.7008C35.5992 25.0525 35.1223 25.25 34.625 25.25C34.1277 25.25 33.6508 25.0525 33.2992 24.7008C32.9475 24.3492 32.75 23.8723 32.75 23.375C32.75 22.8777 32.9475 22.4008 33.2992 22.0492C33.6508 21.6975 34.1277 21.5 34.625 21.5C35.1223 21.5 35.5992 21.6975 35.9508 22.0492C36.3025 22.4008 36.5 22.8777 36.5 23.375ZM31.5 30.25C31.5 30.913 31.2366 31.5489 30.7678 32.0178C30.2989 32.4866 29.663 32.75 29 32.75C28.337 32.75 27.7011 32.4866 27.2322 32.0178C26.7634 31.5489 26.5 30.913 26.5 30.25C26.5 29.587 26.7634 28.9511 27.2322 28.4822C27.7011 28.0134 28.337 27.75 29 27.75C29.663 27.75 30.2989 28.0134 30.7678 28.4822C31.2366 28.9511 31.5 29.587 31.5 30.25ZM34 30.25C34 31.5761 33.4732 32.8479 32.5355 33.7855C31.5979 34.7232 30.3261 35.25 29 35.25C27.6739 35.25 26.4021 34.7232 25.4645 33.7855C24.5268 32.8479 24 31.5761 24 30.25C24 28.9239 24.5268 27.6521 25.4645 26.7145C26.4021 25.7768 27.6739 25.25 29 25.25C30.3261 25.25 31.5979 25.7768 32.5355 26.7145C33.4732 27.6521 34 28.9239 34 30.25Z" fill="#959595"/>
</svg>
